<svg width="42" height="43" viewBox="0 0 42 43" fill="none" xmlns="http://www.w3.org/2000/svg">
<path d="M0 21.9961C0 10.3981 9.40202 0.996094 21 0.996094C32.598 0.996094 42 10.3981 42 21.9961C42 33.5941 32.598 42.9961 21 42.9961C9.40202 42.9961 0 33.5941 0 21.9961Z" fill="#E6F5F6"/>
<path d="M12.125 19.1216L20.9971 13.8809L29.8693 19.1216C29.9563 19.1731 30.0522 19.1976 30.1468 19.1976C30.3338 19.1976 30.5161 19.1016 30.6182 18.929C30.7719 18.6691 30.6856 18.3338 30.4253 18.1801L21.2753 12.775C21.1037 12.6739 20.8909 12.6739 20.7193 12.775L11.569 18.1801C11.309 18.3338 11.2227 18.6691 11.3761 18.929C11.5298 19.189 11.8651 19.2753 12.125 19.1216Z" fill="#0898A0"/>
<path d="M30.1473 28.6055H11.8467C11.5448 28.6055 11.2999 28.8503 11.2999 29.1522C11.2999 29.4541 11.5448 29.6989 11.8467 29.6989H30.1473C30.4492 29.6989 30.694 29.4541 30.694 29.1522C30.694 28.8499 30.4492 28.6055 30.1473 28.6055Z" fill="#0898A0"/>
<path d="M16.7978 19.9646C17.0997 19.9646 17.3445 19.7197 17.3445 19.4178C17.3445 19.1159 17.0997 18.8711 16.7978 18.8711H14.9664C14.6645 18.8711 14.4197 19.1159 14.4197 19.4178C14.4197 19.7197 14.6645 19.9646 14.9664 19.9646H15.3354V26.5562H14.9664C14.6645 26.5562 14.4197 26.8011 14.4197 27.103C14.4197 27.4049 14.6645 27.6497 14.9664 27.6497H16.7978C17.0997 27.6497 17.3445 27.4049 17.3445 27.103C17.3445 26.8011 17.0997 26.5562 16.7978 26.5562H16.4288V19.9646H16.7978Z" fill="#0898A0"/>
<path d="M27.0275 19.9489C27.3294 19.9489 27.5742 19.7041 27.5742 19.4022C27.5742 19.1003 27.3294 18.8555 27.0275 18.8555H25.1961C24.8942 18.8555 24.6494 19.1003 24.6494 19.4022C24.6494 19.7041 24.8942 19.9489 25.1961 19.9489H25.5651V26.5406H25.1961C24.8942 26.5406 24.6494 26.7854 24.6494 27.0873C24.6494 27.3893 24.8942 27.6341 25.1961 27.6341H27.0275C27.3294 27.6341 27.5742 27.3893 27.5742 27.0873C27.5742 26.7854 27.3294 26.5406 27.0275 26.5406H26.6586V19.9489H27.0275Z" fill="#0898A0"/>
<path d="M23.2731 22.551C23.3944 22.551 23.4947 22.5968 23.574 22.6882C23.658 22.7796 23.7 22.8968 23.7 23.0396C23.7 23.1825 23.658 23.3025 23.574 23.3996C23.4947 23.491 23.3944 23.5368 23.2731 23.5368H22.9582V25.5768C22.9582 25.7253 22.9162 25.851 22.8323 25.9539C22.753 26.051 22.6527 26.0996 22.5314 26.0996C22.4661 26.0996 22.4008 26.0882 22.3354 26.0653C22.2748 26.0368 22.2305 25.9996 22.2025 25.9539L20.5931 23.451H19.6344V25.6196C19.6344 25.7568 19.5971 25.871 19.5225 25.9625C19.4525 26.0539 19.3592 26.0996 19.2426 26.0996C19.1306 26.0996 19.0396 26.0539 18.9697 25.9625C18.8997 25.871 18.8647 25.7568 18.8647 25.6196V23.5368H18.6268C18.5055 23.5368 18.4052 23.491 18.3259 23.3996C18.2419 23.3025 18.2 23.1825 18.2 23.0396C18.2 22.8968 18.2419 22.7796 18.3259 22.6882C18.4052 22.5968 18.5055 22.551 18.6268 22.551H18.8647V20.6225C18.8647 20.4739 18.9044 20.351 18.9837 20.2539C19.0676 20.151 19.1703 20.0996 19.2916 20.0996C19.3615 20.0996 19.4292 20.1168 19.4945 20.151C19.5645 20.1853 19.6158 20.231 19.6484 20.2882L21.1529 22.6368H22.1955V20.5796C22.1955 20.4425 22.2305 20.3282 22.3005 20.2368C22.3751 20.1453 22.4684 20.0996 22.5804 20.0996C22.6923 20.0996 22.7833 20.1453 22.8533 20.2368C22.9232 20.3282 22.9582 20.4425 22.9582 20.5796V22.551H23.2731ZM20.0683 22.6368L19.6344 21.9596V22.6368H20.0683ZM21.6707 23.451L22.1955 24.2653V23.451H21.6707Z" fill="#0898A0"/>
</svg>
