<svg width="42" height="42" viewBox="0 0 42 42" fill="none" xmlns="http://www.w3.org/2000/svg">
<path d="M0 21C0 9.40202 9.40202 0 21 0C32.598 0 42 9.40202 42 21C42 32.598 32.598 42 21 42C9.40202 42 0 32.598 0 21Z" fill="#E6F5F6"/>
<path d="M20.9995 29.5C25.6521 29.5 29.4995 25.6525 29.4995 21C29.4995 16.3475 25.6521 12.5 20.991 12.5C16.3385 12.5 12.4995 16.3475 12.4995 21C12.4995 25.6525 16.347 29.5 20.9995 29.5ZM20.9995 28.4068C16.8978 28.4068 13.6012 25.1017 13.6012 21C13.6012 16.8983 16.8978 13.6017 20.991 13.6017C25.0927 13.6017 28.3978 16.8983 28.4063 21C28.4063 25.1017 25.1012 28.4068 20.9995 28.4068ZM20.9826 25.0254C21.33 25.0254 21.5419 24.7881 21.5419 24.4237V21.5508H24.508C24.8639 21.5508 25.1097 21.3475 25.1097 21.0169C25.1097 20.6695 24.8724 20.4576 24.508 20.4576H21.5419V17.4915C21.5419 17.1186 21.33 16.8814 20.9826 16.8814C20.6436 16.8814 20.4487 17.1271 20.4487 17.4915V20.4576H17.491C17.1182 20.4576 16.8724 20.6695 16.8724 21.0169C16.8724 21.3475 17.1351 21.5508 17.491 21.5508H20.4487V24.4237C20.4487 24.7797 20.6436 25.0254 20.9826 25.0254Z" fill="#0898A0"/>
</svg>
