<svg width="42" height="42" viewBox="0 0 42 42" fill="none" xmlns="http://www.w3.org/2000/svg">
<path d="M0 21C0 9.40202 9.40202 0 21 0C32.598 0 42 9.40202 42 21C42 32.598 32.598 42 21 42C9.40202 42 0 32.598 0 21Z" fill="#E6F5F6"/>
<path fill-rule="evenodd" clip-rule="evenodd" d="M21.9812 19.8V15.55C21.9812 15.1358 21.5156 14.8 20.9412 14.8C20.3668 14.8 19.9012 15.1358 19.9012 15.55V19.8H15.7012C15.1489 19.8 14.7012 20.2477 14.7012 20.8C14.7012 21.3523 15.1489 21.8 15.7012 21.8H19.9012V26.05C19.9012 26.4642 20.3668 26.8 20.9412 26.8C21.5156 26.8 21.9812 26.4642 21.9812 26.05V21.8H26.1812C26.7335 21.8 27.1812 21.3523 27.1812 20.8C27.1812 20.2477 26.7335 19.8 26.1812 19.8H21.9812Z" fill="#0898A0"/>
</svg>
