<svg width="42" height="42" viewBox="0 0 42 42" >
<path d="M0 21C0 9.40202 9.40202 0 21 0C32.598 0 42 9.40202 42 21C42 32.598 32.598 42 21 42C9.40202 42 0 32.598 0 21Z" fill="white"/>
<path opacity="0.1" d="M0 21C0 9.40202 9.40202 0 21 0C32.598 0 42 9.40202 42 21C42 32.598 32.598 42 21 42C9.40202 42 0 32.598 0 21Z" fill="#FF9C00"/>
<path d="M15.136 27.8008H26.864C28.1698 27.8008 29 26.8496 29 25.6647C29 25.3101 28.9033 24.9474 28.7098 24.6169L22.8338 14.3721C22.4307 13.6708 21.7214 13.3 20.996 13.3C20.2786 13.3 19.5612 13.6708 19.1582 14.3721L13.2821 24.6169C13.0887 24.9554 13 25.3101 13 25.6647C13 26.8496 13.8302 27.8008 15.136 27.8008ZM15.1924 26.5111C14.6766 26.5111 14.338 26.092 14.338 25.6406C14.338 25.5035 14.3622 25.3504 14.4348 25.1972L20.2625 15.033C20.4237 14.7509 20.7139 14.6219 20.996 14.6219C21.2861 14.6219 21.5683 14.7509 21.7295 15.033L27.5491 25.2053C27.6217 25.3504 27.662 25.5035 27.662 25.6406C27.662 26.092 27.3073 26.5111 26.7995 26.5111H15.1924ZM21.004 22.6098C21.3829 22.6098 21.6005 22.3922 21.6166 21.9811L21.7214 18.0718C21.7375 17.6688 21.4151 17.3625 20.996 17.3625C20.5607 17.3625 20.2544 17.6607 20.2705 18.0718L20.3753 21.9811C20.3834 22.3841 20.601 22.6098 21.004 22.6098ZM21.004 25.1005C21.4554 25.1005 21.8504 24.7539 21.8504 24.2945C21.8504 23.835 21.4635 23.4884 21.004 23.4884C20.5365 23.4884 20.1496 23.8431 20.1496 24.2945C20.1496 24.7459 20.5446 25.1005 21.004 25.1005Z" fill="#FF9C00"/>
</svg>
