<svg color="#0898A0" width="16" height="16" viewBox="0 0 16 16" fill="none" xmlns="http://www.w3.org/2000/svg">
<rect width="16" height="16" rx="2" fill="currentColor"/>
<path d="M5.12183 7.8501H10.875V11.3188C10.875 11.4432 10.8256 11.5624 10.7377 11.6503C10.6498 11.7382 10.5305 11.7876 10.4062 11.7876H5.59058C5.46626 11.7876 5.34703 11.7382 5.25912 11.6503C5.17121 11.5624 5.12183 11.4432 5.12183 11.3188V7.8501V7.8501Z" stroke="white" stroke-width="0.6" stroke-linecap="round" stroke-linejoin="round"/>
<path d="M11.3218 6.33447H4.6781C4.41922 6.33447 4.20935 6.54434 4.20935 6.80322V7.38135C4.20935 7.64023 4.41922 7.8501 4.6781 7.8501H11.3218C11.5807 7.8501 11.7906 7.64023 11.7906 7.38135V6.80322C11.7906 6.54434 11.5807 6.33447 11.3218 6.33447Z" stroke="white" stroke-width="0.6" stroke-linecap="round" stroke-linejoin="round"/>
<path d="M7.98755 6.33447V11.7876" stroke="white" stroke-width="0.6" stroke-linecap="round" stroke-linejoin="round"/>
<path d="M6.94067 4.2124C7.22164 4.2124 7.49109 4.32401 7.68977 4.52269C7.88844 4.72136 8.00005 4.99081 8.00005 5.27178V6.33115H6.94067C6.80129 6.33156 6.6632 6.30447 6.53431 6.25141C6.40542 6.19836 6.28826 6.12039 6.18956 6.02198C6.09086 5.92356 6.01255 5.80664 5.95911 5.67791C5.90568 5.54917 5.87817 5.41116 5.87817 5.27178V5.27178C5.87817 4.99081 5.98979 4.72136 6.18846 4.52269C6.38713 4.32401 6.65659 4.2124 6.93755 4.2124H6.94067Z" stroke="white" stroke-width="0.6" stroke-linecap="round" stroke-linejoin="round"/>
<path d="M9.06245 6.33447H8.00308V5.2751C8.00308 4.99413 8.11469 4.72468 8.31336 4.52601C8.51203 4.32733 8.78149 4.21572 9.06245 4.21572C9.34342 4.21572 9.61287 4.32733 9.81154 4.52601C10.0102 4.72468 10.1218 4.99413 10.1218 5.2751V5.2751C10.1218 5.55606 10.0102 5.82552 9.81154 6.02419C9.61287 6.22286 9.34342 6.33447 9.06245 6.33447V6.33447Z" stroke="white" stroke-width="0.6" stroke-linecap="round" stroke-linejoin="round"/>
</svg>
