<svg color="#0898A0" width="16" height="16" viewBox="0 0 16 16" fill="none" xmlns="http://www.w3.org/2000/svg">
<rect width="16" height="16" rx="2" fill="currentColor"/>
<path d="M6.125 10.8125H5.25C4.69772 10.8125 4.25 10.3648 4.25 9.8125V6.1875C4.25 5.63522 4.69772 5.1875 5.25 5.1875H6.125" stroke="white" stroke-width="0.6"/>
<rect x="6.125" y="4.25" width="5.625" height="7.5" rx="1" stroke="white" stroke-width="0.6"/>
<path d="M8.9011 9.61784C8.87459 9.61784 8.84809 9.61784 8.84809 9.59134C8.82159 9.56484 8.82159 9.56484 8.82159 9.53834V9.27331C8.63607 9.2468 8.50355 9.2203 8.37104 9.14079C8.23853 9.06128 8.15902 8.98178 8.10601 8.90227C8.05301 8.82276 8 8.71675 8 8.61074C8 8.58423 8 8.58423 8.0265 8.55773C8.05301 8.53123 8.05301 8.53123 8.07951 8.53123H8.37104C8.39754 8.53123 8.42405 8.53123 8.45055 8.55773C8.47705 8.55773 8.47705 8.58423 8.47705 8.61074C8.50355 8.66374 8.53006 8.69024 8.55656 8.74325C8.58306 8.79626 8.66257 8.82276 8.71558 8.84926C8.76858 8.87576 8.87459 8.90227 8.98061 8.90227C9.16613 8.90227 9.27214 8.87576 9.37815 8.82276C9.45766 8.76975 9.51066 8.69024 9.51066 8.58423C9.51066 8.50472 9.48416 8.45172 9.43115 8.42521C9.37815 8.37221 9.32514 8.34571 9.21913 8.3192C9.11312 8.2927 9.00711 8.23969 8.84809 8.21319C8.66257 8.16019 8.53006 8.10718 8.39754 8.05418C8.26503 8.00117 8.18552 7.92166 8.13251 7.81565C8.07951 7.70964 8.05301 7.60363 8.05301 7.47111C8.05301 7.28559 8.13251 7.12658 8.26503 6.99406C8.39754 6.86155 8.58306 6.78204 8.82159 6.75553V6.51701C8.82159 6.49051 8.82159 6.464 8.84809 6.464C8.87459 6.4375 8.87459 6.4375 8.9011 6.4375H9.11312C9.13962 6.4375 9.16613 6.4375 9.16613 6.464C9.19263 6.49051 9.19263 6.49051 9.19263 6.51701V6.78204C9.35165 6.80854 9.48416 6.86155 9.59017 6.91455C9.69618 6.96756 9.77569 7.07357 9.8552 7.15308C9.90821 7.23259 9.93471 7.3386 9.93471 7.41811C9.93471 7.44461 9.93471 7.44461 9.90821 7.47111C9.90821 7.49761 9.8817 7.49761 9.8552 7.49761H9.51066C9.48416 7.49761 9.45766 7.49761 9.45766 7.47111C9.43115 7.47111 9.43115 7.44461 9.40465 7.41811C9.40465 7.3386 9.35165 7.28559 9.27214 7.23259C9.19263 7.17958 9.08662 7.15308 8.9541 7.15308C8.82159 7.15308 8.71558 7.17958 8.63607 7.23259C8.55656 7.28559 8.53006 7.3651 8.53006 7.44461C8.53006 7.52412 8.55656 7.57712 8.58306 7.60363C8.60957 7.63013 8.68907 7.68314 8.76858 7.70964C8.84809 7.73614 8.98061 7.78915 9.11312 7.81565C9.32514 7.86865 9.48416 7.92166 9.61667 7.97467C9.74919 8.02767 9.8287 8.10718 9.90821 8.21319C9.96121 8.2927 9.98771 8.42521 9.98771 8.55773C9.98771 8.69024 9.96121 8.82276 9.8817 8.92877C9.80219 9.03478 9.72269 9.11429 9.59017 9.1938C9.45766 9.2468 9.32514 9.29981 9.13962 9.32631V9.56484C9.13962 9.59134 9.13962 9.61784 9.11312 9.61784C9.08662 9.64435 9.08662 9.64435 9.06011 9.64435H8.9011V9.61784Z" fill="white"/>
</svg>
