<svg color="#EB5757" width="16" height="16" viewBox="0 0 16 16" fill="none" xmlns="http://www.w3.org/2000/svg">
<rect width="16" height="16" rx="2" fill="currentColor"/>
<path d="M7.34783 10.1773L7.17391 3H8.75652L8.58261 10.1773H7.34783ZM8.0087 13C7.71884 13 7.47536 12.9244 7.27826 12.7731C7.09275 12.6123 7 12.4184 7 12.1915C7 11.9645 7.09275 11.7754 7.27826 11.6241C7.47536 11.4634 7.71884 11.383 8.0087 11.383C8.28696 11.383 8.51884 11.4634 8.70435 11.6241C8.90145 11.7754 9 11.9645 9 12.1915C9 12.4184 8.90145 12.6123 8.70435 12.7731C8.51884 12.9244 8.28696 13 8.0087 13Z" fill="white"/>
</svg>
