<svg color="#0898A0" width="16" height="16" viewBox="0 0 16 16" fill="none" xmlns="http://www.w3.org/2000/svg">
<rect width="16" height="16" rx="2" fill="currentColor"/>
<g clip-path="url(#clip0_10_2740)">
<path d="M10.5574 6.97998H4.91744C4.56743 6.97998 4.28369 7.26372 4.28369 7.61373V11.4387C4.28369 11.7887 4.56743 12.0725 4.91744 12.0725H10.5574C10.9075 12.0725 11.1912 11.7887 11.1912 11.4387V7.61373C11.1912 7.26372 10.9075 6.97998 10.5574 6.97998Z" stroke="white" stroke-width="0.6" stroke-miterlimit="10"/>
<path d="M9.74002 6.97987V5.92612C9.71769 5.4105 9.49715 4.92342 9.12441 4.56647C8.75166 4.20951 8.25549 4.01025 7.73939 4.01025C7.2233 4.01025 6.72713 4.20951 6.35438 4.56647C5.98164 4.92342 5.7611 5.4105 5.73877 5.92612V6.97987" stroke="white" stroke-width="0.6" stroke-miterlimit="10"/>
<path d="M7.71876 10.7974C8.42085 10.7974 8.99001 10.2282 8.99001 9.52613C8.99001 8.82404 8.42085 8.25488 7.71876 8.25488C7.01667 8.25488 6.44751 8.82404 6.44751 9.52613C6.44751 10.2282 7.01667 10.7974 7.71876 10.7974Z" stroke="white" stroke-width="0.6" stroke-miterlimit="10" stroke-linecap="round"/>
</g>
<defs>
<clipPath id="clip0_10_2740">
<rect width="12" height="12" fill="white" transform="translate(2 2)"/>
</clipPath>
</defs>
</svg>
