<svg width="107" height="107" viewBox="0 0 107 107" fill="none" xmlns="http://www.w3.org/2000/svg">
<path d="M0 53.5C0 23.9528 23.9528 0 53.5 0C83.0472 0 107 23.9528 107 53.5C107 83.0472 83.0472 107 53.5 107C23.9528 107 0 83.0472 0 53.5Z" fill="#E6F5F6"/>
<path d="M40.3867 59.8359C40.3867 61.9193 39.6641 63.6055 38.2188 64.8945C36.7865 66.1706 34.9245 66.9258 32.6328 67.1602V70.9688H29.6641V67.1602C27.3724 66.8997 25.5234 66.099 24.1172 64.7578C22.724 63.4036 21.9753 61.6719 21.8711 59.5625H27.2812C27.3333 60.526 27.6979 61.2943 28.375 61.8672C29.0521 62.4401 30.0156 62.7266 31.2656 62.7266C32.4115 62.7266 33.2839 62.4922 33.8828 62.0234C34.4948 61.5547 34.8008 60.9362 34.8008 60.168C34.8008 59.6081 34.651 59.1589 34.3516 58.8203C34.0651 58.4818 33.707 58.2214 33.2773 58.0391C32.8477 57.8568 32.2031 57.6289 31.3438 57.3555L28.8242 56.5547C27.7305 56.2031 26.7279 55.806 25.8164 55.3633C24.918 54.9076 24.0977 54.2044 23.3555 53.2539C22.6133 52.2904 22.2422 51.0469 22.2422 49.5234C22.2422 47.4661 22.9062 45.7734 24.2344 44.4453C25.5625 43.1042 27.3724 42.3294 29.6641 42.1211V38.2734H32.6328V42.1602C34.7943 42.4596 36.5065 43.2734 37.7695 44.6016C39.0326 45.9297 39.6771 47.6094 39.7031 49.6406H34.3516C34.3255 48.6771 34 47.9154 33.375 47.3555C32.75 46.7956 31.8906 46.5156 30.7969 46.5156C29.7552 46.5156 28.9609 46.7435 28.4141 47.1992C27.8672 47.6549 27.5938 48.2669 27.5938 49.0352C27.5938 49.8034 27.9258 50.3893 28.5898 50.793C29.2539 51.1966 30.1589 51.5612 31.3047 51.8867L34.5078 52.8438C36.5391 53.4297 38.0234 54.3281 38.9609 55.5391C39.9115 56.75 40.3867 58.1823 40.3867 59.8359ZM55.1133 50.7539C56.8451 50.7539 58.3815 51.1315 59.7227 51.8867C61.0768 52.6289 62.1315 53.6641 62.8867 54.9922C63.6419 56.3073 64.0195 57.7917 64.0195 59.4453C64.0195 61.1771 63.5768 62.7266 62.6914 64.0938C61.819 65.4479 60.6276 66.4961 59.1172 67.2383C57.6198 67.9805 55.9336 68.3516 54.0586 68.3516C52.2227 68.3516 50.5755 67.987 49.1172 67.2578C47.6719 66.5286 46.5326 65.5 45.6992 64.1719C44.8789 62.8307 44.4688 61.2943 44.4688 59.5625H50.0742C50.0742 60.6823 50.4453 61.5938 51.1875 62.2969C51.9297 63 52.8737 63.3516 54.0195 63.3516C55.2174 63.3516 56.2201 62.9805 57.0273 62.2383C57.8477 61.4961 58.2578 60.5391 58.2578 59.3672C58.2578 58.2214 57.8737 57.2839 57.1055 56.5547C56.3372 55.8125 55.3216 55.4414 54.0586 55.4414C53.2904 55.4414 52.5742 55.5977 51.9102 55.9102C51.2461 56.2096 50.7122 56.6003 50.3086 57.082L44.8594 56.5156L48.1797 42.3555H62.3008V47.2383H52.5156L51.3828 51.4766C52.3464 50.9948 53.5898 50.7539 55.1133 50.7539ZM77.0469 68.4492C74.9375 68.4492 73.1081 67.9154 71.5586 66.8477C70.0221 65.7799 68.8438 64.2435 68.0234 62.2383C67.2161 60.2331 66.8125 57.8893 66.8125 55.207C66.8125 52.4857 67.2161 50.1159 68.0234 48.0977C68.8438 46.0794 70.0156 44.5365 71.5391 43.4688C73.0755 42.388 74.9115 41.8477 77.0469 41.8477C79.1562 41.8477 80.9857 42.388 82.5352 43.4688C84.0977 44.5365 85.2956 46.0794 86.1289 48.0977C86.9753 50.1159 87.3984 52.4857 87.3984 55.207C87.3984 57.9023 86.9753 60.2526 86.1289 62.2578C85.2956 64.25 84.0977 65.7799 82.5352 66.8477C80.9857 67.9154 79.1562 68.4492 77.0469 68.4492ZM77.0859 63.3906C78.5833 63.3906 79.7096 62.6875 80.4648 61.2812C81.2201 59.862 81.5977 57.8372 81.5977 55.207C81.5977 52.5638 81.2201 50.5326 80.4648 49.1133C79.7096 47.681 78.5833 46.9648 77.0859 46.9648C75.6146 46.9648 74.4883 47.6745 73.707 49.0938C72.9388 50.5 72.5547 52.5378 72.5547 55.207C72.5547 57.8242 72.9388 59.8424 73.707 61.2617C74.4883 62.681 75.6146 63.3906 77.0859 63.3906Z" fill="#0898A0"/>
</svg>
