<svg width="89" height="91" viewBox="0 0 89 91" fill="none" xmlns="http://www.w3.org/2000/svg">
<rect y="11" width="80" height="80" rx="16" fill="#0898A0"/>
<path d="M14.0125 49.0494L13.881 42.6097H10V59.477H14.0125V52.8412C14.1112 47.7091 16.0846 46.042 21.3798 45.7152V42.3482C16.6437 42.3482 14.9005 44.1461 14.1441 49.0494H14.0125Z" fill="white"/>
<path d="M23.1946 59.477H27.2071V42.6097H23.1946V59.477Z" fill="white"/>
<path d="M37.5994 60C42.4013 60 45.2298 58.0387 45.2298 54.7372C45.2298 52.2201 43.6182 50.7819 40.2964 50.0627L35.8234 49.1147C34.4092 48.7879 33.6198 48.0687 33.6198 47.1534C33.6198 45.8132 34.9683 44.996 37.2048 44.996C39.6715 44.996 41.1186 46.1728 41.1186 48.1014H44.9667C44.9667 44.3095 42.0395 42.0867 37.0732 42.0867C32.5345 42.0867 29.6731 44.1134 29.6731 47.2515C29.6731 49.8012 31.5478 51.4029 34.6394 52.024L38.915 52.9393C40.6582 53.3316 41.2502 53.8873 41.2502 54.9006C41.2502 56.2735 39.8688 57.0907 37.6323 57.0907C34.9025 57.0907 33.3567 55.9793 33.2251 53.9853H29.2784C29.4099 57.8426 32.37 60 37.5994 60Z" fill="white"/>
<path d="M63.4282 50.4877C63.4282 45.8459 60.238 42.0867 55.0414 42.0867C49.812 42.0867 46.3586 45.4863 46.3586 50.978C46.3586 56.9273 49.8778 60 55.2388 60C59.021 60 62.7704 57.7445 63.2967 53.5931H59.6459C59.2184 55.489 57.6068 56.8946 55.2388 56.8946C52.3445 56.8946 50.3053 55.064 50.2067 51.7952H63.4282V50.4877ZM54.877 45.1921C57.541 45.1921 59.2842 46.8266 59.4815 49.5397H50.2067C50.404 46.6631 52.3774 45.1921 54.877 45.1921Z" fill="white"/>
<path d="M70 44.5892C70 46.0191 68.8337 47.1784 67.3949 47.1784C65.9561 47.1784 64.7898 46.0191 64.7898 44.5892C64.7898 43.1592 65.9561 42 67.3949 42C68.8337 42 70 43.1592 70 44.5892Z" fill="white"/>
<circle cx="75.5" cy="13.5" r="13.5" fill="#EB5757"/>
</svg>
