<svg width="15" height="9" viewBox="0 0 15 9" fill="none" xmlns="http://www.w3.org/2000/svg">
<path d="M0.446289 0.799805C0.446289 1.01563 0.529297 1.19824 0.67041 1.33936L7.10352 7.92188C7.26123 8.07959 7.45215 8.1626 7.65967 8.1626C7.87549 8.1626 8.07471 8.07959 8.21582 7.92188L14.6406 1.34766C14.79 1.19824 14.873 1.01562 14.873 0.799805C14.873 0.368164 14.541 0.0444336 14.1094 0.0444336C13.9102 0.0444336 13.7109 0.127441 13.5698 0.260254L7.65967 6.30322L1.74951 0.260254C1.6084 0.127441 1.41748 0.0444336 1.20996 0.0444336C0.77832 0.0444336 0.446289 0.368164 0.446289 0.799805Z" fill="#0898A0"/>
</svg>
