<svg width="42" height="42" viewBox="0 0 42 42" fill="none" xmlns="http://www.w3.org/2000/svg">
<rect width="42" height="42" rx="21" fill="#71879C" fill-opacity="0.1"/>
<path d="M13.1131 19.1532L20.9994 14.4948L28.8858 19.1532C28.9631 19.1991 29.0484 19.2208 29.1324 19.2208C29.2987 19.2208 29.4607 19.1355 29.5515 18.982C29.6881 18.751 29.6114 18.453 29.38 18.3163L21.2467 13.5119C21.0942 13.422 20.905 13.422 20.7524 13.5119L12.6188 18.3163C12.3878 18.453 12.311 18.751 12.4474 18.982C12.584 19.2131 12.882 19.2898 13.1131 19.1532Z" fill="#0898A0"/>
<path d="M29.1331 27.5836H12.8659C12.5975 27.5836 12.3799 27.8012 12.3799 28.0696C12.3799 28.338 12.5975 28.5556 12.8659 28.5556H29.1331C29.4014 28.5556 29.6191 28.338 29.6191 28.0696C29.6191 27.8009 29.4014 27.5836 29.1331 27.5836Z" fill="#0898A0"/>
<path d="M17.2672 19.9016C17.5355 19.9016 17.7532 19.684 17.7532 19.4157C17.7532 19.1473 17.5355 18.9297 17.2672 18.9297H15.6393C15.3709 18.9297 15.1533 19.1473 15.1533 19.4157C15.1533 19.684 15.3709 19.9016 15.6393 19.9016H15.9673V25.7609H15.6393C15.3709 25.7609 15.1533 25.9786 15.1533 26.2469C15.1533 26.5153 15.3709 26.7329 15.6393 26.7329H17.2672C17.5355 26.7329 17.7532 26.5153 17.7532 26.2469C17.7532 25.9786 17.5355 25.7609 17.2672 25.7609H16.9392V19.9016H17.2672Z" fill="#0898A0"/>
<path d="M21.8131 19.8954C22.0814 19.8954 22.2991 19.6778 22.2991 19.4094C22.2991 19.1411 22.0814 18.9235 21.8131 18.9235H20.1852C19.9168 18.9235 19.6992 19.1411 19.6992 19.4094C19.6992 19.6778 19.9168 19.8954 20.1852 19.8954H20.5132V25.7547H20.1852C19.9168 25.7547 19.6992 25.9723 19.6992 26.2407C19.6992 26.509 19.9168 26.7267 20.1852 26.7267H21.8131C22.0814 26.7267 22.2991 26.509 22.2991 26.2407C22.2991 25.9723 22.0814 25.7547 21.8131 25.7547H21.4851V19.8954H21.8131Z" fill="#0898A0"/>
<path d="M26.36 19.8887C26.6283 19.8887 26.8459 19.6711 26.8459 19.4027C26.8459 19.1344 26.6283 18.9167 26.36 18.9167H24.7321C24.4637 18.9167 24.2461 19.1344 24.2461 19.4027C24.2461 19.6711 24.4637 19.8887 24.7321 19.8887H25.06V25.748H24.7321C24.4637 25.748 24.2461 25.9656 24.2461 26.234C24.2461 26.5023 24.4637 26.72 24.7321 26.72H26.36C26.6283 26.72 26.8459 26.5023 26.8459 26.234C26.8459 25.9656 26.6283 25.748 26.36 25.748H26.032V19.8887H26.36Z" fill="#0898A0"/>
</svg>
