<svg width="60" height="60" viewBox="0 0 60 60" fill="none" xmlns="http://www.w3.org/2000/svg">
<rect width="60" height="60" rx="30" fill="#71879C" fill-opacity="0.1"/>
<path d="M18.7339 27.3624L30.0001 20.7075L41.2663 27.3624C41.3768 27.4279 41.4986 27.4589 41.6187 27.4589C41.8562 27.4589 42.0877 27.3371 42.2173 27.1179C42.4125 26.7878 42.3029 26.362 41.9724 26.1669L30.3534 19.3033C30.1355 19.1749 29.8652 19.1749 29.6473 19.3033L18.0279 26.1669C17.6978 26.362 17.5882 26.7878 17.7829 27.1179C17.9781 27.448 18.4038 27.5576 18.7339 27.3624Z" fill="#71879C"/>
<path d="M41.6197 39.4053H18.3808C17.9974 39.4053 17.6865 39.7162 17.6865 40.0995C17.6865 40.4829 17.9974 40.7938 18.3808 40.7938H41.6197C42.003 40.7938 42.3139 40.4829 42.3139 40.0995C42.3139 39.7157 42.003 39.4053 41.6197 39.4053Z" fill="#71879C"/>
<path d="M24.6673 28.4315C25.0506 28.4315 25.3615 28.1206 25.3615 27.7372C25.3615 27.3539 25.0506 27.043 24.6673 27.043H22.3417C21.9584 27.043 21.6475 27.3539 21.6475 27.7372C21.6475 28.1206 21.9584 28.4315 22.3417 28.4315H22.8102V36.8019H22.3417C21.9584 36.8019 21.6475 37.1128 21.6475 37.4961C21.6475 37.8795 21.9584 38.1904 22.3417 38.1904H24.6673C25.0506 38.1904 25.3615 37.8795 25.3615 37.4961C25.3615 37.1128 25.0506 36.8019 24.6673 36.8019H24.1988V28.4315H24.6673Z" fill="#71879C"/>
<path d="M31.1624 28.4227C31.5458 28.4227 31.8566 28.1118 31.8566 27.7284C31.8566 27.3451 31.5458 27.0342 31.1624 27.0342H28.8368C28.4535 27.0342 28.1426 27.3451 28.1426 27.7284C28.1426 28.1118 28.4535 28.4227 28.8368 28.4227H29.3054V36.7931H28.8368C28.4535 36.7931 28.1426 37.104 28.1426 37.4874C28.1426 37.8707 28.4535 38.1816 28.8368 38.1816H31.1624C31.5458 38.1816 31.8566 37.8707 31.8566 37.4874C31.8566 37.104 31.5458 36.7931 31.1624 36.7931H30.6939V28.4227H31.1624Z" fill="#71879C"/>
<path d="M37.6585 28.4129C38.0418 28.4129 38.3527 28.102 38.3527 27.7187C38.3527 27.3353 38.0418 27.0244 37.6585 27.0244H35.3329C34.9496 27.0244 34.6387 27.3353 34.6387 27.7187C34.6387 28.102 34.9496 28.4129 35.3329 28.4129H35.8014V36.7833H35.3329C34.9496 36.7833 34.6387 37.0942 34.6387 37.4776C34.6387 37.861 34.9496 38.1718 35.3329 38.1718H37.6585C38.0418 38.1718 38.3527 37.861 38.3527 37.4776C38.3527 37.0942 38.0418 36.7833 37.6585 36.7833H37.19V28.4129H37.6585Z" fill="#71879C"/>
</svg>
