<svg width="61" height="61" viewBox="0 0 61 61" fill="none" xmlns="http://www.w3.org/2000/svg">
<rect x="0.53418" y="0.0341797" width="60" height="60" rx="30" fill="#71879C" fill-opacity="0.1"/>
<path d="M19.2691 27.3946L30.5353 20.7398L41.8015 27.3946C41.912 27.4601 42.0338 27.4911 42.1539 27.4911C42.3914 27.4911 42.6228 27.3693 42.7525 27.1501C42.9477 26.82 42.8381 26.3943 42.5075 26.1991L30.8885 19.3355C30.6706 19.2072 30.4004 19.2072 30.1825 19.3355L18.563 26.1991C18.2329 26.3943 18.1233 26.82 18.3181 27.1501C18.5133 27.4802 18.939 27.5898 19.2691 27.3946Z" fill="#0898A0"/>
<path d="M42.1548 39.4385H18.9159C18.5326 39.4385 18.2217 39.7494 18.2217 40.1327C18.2217 40.5161 18.5326 40.827 18.9159 40.827H42.1548C42.5382 40.827 42.8491 40.5161 42.8491 40.1327C42.8491 39.7489 42.5382 39.4385 42.1548 39.4385Z" fill="#0898A0"/>
<path d="M25.2014 28.4647C25.5848 28.4647 25.8957 28.1538 25.8957 27.7704C25.8957 27.3871 25.5848 27.0762 25.2014 27.0762H22.8759C22.4925 27.0762 22.1816 27.3871 22.1816 27.7704C22.1816 28.1538 22.4925 28.4647 22.8759 28.4647H23.3444V36.8351H22.8759C22.4925 36.8351 22.1816 37.146 22.1816 37.5293C22.1816 37.9127 22.4925 38.2236 22.8759 38.2236H25.2014C25.5848 38.2236 25.8957 37.9127 25.8957 37.5293C25.8957 37.146 25.5848 36.8351 25.2014 36.8351H24.7329V28.4647H25.2014Z" fill="#0898A0"/>
<path d="M31.6975 28.4559C32.0809 28.4559 32.3918 28.145 32.3918 27.7616C32.3918 27.3783 32.0809 27.0674 31.6975 27.0674H29.372C28.9886 27.0674 28.6777 27.3783 28.6777 27.7616C28.6777 28.145 28.9886 28.4559 29.372 28.4559H29.8405V36.8263H29.372C28.9886 36.8263 28.6777 37.1372 28.6777 37.5206C28.6777 37.9039 28.9886 38.2148 29.372 38.2148H31.6975C32.0809 38.2148 32.3918 37.9039 32.3918 37.5206C32.3918 37.1372 32.0809 36.8263 31.6975 36.8263H31.229V28.4559H31.6975V28.4559Z" fill="#0898A0"/>
<path d="M38.1917 28.4461C38.5751 28.4461 38.8859 28.1352 38.8859 27.7519C38.8859 27.3685 38.5751 27.0576 38.1917 27.0576H35.8661C35.4828 27.0576 35.1719 27.3685 35.1719 27.7519C35.1719 28.1352 35.4828 28.4461 35.8661 28.4461H36.3346V36.8165H35.8661C35.4828 36.8165 35.1719 37.1274 35.1719 37.5108C35.1719 37.8942 35.4828 38.2051 35.8661 38.2051H38.1917C38.5751 38.2051 38.8859 37.8942 38.8859 37.5108C38.8859 37.1274 38.5751 36.8165 38.1917 36.8165H37.7232V28.4461H38.1917V28.4461Z" fill="#0898A0"/>
</svg>
