<svg width="25" height="24" viewBox="0 0 25 24" fill="none" xmlns="http://www.w3.org/2000/svg">
  <path
    d="M4.61307 10.1531L12.4994 5.4947L20.3858 10.1531C20.4631 10.1989 20.5484 10.2206 20.6324 10.2206C20.7987 10.2206 20.9607 10.1354 21.0515 9.98192C21.1881 9.75085 21.1114 9.45285 20.88 9.31622L12.7467 4.51173C12.5942 4.42187 12.405 4.42187 12.2524 4.51173L4.11883 9.31622C3.88776 9.45285 3.81105 9.75085 3.94737 9.98192C4.08399 10.213 4.382 10.2897 4.61307 10.1531Z"
    fill="#0898A0" />
  <path
    d="M20.6331 18.584H4.36586C4.0975 18.584 3.87988 18.8016 3.87988 19.07C3.87988 19.3383 4.0975 19.5559 4.36586 19.5559H20.6331C20.9014 19.5559 21.1191 19.3383 21.1191 19.07C21.1191 18.8013 20.9014 18.584 20.6331 18.584Z"
    fill="#0898A0" />
  <path
    d="M8.76718 10.9016C9.03554 10.9016 9.25317 10.684 9.25317 10.4157C9.25317 10.1473 9.03554 9.92969 8.76718 9.92969H7.1393C6.87094 9.92969 6.65332 10.1473 6.65332 10.4157C6.65332 10.684 6.87094 10.9016 7.1393 10.9016H7.46726V16.7609H7.1393C6.87094 16.7609 6.65332 16.9786 6.65332 17.2469C6.65332 17.5153 6.87094 17.7329 7.1393 17.7329H8.76718C9.03554 17.7329 9.25317 17.5153 9.25317 17.2469C9.25317 16.9786 9.03554 16.7609 8.76718 16.7609H8.43922V10.9016H8.76718Z"
    fill="#0898A0" />
  <path
    d="M13.3131 10.8958C13.5814 10.8958 13.7991 10.6782 13.7991 10.4098C13.7991 10.1414 13.5814 9.92383 13.3131 9.92383H11.6852C11.4168 9.92383 11.1992 10.1414 11.1992 10.4098C11.1992 10.6782 11.4168 10.8958 11.6852 10.8958H12.0132V16.7551H11.6852C11.4168 16.7551 11.1992 16.9727 11.1992 17.2411C11.1992 17.5094 11.4168 17.727 11.6852 17.727H13.3131C13.5814 17.727 13.7991 17.5094 13.7991 17.2411C13.7991 16.9727 13.5814 16.7551 13.3131 16.7551H12.9851V10.8958H13.3131Z"
    fill="#0898A0" />
  <path
    d="M17.86 10.889C18.1283 10.889 18.3459 10.6713 18.3459 10.403C18.3459 10.1346 18.1283 9.91699 17.86 9.91699H16.2321C15.9637 9.91699 15.7461 10.1346 15.7461 10.403C15.7461 10.6713 15.9637 10.889 16.2321 10.889H16.56V16.7482H16.2321C15.9637 16.7482 15.7461 16.9659 15.7461 17.2342C15.7461 17.5026 15.9637 17.7202 16.2321 17.7202H17.86C18.1283 17.7202 18.3459 17.5026 18.3459 17.2342C18.3459 16.9659 18.1283 16.7482 17.86 16.7482H17.532V10.889H17.86Z"
    fill="#0898A0" />
</svg>
  