<svg width="179" height="110" viewBox="0 0 179 110" fill="none" xmlns="http://www.w3.org/2000/svg">
<g filter="url(#filter0_d_21334_159600)">
<rect x="20.5" y="18" width="138" height="70" rx="20" fill="white"/>
<path d="M55.8999 30.0092C56.7991 30.1015 57.7071 30.1661 58.6063 30.2953C60.8632 30.6091 63.0054 31.3105 65.0506 32.3441C65.4738 32.5564 65.6149 32.9071 65.4562 33.2762C65.2975 33.6454 64.9096 33.7653 64.4864 33.5531C62.3178 32.4548 60.0345 31.735 57.6366 31.5043C52.4265 31.0059 47.6571 32.3164 43.3815 35.5003C41.6536 36.7831 40.1814 38.3428 38.9295 40.1239C38.718 40.4193 38.4799 40.6131 38.1097 40.5208C37.6513 40.4008 37.4926 39.8471 37.8364 39.4041C38.4799 38.5735 39.1147 37.7152 39.8376 36.9493C43.4256 33.147 47.7718 30.9136 52.832 30.2123C53.5902 30.1107 54.3483 30.0738 55.1065 30C55.3709 30.0092 55.6354 30.0092 55.8999 30.0092Z" fill="#0898A0"/>
<path d="M77.5 53.6369C77.2972 53.8122 77.1121 54.0706 76.8741 54.1445C76.495 54.2644 76.2129 53.8768 76.1776 53.36C76.0718 51.9573 76.063 50.5268 75.8162 49.1425C74.8024 43.4576 72.043 38.8893 67.5735 35.4747C67.0269 35.0594 66.9475 34.5149 67.3971 34.2104C67.7233 33.9889 68.0054 34.1273 68.2875 34.3396C71.2232 36.5637 73.5065 39.36 75.1286 42.747C76.4686 45.5525 77.262 48.5149 77.4207 51.6527C77.4295 51.8188 77.4736 51.9849 77.5 52.1511C77.5 52.6494 77.5 53.1478 77.5 53.6369Z" fill="#0898A0"/>
<path d="M67.3967 58.0296C67.2116 59.9677 67.0264 61.9057 66.8325 63.8437C66.7796 64.3606 66.4887 64.5913 66.0743 64.5267C65.6776 64.4621 65.5013 64.1298 65.5718 63.6223C66.1889 59.4509 66.1449 55.2979 65.3426 51.1542C64.6109 47.3427 62.5745 44.611 59.0922 43.2175C53.5295 40.9841 46.7502 44.3342 45.6041 51.2465C45.3573 52.7323 45.5777 54.1997 45.7716 55.6855C45.9303 56.913 45.9039 58.1681 45.9127 59.4047C45.9215 59.8938 45.5689 60.2076 45.1986 60.1615C44.8283 60.1246 44.5639 59.8108 44.6344 59.3309C44.8724 57.559 44.414 55.8516 44.2729 54.1166C43.9644 50.3975 45.1633 47.2228 47.6582 44.6018C49.7828 42.3684 52.4011 41.2425 55.4161 41.2056C60.6086 41.1502 65.2985 45.0079 66.4975 50.3052C67.0705 52.8431 67.2909 55.4179 67.2909 58.0204C67.3173 58.0204 67.3526 58.0296 67.3967 58.0296Z" fill="#0898A0"/>
<path d="M55.4428 35.5576C62.9803 35.6314 69.6626 41.0118 71.5845 48.6624C71.8401 49.6684 71.9812 50.702 72.1663 51.7264C72.2457 52.1509 72.0165 52.4831 71.655 52.5477C71.2583 52.6216 70.9938 52.3816 70.8969 51.9202C70.5883 50.4897 70.412 49.0039 69.9271 47.638C67.8819 41.8516 63.9324 38.2708 58.1228 37.2188C49.8801 35.7329 42.325 41.141 40.5001 49.6591C40.456 49.8529 40.4296 50.056 40.3855 50.2498C40.2885 50.6835 39.98 50.9235 39.6361 50.8404C39.2747 50.7573 39.0719 50.4343 39.1336 50.0006C39.4069 48.2748 39.9359 46.6413 40.7293 45.1001C43.2418 40.2181 47.0678 37.1357 52.2603 35.9729C53.3006 35.7422 54.3761 35.696 55.4428 35.5576Z" fill="#0898A0"/>
<path d="M59.2954 57.0863C59.2249 64.3862 57.3736 70.1819 53.6886 75.3223C53.6092 75.433 53.5299 75.553 53.4417 75.6453C53.1861 75.9037 52.8951 75.9591 52.6042 75.7284C52.2957 75.4884 52.2516 75.1562 52.4455 74.8332C52.6483 74.4917 52.8951 74.1872 53.1155 73.8642C55.6986 70.0988 57.2678 65.909 57.8232 61.313C58.167 58.4244 58.0436 55.5451 57.4882 52.6934C57.1972 51.1983 56.0071 50.5246 54.6759 51.0784C53.7238 51.4752 53.3183 52.3612 53.5475 53.5701C54.1117 56.5787 54.1117 59.5873 53.5211 62.5866C53.4153 63.1496 53.1244 63.408 52.7012 63.3157C52.3133 63.2234 52.1634 62.8727 52.2692 62.319C52.7982 59.4673 52.8246 56.6156 52.2604 53.7639C51.8902 51.872 53.1684 49.9248 54.9492 49.5925C56.6595 49.2787 58.5372 50.6446 58.7929 52.4996C59.0485 54.3084 59.1984 56.1265 59.2954 57.0863Z" fill="#0898A0"/>
<path d="M55.5568 32.8074C56.3767 32.872 57.1965 32.9274 58.0164 33.0104C58.3514 33.0473 58.6511 33.2411 58.6071 33.6195C58.5806 33.8687 58.3955 34.1363 58.2104 34.3024C58.0957 34.404 57.8489 34.3394 57.655 34.3301C56.5442 34.3024 55.4246 34.1825 54.3138 34.2563C50.6376 34.487 47.3229 35.7883 44.4225 38.1508C40.6229 41.2425 38.3925 45.3308 37.6608 50.3051C37.3434 52.4646 37.458 54.6149 37.8547 56.7652C38.2162 58.7494 37.7401 60.5398 36.5059 62.0994C36.1621 62.5424 35.8095 62.607 35.4833 62.3209C35.1748 62.0441 35.1836 61.6565 35.5274 61.2319C36.5853 59.9399 36.8586 58.4633 36.55 56.8021C34.6282 46.4659 40.9843 36.0467 50.761 33.4626C52.3302 33.0473 53.9259 32.8258 55.5568 32.8074Z" fill="#0898A0"/>
<path d="M75.3659 58.0466C75.2249 59.8647 75.0927 61.692 74.9428 63.5101C74.8987 63.9992 74.6166 64.2299 74.2199 64.1745C73.832 64.1284 73.6292 63.8146 73.691 63.3255C74.0083 60.5107 74.1053 57.6867 73.8761 54.8627C73.6204 51.605 73.2413 48.3472 71.9366 45.3294C69.7768 40.3459 66.1799 36.9958 61.2696 35.1778C61.1461 35.1316 61.0139 35.104 60.8993 35.0394C60.5819 34.864 60.4761 34.5779 60.5731 34.2272C60.6701 33.8858 60.9257 33.7289 61.2519 33.7935C61.5252 33.8396 61.7897 33.9411 62.0453 34.0519C68.3574 36.6359 72.4391 41.3334 74.2023 48.1903C74.9163 50.8943 75.2778 54.6043 75.3659 58.0466Z" fill="#0898A0"/>
<path d="M55.5655 45.3384C51.2634 45.3107 47.9398 48.9099 48.1602 53.4043C48.2043 54.2441 48.4071 55.0655 48.504 55.9053C48.9801 60.0952 48.0721 63.9528 45.9298 67.5058C45.1188 68.8532 44.1226 70.0438 42.9854 71.0958C42.6416 71.4096 42.3242 71.4373 42.0421 71.1789C41.6983 70.8651 41.7512 70.4406 42.1743 70.0438C43.4614 68.8532 44.537 67.4782 45.3833 65.9185C47.1023 62.7161 47.7371 59.283 47.1729 55.6561C46.9348 54.1149 46.7673 52.6014 47.1023 51.051C47.9927 46.9996 51.4926 44.0279 55.4597 43.9818C55.7241 43.9818 55.9886 44.0002 56.2531 44.0371C56.6057 44.0925 56.7997 44.3509 56.782 44.7108C56.7644 45.0984 56.5352 45.3292 56.1561 45.3384C55.9445 45.3476 55.7506 45.3384 55.5655 45.3384Z" fill="#0898A0"/>
<path d="M64.6287 57.8539C64.5847 64.0556 63.1565 69.7313 60.2738 75.0102C60.1944 75.1578 60.1151 75.3055 60.0005 75.4255C59.7713 75.6562 59.4539 75.7023 59.2423 75.4808C59.0836 75.3055 59.0131 74.9917 58.9867 74.7333C58.969 74.5764 59.1277 74.4011 59.2159 74.2442C61.2964 70.4235 62.6099 66.3351 63.1124 61.9699C63.5356 58.2784 63.3945 54.6054 62.5747 50.9785C62.1427 49.0774 61.0407 47.6192 59.4627 46.5579C59.3657 46.4933 59.2599 46.4287 59.163 46.3641C58.7398 46.0872 58.6252 45.7273 58.8456 45.3674C59.0484 45.0259 59.4186 44.9613 59.8153 45.2013C61.9311 46.5302 63.3328 48.4406 63.9058 50.96C64.426 53.258 64.5935 55.6206 64.6287 57.8539Z" fill="#0898A0"/>
<path d="M69.9604 58.0002C69.9428 62.7807 69.1405 67.4044 67.5449 71.8803C67.5272 71.9357 67.5096 72.0003 67.4831 72.0556C67.3068 72.5079 66.9983 72.6832 66.6192 72.5448C66.2666 72.4156 66.1343 72.0464 66.2754 71.5942C66.6456 70.3945 67.0512 69.2132 67.3685 68.0042C68.4705 63.8974 68.8496 59.7076 68.5675 55.4623C68.4353 53.3766 68.1708 51.3094 67.6418 49.2883C67.2716 47.8671 66.6368 46.5751 65.8434 45.3661C65.7288 45.1907 65.5966 44.9139 65.6495 44.7478C65.72 44.5263 65.9492 44.231 66.1431 44.2033C66.3635 44.1756 66.6897 44.3417 66.8308 44.5355C67.7388 45.8091 68.4 47.2303 68.8408 48.7623C69.405 50.7372 69.643 52.786 69.8017 54.8348C69.8987 55.8776 69.9163 56.9389 69.9604 58.0002Z" fill="#0898A0"/>
<path d="M47.8693 42.1918C47.6489 42.4687 47.4902 42.7179 47.2874 42.9117C45.3921 44.619 44.0521 46.7047 43.338 49.2149C42.7473 51.2914 42.7032 53.3955 43.0647 55.5366C43.8405 60.1418 42.5446 64.0178 39.1858 67.1187C38.7538 67.5155 38.2954 67.4509 38.0838 66.9895C37.8987 66.5927 38.0926 66.325 38.3747 66.0758C39.8998 64.7469 40.993 63.1042 41.5836 61.1108C42.1302 59.2927 42.0509 57.4746 41.7688 55.6104C40.9313 50.0916 42.5975 45.4865 46.5734 41.7765C46.8114 41.5551 47.0935 41.4258 47.3756 41.6012C47.5607 41.7119 47.6753 41.9427 47.8693 42.1918Z" fill="#0898A0"/>
<path d="M56.6414 57.1711C56.5444 64.3419 54.5697 69.9806 50.629 74.8626C50.2852 75.2872 49.8709 75.3702 49.5711 75.0841C49.2802 74.8073 49.3067 74.4012 49.6417 73.9859C52.5685 70.4144 54.4022 66.3168 55.0898 61.6655C55.5041 58.8784 55.4072 56.0914 54.9047 53.3227C54.8077 52.8059 54.9928 52.446 55.3983 52.3629C55.7686 52.2891 56.0948 52.5567 56.1565 53.0643C56.3593 54.6886 56.5444 56.3128 56.6414 57.1711Z" fill="#0898A0"/>
<path d="M61.9651 56.7364C61.9651 57.0779 61.9651 57.4101 61.9651 57.7516C61.9651 58.2961 61.7271 58.6099 61.3216 58.6191C60.9161 58.6283 60.678 58.3053 60.6692 57.77C60.6428 55.712 60.4841 53.6632 59.9816 51.6606C59.4526 49.5472 57.7336 48.1537 55.6795 48.1075C53.5284 48.0614 51.6771 49.418 51.0512 51.5037C50.9983 51.6791 50.9631 51.8636 50.9102 52.0297C50.7779 52.4543 50.4782 52.6388 50.1079 52.5373C49.7553 52.4358 49.579 52.0943 49.6759 51.6606C49.914 50.6085 50.3724 49.6764 51.0777 48.8827C52.6469 47.1293 54.5687 46.391 56.8167 46.9724C59.1353 47.5723 60.7309 49.095 61.2951 51.5498C61.6742 53.2387 61.8064 54.9922 62.0533 56.718C62.0092 56.718 61.9916 56.7272 61.9651 56.7364Z" fill="#0898A0"/>
<path d="M51.3266 57.7621C51.1767 63.6869 49.2373 68.5874 45.3231 72.6111C45.2085 72.7311 45.085 72.8603 44.9352 72.9064C44.6266 73.0079 44.3445 72.9341 44.177 72.6203C43.9919 72.2881 44.0889 72.0112 44.3269 71.7436C44.9704 71.0053 45.6581 70.3039 46.2399 69.5195C48.9992 65.8003 50.207 61.5643 49.9778 56.8669C49.9602 56.4424 49.8985 56.0086 49.8456 55.5841C49.7927 55.1319 50.0131 54.7812 50.3921 54.735C50.7977 54.6889 51.0886 54.9288 51.1238 55.3995C51.212 56.2578 51.2737 57.1068 51.3266 57.7621Z" fill="#0898A0"/>
<path d="M33.5 53.0176C33.5705 49.3907 34.3375 45.9576 35.8891 42.7183C36.1095 42.2476 36.4445 42.0907 36.8059 42.2845C37.1674 42.4783 37.2643 42.8383 37.0528 43.2997C36.083 45.3485 35.413 47.4896 35.078 49.7506C34.6725 52.5008 34.7959 55.2232 35.3954 57.9365C35.4218 58.0565 35.4483 58.1764 35.4659 58.2964C35.51 58.6932 35.3249 58.9701 34.9634 59.0439C34.5932 59.127 34.3199 58.9424 34.2229 58.564C34.0554 57.8627 33.8879 57.1613 33.7997 56.4507C33.6587 55.3155 33.597 54.1619 33.5 53.0176Z" fill="#0898A0"/>
<path d="M55.5488 39.7632C53.768 39.7632 52.0577 40.1416 50.418 40.8706C50.1976 40.9722 49.8891 41.0183 49.6687 40.9445C49.5012 40.8799 49.2984 40.5569 49.3248 40.3907C49.3601 40.1508 49.5629 39.8186 49.7568 39.7447C50.8852 39.3387 52.0137 38.8588 53.1862 38.6465C57.1268 37.9636 60.7148 38.9418 63.9414 41.4059C64.1089 41.5351 64.2764 41.6643 64.4175 41.8212C64.6555 42.0981 64.6643 42.4118 64.4351 42.6979C64.2059 42.9748 63.9061 43.0394 63.6064 42.8364C63.3596 42.6702 63.1392 42.4672 62.9011 42.2826C60.706 40.6122 58.2552 39.754 55.5488 39.7632Z" fill="#0898A0"/>
<path d="M61.7738 61.4701C61.4124 64.8017 60.6189 67.9211 59.2878 70.865C58.5649 72.4524 57.6833 73.9566 56.8458 75.4886C56.5637 76.0054 56.1846 76.1162 55.8408 75.8855C55.4793 75.6455 55.4617 75.2487 55.7967 74.7226C58.221 70.9296 59.7462 66.7675 60.3897 62.2546C60.4338 61.9685 60.4514 61.6732 60.4955 61.3871C60.5572 60.981 60.8393 60.7688 61.2096 60.8057C61.5534 60.8611 61.7914 61.1748 61.7738 61.4701Z" fill="#0898A0"/>
<path d="M71.2497 58.1766C71.2497 57.3183 71.2497 56.4601 71.2497 55.5926C71.2497 55.0573 71.4525 54.762 71.8492 54.7435C72.2724 54.7158 72.528 55.0019 72.5545 55.5464C72.7837 59.9855 72.3781 64.3507 71.3202 68.6513C71.3026 68.7251 71.2762 68.7989 71.2585 68.8727C71.1263 69.288 70.8089 69.5003 70.4563 69.3896C70.1301 69.2973 69.9362 68.965 70.0155 68.5497C70.1566 67.8576 70.3241 67.1747 70.4739 66.4917C71.047 63.76 71.2938 60.9822 71.2497 58.1766Z" fill="#0898A0"/>
<path d="M40.6583 57.8357C40.5613 60.6505 39.6356 62.9392 37.7314 64.7757C37.4758 65.0157 37.2113 65.191 36.8675 64.988C36.4179 64.7388 36.4003 64.2035 36.8322 63.8067C37.7667 62.9484 38.4631 61.924 38.9127 60.7151C39.4858 59.1739 39.4329 57.605 39.142 56.0084C39.0097 55.2609 38.9656 54.4857 38.9039 53.7289C38.8775 53.3321 39.1067 53.0829 39.4681 53.0367C39.8384 52.9906 40.1117 53.2121 40.1646 53.5905C40.3409 55.0394 40.4996 56.4975 40.6583 57.8357Z" fill="#0898A0"/>
<path d="M47.2451 74.3826C47.0247 74.1981 46.7338 74.0688 46.6897 73.875C46.628 73.6351 46.6985 73.2844 46.8484 73.0906C47.342 72.4261 47.9151 71.817 48.4087 71.1618C49.5548 69.6298 50.454 67.9502 51.1593 66.1506C51.2122 66.0214 51.2562 65.8922 51.318 65.7722C51.5031 65.4399 51.8028 65.3569 52.1114 65.4861C52.4287 65.6153 52.5786 65.9014 52.4816 66.2705C52.4111 66.5382 52.3053 66.7873 52.1995 67.0458C51.1505 69.5929 49.7135 71.8816 47.8886 73.8843C47.7123 74.0596 47.5007 74.1796 47.2451 74.3826Z" fill="#0898A0"/>
<path d="M45.0846 63.0496C45.0405 63.2065 45.0052 63.3542 44.9523 63.4926C44.0619 65.726 42.7484 67.6363 40.9853 69.2052C40.5797 69.5652 40.2183 69.5744 39.945 69.2329C39.6805 68.9007 39.7422 68.5408 40.1301 68.1993C41.7699 66.7596 42.9864 65.0061 43.7798 62.9297C43.8945 62.6251 44.0708 62.3482 44.4058 62.3852C44.6085 62.4036 44.8113 62.5697 44.9876 62.7174C45.0493 62.7728 45.0493 62.9297 45.0846 63.0496Z" fill="#0898A0"/>
<path d="M63.3238 74.5207C62.6274 74.5207 62.3894 74.0223 62.6097 73.4501C63.218 71.872 63.8263 70.2939 64.4082 68.7065C64.5757 68.2543 64.6726 67.7652 64.8049 67.2945C64.9371 66.8239 65.2368 66.5931 65.5983 66.6854C66.0038 66.7962 66.1713 67.1561 66.0391 67.6637C65.4837 69.8509 64.7255 71.9551 63.7822 73.9854C63.6765 74.2346 63.4208 74.4099 63.3238 74.5207Z" fill="#0898A0"/>
<path d="M144.493 42.1207C144.493 43.0416 144.509 43.9783 144.493 44.8992C144.46 45.7725 143.611 46.2647 142.909 45.8518C142.485 45.5978 142.354 45.185 142.37 44.7246C142.37 43.1686 142.37 41.5967 142.37 40.0407C142.354 38.1672 141.554 36.7065 139.889 35.7221C139.072 35.2458 138.174 35.0552 137.244 35.0711C135.742 35.0711 134.256 35.087 132.754 35.0552C132.444 35.0552 132.117 34.9441 131.856 34.7694C131.497 34.5313 131.431 34.0708 131.562 33.7057C131.742 33.2452 132.101 33.0071 132.672 33.0071C134.191 33.0071 135.725 32.9912 137.244 33.0071C137.75 33.0071 138.256 33.0547 138.746 33.15C141.815 33.7057 144.199 36.246 144.444 39.2786C144.525 40.2313 144.46 41.1839 144.46 42.1365C144.46 42.1207 144.476 42.1207 144.493 42.1207Z" fill="#0898A0"/>
<path d="M102.572 42.143C102.572 41.0628 102.475 39.9667 102.589 38.9023C102.931 35.8999 105.67 33.3106 108.751 33.0882C110.642 32.9611 112.549 33.0088 114.44 33.0088C115.043 33.0088 115.516 33.5171 115.5 34.0572C115.483 34.5973 114.994 35.058 114.391 35.058C112.81 35.0739 111.245 35.058 109.664 35.0739C107.186 35.1057 105.262 36.6148 104.741 38.95C104.659 39.3312 104.643 39.7443 104.643 40.1255C104.626 41.6664 104.643 43.2232 104.626 44.7641C104.626 45.0501 104.529 45.3678 104.366 45.6061C104.121 45.9715 103.648 46.0827 103.241 45.9397C102.784 45.7808 102.507 45.4155 102.507 44.9071C102.491 43.9857 102.507 43.0485 102.507 42.1271C102.524 42.143 102.54 42.143 102.572 42.143Z" fill="#0898A0"/>
<path d="M135.417 74.9931C134.488 74.9931 133.542 75.0086 132.613 74.9931C131.765 74.9776 131.276 74.2475 131.602 73.5796C131.797 73.1913 132.14 73.0049 132.58 72.9893C133.118 72.9893 133.672 72.9893 134.21 72.9893C135.384 72.9893 136.574 73.0049 137.748 72.9583C140.21 72.8495 142.248 70.8923 142.329 68.5313C142.378 67.0867 142.346 65.6266 142.362 64.182C142.362 63.4209 142.802 62.9704 143.487 63.0015C143.943 63.017 144.335 63.3432 144.433 63.7626C144.465 63.8714 144.481 63.9956 144.481 64.1044C144.481 65.6421 144.547 67.1955 144.433 68.7177C144.221 71.4671 142.672 73.3621 140.047 74.496C138.971 74.962 137.83 75.0242 136.656 74.9931C136.265 74.9776 135.841 74.9931 135.417 74.9931Z" fill="#0898A0"/>
<path d="M111.566 74.9712C110.684 74.9712 109.802 75.0178 108.92 74.9557C105.849 74.7693 103.039 72.3162 102.614 69.4128C102.484 68.4657 102.516 67.472 102.5 66.5093C102.5 65.7175 102.5 64.9257 102.5 64.1183C102.5 63.4507 102.908 63.0159 103.529 63.0004C104.166 62.9849 104.624 63.4196 104.624 64.1028C104.64 65.143 104.624 66.1678 104.624 67.208C104.624 68.093 104.558 68.9936 104.901 69.8475C105.669 71.8193 107.433 72.9683 109.753 72.9838C111.256 72.9993 112.742 72.9838 114.245 72.9838C114.752 72.9838 115.16 73.108 115.389 73.5738C115.715 74.2104 115.291 74.9557 114.539 74.9867C113.559 75.0178 112.563 74.9867 111.566 74.9712C111.566 74.9867 111.566 74.9867 111.566 74.9712Z" fill="#0898A0"/>
<path d="M123.623 66.9932C120.538 67.0408 118.055 65.9295 115.942 63.8974C115.51 63.4847 115.402 63.0401 115.587 62.6274C115.772 62.1987 116.204 61.913 116.651 62.0241C116.913 62.0876 117.191 62.2622 117.407 62.4686C118.579 63.5958 119.921 64.3737 121.495 64.723C124.379 65.358 126.986 64.723 129.269 62.7702C129.423 62.6274 129.577 62.4845 129.732 62.3575C130.225 61.913 130.781 61.913 131.182 62.3257C131.614 62.7861 131.614 63.3418 131.135 63.8339C129.978 65.0246 128.621 65.9295 127.063 66.4693C125.891 66.8345 124.688 67.0408 123.623 66.9932Z" fill="#0898A0"/>
<path d="M124.415 52.7642C124.415 54.1024 124.509 55.4566 124.399 56.7788C124.228 58.6109 122.574 60.0766 120.499 59.9969C119.89 59.981 119.5 59.5349 119.5 58.9455C119.5 58.3401 119.906 57.9259 120.545 57.9099C121.31 57.9099 121.934 57.655 122.262 56.9222C122.402 56.6195 122.449 56.2531 122.449 55.9186C122.465 53.6564 122.449 51.4101 122.465 49.1479C122.465 48.5744 122.699 48.2239 123.136 48.0646C123.838 47.8097 124.477 48.3354 124.493 49.1798C124.509 50.3746 124.493 51.5694 124.493 52.7642C124.462 52.7642 124.431 52.7642 124.415 52.7642Z" fill="#0898A0"/>
<path d="M112.526 49.9848C112.526 49.3627 112.49 48.7406 112.544 48.1184C112.58 47.5761 113.082 47.1294 113.638 47.0337C114.32 46.9061 114.984 47.1454 115.289 47.6718C115.415 47.8951 115.487 48.1503 115.487 48.3896C115.504 49.4584 115.504 50.5431 115.487 51.6119C115.469 52.4254 114.876 52.9837 114.051 52.9997C113.208 53.0156 112.544 52.4573 112.508 51.6438C112.49 51.0855 112.508 50.5272 112.508 49.9688C112.49 49.9848 112.508 49.9848 112.526 49.9848Z" fill="#0898A0"/>
<path d="M131.505 49.9919C131.505 49.419 131.493 48.8461 131.505 48.2891C131.517 47.5411 131.939 47 132.504 47C133.07 47 133.491 47.5411 133.491 48.305C133.503 49.419 133.503 50.533 133.491 51.647C133.491 52.395 133.022 53.0156 132.492 52.9997C131.927 52.9838 131.517 52.4109 131.505 51.6311C131.505 51.09 131.505 50.533 131.505 49.9919Z" fill="#0898A0"/>
</g>
<defs>
<filter id="filter0_d_21334_159600" x="0.5" y="0" width="178" height="110" filterUnits="userSpaceOnUse" color-interpolation-filters="sRGB">
<feFlood flood-opacity="0" result="BackgroundImageFix"/>
<feColorMatrix in="SourceAlpha" type="matrix" values="0 0 0 0 0 0 0 0 0 0 0 0 0 0 0 0 0 0 127 0" result="hardAlpha"/>
<feOffset dy="2"/>
<feGaussianBlur stdDeviation="10"/>
<feColorMatrix type="matrix" values="0 0 0 0 0.207083 0 0 0 0 0.278542 0 0 0 0 0.35 0 0 0 0.15 0"/>
<feBlend mode="normal" in2="BackgroundImageFix" result="effect1_dropShadow_21334_159600"/>
<feBlend mode="normal" in="SourceGraphic" in2="effect1_dropShadow_21334_159600" result="shape"/>
</filter>
</defs>
</svg>
