<svg width="42" height="42" viewBox="0 0 42 42" fill="none" xmlns="http://www.w3.org/2000/svg">
<path d="M0 21C0 9.40202 9.40202 0 21 0C32.598 0 42 9.40202 42 21C42 32.598 32.598 42 21 42C9.40202 42 0 32.598 0 21Z" fill="#E6F5F6"/>
<path d="M14.9449 28.7296H27.0668C28.6837 28.7296 29.5059 27.8892 29.5059 26.2906V15.7033C29.5059 14.1138 28.6837 13.2734 27.0668 13.2734H14.9449C13.3371 13.2734 12.5059 14.0956 12.5059 15.7033V26.2906C12.5059 27.8984 13.3371 28.7296 14.9449 28.7296ZM14.8992 27.8436C13.9126 27.8436 13.3828 27.3229 13.3828 26.318V18.5717C13.3828 17.5668 13.9126 17.0461 14.8992 17.0461H27.1034C28.0717 17.0461 28.6289 17.5668 28.6289 18.5717V26.318C28.6289 27.3229 28.0717 27.8436 27.1034 27.8436H14.8992ZM19.2748 20.0881H19.7772C20.033 20.0881 20.0878 20.0332 20.0878 19.7866V19.275C20.0878 19.0375 20.033 18.9827 19.7772 18.9827H19.2748C19.019 18.9827 18.9642 19.0375 18.9642 19.275V19.7866C18.9642 20.0332 19.019 20.0881 19.2748 20.0881ZM22.2345 20.0881H22.7369C22.9927 20.0881 23.0475 20.0332 23.0475 19.7866V19.275C23.0475 19.0375 22.9927 18.9827 22.7369 18.9827H22.2345C21.9787 18.9827 21.9239 19.0375 21.9239 19.275V19.7866C21.9239 20.0332 21.9787 20.0881 22.2345 20.0881ZM25.1851 20.0881H25.6966C25.9433 20.0881 26.0072 20.0332 26.0072 19.7866V19.275C26.0072 19.0375 25.9433 18.9827 25.6966 18.9827H25.1851C24.9384 18.9827 24.8745 19.0375 24.8745 19.275V19.7866C24.8745 20.0332 24.9384 20.0881 25.1851 20.0881ZM16.3151 23.0021H16.8267C17.0733 23.0021 17.1372 22.9473 17.1372 22.7006V22.1891C17.1372 21.9424 17.0733 21.8876 16.8267 21.8876H16.3151C16.0685 21.8876 16.0045 21.9424 16.0045 22.1891V22.7006C16.0045 22.9473 16.0685 23.0021 16.3151 23.0021ZM19.2748 23.0021H19.7772C20.033 23.0021 20.0878 22.9473 20.0878 22.7006V22.1891C20.0878 21.9424 20.033 21.8876 19.7772 21.8876H19.2748C19.019 21.8876 18.9642 21.9424 18.9642 22.1891V22.7006C18.9642 22.9473 19.019 23.0021 19.2748 23.0021ZM22.2345 23.0021H22.7369C22.9927 23.0021 23.0475 22.9473 23.0475 22.7006V22.1891C23.0475 21.9424 22.9927 21.8876 22.7369 21.8876H22.2345C21.9787 21.8876 21.9239 21.9424 21.9239 22.1891V22.7006C21.9239 22.9473 21.9787 23.0021 22.2345 23.0021ZM25.1851 23.0021H25.6966C25.9433 23.0021 26.0072 22.9473 26.0072 22.7006V22.1891C26.0072 21.9424 25.9433 21.8876 25.6966 21.8876H25.1851C24.9384 21.8876 24.8745 21.9424 24.8745 22.1891V22.7006C24.8745 22.9473 24.9384 23.0021 25.1851 23.0021ZM16.3151 25.907H16.8267C17.0733 25.907 17.1372 25.8522 17.1372 25.6055V25.1031C17.1372 24.8565 17.0733 24.8016 16.8267 24.8016H16.3151C16.0685 24.8016 16.0045 24.8565 16.0045 25.1031V25.6055C16.0045 25.8522 16.0685 25.907 16.3151 25.907ZM19.2748 25.907H19.7772C20.033 25.907 20.0878 25.8522 20.0878 25.6055V25.1031C20.0878 24.8565 20.033 24.8016 19.7772 24.8016H19.2748C19.019 24.8016 18.9642 24.8565 18.9642 25.1031V25.6055C18.9642 25.8522 19.019 25.907 19.2748 25.907ZM22.2345 25.907H22.7369C22.9927 25.907 23.0475 25.8522 23.0475 25.6055V25.1031C23.0475 24.8565 22.9927 24.8016 22.7369 24.8016H22.2345C21.9787 24.8016 21.9239 24.8565 21.9239 25.1031V25.6055C21.9239 25.8522 21.9787 25.907 22.2345 25.907Z" fill="#0898A0"/>
</svg>
