<svg width="24" height="24" viewBox="0 0 24 24" fill="none" xmlns="http://www.w3.org/2000/svg">
<path d="M5.58248 20H18.4175C20.1295 20 21 19.13 21 17.4752V6.51537C21 4.86998 20.1295 4 18.4175 4H5.58248C3.88017 4 3 4.85106 3 6.51537V17.4752C3 19.1395 3.88017 20 5.58248 20ZM5.53412 19.0827C4.48952 19.0827 3.92853 18.5437 3.92853 17.5035V9.48463C3.92853 8.44444 4.48952 7.90544 5.53412 7.90544H18.4562C19.4815 7.90544 20.0715 8.44444 20.0715 9.48463V17.5035C20.0715 18.5437 19.4815 19.0827 18.4562 19.0827H5.53412ZM10.1671 11.0544H10.6991C10.9699 11.0544 11.0279 10.9976 11.0279 10.7423V10.2128C11.0279 9.9669 10.9699 9.91017 10.6991 9.91017H10.1671C9.89629 9.91017 9.83826 9.9669 9.83826 10.2128V10.7423C9.83826 10.9976 9.89629 11.0544 10.1671 11.0544ZM13.3009 11.0544H13.8329C14.1037 11.0544 14.1617 10.9976 14.1617 10.7423V10.2128C14.1617 9.9669 14.1037 9.91017 13.8329 9.91017H13.3009C13.0301 9.91017 12.9721 9.9669 12.9721 10.2128V10.7423C12.9721 10.9976 13.0301 11.0544 13.3009 11.0544ZM16.425 11.0544H16.9667C17.2278 11.0544 17.2955 10.9976 17.2955 10.7423V10.2128C17.2955 9.9669 17.2278 9.91017 16.9667 9.91017H16.425C16.1639 9.91017 16.0962 9.9669 16.0962 10.2128V10.7423C16.0962 10.9976 16.1639 11.0544 16.425 11.0544ZM7.03332 14.0709H7.57496C7.83611 14.0709 7.90381 14.0142 7.90381 13.7589V13.2293C7.90381 12.974 7.83611 12.9173 7.57496 12.9173H7.03332C6.77217 12.9173 6.70446 12.974 6.70446 13.2293V13.7589C6.70446 14.0142 6.77217 14.0709 7.03332 14.0709ZM10.1671 14.0709H10.6991C10.9699 14.0709 11.0279 14.0142 11.0279 13.7589V13.2293C11.0279 12.974 10.9699 12.9173 10.6991 12.9173H10.1671C9.89629 12.9173 9.83826 12.974 9.83826 13.2293V13.7589C9.83826 14.0142 9.89629 14.0709 10.1671 14.0709ZM13.3009 14.0709H13.8329C14.1037 14.0709 14.1617 14.0142 14.1617 13.7589V13.2293C14.1617 12.974 14.1037 12.9173 13.8329 12.9173H13.3009C13.0301 12.9173 12.9721 12.974 12.9721 13.2293V13.7589C12.9721 14.0142 13.0301 14.0709 13.3009 14.0709ZM16.425 14.0709H16.9667C17.2278 14.0709 17.2955 14.0142 17.2955 13.7589V13.2293C17.2955 12.974 17.2278 12.9173 16.9667 12.9173H16.425C16.1639 12.9173 16.0962 12.974 16.0962 13.2293V13.7589C16.0962 14.0142 16.1639 14.0709 16.425 14.0709ZM7.03332 17.078H7.57496C7.83611 17.078 7.90381 17.0213 7.90381 16.766V16.2459C7.90381 15.9905 7.83611 15.9338 7.57496 15.9338H7.03332C6.77217 15.9338 6.70446 15.9905 6.70446 16.2459V16.766C6.70446 17.0213 6.77217 17.078 7.03332 17.078ZM10.1671 17.078H10.6991C10.9699 17.078 11.0279 17.0213 11.0279 16.766V16.2459C11.0279 15.9905 10.9699 15.9338 10.6991 15.9338H10.1671C9.89629 15.9338 9.83826 15.9905 9.83826 16.2459V16.766C9.83826 17.0213 9.89629 17.078 10.1671 17.078ZM13.3009 17.078H13.8329C14.1037 17.078 14.1617 17.0213 14.1617 16.766V16.2459C14.1617 15.9905 14.1037 15.9338 13.8329 15.9338H13.3009C13.0301 15.9338 12.9721 15.9905 12.9721 16.2459V16.766C12.9721 17.0213 13.0301 17.078 13.3009 17.078Z" fill="#0898A0"/>
</svg>
