<svg width="32" height="32" viewBox="0 0 32 32" fill="none" xmlns="http://www.w3.org/2000/svg">
<path d="M26.6667 6.66667H22.6667L20.0001 4H12.0001L9.33341 6.66667H5.33341C3.86675 6.66667 2.66675 7.86667 2.66675 9.33333V25.3333C2.66675 26.8133 3.86675 28 5.33341 28H26.6667C28.1467 28 29.3334 26.8133 29.3334 25.3333V9.33333C29.3334 7.86667 28.1467 6.66667 26.6667 6.66667ZM6.66675 16H9.46675C10.2001 12.3867 13.7201 10.0667 17.3334 10.8C18.3467 11 19.2401 11.4533 20.0001 12L18.0801 13.9333C17.4801 13.56 16.7734 13.3333 16.0001 13.3333C14.3201 13.3333 12.8001 14.4 12.2401 16H14.6667L10.6667 20L6.66675 16ZM22.5467 18.6667C21.8134 22.28 18.2934 24.6 14.6667 23.8667C13.6667 23.6533 12.7734 23.2133 12.0001 22.6667L13.9201 20.7333C14.5334 21.1067 15.2401 21.3333 16.0001 21.3333C17.6934 21.3333 19.2134 20.2667 19.7734 18.6667H17.3334L21.3334 14.6667L25.3334 18.6667H22.5467Z" fill="white"/>
</svg>
