<svg width="42" height="42" viewBox="0 0 42 42" fill="none" xmlns="http://www.w3.org/2000/svg">
<path d="M0 21C0 9.40202 9.40202 0 21 0C32.598 0 42 9.40202 42 21C42 32.598 32.598 42 21 42C9.40202 42 0 32.598 0 21Z" fill="#E6F5F6"/>
<path d="M14.2075 28.5103H27.7212C29.3813 28.5103 30.228 27.6719 30.228 26.0283V17.8022C30.228 16.167 29.3813 15.3286 27.7212 15.3286H25.9116C25.2974 15.3286 25.1064 15.2124 24.7412 14.814L24.1104 14.125C23.7119 13.6934 23.3135 13.4692 22.5083 13.4692H19.3789C18.5737 13.4692 18.167 13.6934 17.7686 14.125L17.1377 14.814C16.7808 15.2124 16.5815 15.3286 15.9673 15.3286H14.2075C12.5474 15.3286 11.7007 16.167 11.7007 17.8022V26.0283C11.7007 27.6719 12.5474 28.5103 14.2075 28.5103ZM14.2573 27.1406C13.502 27.1406 13.0703 26.7339 13.0703 25.937V17.8936C13.0703 17.0967 13.502 16.6982 14.2573 16.6982H16.3325C17.0381 16.6982 17.4116 16.5654 17.8101 16.1255L18.416 15.4531C18.8643 14.9551 19.0967 14.8306 19.7856 14.8306H22.0933C22.7822 14.8306 23.0146 14.9551 23.4629 15.4448L24.0771 16.1255C24.4673 16.5654 24.8408 16.6982 25.5464 16.6982H27.6797C28.4351 16.6982 28.8667 17.0967 28.8667 17.8936V25.937C28.8667 26.7339 28.4351 27.1406 27.6797 27.1406H14.2573ZM20.9644 25.9204C23.3301 25.9204 25.231 24.0195 25.231 21.6372C25.231 19.2632 23.3384 17.3623 20.9644 17.3623C18.5986 17.3623 16.6978 19.2632 16.6978 21.6372C16.6978 24.0195 18.5986 25.9204 20.9644 25.9204ZM26.5757 19.7778C27.1152 19.7778 27.5552 19.3379 27.5552 18.7983C27.5552 18.2505 27.1152 17.8188 26.5757 17.8188C26.0361 17.8188 25.5962 18.2505 25.5962 18.7983C25.5962 19.3379 26.0361 19.7778 26.5757 19.7778ZM20.9644 24.6504C19.3125 24.6504 17.9595 23.314 17.9595 21.6372C17.9595 19.9688 19.3042 18.6323 20.9644 18.6323C22.6245 18.6323 23.9692 19.9688 23.9692 21.6372C23.9692 23.314 22.6245 24.6504 20.9644 24.6504Z" fill="#0898A0"/>
</svg>
