<svg width="10" height="11" viewBox="0 0 10 11" fill="none" xmlns="http://www.w3.org/2000/svg">
<path d="M5 3.71484V5.71484H6.125H7.25M9.5 5.71484C9.5 6.30579 9.3836 6.89095 9.15746 7.43692C8.93131 7.98288 8.59984 8.47896 8.18198 8.89682C7.76412 9.31469 7.26804 9.64616 6.72208 9.8723C6.17611 10.0984 5.59095 10.2148 5 10.2148C4.40905 10.2148 3.82389 10.0984 3.27792 9.8723C2.73196 9.64616 2.23588 9.31469 1.81802 8.89682C1.40016 8.47896 1.06869 7.98288 0.842542 7.43692C0.616396 6.89095 0.5 6.30579 0.5 5.71484C0.5 4.52137 0.974106 3.37678 1.81802 2.53286C2.66193 1.68895 3.80653 1.21484 5 1.21484C6.19347 1.21484 7.33807 1.68895 8.18198 2.53286C9.02589 3.37678 9.5 4.52137 9.5 5.71484Z" stroke="#71879C" stroke-width="0.8" stroke-linecap="round" stroke-linejoin="round"/>
</svg>
