<svg width="42" height="42" viewBox="0 0 42 42" fill="none" xmlns="http://www.w3.org/2000/svg">
<rect width="42" height="42" rx="21" fill="#71879C" fill-opacity="0.1"/>
<path d="M14.8438 27.2957H27.2031C28.7266 27.2957 29.5 26.5144 29.5 25.0144V16.6628C29.5 15.155 28.7266 14.3738 27.2031 14.3738H14.8438C13.3125 14.3738 12.5391 15.1472 12.5391 16.6628V25.0144C12.5391 26.5222 13.3125 27.2957 14.8438 27.2957ZM13.5078 16.7097C13.5078 15.8113 13.9844 15.3425 14.8594 15.3425H27.1797C28.0391 15.3425 28.5391 15.8113 28.5391 16.7097V17.3347H13.5078V16.7097ZM14.8594 26.3269C13.9844 26.3269 13.5078 25.866 13.5078 24.9597V18.7847H28.5391V24.9597C28.5391 25.866 28.0391 26.3269 27.1797 26.3269H14.8594ZM15.8047 23.366H17.7188C18.1797 23.366 18.4922 23.0535 18.4922 22.616V21.6628C18.4922 21.2253 18.1797 20.9207 17.7188 20.9207H15.8047C15.3516 20.9207 15.0391 21.2253 15.0391 21.6628V22.616C15.0391 23.0535 15.3516 23.366 15.8047 23.366Z" fill="#0898A0"/>
</svg>
