<svg width="48" height="36" viewBox="0 0 48 36" fill="none" xmlns="http://www.w3.org/2000/svg">
<path d="M38.1929 35.9243H44.2607C46.4233 35.9243 47.5151 34.8325 47.5151 32.6069V3.33838C47.5151 1.0918 46.4233 0 44.2607 0H38.1929C36.0513 0 34.9595 1.0918 34.9595 3.33838V32.6069C34.9595 34.8325 36.0513 35.9243 38.1929 35.9243ZM38.2349 34.7905C36.7861 34.7905 36.0933 34.0557 36.0933 32.5649V3.35938C36.0933 1.86865 36.7861 1.13379 38.2349 1.13379H44.2397C45.6885 1.13379 46.3813 1.86865 46.3813 3.35938V32.5649C46.3813 34.0557 45.6885 34.7905 44.2397 34.7905H38.2349ZM20.9551 35.9243H27.0229C29.1646 35.9243 30.2563 34.8325 30.2563 32.6069V9.02832C30.2563 6.78174 29.1646 5.68994 27.0229 5.68994H20.9551C18.7925 5.68994 17.7217 6.78174 17.7217 9.02832V32.6069C17.7217 34.8325 18.7925 35.9243 20.9551 35.9243ZM20.9971 34.7905C19.5483 34.7905 18.8555 34.0557 18.8555 32.5649V9.04932C18.8555 7.55859 19.5483 6.82373 20.9971 6.82373H26.981C28.4297 6.82373 29.1226 7.55859 29.1226 9.04932V32.5649C29.1226 34.0557 28.4297 34.7905 26.981 34.7905H20.9971ZM3.71729 35.9243H9.76416C11.9268 35.9243 13.0186 34.8325 13.0186 32.6069V14.5923C13.0186 12.3457 11.9268 11.2539 9.76416 11.2539H3.71729C1.55469 11.2539 0.462891 12.3457 0.462891 14.5923V32.6069C0.462891 34.8325 1.55469 35.9243 3.71729 35.9243ZM3.73828 34.7905C2.28955 34.7905 1.59668 34.0557 1.59668 32.5649V14.6133C1.59668 13.1226 2.28955 12.3877 3.73828 12.3877H9.74316C11.1919 12.3877 11.8848 13.1226 11.8848 14.6133V32.5649C11.8848 34.0557 11.1919 34.7905 9.74316 34.7905H3.73828Z" fill="#0898A0"/>
</svg>
