<svg width="26" height="20" viewBox="0 0 26 20" fill="none" xmlns="http://www.w3.org/2000/svg">
<path d="M14.7822 5H2.21785C1.62883 5.00182 1.06457 5.2396 0.648809 5.66121C0.233046 6.08281 -0.00027949 6.65381 2.51252e-07 7.249V14.3422C0.000136488 14.6361 0.057653 14.9271 0.169255 15.1985C0.280857 15.4698 0.444352 15.7163 0.650373 15.9238C0.856395 16.1312 1.1009 16.2955 1.36987 16.4073C1.63884 16.5192 1.927 16.5762 2.21785 16.5753H3.97538V19.0939C3.97538 20.1114 4.50265 20.3001 5.14708 19.5167L7.56892 16.5753H14.7822C15.073 16.5762 15.3612 16.5192 15.6301 16.4073C15.8991 16.2955 16.1436 16.1312 16.3496 15.9238C16.5556 15.7163 16.7191 15.4698 16.8307 15.1985C16.9423 14.9271 16.9999 14.6361 17 14.3422V7.249C17.0003 6.65381 16.767 6.08281 16.3512 5.66121C15.9354 5.2396 15.3712 5.00182 14.7822 5V5ZM4.16683 11.9833C3.94378 11.9833 3.72574 11.9164 3.54028 11.7912C3.35483 11.666 3.21028 11.488 3.12492 11.2798C3.03957 11.0716 3.01723 10.8424 3.06075 10.6214C3.10426 10.4003 3.21167 10.1973 3.36939 10.0379C3.52711 9.87853 3.72805 9.77 3.94682 9.72603C4.16558 9.68206 4.39233 9.70463 4.5984 9.79088C4.80447 9.87713 4.98061 10.0232 5.10452 10.2106C5.22844 10.398 5.29458 10.6183 5.29458 10.8437C5.29458 11.1459 5.17577 11.4358 4.96427 11.6495C4.75278 11.8632 4.46593 11.9833 4.16683 11.9833ZM8.5 11.9833C8.27695 11.9833 8.05891 11.9164 7.87345 11.7912C7.688 11.666 7.54345 11.488 7.45809 11.2798C7.37273 11.0716 7.3504 10.8424 7.39392 10.6214C7.43743 10.4003 7.54484 10.1973 7.70256 10.0379C7.86028 9.87853 8.06122 9.77 8.27999 9.72603C8.49875 9.68206 8.7255 9.70463 8.93157 9.79088C9.13764 9.87713 9.31377 10.0232 9.43769 10.2106C9.56161 10.398 9.62775 10.6183 9.62775 10.8437C9.62775 10.9933 9.59858 11.1415 9.54191 11.2798C9.48523 11.418 9.40216 11.5437 9.29744 11.6495C9.19272 11.7553 9.0684 11.8392 8.93157 11.8965C8.79475 11.9538 8.6481 11.9833 8.5 11.9833ZM12.8332 11.9833C12.6101 11.9833 12.3921 11.9164 12.2066 11.7912C12.0212 11.666 11.8766 11.488 11.7913 11.2798C11.7059 11.0716 11.6836 10.8424 11.7271 10.6214C11.7706 10.4003 11.878 10.1973 12.0357 10.0379C12.1934 9.87853 12.3944 9.77 12.6132 9.72603C12.8319 9.68206 13.0587 9.70463 13.2647 9.79088C13.4708 9.87713 13.6469 10.0232 13.7709 10.2106C13.8948 10.398 13.9609 10.6183 13.9609 10.8437C13.9609 11.1459 13.8421 11.4358 13.6306 11.6495C13.4191 11.8632 13.1323 11.9833 12.8332 11.9833Z" fill="currentColor"/>
<path d="M22.7381 0H11.2818C9.48873 0 8 1.50898 8 3.36674V3.81238H14.5959C16.6345 3.81238 18.2928 5.49859 18.2928 7.61188V13.1373H20.2231L22.1623 15.5334C22.7774 16.2933 23.2781 16.1052 23.2746 15.1135L23.2652 13.0976C24.8101 12.8261 26 11.3861 26 9.71384V3.36674C26 1.50898 24.5312 0 22.7381 0Z" fill="currentColor"/>
</svg>
