<svg width="34" height="34" viewBox="0 0 34 34" fill="none" xmlns="http://www.w3.org/2000/svg">
<g clip-path="url(#clip0)">
<rect x="0.5" y="0.399902" width="33" height="33" rx="16.5" fill="white"/>
<rect opacity="0.1" x="0.5" y="0.399902" width="33" height="33" rx="16.5" fill="#F07F42"/>
<path d="M16.9202 23.3999C17.2409 23.3999 17.3979 23.1815 17.7186 22.7516L21.5879 17.5653C21.7517 17.3469 21.8336 17.1353 21.8336 16.9033C21.8336 16.6645 21.7517 16.4529 21.5879 16.2345L17.7186 11.0482C17.3979 10.6251 17.2409 10.3999 16.9202 10.3999C16.5927 10.3999 16.4357 10.6251 16.115 11.0482L12.2457 16.2345C12.0887 16.4529 12 16.6645 12 16.9033C12 17.1353 12.0887 17.3469 12.2457 17.5653L16.115 22.7516C16.4357 23.1815 16.5927 23.3999 16.9202 23.3999ZM16.9202 22.2398C16.8724 22.2398 16.852 22.2125 16.8315 22.1716L13.0509 17.0807C12.9963 17.0057 12.9895 16.9579 12.9895 16.9033C12.9895 16.8419 12.9963 16.7941 13.0509 16.7191L16.8315 11.6282C16.852 11.5941 16.8724 11.56 16.9202 11.56C16.9612 11.56 16.9816 11.5941 17.0021 11.6282L20.7827 16.7191C20.8373 16.7941 20.8441 16.8419 20.8441 16.9033C20.8441 16.9579 20.8373 17.0057 20.7827 17.0807L17.0021 22.1716C16.9816 22.2125 16.9612 22.2398 16.9202 22.2398Z" fill="#F07F42"/>
</g>
<defs>
<clipPath id="clip0">
<rect width="33" height="33" fill="white" transform="translate(0.5 0.399902)"/>
</clipPath>
</defs>
</svg>
