<svg width="70" height="70" viewBox="0 0 70 70" fill="none" xmlns="http://www.w3.org/2000/svg">
<rect width="70" height="70" rx="35" fill="#71879C" fill-opacity="0.1"/>
<path d="M46.7526 30.6949C49.0756 30.6949 51 28.736 51 26.3545C51 23.9729 49.0756 22 46.7526 22C44.4296 22 42.5052 23.9729 42.5052 26.3545C42.5052 28.736 44.4296 30.6949 46.7526 30.6949ZM22.7113 48H44.6357C46.9725 48 48.2509 46.6612 48.2509 44.2092V31.7377C47.9347 31.8363 47.6048 31.8927 47.2474 31.935V44.181C47.2474 44.6883 47.1787 45.1252 47.0275 45.5057L37.9691 36.5854L43.6186 30.9344C43.3436 30.7371 43.0825 30.5117 42.8488 30.258L35.4261 37.7127C34.8351 38.3187 34.2165 38.5442 33.7079 38.5442C33.2131 38.5442 32.567 38.3046 32.0034 37.7127L20.7869 26.4531C21.2405 26.0444 21.8866 25.8331 22.7251 25.8331H41.3093C41.3368 25.4808 41.3918 25.1425 41.5017 24.8184H22.6289C20.2784 24.8184 19 26.1149 19 28.6092V44.2092C19 46.6894 20.2784 48 22.7113 48ZM20.0034 44.181V28.6374C20.0034 28.1301 20.0722 27.6932 20.2096 27.3268L29.4605 36.5854L20.2646 45.6325C20.0859 45.2238 20.0034 44.7447 20.0034 44.181ZM33.7079 39.5729C34.4502 39.5729 35.2612 39.277 36.0722 38.4737L37.2543 37.29L46.4364 46.3653C45.9691 46.7599 45.3368 46.9713 44.5258 46.9713H22.7251C21.9553 46.9713 21.3505 46.7881 20.8969 46.4499L30.1753 37.29L31.3574 38.4737C32.1684 39.277 32.9794 39.5729 33.7079 39.5729Z" fill="#0898A0"/>
</svg>
