<svg width="24" height="24" viewBox="0 0 24 24" fill="none" xmlns="http://www.w3.org/2000/svg">
<rect width="24" height="24" rx="12" fill="#FE7122"/>
<path d="M16.3209 14.095C16.2334 13.08 15.1959 12.4012 15.1959 12.4012C15.1959 12.4012 16.5184 12.0425 16.6547 10.475C16.7409 9.475 16.1109 8.43125 14.5297 7.96625L15.0747 5.9075L13.7772 5.56375L13.2334 7.6175L12.1572 7.3325L12.7009 5.27875L11.4009 4.935L10.8572 6.98875L8.76719 6.435L8.42344 7.73125L9.69594 8.0675L8.03594 14.3387L6.76344 14L6.39844 15.375L8.48844 15.9287L7.94469 17.9862L9.24969 18.3375L9.79469 16.28L10.8709 16.565L10.3209 18.625L11.6247 18.9662L12.1697 16.9087L12.4709 16.9875C15.0109 17.625 16.4709 15.845 16.3209 14.095ZM11.8472 8.6375C11.8472 8.6375 12.3747 8.77375 13.1322 8.9775C13.8509 9.17125 14.3984 9.80625 14.2297 10.5225C14.0609 11.2387 13.3122 11.695 12.5259 11.5C11.8047 11.32 11.1834 11.145 11.1834 11.145L11.8472 8.6375ZM11.9059 15.3637C11.1559 15.1812 10.1872 14.9087 10.1872 14.9087L10.8747 12.305C10.8747 12.305 11.7497 12.555 12.5284 12.7425C13.4597 12.9725 14.0284 13.5837 13.8234 14.4025C13.6184 15.2212 12.9172 15.61 11.9059 15.3637Z" fill="white"/>
</svg>
