<svg width="42" height="42" viewBox="0 0 42 42" fill="none" xmlns="http://www.w3.org/2000/svg">
<rect width="42" height="42" rx="21" fill="#71879C" fill-opacity="0.1"/>
<path fill-rule="evenodd" clip-rule="evenodd" d="M23.6428 15.5658L24.3363 12.7842L24.156 12.7392L23.465 15.511L22.6889 15.3175C22.2422 15.2062 21.7818 15.1008 21.3159 14.9945L20.5202 14.8129L21.22 12.0072L21.0405 11.9624L20.3342 14.7925L19.5701 14.6185C19.1934 14.5327 18.8161 14.4462 18.4482 14.3547L17.6912 14.1665L17.6933 14.1569L16.8363 13.9429L16.7647 14.2304C16.8746 14.257 16.98 14.2831 17.0662 14.3054C17.1264 14.321 17.187 14.3372 17.2354 14.3518C17.2526 14.357 17.2861 14.3672 17.3228 14.3811C17.7958 14.5151 18.1671 14.7702 18.4014 15.1394C18.6376 15.5116 18.6736 15.9045 18.6571 16.1903L18.6528 16.2651L17.8263 19.5809L17.2875 19.4466L17.2836 19.4587L17.8233 19.5934L16.6767 24.1903L16.656 24.2417C16.5836 24.4214 16.4336 24.7083 16.1373 24.9225C15.8251 25.1482 15.4317 25.2343 15.0045 25.1483C14.9652 25.1431 14.9279 25.1356 14.9087 25.1316C14.8619 25.1219 14.8028 25.1082 14.7426 25.0936C14.6254 25.0654 14.4727 25.0267 14.3213 24.9877L14.1096 25.4758L15.4485 25.8095C15.7021 25.8731 15.9608 25.9405 16.2113 26.0058C16.3746 26.0484 16.5349 26.0902 16.6888 26.1296L17.4587 26.3268L16.7428 29.2014L16.9214 29.2459L17.6356 26.3811L18.4239 26.595C18.8905 26.7216 19.3438 26.8387 19.7881 26.949L20.5654 27.142L19.8575 29.9781L20.0378 30.023L20.7441 27.1923L21.4862 27.3327C22.9366 27.6072 24.0688 27.6571 24.9156 27.3966C25.6899 27.1583 26.3019 26.6373 26.6945 25.5156C27.0269 24.5665 26.9794 23.9372 26.7863 23.496C26.5884 23.0441 26.1748 22.6445 25.4879 22.2869L23.5639 21.2852L25.6776 20.7977C26.1225 20.6952 26.465 20.5098 26.7177 20.2387C26.9697 19.9684 27.1837 19.5577 27.2786 18.916L28.07 19.0331C27.9109 20.1082 27.4465 20.7957 26.7948 21.2014C26.5139 21.3762 26.1983 21.4987 25.8574 21.5773C26.1788 21.7446 26.4676 21.9305 26.7169 22.139C27.6732 22.9389 28.0474 24.0729 27.4496 25.7798C26.5143 28.4524 24.2924 28.6779 21.3375 28.1188L20.6204 30.9927L18.8875 30.5608L19.5952 27.7255C19.5394 27.7116 19.4835 27.6976 19.4274 27.6835C19.282 27.647 19.1355 27.6098 18.9878 27.5717C18.7338 27.5062 18.4762 27.4381 18.2143 27.3671L17.5041 30.2158L15.7732 29.784L16.4904 26.9046C16.3286 26.8632 16.1658 26.8207 16.0019 26.778C15.7556 26.7138 15.5068 26.6489 15.255 26.5858L13 26.0237L13.8603 24.0401C13.8603 24.0401 13.8939 24.049 13.9501 24.0639C14.0389 24.0873 14.184 24.1256 14.3423 24.1668C14.6833 24.2555 15.0857 24.3579 15.1179 24.3558C15.1187 24.3557 15.1192 24.3556 15.1195 24.3554C15.12 24.3552 15.1201 24.3549 15.1198 24.3545C15.5304 24.4561 15.7498 24.2486 15.8608 24.0532C15.8824 24.0152 15.8999 23.9776 15.9139 23.9429L17.0471 19.3997C17.0896 19.41 17.1312 19.4204 17.1713 19.4304C17.1913 19.4355 17.211 19.4404 17.2302 19.4452C17.1611 19.4175 17.0984 19.3998 17.05 19.3874L17.0504 19.386L17.8585 16.1443C17.8691 15.96 17.8426 15.7515 17.7254 15.5673C17.6086 15.3836 17.4015 15.224 17.051 15.1365C17.0515 15.1362 17.0516 15.1358 17.0513 15.1354C17.051 15.1348 17.0502 15.1342 17.049 15.1335C17.0242 15.1189 16.8134 15.0653 16.5713 15.0067C16.4748 14.9833 16.3734 14.9592 16.2767 14.9363C16.1791 14.9133 16.0863 14.8916 16.0087 14.8736C15.8799 14.8436 15.7925 14.8236 15.7925 14.8236L16.2535 12.9728L18.6432 13.5695L18.6412 13.5784C19.0005 13.6677 19.3707 13.7526 19.7478 13.8385L20.458 10.9927L22.1898 11.4245L21.4939 14.2146C21.7538 14.2739 22.0146 14.3335 22.2736 14.3943C22.478 14.4424 22.6814 14.4912 22.8823 14.5413L23.5733 11.7695L25.3061 12.2014L24.5964 15.0482C26.7843 15.8018 28.3843 16.9315 28.07 19.0331L27.2788 18.9147C27.3968 18.1256 27.1686 17.5673 26.7036 17.0986C26.1988 16.5897 25.3906 16.1679 24.3358 15.8045L23.6428 15.5658ZM19.729 21.4672C19.7295 21.4673 19.73 21.4675 19.7305 21.4676C19.8483 21.497 19.992 21.5292 20.1547 21.5657C21.6171 21.8939 24.6141 22.5664 24.1107 24.585C23.6194 26.5592 20.5292 25.743 19.1153 25.3695C18.996 25.338 18.8887 25.3097 18.7959 25.2864C18.7897 25.2849 18.7835 25.2833 18.7775 25.2818L19.729 21.4672ZM24.887 24.7781C25.0894 23.9662 24.8943 23.2582 24.4577 22.6996C24.0502 22.1783 23.4611 21.8202 22.9009 21.566C22.0002 21.1572 20.9284 20.918 20.2876 20.775C20.141 20.7422 20.017 20.7146 19.9227 20.691L19.1465 20.4973L17.8074 25.8653L18.5847 26.0583C18.6672 26.0788 18.769 26.1058 18.8866 26.137C19.5203 26.3051 20.6135 26.5951 21.6422 26.6486C22.2552 26.6806 22.9387 26.6367 23.5365 26.376C24.1758 26.0972 24.6876 25.5792 24.887 24.7781ZM25.4229 19.1957C25.2417 19.9217 24.8007 20.4153 24.2275 20.6939C23.6927 20.9538 23.0892 21.0059 22.5598 20.9864C21.6761 20.954 20.7399 20.7026 20.2153 20.5617C20.119 20.5358 20.0365 20.5137 19.9708 20.4973L19.1945 20.3038L20.4444 15.2916L21.2205 15.485C21.2936 15.5032 21.3924 15.525 21.5109 15.551C22.0415 15.6675 22.9666 15.8707 23.736 16.2339C24.2169 16.4609 24.7317 16.7895 25.0836 17.2806C25.4608 17.8069 25.6062 18.46 25.4229 19.1957ZM20.1643 19.721C20.2458 19.7414 20.3414 19.7669 20.4486 19.7955C21.6274 20.1101 24.1988 20.7963 24.6467 19.002C25.1041 17.1666 22.6049 16.6134 21.3844 16.3432C21.2471 16.3128 21.126 16.2859 21.027 16.2613L20.1643 19.721Z" fill="#0898A0"/>
</svg>
