<svg width="36" height="36" viewBox="0 0 36 36" fill="none" xmlns="http://www.w3.org/2000/svg">
<rect width="36" height="36" rx="18" fill="#012224" fill-opacity="0.5" style="mix-blend-mode:multiply"/>
<g clip-path="url(#clip0_24465_101807)">
<path d="M13.4766 26.7692H22.5234C24.1718 26.7692 25 25.9044 25 24.1913V15.8919C25 14.1788 24.1718 13.3139 22.5234 13.3139H20.3228V14.6528H22.4997C23.2806 14.6528 23.7301 15.1019 23.7301 15.9667V24.1165C23.7301 24.9813 23.2806 25.4304 22.4997 25.4304H13.4924C12.7037 25.4304 12.2699 24.9813 12.2699 24.1165V15.9667C12.2699 15.1019 12.7037 14.6528 13.4924 14.6528H15.6772V13.3139H13.4766C11.8282 13.3139 11 14.1788 11 15.8919V24.1913C11 25.9044 11.8282 26.7692 13.4766 26.7692ZM17.9961 20.2578C18.3352 20.2578 18.627 19.9585 18.627 19.6092V11.0686L18.5797 9.82121L19.1082 10.4116L20.307 11.7588C20.4175 11.8919 20.5752 11.9584 20.733 11.9584C21.0564 11.9584 21.3087 11.7089 21.3087 11.368C21.3087 11.1934 21.2378 11.0603 21.1194 10.9356L18.4535 8.22453C18.2958 8.05821 18.1617 8 17.9961 8C17.8383 8 17.7042 8.05821 17.5386 8.22453L14.8727 10.9356C14.7544 11.0603 14.6913 11.1934 14.6913 11.368C14.6913 11.7089 14.9279 11.9584 15.2592 11.9584C15.409 11.9584 15.5825 11.8919 15.693 11.7588L16.8839 10.4116L17.4203 9.82121L17.3729 11.0686V19.6092C17.3729 19.9585 17.6569 20.2578 17.9961 20.2578Z" fill="white"/>
</g>
<defs>
<clipPath id="clip0_24465_101807">
<rect width="14" height="20" fill="white" transform="translate(11 8)"/>
</clipPath>
</defs>
</svg>
