<svg width="34" height="33" viewBox="0 0 34 33" fill="none" xmlns="http://www.w3.org/2000/svg">
<g clip-path="url(#clip0)">
<rect opacity="0.5" x="0.995117" width="33" height="33" rx="16.5" fill="#012224"/>
<path d="M21.7005 8.5C23.1726 8.5 24.366 9.6934 24.366 11.1655C24.366 12.6377 23.1726 13.8311 21.7005 13.8311C20.9517 13.8311 20.275 13.5223 19.7908 13.0252L14.939 15.7988C14.9998 16.0222 15.0322 16.2573 15.0322 16.5C15.0322 16.7427 14.9998 16.9778 14.939 17.2012L19.7915 19.9741C20.2756 19.4774 20.952 19.169 21.7005 19.169C23.1726 19.169 24.366 20.3623 24.366 21.8345C24.366 23.3066 23.1726 24.5 21.7005 24.5C20.2283 24.5 19.0349 23.3066 19.0349 21.8345C19.0349 21.5918 19.0674 21.3567 19.1281 21.1332L14.2763 18.3597C13.7921 18.8568 13.1155 19.1655 12.3667 19.1655C10.8946 19.1655 9.70117 17.9721 9.70117 16.5C9.70117 15.0279 10.8946 13.8345 12.3667 13.8345C13.1151 13.8345 13.7915 14.1429 14.2757 14.6397L19.1281 11.8668C19.0674 11.6433 19.0349 11.4082 19.0349 11.1655C19.0349 9.6934 20.2283 8.5 21.7005 8.5Z" fill="white"/>
</g>
<defs>
<clipPath id="clip0">
<rect width="33" height="33" fill="white" transform="translate(0.995117)"/>
</clipPath>
</defs>
</svg>
