<svg width="33" height="33" viewBox="0 0 33 33" fill="none" xmlns="http://www.w3.org/2000/svg">
<rect opacity="0.5" width="33" height="33" rx="16.5" fill="#012224"/>
<path fill-rule="evenodd" clip-rule="evenodd" d="M14.6684 11.2525C14.6684 11.2525 10.1667 15.6276 10.1234 15.6641C9.91224 15.8417 9.77605 16.1034 9.77217 16.3994C9.76814 16.7078 9.90924 16.9824 10.1311 17.1657C10.1788 17.2049 14.532 21.6727 14.532 21.6727C14.9152 22.0637 15.5451 22.0719 15.938 21.6911C16.3313 21.3102 16.3395 20.6841 15.9563 20.2935L13.1524 17.4322L22.7587 17.5579C23.3106 17.5651 23.7638 17.1282 23.771 16.5826C23.7781 16.0366 23.3365 15.5884 22.7846 15.5812L13.1783 15.4555L16.0561 12.6684C16.4494 12.2881 16.4576 11.662 16.0744 11.2709C15.6916 10.8799 15.0617 10.8717 14.6684 11.2525Z" fill="white"/>
</svg>
