<svg width="130" height="131" viewBox="0 0 130 131" fill="none" xmlns="http://www.w3.org/2000/svg">
<g filter="url(#filter0_d)">
<path d="M24 58.7461C24 36.1024 42.3563 17.7461 65 17.7461C87.6437 17.7461 106 36.1024 106 58.7461C106 81.3898 87.6437 99.7461 65 99.7461C42.3563 99.7461 24 81.3898 24 58.7461Z" fill="white"/>
<path opacity="0.1" d="M24 58.7461C24 36.1024 42.3563 17.7461 65 17.7461C87.6437 17.7461 106 36.1024 106 58.7461C106 81.3898 87.6437 99.7461 65 99.7461C42.3563 99.7461 24 81.3898 24 58.7461Z" fill="#0898A0"/>
<path d="M63.9173 59.6652V50.8129H61.4505C58.7563 50.8129 57.3218 49.0809 57.3218 47.3489C57.3218 45.5819 58.6339 44.5323 60.4008 44.5323C62.4302 44.5323 63.9873 46.0893 63.9873 48.696V50.8129H66.8564V48.696C66.8564 46.0893 68.4309 44.5323 70.4603 44.5323C72.2098 44.5323 73.5219 45.5819 73.5219 47.3489C73.5219 49.0809 72.0523 50.8129 69.3931 50.8129H66.9439V59.6652H78.5254C80.4148 59.6652 81.412 58.9129 81.412 57.0585V53.4196C81.412 51.5476 80.4148 50.8129 78.5254 50.8129H74.834C75.8662 49.8856 76.4785 48.6085 76.4785 47.174C76.4785 43.9549 73.9068 41.6456 70.6702 41.6456C68.256 41.6456 66.2616 42.9927 65.4218 45.407C64.5821 42.9927 62.5877 41.6456 60.1734 41.6456C56.9369 41.6456 54.3652 43.9549 54.3652 47.174C54.3652 48.6085 54.96 49.8856 55.9922 50.8129H52.3358C50.5163 50.8129 49.4316 51.5476 49.4316 53.4196V57.0585C49.4316 58.9129 50.4463 59.6652 52.3358 59.6652H63.9173ZM63.9173 76.7226V61.4672H51.7584V72.4888C51.7584 75.253 53.4029 76.7226 56.1671 76.7226H63.9173ZM66.9439 61.4672V76.7226H74.6765C77.4407 76.7226 79.0852 75.253 79.0852 72.4888V61.4672H66.9439Z" fill="#0898A0"/>
</g>
<defs>
<filter id="filter0_d" x="0" y="0.746094" width="130" height="130" filterUnits="userSpaceOnUse" color-interpolation-filters="sRGB">
<feFlood flood-opacity="0" result="BackgroundImageFix"/>
<feColorMatrix in="SourceAlpha" type="matrix" values="0 0 0 0 0 0 0 0 0 0 0 0 0 0 0 0 0 0 127 0"/>
<feOffset dy="7"/>
<feGaussianBlur stdDeviation="12"/>
<feColorMatrix type="matrix" values="0 0 0 0 0.0313726 0 0 0 0 0.596078 0 0 0 0 0.627451 0 0 0 0.25 0"/>
<feBlend mode="normal" in2="BackgroundImageFix" result="effect1_dropShadow"/>
<feBlend mode="normal" in="SourceGraphic" in2="effect1_dropShadow" result="shape"/>
</filter>
</defs>
</svg>
