<svg width="42" height="42" viewBox="0 0 42 42" fill="none" xmlns="http://www.w3.org/2000/svg">
<path opacity="0.1" d="M0 21C0 9.40202 9.40202 0 21 0C32.598 0 42 9.40202 42 21C42 32.598 32.598 42 21 42C9.40202 42 0 32.598 0 21Z" fill="#C81C1C"/>
<path d="M26.2534 27.5825L26.7588 16.9331H27.6377C27.938 16.9331 28.1797 16.6768 28.1797 16.3765C28.1797 16.0762 27.938 15.8271 27.6377 15.8271H24.2905V14.7285C24.2905 13.6738 23.5801 13 22.4521 13H19.7129C18.585 13 17.8818 13.6738 17.8818 14.7285V15.8271H14.542C14.249 15.8271 14 16.0835 14 16.3765C14 16.6768 14.249 16.9331 14.542 16.9331H15.4282L15.9336 27.5898C15.9849 28.6372 16.6733 29.311 17.7354 29.311H24.4517C25.499 29.311 26.2021 28.6299 26.2534 27.5825ZM19.0537 14.8018C19.0537 14.3843 19.354 14.0913 19.8008 14.0913H22.3716C22.8184 14.0913 23.126 14.3843 23.126 14.8018V15.8271H19.0537V14.8018ZM17.8379 28.2051C17.4204 28.2051 17.1055 27.8901 17.0835 27.458L16.5708 16.9331H25.5869L25.1035 27.458C25.0815 27.8975 24.7739 28.2051 24.3345 28.2051H17.8379ZM23.2651 26.9233C23.5068 26.9233 23.6826 26.7256 23.6899 26.4473L23.9097 18.7642C23.917 18.4932 23.7339 18.2881 23.4849 18.2881C23.2578 18.2881 23.0674 18.5005 23.0601 18.7642L22.8403 26.4399C22.833 26.7109 23.0161 26.9233 23.2651 26.9233ZM18.9219 26.9233C19.1709 26.9233 19.354 26.7109 19.3467 26.4399L19.1196 18.7642C19.1123 18.5005 18.9219 18.2881 18.6948 18.2881C18.4458 18.2881 18.2627 18.4932 18.27 18.7642L18.4897 26.4473C18.4971 26.7256 18.6729 26.9233 18.9219 26.9233ZM21.0898 26.9233C21.3315 26.9233 21.5366 26.7109 21.5366 26.4473V18.7642C21.5366 18.5005 21.3315 18.2881 21.0898 18.2881C20.8555 18.2881 20.6504 18.5005 20.6504 18.7642V26.4473C20.6504 26.7109 20.8555 26.9233 21.0898 26.9233Z" fill="#C81C1C"/>
</svg>
