<svg width="30" height="24" viewBox="0 0 30 24" fill="none" xmlns="http://www.w3.org/2000/svg">
<path fill-rule="evenodd" clip-rule="evenodd" d="M5.51515 18.0357L5.30091 17.8238L5.03514 17.5641L2.35532 14.8806C2.31709 14.8427 2.286 14.8113 2.22064 14.745C2.15739 14.6809 2.13153 14.6548 2.09703 14.6206C2.06238 14.5859 2.03932 14.5626 1.984 14.5064L1.88687 14.4074C1.6609 14.1833 1.44633 13.9481 1.24396 13.7025C1.05895 13.5021 0.908244 13.2725 0.798018 13.0228L0.764799 12.9356C0.568635 12.3273 0.568635 11.6727 0.764799 11.0644L0.795577 10.9828C0.904302 10.732 1.05584 10.5021 1.24329 10.3035C1.43742 10.061 1.64618 9.83062 1.86841 9.61359C1.9314 9.544 1.98749 9.4866 2.0969 9.3772C2.1274 9.34691 2.15418 9.31985 2.21809 9.25498L2.28576 9.18664L2.32246 9.15L2.35146 9.12142L5.01816 6.45689C5.10129 6.36968 5.17612 6.29525 5.29363 6.18107L5.40377 6.07184C5.44796 6.0282 5.48593 5.99111 5.52354 5.95501L8.51075 2.97306C8.64182 2.83822 8.76064 2.72048 8.95219 2.53398C9.07634 2.4068 9.20521 2.28088 9.34904 2.14521C9.4623 2.02414 9.48646 1.99892 9.50067 1.986C9.90358 1.58391 10.3669 1.24728 10.8756 0.987366C11.3817 0.730254 11.924 0.551882 12.4789 0.459269C12.9956 0.369957 13.5189 0.323455 14.024 0.320562C14.1547 0.316947 14.2143 0.315365 14.288 0.313651C14.4422 0.310065 14.5725 0.308228 14.6994 0.308228H23.1258C23.3179 0.308228 23.469 0.311367 23.7806 0.320236C24.306 0.323425 24.8302 0.369911 25.3431 0.458413C25.9024 0.551798 26.444 0.730403 26.9475 0.987236C27.4566 1.24566 27.9215 1.5831 28.3247 1.98674C28.7268 2.38894 29.0636 2.85145 29.3268 3.36508C29.5793 3.86933 29.7565 4.40792 29.854 4.97226C29.9374 5.48426 29.9826 6.00176 29.9888 6.50513C29.9931 6.65075 29.995 6.7627 29.9979 7.01281L30 7.18539V16.8146C30 17.0264 29.9962 17.2457 29.9891 17.4796C29.9826 17.9983 29.9374 18.5158 29.8526 19.0364C29.7565 19.5921 29.5793 20.1307 29.3215 20.6455C29.0613 21.1485 28.7259 21.6089 28.325 22.013C27.9215 22.4169 27.4566 22.7544 26.9491 23.012C26.444 23.2696 25.9024 23.4482 25.3423 23.5417C24.8279 23.6272 24.3077 23.6733 23.8002 23.6795C23.469 23.6887 23.3179 23.6918 23.1258 23.6918H22.3554H22.353H14.7018C14.5749 23.6918 14.4446 23.69 14.2904 23.6864C14.2167 23.6847 14.1571 23.6831 14.04 23.6797C13.5196 23.6733 13.0003 23.6271 12.4863 23.5416C11.9264 23.4481 11.3841 23.2698 10.8762 23.0117C10.3693 22.7527 9.90598 22.4161 9.52121 22.0316C9.48922 22.0014 9.47166 21.9831 9.40219 21.9096L9.36636 21.8719L9.34869 21.8533C9.18144 21.6933 9.06997 21.5842 8.9701 21.4815C8.78073 21.2968 8.64857 21.1657 8.52224 21.0362L5.61473 18.1298L5.51515 18.0357ZM22.3556 23.6918L22.3554 23.6189L22.3532 22.7924V21.966V21.893H14.702C14.5908 21.893 14.4737 21.8914 14.3324 21.8881C14.2622 21.8865 14.2058 21.885 14.0763 21.8814C13.6335 21.8758 13.2055 21.8378 12.7822 21.7673C12.4033 21.7041 12.0358 21.5832 11.6929 21.409C11.3548 21.2362 11.0441 21.0105 10.7739 20.7408C10.762 20.7292 10.7393 20.7055 10.7097 20.6741C10.6215 20.5808 10.6135 20.5724 10.5757 20.5381C10.4388 20.4067 10.3399 20.3099 10.2419 20.2095C10.0466 20.0187 9.92367 19.8967 9.80188 19.7719L6.82587 16.797C6.79786 16.7675 6.7681 16.7397 6.73678 16.7138L6.56195 16.5409L6.30013 16.2851L3.62557 13.6069C3.59064 13.5722 3.56477 13.5461 3.50153 13.482C3.43617 13.4157 3.40507 13.3843 3.36685 13.3464C3.33859 13.3181 3.31854 13.2979 3.26678 13.2453L3.21525 13.1928L3.16159 13.1382C2.96452 12.9427 2.78531 12.7455 2.5725 12.4895C2.52872 12.4434 2.49168 12.3915 2.46243 12.3353C2.40115 12.1153 2.40133 11.8827 2.46297 11.6628C2.48855 11.6136 2.52141 11.5685 2.56049 11.5289L2.62615 11.4547C2.78563 11.253 2.95828 11.0622 3.18838 10.836C3.23129 10.7879 3.27074 10.7473 3.36672 10.6513C3.40154 10.6168 3.43443 10.5835 3.49898 10.518L3.56007 10.4563L3.58964 10.4268L3.61657 10.4002L6.30504 7.71362C6.3837 7.6315 6.44538 7.57014 6.59711 7.42181L6.66794 7.3516C6.6895 7.33031 6.70906 7.3111 6.75821 7.27067L9.79193 4.23573C9.91775 4.10642 10.0277 3.99751 10.224 3.80596C10.345 3.68241 10.4566 3.57337 10.5866 3.45066C10.6195 3.41939 10.6576 3.37927 10.7533 3.27679C11.0417 2.98952 11.3524 2.76376 11.6924 2.59007C12.0334 2.41678 12.4009 2.29592 12.7803 2.23258C13.2046 2.15927 13.6291 2.12154 14.0545 2.11893L14.0874 2.11807L14.0874 2.11807C14.2122 2.11479 14.2652 2.1134 14.33 2.11189C14.4713 2.10861 14.5884 2.10695 14.6996 2.10695H23.126C23.2959 2.10695 23.4358 2.10986 23.7504 2.1186C24.1964 2.12152 24.622 2.15926 25.0423 2.23177C25.4249 2.29567 25.7908 2.41633 26.132 2.59037C26.4732 2.76354 26.7833 2.98868 27.0525 3.25817C27.3225 3.52825 27.5485 3.83851 27.7225 4.17801C27.8924 4.51736 28.0142 4.88783 28.0803 5.27007C28.1479 5.68533 28.1853 6.11378 28.1908 6.54324C28.195 6.68991 28.1967 6.79458 28.1995 7.034L28.2016 7.19787L28.2015 7.57061V16.8146C28.2015 17.007 28.198 17.2089 28.1911 17.4414C28.1853 17.8862 28.1479 18.3147 28.0789 18.7386C28.0142 19.1122 27.8924 19.4826 27.7187 19.8295C27.5478 20.1597 27.3206 20.4716 27.0504 20.7439C26.7833 21.0113 26.4732 21.2365 26.1335 21.4089C25.7908 21.5837 25.4249 21.7043 25.0471 21.7674C24.6235 21.8378 24.1944 21.8758 23.7643 21.8811C23.4358 21.8901 23.2959 21.893 23.126 21.893H22.3556V23.6918ZM21.7544 7.39535C22.0573 7.09294 22.548 7.0932 22.8505 7.39592C23.1524 7.69799 23.1531 8.18716 22.8525 8.49004L22.8612 8.49874L19.3648 11.9956L22.7523 15.3775C22.7924 15.4051 22.8301 15.4366 22.8647 15.4717C23.1659 15.7741 23.1652 16.2633 22.8633 16.5648C22.5618 16.8659 22.0737 16.8664 21.7716 16.5663L21.7628 16.5751L18.27 13.0906L14.7801 16.5811L14.7673 16.5682C14.4643 16.8652 13.9779 16.8635 13.677 16.563C13.376 16.2592 13.376 15.7696 13.677 15.4658C13.717 15.4258 13.7604 15.3911 13.8061 15.3617L17.1721 11.9953L13.6732 8.50476L13.6882 8.48981C13.3908 8.18789 13.3916 7.70214 13.6913 7.40129C13.8358 7.25452 14.0333 7.17188 14.2393 7.17188C14.4453 7.17188 14.6427 7.25452 14.7873 7.40129C14.8261 7.4403 14.86 7.48243 14.8888 7.52686L18.2673 10.8999L21.6688 7.49791C21.6939 7.46193 21.7225 7.42759 21.7544 7.39535Z" fill="#0898A0"/>
</svg>
