<svg width="30" height="25" viewBox="0 0 30 25" fill="none" xmlns="http://www.w3.org/2000/svg">
<path fill-rule="evenodd" clip-rule="evenodd" d="M5.18458 18.6898L4.97034 18.4779L4.70457 18.2182L2.02475 15.5348C1.98653 15.4969 1.95544 15.4655 1.89007 15.3992C1.82683 15.3351 1.80096 15.309 1.76646 15.2747C1.73182 15.2401 1.70875 15.2168 1.65343 15.1606L1.5563 15.0616C1.33033 14.8375 1.11576 14.6022 0.913396 14.3566C0.728379 14.1563 0.577678 13.9266 0.467452 13.677L0.434232 13.5898C0.238068 12.9815 0.238068 12.3269 0.434232 11.7186L0.465011 11.637C0.573735 11.3861 0.725275 11.1563 0.912721 10.9577C1.10685 10.7152 1.31561 10.4848 1.53785 10.2678C1.60083 10.1982 1.65692 10.1408 1.76633 10.0314C1.79683 10.0011 1.82361 9.97402 1.88752 9.90915L1.9552 9.84081L1.99189 9.80418L2.0209 9.7756L4.68759 7.11107C4.77073 7.02386 4.84555 6.94943 4.96306 6.83524L5.0732 6.72601C5.11739 6.68237 5.15536 6.64529 5.19297 6.60918L8.18018 3.62723C8.31125 3.49239 8.43008 3.37465 8.62162 3.18815C8.74578 3.06097 8.87464 2.93506 9.01847 2.79939C9.13173 2.67832 9.1559 2.65309 9.17011 2.64018C9.57302 2.23809 10.0363 1.90145 10.545 1.64154C11.0511 1.38443 11.5935 1.20606 12.1483 1.11344C12.6651 1.02413 13.1883 0.977629 13.6934 0.974737C13.8242 0.971122 13.8837 0.96954 13.9574 0.967826C14.1116 0.96424 14.2419 0.962402 14.3688 0.962402H22.7953C22.9873 0.962402 23.1384 0.965541 23.4501 0.97441C23.9754 0.977599 24.4996 1.02409 25.0126 1.11259C25.5718 1.20597 26.1134 1.38458 26.617 1.64141C27.126 1.89983 27.5909 2.23728 27.9941 2.64091C28.3962 3.04312 28.733 3.50563 28.9962 4.01925C29.2488 4.5235 29.4259 5.06209 29.5234 5.62643C29.6068 6.13843 29.652 6.65593 29.6583 7.1593C29.6626 7.30493 29.6644 7.41687 29.6674 7.66699L29.6694 7.83957V17.4688C29.6694 17.6806 29.6657 17.8999 29.6586 18.1337C29.652 18.6524 29.6068 19.1699 29.522 19.6906C29.4259 20.2463 29.2488 20.7849 28.9909 21.2996C28.7307 21.8026 28.3954 22.2631 27.9944 22.6672C27.5909 23.0711 27.126 23.4085 26.6185 23.6662C26.1134 23.9238 25.5718 24.1024 25.0118 24.1959C24.4973 24.2813 23.9771 24.3275 23.4696 24.3336C23.1384 24.3428 22.9873 24.346 22.7953 24.346H22.0248H22.0224H14.3712C14.2443 24.346 14.114 24.3441 13.9598 24.3405C13.8861 24.3388 13.8266 24.3372 13.7095 24.3339C13.189 24.3274 12.6697 24.2813 12.1558 24.1958C11.5959 24.1023 11.0535 23.9239 10.5456 23.6659C10.0387 23.4069 9.57542 23.0703 9.19064 22.6858C9.15865 22.6556 9.1411 22.6373 9.07162 22.5638L9.03579 22.5261L9.01812 22.5075C8.85087 22.3475 8.7394 22.2384 8.63953 22.1357C8.45016 21.951 8.31801 21.8199 8.19167 21.6904L5.28417 18.784L5.18458 18.6898ZM22.025 24.346L22.0248 24.273L22.0226 23.4466V22.6202V22.5472H14.3714C14.2602 22.5472 14.1432 22.5456 14.0018 22.5423C13.9317 22.5407 13.8752 22.5392 13.7457 22.5356C13.303 22.53 12.8749 22.4919 12.4516 22.4215C12.0728 22.3583 11.7053 22.2374 11.3624 22.0632C11.0242 21.8904 10.7135 21.6647 10.4433 21.395C10.4315 21.3833 10.4088 21.3597 10.3791 21.3283C10.2909 21.235 10.2829 21.2266 10.2451 21.1922C10.1082 21.0609 10.0093 20.9641 9.91134 20.8637C9.71608 20.6728 9.5931 20.5509 9.47132 20.4261L6.4953 17.4512C6.46729 17.4216 6.43753 17.3939 6.40621 17.368L6.23138 17.1951L5.96956 16.9393L3.295 14.2611C3.26008 14.2264 3.23421 14.2003 3.17097 14.1362C3.1056 14.0699 3.07451 14.0385 3.03629 14.0006C3.00802 13.9723 2.98797 13.952 2.93621 13.8995L2.88468 13.847L2.83103 13.7923C2.63396 13.5968 2.45474 13.3997 2.24194 13.1437C2.19815 13.0976 2.16112 13.0457 2.13186 12.9895C2.07059 12.7695 2.07077 12.5369 2.1324 12.317C2.15799 12.2678 2.19084 12.2226 2.22992 12.1831L2.29558 12.1089C2.45507 11.9072 2.62772 11.7163 2.85781 11.4902C2.90073 11.4421 2.94017 11.4015 3.03616 11.3055C3.07098 11.271 3.10387 11.2377 3.16842 11.1722L3.2295 11.1105L3.25907 11.081L3.286 11.0544L5.97448 8.3678C6.05313 8.28568 6.11482 8.22431 6.26655 8.07599L6.33737 8.00578C6.35893 7.98448 6.37849 7.96528 6.42764 7.92485L9.46137 4.8899C9.58718 4.76059 9.69709 4.65169 9.89343 4.46014C10.0144 4.33659 10.126 4.22754 10.2561 4.10484C10.2889 4.07356 10.327 4.03344 10.4228 3.93096C10.7111 3.6437 11.0218 3.41793 11.3618 3.24424C11.7029 3.07096 12.0704 2.95009 12.4497 2.88675C12.874 2.81344 13.2985 2.77571 13.724 2.7731L13.7568 2.77224L13.7568 2.77224C13.8816 2.76897 13.9347 2.76757 13.9994 2.76607C14.1408 2.76278 14.2578 2.76113 14.369 2.76113H22.7955C22.9654 2.76113 23.1052 2.76404 23.4198 2.77277C23.8659 2.77569 24.2914 2.81343 24.7117 2.88594C25.0943 2.94984 25.4602 3.07051 25.8015 3.24454C26.1426 3.41772 26.4528 3.64286 26.7219 3.91235C26.992 4.18243 27.2179 4.49268 27.3919 4.83219C27.5618 5.17153 27.6837 5.542 27.7497 5.92424C27.8173 6.3395 27.8547 6.76796 27.8602 7.19741C27.8644 7.34408 27.8661 7.44876 27.8689 7.68818L27.871 7.85205L27.8709 8.22478V17.4688C27.8709 17.6611 27.8674 17.8631 27.8605 18.0956C27.8547 18.5404 27.8173 18.9688 27.7483 19.3927C27.6837 19.7663 27.5618 20.1368 27.3881 20.4837C27.2172 20.8139 26.99 21.1258 26.7198 21.3981C26.4528 21.6655 26.1426 21.8906 25.803 22.063C25.4602 22.2378 25.0943 22.3585 24.7165 22.4216C24.2929 22.4919 23.8638 22.53 23.4337 22.5353C23.1052 22.5443 22.9654 22.5472 22.7955 22.5472H22.025V24.346ZM21.4239 8.04953C21.7267 7.74712 22.2174 7.74737 22.52 8.0501C22.8219 8.35216 22.8225 8.84133 22.5219 9.14421L22.5306 9.15291L19.0343 12.6498L22.4217 16.0317C22.4618 16.0593 22.4995 16.0907 22.5342 16.1259C22.8353 16.4283 22.8347 16.9174 22.5327 17.219C22.2312 17.5201 21.7431 17.5206 21.441 17.2205L21.4322 17.2293L17.9394 13.7448L14.4495 17.2352L14.4367 17.2224C14.1337 17.5194 13.6474 17.5177 13.3464 17.2172C13.0454 16.9134 13.0454 16.4238 13.3464 16.12C13.3865 16.08 13.4298 16.0453 13.4755 16.0159L16.8415 12.6495L13.3427 9.15894L13.3576 9.14398C13.0602 8.84207 13.0611 8.35631 13.3607 8.05547C13.5053 7.9087 13.7027 7.82606 13.9087 7.82606C14.1147 7.82606 14.3121 7.9087 14.4567 8.05547C14.4956 8.09448 14.5294 8.1366 14.5582 8.18103L17.9367 11.554L21.3382 8.15208C21.3634 8.1161 21.3919 8.08177 21.4239 8.04953Z" fill="#222222"/>
</svg>
