<svg width="33" height="33" viewBox="0 0 33 33" fill="none" xmlns="http://www.w3.org/2000/svg">
<g clip-path="url(#clip0)">
<rect y="0.000976562" width="33" height="33" rx="16.5" fill="#E6F5F6"/>
<path d="M23.5905 14.8927C23.9152 14.8927 24.0957 14.5172 23.8929 14.2637L21.9537 11.8398C21.7637 11.6022 21.3865 11.6666 21.286 11.9537L20.4376 14.3776C20.3495 14.6294 20.5363 14.8927 20.803 14.8927H23.5905Z" fill="#0898A0"/>
<path fill-rule="evenodd" clip-rule="evenodd" d="M21.6514 12.0816L21.9537 11.8398L23.8929 14.2637C24.0957 14.5172 23.9152 14.8927 23.5905 14.8927H20.803C20.5363 14.8927 20.3495 14.6294 20.4376 14.3776L21.286 11.9537C21.3865 11.6666 21.7637 11.6022 21.9537 11.8398L21.6514 12.0816L20.803 14.5055H23.5905L21.6514 12.0816Z" fill="#0898A0"/>
<path d="M19.163 16.0613C19.2502 15.8098 19.0634 15.5474 18.7972 15.5474H14.1595C13.8933 15.5474 13.7065 15.8098 13.7936 16.0613L16.1125 22.7529C16.2328 23.1001 16.7238 23.1001 16.8441 22.7529L19.163 16.0613Z" fill="#0898A0"/>
<path fill-rule="evenodd" clip-rule="evenodd" d="M14.1595 15.9345L16.4783 22.6261L18.7972 15.9345L14.1595 15.9345ZM18.7972 15.5474C19.0634 15.5474 19.2502 15.8098 19.163 16.0613L16.8441 22.7529C16.7238 23.1001 16.2328 23.1001 16.1125 22.7529L13.7936 16.0613C13.7065 15.8098 13.8933 15.5474 14.1595 15.5474H18.7972Z" fill="#0898A0"/>
<path d="M18.3314 14.893C18.6545 14.893 18.8355 14.5205 18.6357 14.2665L16.7826 11.91C16.6276 11.7129 16.329 11.7129 16.174 11.91L14.3209 14.2665C14.1211 14.5205 14.3021 14.893 14.6252 14.893H18.3314Z" fill="#0898A0"/>
<path fill-rule="evenodd" clip-rule="evenodd" d="M16.4783 12.1494L16.7826 11.91L18.6357 14.2665C18.8355 14.5205 18.6545 14.893 18.3314 14.893H14.6252C14.3021 14.893 14.1211 14.5205 14.3209 14.2665L14.6252 14.5058H18.3314L16.4783 12.1494ZM14.6252 14.5058L14.3209 14.2665L16.174 11.91C16.329 11.7129 16.6276 11.7129 16.7826 11.91L16.4783 12.1494L14.6252 14.5058Z" fill="#0898A0"/>
<path d="M12.1539 14.8927C12.4206 14.8927 12.6075 14.6294 12.5194 14.3776L11.671 11.9537C11.5705 11.6666 11.1933 11.6022 11.0032 11.8398L9.06408 14.2637C8.86128 14.5172 9.04177 14.8927 9.36641 14.8927H12.1539Z" fill="#0898A0"/>
<path fill-rule="evenodd" clip-rule="evenodd" d="M12.1539 14.5055L11.3056 12.0816L9.36641 14.5055L12.1539 14.5055ZM12.5194 14.3776C12.6075 14.6294 12.4206 14.8927 12.1539 14.8927H9.36641C9.04177 14.8927 8.86128 14.5172 9.06408 14.2637L11.0032 11.8398C11.1933 11.6022 11.5705 11.6666 11.671 11.9537L12.5194 14.3776Z" fill="#0898A0"/>
<path d="M20.3203 15.5474C20.1555 15.5474 20.0087 15.6518 19.9546 15.8075L17.7428 22.1756C17.6023 22.5801 18.1252 22.8797 18.4031 22.5539L23.8354 16.1858C24.0498 15.9345 23.8712 15.5474 23.5408 15.5474H20.3203Z" fill="#0898A0"/>
<path fill-rule="evenodd" clip-rule="evenodd" d="M20.3203 15.9345L18.1085 22.3026L23.5408 15.9345L20.3203 15.9345ZM19.9546 15.8075C20.0087 15.6518 20.1555 15.5474 20.3203 15.5474H23.5408C23.8712 15.5474 24.0498 15.9345 23.8354 16.1858L18.4031 22.5539C18.1252 22.8797 17.6023 22.5801 17.7428 22.1756L19.9546 15.8075Z" fill="#0898A0"/>
<path d="M13.0025 15.8075C12.9484 15.6518 12.8016 15.5474 12.6368 15.5474H9.41624C9.08589 15.5474 8.90729 15.9345 9.12168 16.1858L14.554 22.5539C14.8319 22.8797 15.3548 22.5801 15.2143 22.1756L13.0025 15.8075Z" fill="#0898A0"/>
<path fill-rule="evenodd" clip-rule="evenodd" d="M12.6368 15.9345L9.41624 15.9345L14.8486 22.3026L12.6368 15.9345ZM12.6368 15.5474C12.8016 15.5474 12.9484 15.6518 13.0025 15.8075L15.2143 22.1756C15.3548 22.5801 14.8319 22.8797 14.554 22.5539L9.12168 16.1858C8.90729 15.9345 9.08589 15.5474 9.41624 15.5474H12.6368Z" fill="#0898A0"/>
<path d="M13.0394 13.8839C13.1403 14.1722 13.5198 14.2355 13.7089 13.9955L15.5758 11.6263C15.776 11.3724 15.5951 10.9995 15.2718 10.9995H12.575C12.3083 10.9995 12.1214 11.2629 12.2096 11.5147L13.0394 13.8839Z" fill="#0898A0"/>
<path fill-rule="evenodd" clip-rule="evenodd" d="M13.4048 13.7559L15.2718 11.3867L12.575 11.3867L13.4048 13.7559ZM13.7089 13.9955C13.5198 14.2355 13.1403 14.1722 13.0394 13.8839L12.2096 11.5147C12.1214 11.2629 12.3083 10.9995 12.575 10.9995H15.2718C15.5951 10.9995 15.776 11.3724 15.5758 11.6263L13.7089 13.9955Z" fill="#0898A0"/>
<path d="M19.2486 13.9955C19.4377 14.2355 19.8172 14.1722 19.9181 13.8839L20.7479 11.5147C20.8361 11.2629 20.6492 10.9995 20.3825 10.9995H17.6857C17.3624 10.9995 17.1815 11.3724 17.3816 11.6263L19.2486 13.9955Z" fill="#0898A0"/>
<path fill-rule="evenodd" clip-rule="evenodd" d="M19.5527 13.7559L20.3825 11.3867L17.6857 11.3867L19.5527 13.7559ZM19.9181 13.8839C19.8172 14.1722 19.4377 14.2355 19.2486 13.9955L17.3816 11.6263C17.1815 11.3724 17.3624 10.9995 17.6857 10.9995H20.3825C20.6492 10.9995 20.8361 11.2629 20.7479 11.5147L19.9181 13.8839Z" fill="#0898A0"/>
</g>
<defs>
<clipPath id="clip0">
<rect width="33" height="33" fill="white" transform="translate(0 0.000976562)"/>
</clipPath>
</defs>
</svg>
