<svg width="60" height="60" viewBox="0 0 60 60" fill="none" xmlns="http://www.w3.org/2000/svg">
<path d="M0 30C0 13.4315 13.4315 0 30 0C46.5685 0 60 13.4315 60 30C60 46.5685 46.5685 60 30 60C13.4315 60 0 46.5685 0 30Z" fill="#838F91" fill-opacity="0.05"/>
<path d="M30.0066 29.7992C32.9258 29.7992 35.3054 27.1988 35.3054 24.0342C35.3054 20.8942 32.9381 18.4287 30.0066 18.4287C27.0995 18.4287 24.7077 20.9432 24.7077 24.0588C24.7199 27.2111 27.0873 29.7992 30.0066 29.7992ZM30.0066 27.9471C28.2157 27.9471 26.6825 26.2298 26.6825 24.0588C26.6825 21.9245 28.1912 20.2809 30.0066 20.2809C31.8342 20.2809 33.3306 21.9 33.3306 24.0342C33.3306 26.2053 31.8096 27.9471 30.0066 27.9471ZM22.2913 41.1452H37.7096C39.7457 41.1452 40.7147 40.5319 40.7147 39.1827C40.7147 35.969 36.6547 31.3202 30.0066 31.3202C23.3462 31.3202 19.2861 35.969 19.2861 39.1827C19.2861 40.5319 20.2551 41.1452 22.2913 41.1452ZM21.7148 39.293C21.3959 39.293 21.2609 39.2072 21.2609 38.9496C21.2609 36.938 24.3765 33.1724 30.0066 33.1724C35.6243 33.1724 38.7399 36.938 38.7399 38.9496C38.7399 39.2072 38.6172 39.293 38.2983 39.293H21.7148Z" fill="#838F91"/>
</svg>
