<svg width="42" height="43" viewBox="0 0 42 43" fill="none" xmlns="http://www.w3.org/2000/svg">
<rect y="0.5" width="42" height="42" rx="21" fill="#71879C" fill-opacity="0.1"/>
<path fill-rule="evenodd" clip-rule="evenodd" d="M23.9699 27.791H14.8438C13.3125 27.791 12.5391 27.0176 12.5391 25.5098V17.1582C12.5391 15.6426 13.3125 14.8691 14.8438 14.8691H27.2031C28.7266 14.8691 29.5 15.6504 29.5 17.1582V20.9678C29.1974 20.8174 28.8755 20.7001 28.5391 20.6206V19.2801H13.5078V25.4551C13.5078 26.3613 13.9844 26.8223 14.8594 26.8223H23.3842C23.5387 27.1707 23.7362 27.4959 23.9699 27.791ZM14.8594 15.8379C13.9844 15.8379 13.5078 16.3066 13.5078 17.2051V17.8301H28.5391V17.2051C28.5391 16.3066 28.0391 15.8379 27.1797 15.8379H14.8594ZM17.7188 23.8613H15.8047C15.3516 23.8613 15.0391 23.5488 15.0391 23.1113V22.1582C15.0391 21.7207 15.3516 21.416 15.8047 21.416H17.7188C18.1797 21.416 18.4922 21.7207 18.4922 22.1582V23.1113C18.4922 23.5488 18.1797 23.8613 17.7188 23.8613Z" fill="#0898A0"/>
<path d="M27.679 28.6H27.779V28.5V27.9252C28.1552 27.8826 28.4667 27.753 28.7062 27.5304C28.9693 27.2881 29.1 26.9746 29.1 26.5986C29.1 26.2941 29.0196 26.0293 28.8544 25.8098C28.6868 25.5871 28.4167 25.4252 28.0591 25.3156L28.0591 25.3156L28.0579 25.3152L27.2238 25.0711L27.2238 25.0711L27.2232 25.0709C27.0099 25.01 26.8523 24.9244 26.7435 24.8187C26.6442 24.7177 26.5905 24.5799 26.5905 24.394C26.5905 24.168 26.6663 23.9956 26.8141 23.8662L26.8142 23.8662C26.966 23.7329 27.172 23.6617 27.4427 23.6617C27.7129 23.6617 27.9233 23.7339 28.0829 23.8706L28.0829 23.8706L28.0835 23.8712C28.2414 24.0042 28.3315 24.1885 28.3489 24.4343L28.3555 24.5273H28.4487H28.889H28.9948L28.9889 24.4216C28.9685 24.0595 28.8405 23.7546 28.6023 23.5137C28.3859 23.2927 28.1097 23.1573 27.779 23.1044V22.5V22.4H27.679H27.3282H27.2282V22.5V23.1001C26.868 23.14 26.5668 23.2737 26.3309 23.5051C26.0766 23.7545 25.9501 24.0693 25.9501 24.442C25.9501 24.7438 26.0378 25.0023 26.218 25.2103C26.3967 25.4168 26.6676 25.5713 27.0193 25.6806L27.0192 25.6806L27.0212 25.6812L27.7009 25.8771C27.701 25.8771 27.7011 25.8771 27.7012 25.8771C27.9891 25.9618 28.1809 26.0598 28.2901 26.1642L28.2901 26.1642L28.2915 26.1655C28.3921 26.2579 28.4525 26.4107 28.4525 26.6467C28.4525 26.8574 28.3713 27.0245 28.2045 27.1561C28.036 27.2866 27.8056 27.3568 27.5036 27.3568C27.2074 27.3568 26.9797 27.2847 26.811 27.1497C26.6454 27.0148 26.5589 26.8317 26.5546 26.5895L26.5529 26.4912H26.4547H26H25.893L25.9002 26.598C25.9257 26.9711 26.0654 27.2826 26.3213 27.5257L26.3217 27.526C26.56 27.7501 26.8642 27.8816 27.2282 27.9249V28.5V28.6H27.3282H27.679Z" fill="#0898A0" stroke="#0898A0" stroke-width="0.2"/>
</svg>
