<svg width="42" height="42" viewBox="0 0 42 42" fill="none" xmlns="http://www.w3.org/2000/svg">
<path d="M0 21C0 9.40202 9.40202 0 21 0C32.598 0 42 9.40202 42 21C42 32.598 32.598 42 21 42C9.40202 42 0 32.598 0 21Z" fill="#E6F5F6"/>
<path d="M21 29C25.3789 29 29 25.3789 29 21C29 16.6211 25.3789 13 20.992 13C16.6132 13 13 16.6211 13 21C13 25.3789 16.6211 29 21 29ZM21 27.9711C17.1396 27.9711 14.0369 24.8604 14.0369 21C14.0369 17.1396 17.1396 14.0369 20.992 14.0369C24.8524 14.0369 27.9631 17.1396 27.9711 21C27.9711 24.8604 24.8604 27.9711 21 27.9711ZM20.992 25.4905C21.1755 25.4905 21.3111 25.3629 21.3111 25.1715V24.5733C22.5793 24.4776 23.5125 23.7358 23.5125 22.6032C23.5125 21.5743 22.8425 20.9601 21.4786 20.6889L21.3111 20.657V18.2562C21.997 18.344 22.4835 18.7428 22.6191 19.325C22.683 19.5324 22.8026 19.652 23.0179 19.652C23.2333 19.652 23.3928 19.5005 23.3928 19.2772C23.3928 19.1974 23.3769 19.1256 23.3609 19.0459C23.1695 18.2084 22.3559 17.6102 21.3111 17.5065V16.9561C21.3111 16.7647 21.1755 16.6371 20.992 16.6371C20.8086 16.6371 20.681 16.7647 20.681 16.9561V17.5065C19.5005 17.6261 18.6231 18.3679 18.6231 19.4048C18.6231 20.3619 19.2851 20.9521 20.5932 21.2632L20.681 21.2792V23.8395C19.8754 23.7438 19.341 23.2891 19.2293 22.659C19.1655 22.4357 19.0379 22.324 18.8385 22.324C18.6231 22.324 18.4636 22.4835 18.4636 22.7149C18.4636 22.7866 18.4796 22.8584 18.4955 22.9382C18.7029 23.8634 19.5803 24.4776 20.681 24.5653V25.1715C20.681 25.3629 20.8166 25.4905 20.992 25.4905ZM20.681 20.4975L20.6331 20.4816C19.8036 20.2582 19.4128 19.9232 19.4128 19.3729C19.4128 18.7986 19.9312 18.3519 20.681 18.2562V20.4975ZM21.3111 21.4387L21.4865 21.4786C22.3799 21.7099 22.7308 22.0608 22.7308 22.6431C22.7308 23.2812 22.2124 23.7597 21.3111 23.8395V21.4387Z" fill="#0898A0"/>
</svg>
