<svg width="42" height="43" viewBox="0 0 42 43" fill="none" xmlns="http://www.w3.org/2000/svg">
<rect y="0.685547" width="42" height="42" rx="21" fill="#71879C" fill-opacity="0.1"/>
<path d="M13.1136 19.8386L20.9999 15.1802L28.8862 19.8386C28.9636 19.8845 29.0488 19.9062 29.1329 19.9062C29.2992 19.9062 29.4612 19.8209 29.5519 19.6675C29.6886 19.4364 29.6119 19.1384 29.3805 19.0018L21.2472 14.1973C21.0947 14.1074 20.9055 14.1074 20.7529 14.1973L12.6193 19.0018C12.3883 19.1384 12.3115 19.4364 12.4479 19.6675C12.5845 19.8985 12.8825 19.9753 13.1136 19.8386Z" fill="#0898A0"/>
<path d="M29.1336 28.2695H12.8664C12.598 28.2695 12.3804 28.4872 12.3804 28.7555C12.3804 29.0239 12.598 29.2415 12.8664 29.2415H29.1336C29.4019 29.2415 29.6196 29.0239 29.6196 28.7555C29.6196 28.4868 29.4019 28.2695 29.1336 28.2695Z" fill="#0898A0"/>
<path d="M17.2672 20.5872C17.5355 20.5872 17.7532 20.3696 17.7532 20.1012C17.7532 19.8329 17.5355 19.6152 17.2672 19.6152H15.6393C15.3709 19.6152 15.1533 19.8329 15.1533 20.1012C15.1533 20.3696 15.3709 20.5872 15.6393 20.5872H15.9673V26.4465H15.6393C15.3709 26.4465 15.1533 26.6641 15.1533 26.9325C15.1533 27.2008 15.3709 27.4184 15.6393 27.4184H17.2672C17.5355 27.4184 17.7532 27.2008 17.7532 26.9325C17.7532 26.6641 17.5355 26.4465 17.2672 26.4465H16.9392V20.5872H17.2672Z" fill="#0898A0"/>
<path d="M26.3604 20.5745C26.6288 20.5745 26.8464 20.3569 26.8464 20.0885C26.8464 19.8202 26.6288 19.6025 26.3604 19.6025H24.7326C24.4642 19.6025 24.2466 19.8202 24.2466 20.0885C24.2466 20.3569 24.4642 20.5745 24.7326 20.5745H25.0605V26.4338H24.7326C24.4642 26.4338 24.2466 26.6514 24.2466 26.9198C24.2466 27.1881 24.4642 27.4057 24.7326 27.4057H26.3604C26.6288 27.4057 26.8464 27.1881 26.8464 26.9198C26.8464 26.6514 26.6288 26.4338 26.3604 26.4338H26.0325V20.5745H26.3604Z" fill="#0898A0"/>
<path d="M21.2387 26.7855H21.3387V26.6855V26.1133C21.842 26.0739 22.2563 25.9467 22.5747 25.7247C22.9195 25.4866 23.1 25.1714 23.1 24.7842C23.1 24.4719 22.9894 24.2034 22.7699 23.9846C22.55 23.7655 22.1976 23.607 21.7288 23.4993L21.7288 23.4993L21.7279 23.4991L20.6157 23.2549L20.6152 23.2548C20.3242 23.1925 20.1071 23.1042 19.9571 22.995C19.8207 22.891 19.7539 22.7557 19.7539 22.5795C19.7539 22.3651 19.8485 22.194 20.0525 22.0601L20.0526 22.0601C20.2634 21.9213 20.5509 21.8472 20.9236 21.8472C21.2959 21.8472 21.5888 21.9223 21.8099 22.0644L21.8099 22.0644L21.8105 22.0648C22.028 22.2023 22.143 22.3863 22.1654 22.6222L22.1739 22.7128H22.2649H22.852H22.9598L22.9518 22.6053C22.924 22.2341 22.7488 21.9276 22.4353 21.6899C22.1466 21.4686 21.7791 21.336 21.3387 21.2866V20.6855V20.5855H21.2387H20.7709H20.6709V20.6855V21.2833C20.1904 21.3194 19.7898 21.45 19.4753 21.6815C19.1412 21.9272 18.9668 22.2441 18.9668 22.6276C18.9668 22.9383 19.0881 23.2 19.3259 23.406C19.56 23.6088 19.9139 23.7604 20.3759 23.868L20.3759 23.868L20.3774 23.8684L21.284 24.0643C21.284 24.0643 21.2841 24.0644 21.2841 24.0644C21.6723 24.15 21.9358 24.2501 22.0873 24.3587L22.0873 24.3587L22.0889 24.3598C22.2278 24.4555 22.3033 24.6059 22.3033 24.8323C22.3033 25.0301 22.2028 25.1971 21.9709 25.3342C21.7369 25.4701 21.4174 25.5424 21.0048 25.5424C20.5992 25.5424 20.2833 25.4679 20.0494 25.3275C19.8203 25.1876 19.7116 25.0049 19.7062 24.7744L19.7039 24.6768H19.6062H19H18.8905L18.9004 24.7858C18.9352 25.1682 19.1262 25.4807 19.4623 25.7201L19.4627 25.7204C19.7801 25.9443 20.1848 26.0731 20.6709 26.113V26.6855V26.7855H20.7709H21.2387Z" fill="#0898A0" stroke="#0898A0" stroke-width="0.2"/>
</svg>
