<svg width="61" height="60" viewBox="0 0 61 60" fill="none" xmlns="http://www.w3.org/2000/svg">
<rect x="0.53418" width="60" height="60" rx="30" fill="#71879C" fill-opacity="0.1"/>
<path d="M19.2681 27.3604L30.5343 20.7056L41.8005 27.3604C41.911 27.4259 42.0328 27.4569 42.1529 27.4569C42.3904 27.4569 42.6218 27.3351 42.7515 27.1159C42.9467 26.7858 42.8371 26.3601 42.5066 26.1649L30.8876 19.3014C30.6697 19.173 30.3994 19.173 30.1815 19.3014L18.5621 26.1649C18.232 26.3601 18.1224 26.7858 18.3171 27.1159C18.5123 27.446 18.938 27.5556 19.2681 27.3604Z" fill="#0898A0"/>
<path d="M42.1539 39.4043H18.915C18.5316 39.4043 18.2207 39.7152 18.2207 40.0986C18.2207 40.4819 18.5316 40.7928 18.915 40.7928H42.1539C42.5372 40.7928 42.8481 40.4819 42.8481 40.0986C42.8481 39.7147 42.5372 39.4043 42.1539 39.4043Z" fill="#0898A0"/>
<path d="M25.2005 28.4305C25.5838 28.4305 25.8947 28.1196 25.8947 27.7363C25.8947 27.3529 25.5838 27.042 25.2005 27.042H22.8749C22.4916 27.042 22.1807 27.3529 22.1807 27.7363C22.1807 28.1196 22.4916 28.4305 22.8749 28.4305H23.3434V36.8009H22.8749C22.4916 36.8009 22.1807 37.1118 22.1807 37.4952C22.1807 37.8785 22.4916 38.1894 22.8749 38.1894H25.2005C25.5838 38.1894 25.8947 37.8785 25.8947 37.4952C25.8947 37.1118 25.5838 36.8009 25.2005 36.8009H24.732V28.4305H25.2005Z" fill="#0898A0"/>
<path d="M38.1907 28.412C38.5741 28.412 38.885 28.1011 38.885 27.7177C38.885 27.3343 38.5741 27.0234 38.1907 27.0234H35.8652C35.4818 27.0234 35.1709 27.3343 35.1709 27.7177C35.1709 28.1011 35.4818 28.412 35.8652 28.412H36.3337V36.7824H35.8652C35.4818 36.7824 35.1709 37.0932 35.1709 37.4766C35.1709 37.86 35.4818 38.1709 35.8652 38.1709H38.1907C38.5741 38.1709 38.885 37.86 38.885 37.4766C38.885 37.0932 38.5741 36.7824 38.1907 36.7824H37.7222V28.412H38.1907Z" fill="#0898A0"/>
<path d="M28.3493 29.9855C27.8699 30.3381 27.619 30.7935 27.619 31.3447C27.619 31.7914 27.7935 32.1677 28.1353 32.4638C28.4713 32.7549 28.9786 32.9719 29.6392 33.1258L29.6392 33.1258L29.6416 33.1264L30.9366 33.4063L30.9693 33.2576L29.6737 32.9776C29.0237 32.8261 28.5441 32.6165 28.2349 32.3487C27.9258 32.081 27.7712 31.7463 27.7712 31.3447C27.7712 30.8479 27.994 30.4357 28.4395 30.1081M28.3493 29.9855L28.4395 30.1081M28.3493 29.9855C28.3493 29.9855 28.3493 29.9855 28.3493 29.9855L28.4395 30.1081M28.3493 29.9855C28.7984 29.655 29.3696 29.4681 30.0534 29.4155M28.4395 30.1081C28.8896 29.7769 29.4783 29.5937 30.2056 29.5585M30.2056 29.5585H30.0534V29.4155M30.2056 29.5585V28.7225V28.5703H30.3578H30.7217H30.8739V28.7225V29.5585M30.2056 29.5585L30.1982 29.4065C30.1494 29.4088 30.1011 29.4119 30.0534 29.4155M30.0534 29.4155V28.5703V28.4181H30.2056H30.8739H31.0261V28.5703V29.4206M31.0261 29.4206C30.9802 29.4154 30.9337 29.4108 30.8867 29.4068L30.8739 29.5585M31.0261 29.4206V29.5585H30.8739M31.0261 29.4206C31.6529 29.492 32.1768 29.6817 32.5891 29.9976M30.8739 29.5585C31.5421 29.6149 32.0831 29.8016 32.4968 30.1187M32.4968 30.1187L32.5887 29.9974C32.5889 29.9974 32.589 29.9975 32.5891 29.9976M32.4968 30.1187L32.5894 29.9979C32.5893 29.9978 32.5892 29.9977 32.5891 29.9976M32.4968 30.1187L30.9369 33.4064C31.491 33.5286 31.8659 33.6713 32.0808 33.8253L32.0808 33.8253L32.0831 33.8269C32.2786 33.9615 32.3855 34.1732 32.3855 34.4942C32.3855 34.7728 32.2443 35.0085 31.9152 35.2031C31.5828 35.3962 31.1283 35.4993 30.5397 35.4993C29.9615 35.4993 29.512 35.3931 29.1798 35.1937C28.8549 34.9952 28.7017 34.7371 28.694 34.4113L28.6904 34.2627H28.5418H27.6758H27.5091L27.5242 34.4287C27.5741 34.9779 27.8486 35.4268 28.3307 35.7702L28.3313 35.7706C28.7846 36.0903 29.3616 36.2746 30.0534 36.3324V37.1417V37.294H30.2056H30.8739H31.0261V37.1417V36.3328C31.7425 36.2758 32.3333 36.0937 32.7881 35.7766C33.2827 35.4349 33.5423 34.9821 33.5423 34.4255C33.5423 33.9769 33.3833 33.5909 33.0679 33.2766C32.7519 32.9618 32.2465 32.7349 31.5762 32.5808L31.5748 32.5805L29.986 32.2317L29.9852 32.2316C29.5702 32.1426 29.2614 32.017 29.0487 31.862C28.8562 31.7153 28.7622 31.5247 28.7622 31.276C28.7622 30.9731 28.8955 30.7316 29.1845 30.5418L29.1846 30.5417C29.4838 30.3448 29.8925 30.2392 30.4238 30.2392C30.9544 30.2392 31.371 30.3463 31.6849 30.548L31.6849 30.548L31.6858 30.5485C31.9942 30.7435 32.1568 31.0039 32.1884 31.3379L32.2015 31.4757H32.3399H33.1787H33.3427L33.3305 31.3122C33.2906 30.779 33.0389 30.3387 32.5891 29.9976" fill="#0898A0" stroke="#0898A0" stroke-width="0.304439"/>
</svg>
