<svg width="42" height="43" viewBox="0 0 42 43" fill="none" xmlns="http://www.w3.org/2000/svg">
<path d="M0 21.9922C0 10.3942 9.40202 0.992188 21 0.992188C32.598 0.992188 42 10.3942 42 21.9922C42 33.5902 32.598 42.9922 21 42.9922C9.40202 42.9922 0 33.5902 0 21.9922Z" fill="#E6F5F6"/>
<path d="M14.8438 28.2896H27.2031C28.7266 28.2896 29.5 27.5083 29.5 26.0083V17.6567C29.5 16.1489 28.7266 15.3677 27.2031 15.3677H14.8438C13.3125 15.3677 12.5391 16.1411 12.5391 17.6567V26.0083C12.5391 27.5161 13.3125 28.2896 14.8438 28.2896ZM13.5078 17.7036C13.5078 16.8052 13.9844 16.3364 14.8594 16.3364H27.1797C28.0391 16.3364 28.5391 16.8052 28.5391 17.7036V18.3286H13.5078V17.7036ZM14.8594 27.3208C13.9844 27.3208 13.5078 26.8599 13.5078 25.9536V19.7786H28.5391V25.9536C28.5391 26.8599 28.0391 27.3208 27.1797 27.3208H14.8594ZM15.8047 24.3599H17.7188C18.1797 24.3599 18.4922 24.0474 18.4922 23.6099V22.6567C18.4922 22.2192 18.1797 21.9146 17.7188 21.9146H15.8047C15.3516 21.9146 15.0391 22.2192 15.0391 22.6567V23.6099C15.0391 24.0474 15.3516 24.3599 15.8047 24.3599Z" fill="#0898A0"/>
<circle cx="28" cy="25.9922" r="5" fill="#E6F5F6"/>
<path fill-rule="evenodd" clip-rule="evenodd" d="M28.2665 26.4827C28.4218 26.6208 28.4995 26.8366 28.4995 27.13C28.4995 27.412 28.3844 27.6407 28.1543 27.8162C27.9241 27.9889 27.6177 28.0752 27.235 28.0752C26.8581 28.0752 26.5546 27.986 26.3244 27.8076C26.0943 27.6263 25.9763 27.3789 25.9705 27.0653H25.4225C25.4298 27.1701 25.4457 27.2701 25.4699 27.3653C25.5401 27.641 25.6811 27.8762 25.8929 28.0709C26.1806 28.3327 26.5575 28.4808 27.0236 28.5154V29.2922H27.4465V28.5154C27.9299 28.4808 28.3154 28.3341 28.6031 28.0752C28.8937 27.8162 29.039 27.4825 29.039 27.0739C29.039 26.7402 28.9483 26.4568 28.7671 26.2238C28.5858 25.9907 28.2866 25.8123 27.8694 25.6886L26.8639 25.4038C26.5934 25.329 26.3834 25.2211 26.2338 25.0801C26.0871 24.9362 26.0137 24.7435 26.0137 24.5018C26.0137 24.2083 26.1173 23.9739 26.3244 23.7984C26.5345 23.62 26.8135 23.5308 27.1617 23.5308C27.5098 23.5308 27.7932 23.6214 28.0119 23.8027C28.2305 23.981 28.3514 24.227 28.3744 24.5406H28.9052C28.8991 24.4358 28.8846 24.3358 28.8617 24.2406C28.7978 23.9752 28.6684 23.7473 28.4736 23.5567C28.2118 23.2977 27.8694 23.1452 27.4465 23.0992V22.2922H27.0236V23.0992C26.5632 23.128 26.1906 23.2776 25.9058 23.548C25.6239 23.8156 25.4829 24.1522 25.4829 24.5579C25.4829 24.8859 25.5807 25.1592 25.7763 25.3779C25.972 25.5965 26.2755 25.7677 26.6869 25.8914L27.5069 26.1202C27.8608 26.2209 28.114 26.3417 28.2665 26.4827ZM27.4248 26.4087C27.4246 26.4087 27.4251 26.4088 27.4248 26.4087L26.6005 26.1788C26.1593 26.0461 25.7985 25.8526 25.5528 25.5779C25.302 25.2977 25.1829 24.9504 25.1829 24.5579C25.1829 24.074 25.3548 23.6574 25.6992 23.3305M27.4248 26.4087C27.7628 26.505 27.9623 26.61 28.0628 26.703L28.0672 26.7069C28.1356 26.7677 28.1995 26.8859 28.1995 27.13C28.1995 27.3152 28.1307 27.4566 27.9733 27.577C27.8099 27.6991 27.5734 27.7752 27.235 27.7752C26.9056 27.7752 26.673 27.6978 26.5091 27.5712C26.3558 27.4501 26.2747 27.2902 26.2705 27.0598L26.2651 26.7653H25.1006L25.1232 27.0864C25.157 27.5664 25.345 27.9748 25.6898 28.2917L25.691 28.2927C25.9741 28.5504 26.3226 28.7096 26.7236 28.7802V29.5922H27.7465V28.7818C28.1598 28.7129 28.517 28.556 28.8032 28.2987C29.1608 27.9798 29.339 27.563 29.339 27.0739C29.339 26.6826 29.2314 26.3321 29.0039 26.0396C28.7699 25.7387 28.4049 25.5345 27.9547 25.401L26.9456 25.1151L26.9439 25.1146C26.7059 25.0488 26.5454 24.9606 26.4418 24.8639C26.3639 24.7865 26.3137 24.6767 26.3137 24.5018C26.3137 24.2884 26.3844 24.1407 26.5184 24.0272C26.6611 23.906 26.8654 23.8308 27.1617 23.8308C27.4562 23.8308 27.6669 23.9064 27.8204 24.0336L27.8222 24.0351C27.9693 24.1551 28.0574 24.3209 28.0752 24.5626L28.0956 24.8406H29.2231L29.2047 24.5233C29.1777 24.058 29.0059 23.658 28.684 23.3428C28.4276 23.0894 28.1113 22.9257 27.7465 22.8447V21.9922H26.7236V22.8324C26.3255 22.9013 25.9796 23.0643 25.6992 23.3305" fill="#0898A0"/>
<path d="M29.0394 27.0737C29.0394 27.4823 28.8941 27.816 28.6035 28.075C28.3158 28.3339 27.9302 28.4806 27.4469 28.5152V29.292H27.024V28.5152C26.5579 28.4806 26.181 28.3325 25.8933 28.0707C25.6084 27.8088 25.4516 27.4737 25.4229 27.0651H25.9709C25.9767 27.3787 26.0947 27.6261 26.3248 27.8074C26.555 27.9858 26.8585 28.075 27.2354 28.075C27.6181 28.075 27.9245 27.9887 28.1547 27.816C28.3848 27.6405 28.4999 27.4118 28.4999 27.1298C28.4999 26.8364 28.4222 26.6206 28.2669 26.4825C28.1144 26.3415 27.8612 26.2207 27.5073 26.12L26.6873 25.8913C26.2759 25.7675 25.9724 25.5963 25.7767 25.3777C25.5811 25.159 25.4833 24.8857 25.4833 24.5577C25.4833 24.152 25.6242 23.8154 25.9062 23.5478C26.191 23.2774 26.5636 23.1278 27.024 23.099V22.292H27.4469V23.099C27.8698 23.1451 28.2122 23.2975 28.474 23.5565C28.7387 23.8154 28.8826 24.1434 28.9056 24.5405H28.3748C28.3517 24.2268 28.2309 23.9809 28.0122 23.8025C27.7936 23.6212 27.5102 23.5306 27.1621 23.5306C26.8139 23.5306 26.5349 23.6198 26.3248 23.7982C26.1177 23.9737 26.0141 24.2081 26.0141 24.5016C26.0141 24.7433 26.0875 24.9361 26.2342 25.0799C26.3838 25.2209 26.5938 25.3288 26.8643 25.4036L27.8698 25.6884C28.287 25.8121 28.5862 25.9905 28.7675 26.2236C28.9487 26.4566 29.0394 26.74 29.0394 27.0737Z" fill="#0898A0"/>
</svg>
