<svg width="29" height="25" viewBox="0 0 29 25" fill="none" xmlns="http://www.w3.org/2000/svg">
<path d="M1.89281 9.31736L14.5673 1.83066L27.2418 9.31736C27.3661 9.39104 27.5031 9.42592 27.6382 9.42592C27.9054 9.42592 28.1658 9.28887 28.3117 9.04227C28.5312 8.67091 28.4079 8.19197 28.0361 7.97239L14.9647 0.250892C14.7196 0.106473 14.4155 0.106473 14.1704 0.250892L1.09851 7.97239C0.727144 8.19197 0.603848 8.67091 0.822932 9.04227C1.04251 9.41364 1.52145 9.53693 1.89281 9.31736Z" fill="#0898A0"/>
<path d="M27.6389 22.8662H1.49515C1.06386 22.8662 0.714111 23.216 0.714111 23.6473C0.714111 24.0785 1.06386 24.4283 1.49515 24.4283H27.6389C28.0702 24.4283 28.4199 24.0785 28.4199 23.6473C28.4199 23.2155 28.0702 22.8662 27.6389 22.8662Z" fill="#0898A0"/>
<path d="M8.56843 10.5201C8.99972 10.5201 9.34947 10.1703 9.34947 9.73905C9.34947 9.30776 8.99972 8.95801 8.56843 8.95801H5.95218C5.52089 8.95801 5.17114 9.30776 5.17114 9.73905C5.17114 10.1703 5.52089 10.5201 5.95218 10.5201H6.47926V19.9368H5.95218C5.52089 19.9368 5.17114 20.2865 5.17114 20.7178C5.17114 21.1491 5.52089 21.4989 5.95218 21.4989H8.56843C8.99972 21.4989 9.34947 21.1491 9.34947 20.7178C9.34947 20.2865 8.99972 19.9368 8.56843 19.9368H8.04135V10.5201H8.56843Z" fill="#0898A0"/>
<path d="M23.182 10.4996C23.6132 10.4996 23.963 10.1498 23.963 9.71854C23.963 9.28725 23.6132 8.9375 23.182 8.9375H20.5657C20.1344 8.9375 19.7847 9.28725 19.7847 9.71854C19.7847 10.1498 20.1344 10.4996 20.5657 10.4996H21.0928V19.9163H20.5657C20.1344 19.9163 19.7847 20.266 19.7847 20.6973C19.7847 21.1286 20.1344 21.4784 20.5657 21.4784H23.182C23.6132 21.4784 23.963 21.1286 23.963 20.6973C23.963 20.266 23.6132 19.9163 23.182 19.9163H22.6549V10.4996H23.182Z" fill="#0898A0"/>
<path fill-rule="evenodd" clip-rule="evenodd" d="M16.2058 15.9863C16.4278 16.1836 16.5387 16.4918 16.5387 16.9111C16.5387 17.3139 16.3743 17.6406 16.0455 17.8914C15.7167 18.138 15.279 18.2613 14.7323 18.2613C14.1939 18.2613 13.7603 18.1339 13.4315 17.879C13.1026 17.6201 12.9341 17.2666 12.9259 16.8186H12.1429C12.1535 16.9684 12.1761 17.1112 12.2107 17.2472C12.311 17.6411 12.5124 17.977 12.8149 18.2551C13.2259 18.6291 13.7644 18.8408 14.4302 18.8901V19.9999H15.0344V18.8901C15.7249 18.8408 16.2757 18.6312 16.6867 18.2613C17.1018 17.8914 17.3094 17.4146 17.3094 16.8309C17.3094 16.3542 17.1799 15.9493 16.921 15.6164C16.662 15.2835 16.2346 15.0286 15.6386 14.8519L14.2021 14.445C13.8158 14.3381 13.5157 14.184 13.302 13.9826C13.0924 13.7771 12.9876 13.5017 12.9876 13.1565C12.9876 12.7372 13.1355 12.4022 13.4315 12.1515C13.7315 11.8967 14.1302 11.7693 14.6275 11.7693C15.1248 11.7693 15.5297 11.8988 15.8421 12.1577C16.1544 12.4125 16.3271 12.7639 16.3599 13.2119H17.1183C17.1096 13.0622 17.0889 12.9194 17.0561 12.7834C16.9648 12.4042 16.78 12.0785 16.5017 11.8063C16.1277 11.4364 15.6386 11.2185 15.0344 11.1528V9.99986H14.4302V11.1528C13.7726 11.1939 13.2403 11.4076 12.8334 11.7939C12.4306 12.1762 12.2292 12.6571 12.2292 13.2366C12.2292 13.7052 12.369 14.0956 12.6485 14.408C12.928 14.7204 13.3616 14.9649 13.9493 15.1417L15.1207 15.4684C15.6263 15.6123 15.988 15.7849 16.2058 15.9863ZM15.0034 15.8806C15.0031 15.8805 15.0038 15.8807 15.0034 15.8806L13.8259 15.5522C13.1955 15.3626 12.6802 15.0862 12.3291 14.6938C11.9708 14.2934 11.8007 13.7972 11.8007 13.2366C11.8007 12.5453 12.0462 11.9502 12.5383 11.4831M15.0034 15.8806C15.4863 16.0181 15.7712 16.1682 15.9149 16.301L15.9211 16.3066C16.0188 16.3935 16.1102 16.5623 16.1102 16.9111C16.1102 17.1755 16.0118 17.3776 15.787 17.5495C15.5535 17.7241 15.2157 17.8327 14.7323 17.8327C14.2616 17.8327 13.9293 17.7221 13.6953 17.5413C13.4763 17.3683 13.3604 17.1399 13.3544 16.8107L13.3467 16.39H11.6831L11.7154 16.8487C11.7637 17.5345 12.0323 18.1179 12.5249 18.5706L12.5265 18.5721C12.931 18.9402 13.4288 19.1676 14.0016 19.2685V20.4284H15.463V19.2708C16.0534 19.1722 16.5637 18.9482 16.9725 18.5806C17.4835 18.125 17.738 17.5296 17.738 16.8309C17.738 16.2719 17.5843 15.7711 17.2593 15.3533C16.9249 14.9234 16.4035 14.6317 15.7605 14.441L14.3189 14.0326L14.3164 14.0319C13.9763 13.9379 13.7471 13.8118 13.5991 13.6737C13.4878 13.5631 13.4161 13.4063 13.4161 13.1565C13.4161 12.8516 13.5172 12.6406 13.7085 12.4785C13.9124 12.3053 14.2043 12.1979 14.6275 12.1979C15.0483 12.1979 15.3493 12.3059 15.5685 12.4876L15.5711 12.4898C15.7813 12.6612 15.9072 12.898 15.9325 13.2433L15.9617 13.6405H17.5724L17.5461 13.1871C17.5076 12.5224 17.2621 11.951 16.8023 11.5007C16.4359 11.1388 15.9842 10.9049 15.463 10.7892V9.57129H14.0016V10.7716C13.4329 10.87 12.9389 11.1029 12.5383 11.4831" fill="#0898A0"/>
<path d="M17.3093 16.8301C17.3093 17.4137 17.1017 17.8905 16.6866 18.2604C16.2756 18.6303 15.7248 18.84 15.0343 18.8893V19.999H14.4301V18.8893C13.7643 18.84 13.2258 18.6283 12.8148 18.2543C12.4079 17.8802 12.1839 17.4014 12.1428 16.8178H12.9258C12.934 17.2658 13.1025 17.6192 13.4314 17.8782C13.7602 18.133 14.1938 18.2604 14.7322 18.2604C15.2789 18.2604 15.7166 18.1371 16.0454 17.8905C16.3742 17.6398 16.5386 17.313 16.5386 16.9102C16.5386 16.491 16.4277 16.1827 16.2057 15.9855C15.9879 15.7841 15.6262 15.6114 15.1206 15.4676L13.9492 15.1408C13.3615 14.9641 12.9279 14.7195 12.6484 14.4072C12.3689 14.0948 12.2291 13.7043 12.2291 13.2358C12.2291 12.6562 12.4305 12.1753 12.8333 11.7931C13.2402 11.4068 13.7725 11.193 14.4301 11.1519V9.99902H15.0343V11.1519C15.6385 11.2177 16.1276 11.4355 16.5016 11.8054C16.8798 12.1753 17.0853 12.6439 17.1182 13.2111H16.3598C16.327 12.7631 16.1543 12.4117 15.842 12.1569C15.5296 11.8979 15.1247 11.7684 14.6274 11.7684C14.1301 11.7684 13.7314 11.8959 13.4314 12.1507C13.1354 12.4014 12.9875 12.7364 12.9875 13.1556C12.9875 13.5009 13.0923 13.7763 13.3019 13.9818C13.5156 14.1832 13.8157 14.3373 14.202 14.4442L15.6385 14.8511C16.2345 15.0278 16.6619 15.2826 16.9209 15.6155C17.1798 15.9485 17.3093 16.3533 17.3093 16.8301Z" fill="#0898A0"/>
</svg>
