<svg width="12" height="12" viewBox="0 0 12 12" fill="none" xmlns="http://www.w3.org/2000/svg">
<path d="M9.89524 6.63364C10.0381 6.48368 10.0323 6.24631 9.88234 6.10347C9.73238 5.96063 9.49501 5.9664 9.35217 6.11636L6.37492 9.242V1.875C6.37492 1.66789 6.20703 1.5 5.99992 1.5C5.79282 1.5 5.62492 1.66789 5.62492 1.875V9.24218L2.64751 6.11636C2.50467 5.9664 2.2673 5.96063 2.11734 6.10347C1.96737 6.24631 1.9616 6.48368 2.10445 6.63364L5.6378 10.3431C5.71831 10.4276 5.82102 10.4776 5.92778 10.4931C5.95113 10.4976 5.97525 10.5 5.99992 10.5C6.02477 10.5 6.04905 10.4976 6.07255 10.493C6.17908 10.4774 6.28154 10.4275 6.36188 10.3431L9.89524 6.63364Z" fill="white"/>
</svg>
