<svg width="16" height="18" viewBox="0 0 16 18" fill="none" xmlns="http://www.w3.org/2000/svg">
<path d="M8.00367 10.2721C8.29707 10.2721 8.58313 10.1739 8.93521 9.96245L14.6711 6.53399C15.2653 6.17906 15.4927 5.89965 15.4927 5.48431C15.4927 5.07652 15.2653 4.79711 14.6711 4.44218L8.93521 1.01372C8.58313 0.802273 8.29707 0.704102 8.00367 0.704102C7.70293 0.704102 7.42421 0.802273 7.06479 1.01372L1.32885 4.44218C0.734719 4.79711 0.507335 5.07652 0.507335 5.48431C0.507335 5.89965 0.734719 6.17906 1.32885 6.53399L7.06479 9.96245C7.42421 10.1739 7.70293 10.2721 8.00367 10.2721ZM8.00367 8.95808C7.89364 8.95808 7.79829 8.92032 7.67359 8.85235L2.09169 5.55982C2.06235 5.54472 2.04034 5.52207 2.04034 5.48431C2.04034 5.4541 2.06235 5.43145 2.09169 5.41634L7.67359 2.12382C7.79829 2.05585 7.89364 2.01809 8.00367 2.01809C8.10636 2.01809 8.20171 2.05585 8.32641 2.12382L13.9083 5.41634C13.945 5.43145 13.9597 5.4541 13.9597 5.48431C13.9597 5.52207 13.945 5.54472 13.9083 5.55982L8.32641 8.85235C8.20171 8.92032 8.10636 8.95808 8.00367 8.95808ZM8.00367 13.995C8.26773 13.995 8.49511 13.8667 8.80318 13.6779L15.1039 9.84917C15.3753 9.67548 15.5 9.42628 15.5 9.19218C15.5 8.88256 15.28 8.6258 15.0746 8.52763L8.2824 12.5678C8.17237 12.6282 8.08435 12.6735 8.00367 12.6735C7.91565 12.6735 7.82763 12.6282 7.7176 12.5678L0.925428 8.52763C0.720049 8.6258 0.5 8.88256 0.5 9.19218C0.5 9.42628 0.632029 9.68304 0.903423 9.84917L7.19682 13.6779C7.51223 13.8667 7.73227 13.995 8.00367 13.995ZM8.00367 17.4688C8.26773 17.4688 8.49511 17.3404 8.80318 17.1516L15.1039 13.3229C15.368 13.1644 15.5 12.9 15.5 12.6659C15.5 12.3563 15.28 12.1071 15.0746 12.0014L8.2824 16.0491C8.17237 16.1095 8.08435 16.1548 8.00367 16.1548C7.91565 16.1548 7.82763 16.1095 7.7176 16.0491L0.925428 12.0014C0.720049 12.1071 0.5 12.3563 0.5 12.6659C0.5 12.9 0.632029 13.1644 0.903423 13.3229L7.19682 17.1516C7.51223 17.3404 7.73227 17.4688 8.00367 17.4688Z" fill="#0898A0"/>
</svg>