<svg width="269" height="97" viewBox="0 0 269 97" fill="none" xmlns="http://www.w3.org/2000/svg">
<g filter="url(#filter0_d)">
<rect x="24" y="17.0835" width="221" height="48.9098" fill="#E6F5F6"/>
</g>
<path d="M116.244 10.1502H113.794H87.6209H85.1682C80.7907 10.1502 77.2273 13.6351 77.2273 17.9207C77.2273 22.2063 80.7907 25.6894 85.1682 25.6894C86.6301 25.6894 88.1077 25.3363 89.3793 24.684H112.029C113.303 25.3363 114.781 25.6894 116.24 25.6894C120.618 25.6894 124.183 22.2063 124.183 17.9207C124.183 13.6351 120.622 10.1502 116.244 10.1502ZM108.537 20.063C108.701 21.2575 109.207 22.2934 109.977 23.133H91.4399C92.2099 22.2934 92.7156 21.2575 92.8799 20.063H108.537ZM116.244 24.1384C114.759 24.1384 113.23 23.7137 112.072 22.8974C110.916 22.083 110.13 20.88 110.12 19.3177C110.122 19.3132 110.126 19.302 110.126 19.2884C110.126 18.0845 111.193 17.1012 112.513 17.1012C113.833 17.1012 114.9 18.0863 114.9 19.2884C114.9 19.7203 115.282 20.063 115.739 20.063C116.197 20.063 116.579 19.7184 116.579 19.2884C116.579 17.2243 114.749 15.5502 112.511 15.5502C110.561 15.5502 108.923 16.8217 108.533 18.5138H92.8801C92.4911 16.8199 90.8512 15.5502 88.8996 15.5502C86.6621 15.5502 84.8321 17.2243 84.8321 19.2884C84.8321 19.7203 85.2139 20.063 85.6714 20.063C86.129 20.063 86.5107 19.7184 86.5107 19.2884C86.5107 18.0845 87.5773 17.1012 88.8976 17.1012C90.2179 17.1012 91.2865 18.0864 91.2865 19.2884C91.2865 19.2957 91.2878 19.3017 91.2888 19.3054C91.2893 19.3073 91.29 19.3093 91.2904 19.3108C91.2851 20.8747 90.5001 22.0795 89.3436 22.8954C88.1849 23.7128 86.6543 24.1384 85.1682 24.1384C81.7148 24.1384 78.9079 21.3491 78.9079 17.9207C78.9079 14.4923 81.7168 11.7012 85.1682 11.7012H87.619H113.792H116.242C119.698 11.7012 122.505 14.4923 122.505 17.9207C122.505 21.3491 119.698 24.1384 116.244 24.1384Z" fill="#0898A0" stroke="#0898A0" stroke-width="0.1"/>
<path d="M84.2692 52.5944V27.8942H117.143L117.043 52.5924V52.5926C117.043 53.026 117.42 53.3689 117.878 53.3708H117.878H117.878H117.878H117.878H117.878H117.878H117.878H117.879H117.879H117.879H117.879H117.879H117.879H117.879H117.879H117.879H117.879H117.879H117.879H117.879H117.879H117.879H117.879H117.879H117.879H117.879H117.879H117.879H117.879H117.879H117.879H117.879H117.879H117.879H117.879H117.879H117.88H117.88H117.88H117.88H117.88H117.88H117.88H117.88H117.88H117.88H117.88H117.88H117.88H117.88H117.88H117.88H117.88H117.88H117.88H117.88H117.88H117.88H117.88H117.88H117.88H117.88H117.88H117.88H117.88H117.88H117.88H117.881H117.881H117.881H117.881H117.881H117.881H117.881H117.881H117.881H117.881H117.881H117.881H117.881H117.881H117.881H117.881H117.881H117.881H117.881H117.881H117.881H117.881H117.881H117.881H117.881H117.881H117.881H117.881H117.881H117.881H117.882H117.882H117.882H117.882H117.882H117.882H117.882H117.882H117.882H117.882H117.882H117.882H117.882H117.882H117.882H117.882H117.882H117.882H117.882H117.882H117.882H117.882H117.882C118.342 53.3708 118.719 53.0281 118.722 52.6001L118.826 27.1234V27.1232C118.826 26.9167 118.737 26.7169 118.579 26.5719C118.422 26.4273 118.208 26.345 117.985 26.345H83.4299C82.9702 26.345 82.5906 26.6896 82.5906 27.1196V52.5944C82.5906 53.0264 82.9724 53.369 83.4299 53.369C83.8875 53.369 84.2692 53.0245 84.2692 52.5944Z" fill="#0898A0" stroke="#0898A0" stroke-width="0.1"/>
<path d="M90.5842 28.7142C90.1245 28.7142 89.7449 29.0588 89.7449 29.4888V52.5941C89.7449 53.0261 90.1267 53.3687 90.5842 53.3687C91.0418 53.3687 91.4235 53.0242 91.4235 52.5941V29.4906C91.4235 29.0587 91.0419 28.7142 90.5842 28.7142Z" fill="#0898A0" stroke="#0898A0" stroke-width="0.1"/>
<path d="M97.3303 28.7142C96.8706 28.7142 96.491 29.0588 96.491 29.4888V52.5941C96.491 53.0261 96.8728 53.3687 97.3303 53.3687C97.7879 53.3687 98.1696 53.0242 98.1696 52.5941V29.4906C98.1696 29.0587 97.788 28.7142 97.3303 28.7142Z" fill="#0898A0" stroke="#0898A0" stroke-width="0.1"/>
<path d="M104.925 29.4907C104.928 29.0586 104.546 28.7142 104.086 28.7142C103.626 28.7142 103.247 29.0588 103.247 29.4888V52.5941C103.247 53.0261 103.629 53.3687 104.086 53.3687C104.544 53.3687 104.925 53.0242 104.925 52.5941V29.4907ZM104.925 29.4907C104.925 29.4907 104.925 29.4908 104.925 29.4908L104.875 29.4906H104.925V29.4907Z" fill="#0898A0" stroke="#0898A0" stroke-width="0.1"/>
<path d="M111.675 29.4907C111.678 29.0586 111.296 28.7142 110.836 28.7142C110.376 28.7142 109.997 29.0588 109.997 29.4888V52.5941C109.997 53.0261 110.379 53.3687 110.836 53.3687C111.294 53.3687 111.675 53.0242 111.675 52.5941V29.4907ZM111.675 29.4907C111.675 29.4907 111.675 29.4908 111.675 29.4908L111.625 29.4906H111.675V29.4907Z" fill="#0898A0" stroke="#0898A0" stroke-width="0.1"/>
<path d="M183.336 10.1502H180.885H154.713H152.26C147.883 10.1502 144.319 13.6351 144.319 17.9207C144.319 22.2063 147.883 25.6894 152.26 25.6894C153.722 25.6894 155.2 25.3363 156.471 24.684H179.121C180.395 25.3363 181.872 25.6894 183.332 25.6894C187.71 25.6894 191.275 22.2063 191.275 17.9207C191.275 13.6351 187.714 10.1502 183.336 10.1502ZM175.628 20.063C175.793 21.2575 176.298 22.2934 177.068 23.133H158.532C159.302 22.2934 159.807 21.2575 159.972 20.063H175.628ZM183.336 24.1384C181.851 24.1384 180.322 23.7137 179.164 22.8974C178.008 22.083 177.222 20.88 177.212 19.3177C177.214 19.3132 177.218 19.302 177.218 19.2884C177.218 18.0845 178.285 17.1012 179.605 17.1012C180.925 17.1012 181.992 18.0863 181.992 19.2884C181.992 19.7203 182.374 20.063 182.831 20.063C183.289 20.063 183.67 19.7184 183.67 19.2884C183.67 17.2243 181.84 15.5502 179.603 15.5502C177.653 15.5502 176.015 16.8217 175.624 18.5138H159.972C159.583 16.8199 157.943 15.5502 155.991 15.5502C153.754 15.5502 151.924 17.2243 151.924 19.2884C151.924 19.7203 152.306 20.063 152.763 20.063C153.221 20.063 153.602 19.7184 153.602 19.2884C153.602 18.0845 154.669 17.1012 155.989 17.1012C157.31 17.1012 158.378 18.0864 158.378 19.2884C158.378 19.2957 158.38 19.3017 158.381 19.3054C158.381 19.3073 158.382 19.3093 158.382 19.3108C158.377 20.8747 157.592 22.0795 156.435 22.8954C155.277 23.7128 153.746 24.1384 152.26 24.1384C148.807 24.1384 146 21.3491 146 17.9207C146 14.4923 148.809 11.7012 152.26 11.7012H154.711H180.883H183.334C186.79 11.7012 189.597 14.4923 189.597 17.9207C189.597 21.3491 186.79 24.1384 183.336 24.1384Z" fill="#0898A0" stroke="#0898A0" stroke-width="0.1"/>
<path d="M151.361 52.5944V27.8942H184.235L184.135 52.5924V52.5926C184.135 53.026 184.512 53.3689 184.97 53.3708H184.97H184.97H184.97H184.97H184.97H184.97H184.97H184.97H184.97H184.97H184.97H184.97H184.971H184.971H184.971H184.971H184.971H184.971H184.971H184.971H184.971H184.971H184.971H184.971H184.971H184.971H184.971H184.971H184.971H184.971H184.971H184.971H184.971H184.971H184.971H184.971H184.971H184.971H184.971H184.971H184.971H184.971H184.972H184.972H184.972H184.972H184.972H184.972H184.972H184.972H184.972H184.972H184.972H184.972H184.972H184.972H184.972H184.972H184.972H184.972H184.972H184.972H184.972H184.972H184.972H184.972H184.972H184.972H184.972H184.972H184.972H184.972H184.972H184.973H184.973H184.973H184.973H184.973H184.973H184.973H184.973H184.973H184.973H184.973H184.973H184.973H184.973H184.973H184.973H184.973H184.973H184.973H184.973H184.973H184.973H184.973H184.973H184.973H184.973H184.973H184.973H184.973H184.973H184.974H184.974H184.974H184.974H184.974H184.974H184.974H184.974H184.974H184.974H184.974H184.974H184.974H184.974H184.974H184.974H184.974C185.434 53.3708 185.811 53.0281 185.813 52.6001L185.918 27.1234V27.1232C185.918 26.9167 185.829 26.7169 185.671 26.5719C185.513 26.4273 185.3 26.345 185.077 26.345H150.522C150.062 26.345 149.682 26.6896 149.682 27.1196V52.5944C149.682 53.0264 150.064 53.369 150.522 53.369C150.979 53.369 151.361 53.0245 151.361 52.5944Z" fill="#0898A0" stroke="#0898A0" stroke-width="0.1"/>
<path d="M157.676 28.7142C157.216 28.7142 156.837 29.0588 156.837 29.4888V52.5941C156.837 53.0261 157.218 53.3687 157.676 53.3687C158.134 53.3687 158.515 53.0242 158.515 52.5941V29.4906C158.515 29.0587 158.134 28.7142 157.676 28.7142Z" fill="#0898A0" stroke="#0898A0" stroke-width="0.1"/>
<path d="M164.422 28.7142C163.962 28.7142 163.583 29.0588 163.583 29.4888V52.5941C163.583 53.0261 163.965 53.3687 164.422 53.3687C164.88 53.3687 165.261 53.0242 165.261 52.5941V29.4906C165.261 29.0587 164.88 28.7142 164.422 28.7142Z" fill="#0898A0" stroke="#0898A0" stroke-width="0.1"/>
<path d="M172.017 29.4907C172.019 29.0586 171.637 28.7142 171.178 28.7142C170.718 28.7142 170.339 29.0588 170.339 29.4888V52.5941C170.339 53.0261 170.72 53.3687 171.178 53.3687C171.636 53.3687 172.017 53.0242 172.017 52.5941V29.4907ZM172.017 29.4907C172.017 29.4907 172.017 29.4908 172.017 29.4908L171.967 29.4906H172.017V29.4907Z" fill="#0898A0" stroke="#0898A0" stroke-width="0.1"/>
<path d="M178.765 29.4907C178.767 29.0586 178.385 28.7142 177.926 28.7142C177.466 28.7142 177.087 29.0588 177.087 29.4888V52.5941C177.087 53.0261 177.468 53.3687 177.926 53.3687C178.384 53.3687 178.765 53.0242 178.765 52.5941V29.4907ZM178.765 29.4907C178.765 29.4907 178.765 29.4908 178.765 29.4908L178.715 29.4906H178.765V29.4907Z" fill="#0898A0" stroke="#0898A0" stroke-width="0.1"/>
<defs>
<filter id="filter0_d" x="0" y="0.0834961" width="269" height="96.9098" filterUnits="userSpaceOnUse" color-interpolation-filters="sRGB">
<feFlood flood-opacity="0" result="BackgroundImageFix"/>
<feColorMatrix in="SourceAlpha" type="matrix" values="0 0 0 0 0 0 0 0 0 0 0 0 0 0 0 0 0 0 127 0"/>
<feOffset dy="7"/>
<feGaussianBlur stdDeviation="12"/>
<feColorMatrix type="matrix" values="0 0 0 0 0.0313726 0 0 0 0 0.596078 0 0 0 0 0.627451 0 0 0 0.25 0"/>
<feBlend mode="normal" in2="BackgroundImageFix" result="effect1_dropShadow"/>
<feBlend mode="normal" in="SourceGraphic" in2="effect1_dropShadow" result="shape"/>
</filter>
</defs>
</svg>
