<svg width="122" height="31" viewBox="0 0 122 31" fill="none" xmlns="http://www.w3.org/2000/svg">
<path d="M2.23781 22.7719C1.30373 23.3799 -0.00398737 24.5418 2.23781 24.3256C5.04007 24.0554 35.2644 9.26136 38.467 6.22149C41.6695 3.18162 42.8038 1.3577 38.467 1.01994C34.1302 0.682175 8.50955 4.66778 19.7853 10.5449C22.1338 11.7338 30.6385 12.7065 34.5972 13.0443C30.8831 15.5212 24.1621 20.7588 26.9911 21.8937C30.5273 23.3123 35.7982 20.0022 40.9356 15.8139C46.0731 11.6257 51.1438 3.18159 47.9413 2.10076C45.3792 1.2361 42.6036 19.4393 41.5361 28.6489C41.5806 26.5548 42.1366 22.0963 44.0048 21.0155C46.34 19.6644 49.4758 19.0565 47.9413 20.4751C46.4067 21.8937 41.0023 25.0011 45.0056 24.7309C49.0088 24.4607 49.5425 21.8937 48.7419 21.8937C47.9413 21.8937 46.7403 24.7309 47.3408 24.7309C47.9413 24.7309 49.6093 25.474 52.0112 21.8937C54.4131 18.3134 56.2813 14.598 55.9477 11.6932C55.6141 8.78847 54.7467 10.6124 54.2797 12.2337C53.8126 13.8549 53.012 22.907 54.2797 24.1229C55.5474 25.3389 58.4163 21.3533 59.5506 18.9214C60.6848 16.4895 63.754 4.66776 63.2202 3.78958C62.6864 2.9114 62.4863 3.99224 61.352 6.69434C60.2178 9.39645 59.0168 22.0963 59.2837 22.7719C59.5506 23.4474 60.1511 23.2447 60.7516 22.299C61.352 21.3533 62.1527 16.4895 62.0192 17.0299C61.8858 17.5703 62.1128 20.2108 63.6872 21.691C64.6213 22.5692 64.9549 24.5282 79.2331 24.7309C94.5223 24.9479 113.461 23.5149 121 24.1229M80.7676 19.6644V21.8937M78.8328 27.8383C78.944 28.1085 79.0996 28.73 78.8328 29.0543C78.5659 29.3785 78.1878 29.8199 78.0321 30" stroke="black" stroke-width="1.2" stroke-linecap="round" stroke-linejoin="round"/>
</svg>
