<svg width="71" height="72" viewBox="0 0 71 72" fill="none" xmlns="http://www.w3.org/2000/svg">
<path d="M0 36C0 16.3939 15.8939 0.5 35.5 0.5C55.1061 0.5 71 16.3939 71 36C71 55.6061 55.1061 71.5 35.5 71.5C15.8939 71.5 0 55.6061 0 36Z" fill="#E6F5F6"/>
<path d="M47.8522 31.6949C50.1752 31.6949 52.0996 29.736 52.0996 27.3545C52.0996 24.9729 50.1752 23 47.8522 23C45.5292 23 43.6048 24.9729 43.6048 27.3545C43.6048 29.736 45.5292 31.6949 47.8522 31.6949ZM23.8109 49H45.7353C48.0721 49 49.3505 47.6612 49.3505 45.2092V32.7377C49.0343 32.8363 48.7044 32.8927 48.347 32.935V45.181C48.347 45.6883 48.2783 46.1252 48.1271 46.5057L39.0687 37.5854L44.7182 31.9344C44.4433 31.7371 44.1821 31.5117 43.9484 31.258L36.5257 38.7127C35.9347 39.3187 35.3161 39.5442 34.8075 39.5442C34.3127 39.5442 33.6666 39.3046 33.103 38.7127L21.8866 27.4531C22.3402 27.0444 22.9862 26.8331 23.8247 26.8331H42.4089C42.4364 26.4808 42.4914 26.1425 42.6013 25.8184H23.7285C21.378 25.8184 20.0996 27.1149 20.0996 29.6092V45.2092C20.0996 47.6894 21.378 49 23.8109 49ZM21.103 45.181V29.6374C21.103 29.1301 21.1718 28.6932 21.3092 28.3268L30.5601 37.5854L21.3642 46.6325C21.1855 46.2238 21.103 45.7447 21.103 45.181ZM34.8075 40.5729C35.5498 40.5729 36.3608 40.277 37.1718 39.4737L38.3539 38.29L47.536 47.3653C47.0687 47.7599 46.4364 47.9713 45.6254 47.9713H23.8247C23.0549 47.9713 22.4501 47.7881 21.9965 47.4499L31.2749 38.29L32.457 39.4737C33.268 40.277 34.079 40.5729 34.8075 40.5729Z" fill="#0898A0"/>
</svg>
