<svg width="60" height="60" viewBox="0 0 60 60" fill="none" xmlns="http://www.w3.org/2000/svg">
<path d="M0 30C0 13.4315 13.4315 0 30 0C46.5685 0 60 13.4315 60 30C60 46.5685 46.5685 60 30 60C13.4315 60 0 46.5685 0 30Z" fill="#838F91" fill-opacity="0.05"/>
<path d="M18.5972 23.8638C19.52 23.8638 20.2583 23.1255 20.2583 22.2158C20.2583 21.293 19.52 20.5547 18.5972 20.5547C17.6743 20.5547 16.936 21.293 16.936 22.2158C16.936 23.1255 17.6743 23.8638 18.5972 23.8638ZM24.4243 23.2705H42.4331C43.0264 23.2705 43.501 22.8091 43.501 22.2158C43.501 21.6094 43.0264 21.1479 42.4331 21.1479H24.4243C23.8179 21.1479 23.3564 21.6094 23.3564 22.2158C23.3564 22.8091 23.8179 23.2705 24.4243 23.2705ZM18.5972 31.8398C19.52 31.8398 20.2583 31.1016 20.2583 30.1787C20.2583 29.2559 19.52 28.5176 18.5972 28.5176C17.6743 28.5176 16.936 29.2559 16.936 30.1787C16.936 31.1016 17.6743 31.8398 18.5972 31.8398ZM24.4243 31.2466H42.4331C43.0264 31.2466 43.501 30.772 43.501 30.1787C43.501 29.5854 43.0264 29.124 42.4331 29.124H24.4243C23.8179 29.124 23.3564 29.5854 23.3564 30.1787C23.3564 30.772 23.8179 31.2466 24.4243 31.2466ZM18.5972 39.8159C19.52 39.8159 20.2583 39.0645 20.2583 38.1548C20.2583 37.2319 19.52 36.4937 18.5972 36.4937C17.6743 36.4937 16.936 37.2319 16.936 38.1548C16.936 39.0645 17.6743 39.8159 18.5972 39.8159ZM24.4243 39.2095H42.4331C43.0264 39.2095 43.501 38.748 43.501 38.1548C43.501 37.5483 43.0264 37.0869 42.4331 37.0869H24.4243C23.8179 37.0869 23.3564 37.5483 23.3564 38.1548C23.3564 38.748 23.8179 39.2095 24.4243 39.2095Z" fill="#838F91"/>
</svg>
