<svg width="42" height="42" viewBox="0 0 42 42" fill="none" xmlns="http://www.w3.org/2000/svg">
<rect width="42" height="42" rx="21" fill="#71879C" fill-opacity="0.1"/>
<path d="M13.114 19.1531L21.0004 14.4947L28.8867 19.1531C28.9641 19.1989 29.0493 19.2206 29.1334 19.2206C29.2997 19.2206 29.4617 19.1354 29.5524 18.9819C29.6891 18.7509 29.6123 18.4528 29.381 18.3162L21.2477 13.5117C21.0951 13.4219 20.9059 13.4219 20.7534 13.5117L12.6198 18.3162C12.3887 18.4528 12.312 18.7509 12.4483 18.9819C12.585 19.213 12.883 19.2897 13.114 19.1531Z" fill="#0898A0"/>
<path d="M29.1341 27.5835H12.8668C12.5985 27.5835 12.3809 27.8011 12.3809 28.0695C12.3809 28.3378 12.5985 28.5555 12.8668 28.5555H29.1341C29.4024 28.5555 29.62 28.3378 29.62 28.0695C29.62 27.8008 29.4024 27.5835 29.1341 27.5835Z" fill="#0898A0"/>
<path d="M17.2662 19.9016C17.5346 19.9016 17.7522 19.684 17.7522 19.4157C17.7522 19.1473 17.5346 18.9297 17.2662 18.9297H15.6383C15.37 18.9297 15.1523 19.1473 15.1523 19.4157C15.1523 19.684 15.37 19.9016 15.6383 19.9016H15.9663V25.7609H15.6383C15.37 25.7609 15.1523 25.9786 15.1523 26.2469C15.1523 26.5153 15.37 26.7329 15.6383 26.7329H17.2662C17.5346 26.7329 17.7522 26.5153 17.7522 26.2469C17.7522 25.9786 17.5346 25.7609 17.2662 25.7609H16.9382V19.9016H17.2662Z" fill="#0898A0"/>
<path d="M26.36 19.8885C26.6283 19.8885 26.8459 19.6708 26.8459 19.4025C26.8459 19.1341 26.6283 18.9165 26.36 18.9165H24.7321C24.4637 18.9165 24.2461 19.1341 24.2461 19.4025C24.2461 19.6708 24.4637 19.8885 24.7321 19.8885H25.06V25.7477H24.7321C24.4637 25.7477 24.2461 25.9654 24.2461 26.2337C24.2461 26.5021 24.4637 26.7197 24.7321 26.7197H26.36C26.6283 26.7197 26.8459 26.5021 26.8459 26.2337C26.8459 25.9654 26.6283 25.7477 26.36 25.7477H26.032V19.8885H26.36Z" fill="#0898A0"/>
<mask id="path-6-inside-1_31555_36162" fill="white">
<path d="M21.75 23.4519C22.0205 23.4519 22.2399 23.2343 22.2399 22.9659C22.2399 22.6975 22.0205 22.4799 21.75 22.4799H18.4899C18.2194 22.4799 18 22.6975 18 22.9659C18 23.2343 18.2194 23.4519 18.4899 23.4519C19.2945 23.4519 20.9454 23.4519 21.75 23.4519Z"/>
<path d="M22.9413 20.7801C23.0629 20.5713 22.9915 20.3008 22.7655 20.2118C22.4115 20.0724 22.0328 20 21.6493 20C21.1184 20 20.5969 20.1386 20.1371 20.4019C19.6774 20.6652 19.2956 21.0439 19.0302 21.5C18.7647 21.9561 18.625 22.4734 18.625 23C18.625 23.5266 18.7647 24.0439 19.0302 24.5C19.2956 24.9561 19.6774 25.3348 20.1371 25.5981C20.5969 25.8614 21.1184 26 21.6493 26C22.0328 26 22.4115 25.9276 22.7655 25.7882C22.9915 25.6992 23.0629 25.4287 22.9413 25.2199C22.8197 25.011 22.551 24.9443 22.3201 25.0198C22.1045 25.0902 21.8781 25.1266 21.6493 25.1266C21.273 25.1266 20.9033 25.0283 20.5774 24.8417C20.2515 24.655 19.9809 24.3866 19.7927 24.0633C19.6045 23.74 19.5055 23.3733 19.5055 23C19.5055 22.6267 19.6045 22.26 19.7927 21.9367C19.9809 21.6134 20.2515 21.345 20.5774 21.1583C20.9033 20.9717 21.273 20.8734 21.6493 20.8734C21.8781 20.8734 22.1045 20.9098 22.3201 20.9802C22.551 21.0557 22.8197 20.989 22.9413 20.7801Z"/>
</mask>
<path d="M21.75 23.4519C22.0205 23.4519 22.2399 23.2343 22.2399 22.9659C22.2399 22.6975 22.0205 22.4799 21.75 22.4799H18.4899C18.2194 22.4799 18 22.6975 18 22.9659C18 23.2343 18.2194 23.4519 18.4899 23.4519C19.2945 23.4519 20.9454 23.4519 21.75 23.4519Z" fill="#0898A0"/>
<path d="M22.9413 20.7801C23.0629 20.5713 22.9915 20.3008 22.7655 20.2118C22.4115 20.0724 22.0328 20 21.6493 20C21.1184 20 20.5969 20.1386 20.1371 20.4019C19.6774 20.6652 19.2956 21.0439 19.0302 21.5C18.7647 21.9561 18.625 22.4734 18.625 23C18.625 23.5266 18.7647 24.0439 19.0302 24.5C19.2956 24.9561 19.6774 25.3348 20.1371 25.5981C20.5969 25.8614 21.1184 26 21.6493 26C22.0328 26 22.4115 25.9276 22.7655 25.7882C22.9915 25.6992 23.0629 25.4287 22.9413 25.2199C22.8197 25.011 22.551 24.9443 22.3201 25.0198C22.1045 25.0902 21.8781 25.1266 21.6493 25.1266C21.273 25.1266 20.9033 25.0283 20.5774 24.8417C20.2515 24.655 19.9809 24.3866 19.7927 24.0633C19.6045 23.74 19.5055 23.3733 19.5055 23C19.5055 22.6267 19.6045 22.26 19.7927 21.9367C19.9809 21.6134 20.2515 21.345 20.5774 21.1583C20.9033 20.9717 21.273 20.8734 21.6493 20.8734C21.8781 20.8734 22.1045 20.9098 22.3201 20.9802C22.551 21.0557 22.8197 20.989 22.9413 20.7801Z" fill="#0898A0"/>
<path d="M21.6493 20L21.6493 21.613L21.6493 20ZM21.6493 26L21.6493 27.613L21.6493 26ZM21.6493 25.1266L21.6493 26.7395L21.6493 25.1266ZM19.5055 23L21.1184 23L19.5055 23ZM21.6493 20.8734V19.2605V20.8734ZM22.3201 20.9802L21.819 22.5134L22.3201 20.9802ZM22.3201 25.0198L21.819 23.4866L22.3201 25.0198ZM22.7655 25.7882L22.1743 24.2875L22.7655 25.7882ZM22.7655 20.2118L23.3567 18.7111L22.7655 20.2118ZM21.75 25.0648C22.899 25.0648 23.8528 24.1373 23.8528 22.9659H20.6269C20.6269 22.3312 21.142 21.8389 21.75 21.8389V25.0648ZM23.8528 22.9659C23.8528 21.7945 22.899 20.8669 21.75 20.8669V24.0929C21.142 24.0929 20.6269 23.6006 20.6269 22.9659H23.8528ZM21.75 20.8669H18.4899V24.0929H21.75V20.8669ZM18.4899 20.8669C17.3409 20.8669 16.387 21.7945 16.387 22.9659H19.613C19.613 23.6006 19.0979 24.0929 18.4899 24.0929V20.8669ZM16.387 22.9659C16.387 24.1373 17.3409 25.0648 18.4899 25.0648V21.8389C19.0979 21.8389 19.613 22.3312 19.613 22.9659H16.387ZM18.4899 25.0648C18.4915 25.0648 18.4931 25.0648 18.4946 25.0648C18.4962 25.0648 18.4978 25.0648 18.4994 25.0648C18.501 25.0648 18.5026 25.0648 18.5041 25.0648C18.5057 25.0648 18.5073 25.0648 18.5089 25.0648C18.5105 25.0648 18.5121 25.0648 18.5137 25.0648C18.5153 25.0648 18.5169 25.0648 18.5185 25.0648C18.5202 25.0648 18.5218 25.0648 18.5234 25.0648C18.525 25.0648 18.5266 25.0648 18.5282 25.0648C18.5299 25.0648 18.5315 25.0648 18.5331 25.0648C18.5347 25.0648 18.5364 25.0648 18.538 25.0648C18.5396 25.0648 18.5413 25.0648 18.5429 25.0648C18.5446 25.0648 18.5462 25.0648 18.5479 25.0648C18.5495 25.0648 18.5512 25.0648 18.5528 25.0648C18.5545 25.0648 18.5561 25.0648 18.5578 25.0648C18.5594 25.0648 18.5611 25.0648 18.5628 25.0648C18.5644 25.0648 18.5661 25.0648 18.5678 25.0648C18.5694 25.0648 18.5711 25.0648 18.5728 25.0648C18.5745 25.0648 18.5762 25.0648 18.5778 25.0648C18.5795 25.0648 18.5812 25.0648 18.5829 25.0648C18.5846 25.0648 18.5863 25.0648 18.588 25.0648C18.5897 25.0648 18.5914 25.0648 18.5931 25.0648C18.5948 25.0648 18.5965 25.0648 18.5982 25.0648C18.5999 25.0648 18.6016 25.0648 18.6033 25.0648C18.605 25.0648 18.6067 25.0648 18.6085 25.0648C18.6102 25.0648 18.6119 25.0648 18.6136 25.0648C18.6154 25.0648 18.6171 25.0648 18.6188 25.0648C18.6205 25.0648 18.6223 25.0648 18.624 25.0648C18.6257 25.0648 18.6275 25.0648 18.6292 25.0648C18.631 25.0648 18.6327 25.0648 18.6345 25.0648C18.6362 25.0648 18.638 25.0648 18.6397 25.0648C18.6415 25.0648 18.6432 25.0648 18.645 25.0648C18.6467 25.0648 18.6485 25.0648 18.6503 25.0648C18.652 25.0648 18.6538 25.0648 18.6556 25.0648C18.6573 25.0648 18.6591 25.0648 18.6609 25.0648C18.6627 25.0648 18.6645 25.0648 18.6662 25.0648C18.668 25.0648 18.6698 25.0648 18.6716 25.0648C18.6734 25.0648 18.6752 25.0648 18.677 25.0648C18.6788 25.0648 18.6806 25.0648 18.6823 25.0648C18.6841 25.0648 18.6859 25.0648 18.6878 25.0648C18.6896 25.0648 18.6914 25.0648 18.6932 25.0648C18.695 25.0648 18.6968 25.0648 18.6986 25.0648C18.7004 25.0648 18.7022 25.0648 18.7041 25.0648C18.7059 25.0648 18.7077 25.0648 18.7095 25.0648C18.7114 25.0648 18.7132 25.0648 18.715 25.0648C18.7168 25.0648 18.7187 25.0648 18.7205 25.0648C18.7224 25.0648 18.7242 25.0648 18.726 25.0648C18.7279 25.0648 18.7297 25.0648 18.7316 25.0648C18.7334 25.0648 18.7353 25.0648 18.7371 25.0648C18.739 25.0648 18.7408 25.0648 18.7427 25.0648C18.7445 25.0648 18.7464 25.0648 18.7483 25.0648C18.7501 25.0648 18.752 25.0648 18.7539 25.0648C18.7557 25.0648 18.7576 25.0648 18.7595 25.0648C18.7613 25.0648 18.7632 25.0648 18.7651 25.0648C18.767 25.0648 18.7689 25.0648 18.7707 25.0648C18.7726 25.0648 18.7745 25.0648 18.7764 25.0648C18.7783 25.0648 18.7802 25.0648 18.7821 25.0648C18.784 25.0648 18.7859 25.0648 18.7878 25.0648C18.7897 25.0648 18.7916 25.0648 18.7935 25.0648C18.7954 25.0648 18.7973 25.0648 18.7992 25.0648C18.8011 25.0648 18.803 25.0648 18.8049 25.0648C18.8068 25.0648 18.8087 25.0648 18.8107 25.0648C18.8126 25.0648 18.8145 25.0648 18.8164 25.0648C18.8183 25.0648 18.8203 25.0648 18.8222 25.0648C18.8241 25.0648 18.8261 25.0648 18.828 25.0648C18.8299 25.0648 18.8319 25.0648 18.8338 25.0648C18.8357 25.0648 18.8377 25.0648 18.8396 25.0648C18.8416 25.0648 18.8435 25.0648 18.8455 25.0648C18.8474 25.0648 18.8494 25.0648 18.8513 25.0648C18.8533 25.0648 18.8552 25.0648 18.8572 25.0648C18.8591 25.0648 18.8611 25.0648 18.863 25.0648C18.865 25.0648 18.867 25.0648 18.8689 25.0648C18.8709 25.0648 18.8729 25.0648 18.8748 25.0648C18.8768 25.0648 18.8788 25.0648 18.8808 25.0648C18.8827 25.0648 18.8847 25.0648 18.8867 25.0648C18.8887 25.0648 18.8907 25.0648 18.8926 25.0648C18.8946 25.0648 18.8966 25.0648 18.8986 25.0648C18.9006 25.0648 18.9026 25.0648 18.9046 25.0648C18.9066 25.0648 18.9086 25.0648 18.9106 25.0648C18.9126 25.0648 18.9146 25.0648 18.9166 25.0648C18.9186 25.0648 18.9206 25.0648 18.9226 25.0648C18.9246 25.0648 18.9266 25.0648 18.9286 25.0648C18.9306 25.0648 18.9326 25.0648 18.9347 25.0648C18.9367 25.0648 18.9387 25.0648 18.9407 25.0648C18.9427 25.0648 18.9448 25.0648 18.9468 25.0648C18.9488 25.0648 18.9508 25.0648 18.9529 25.0648C18.9549 25.0648 18.9569 25.0648 18.959 25.0648C18.961 25.0648 18.963 25.0648 18.9651 25.0648C18.9671 25.0648 18.9691 25.0648 18.9712 25.0648C18.9732 25.0648 18.9753 25.0648 18.9773 25.0648C18.9794 25.0648 18.9814 25.0648 18.9835 25.0648C18.9855 25.0648 18.9876 25.0648 18.9896 25.0648C18.9917 25.0648 18.9937 25.0648 18.9958 25.0648C18.9978 25.0648 18.9999 25.0648 19.002 25.0648C19.004 25.0648 19.0061 25.0648 19.0082 25.0648C19.0102 25.0648 19.0123 25.0648 19.0144 25.0648C19.0164 25.0648 19.0185 25.0648 19.0206 25.0648C19.0227 25.0648 19.0247 25.0648 19.0268 25.0648C19.0289 25.0648 19.031 25.0648 19.0331 25.0648C19.0351 25.0648 19.0372 25.0648 19.0393 25.0648C19.0414 25.0648 19.0435 25.0648 19.0456 25.0648C19.0477 25.0648 19.0498 25.0648 19.0519 25.0648C19.054 25.0648 19.0561 25.0648 19.0582 25.0648C19.0603 25.0648 19.0624 25.0648 19.0645 25.0648C19.0666 25.0648 19.0687 25.0648 19.0708 25.0648C19.0729 25.0648 19.075 25.0648 19.0771 25.0648C19.0792 25.0648 19.0813 25.0648 19.0834 25.0648C19.0855 25.0648 19.0877 25.0648 19.0898 25.0648C19.0919 25.0648 19.094 25.0648 19.0961 25.0648C19.0983 25.0648 19.1004 25.0648 19.1025 25.0648C19.1046 25.0648 19.1068 25.0648 19.1089 25.0648C19.111 25.0648 19.1132 25.0648 19.1153 25.0648C19.1174 25.0648 19.1196 25.0648 19.1217 25.0648C19.1238 25.0648 19.126 25.0648 19.1281 25.0648C19.1302 25.0648 19.1324 25.0648 19.1345 25.0648C19.1367 25.0648 19.1388 25.0648 19.141 25.0648C19.1431 25.0648 19.1453 25.0648 19.1474 25.0648C19.1496 25.0648 19.1517 25.0648 19.1539 25.0648C19.156 25.0648 19.1582 25.0648 19.1603 25.0648C19.1625 25.0648 19.1647 25.0648 19.1668 25.0648C19.169 25.0648 19.1711 25.0648 19.1733 25.0648C19.1755 25.0648 19.1776 25.0648 19.1798 25.0648C19.182 25.0648 19.1841 25.0648 19.1863 25.0648C19.1885 25.0648 19.1907 25.0648 19.1928 25.0648C19.195 25.0648 19.1972 25.0648 19.1994 25.0648C19.2015 25.0648 19.2037 25.0648 19.2059 25.0648C19.2081 25.0648 19.2103 25.0648 19.2125 25.0648C19.2146 25.0648 19.2168 25.0648 19.219 25.0648C19.2212 25.0648 19.2234 25.0648 19.2256 25.0648C19.2278 25.0648 19.23 25.0648 19.2322 25.0648C19.2344 25.0648 19.2366 25.0648 19.2387 25.0648C19.2409 25.0648 19.2431 25.0648 19.2453 25.0648C19.2475 25.0648 19.2497 25.0648 19.252 25.0648C19.2542 25.0648 19.2564 25.0648 19.2586 25.0648C19.2608 25.0648 19.263 25.0648 19.2652 25.0648C19.2674 25.0648 19.2696 25.0648 19.2718 25.0648C19.274 25.0648 19.2763 25.0648 19.2785 25.0648C19.2807 25.0648 19.2829 25.0648 19.2851 25.0648C19.2873 25.0648 19.2896 25.0648 19.2918 25.0648C19.294 25.0648 19.2962 25.0648 19.2985 25.0648C19.3007 25.0648 19.3029 25.0648 19.3051 25.0648C19.3074 25.0648 19.3096 25.0648 19.3118 25.0648C19.3141 25.0648 19.3163 25.0648 19.3185 25.0648C19.3208 25.0648 19.323 25.0648 19.3252 25.0648C19.3275 25.0648 19.3297 25.0648 19.332 25.0648C19.3342 25.0648 19.3364 25.0648 19.3387 25.0648C19.3409 25.0648 19.3432 25.0648 19.3454 25.0648C19.3477 25.0648 19.3499 25.0648 19.3521 25.0648C19.3544 25.0648 19.3566 25.0648 19.3589 25.0648C19.3611 25.0648 19.3634 25.0648 19.3657 25.0648C19.3679 25.0648 19.3702 25.0648 19.3724 25.0648C19.3747 25.0648 19.3769 25.0648 19.3792 25.0648C19.3814 25.0648 19.3837 25.0648 19.386 25.0648C19.3882 25.0648 19.3905 25.0648 19.3928 25.0648C19.395 25.0648 19.3973 25.0648 19.3996 25.0648C19.4018 25.0648 19.4041 25.0648 19.4064 25.0648C19.4086 25.0648 19.4109 25.0648 19.4132 25.0648C19.4154 25.0648 19.4177 25.0648 19.42 25.0648C19.4223 25.0648 19.4245 25.0648 19.4268 25.0648C19.4291 25.0648 19.4314 25.0648 19.4337 25.0648C19.4359 25.0648 19.4382 25.0648 19.4405 25.0648C19.4428 25.0648 19.4451 25.0648 19.4473 25.0648C19.4496 25.0648 19.4519 25.0648 19.4542 25.0648C19.4565 25.0648 19.4588 25.0648 19.4611 25.0648C19.4633 25.0648 19.4656 25.0648 19.4679 25.0648C19.4702 25.0648 19.4725 25.0648 19.4748 25.0648C19.4771 25.0648 19.4794 25.0648 19.4817 25.0648C19.484 25.0648 19.4863 25.0648 19.4886 25.0648C19.4909 25.0648 19.4932 25.0648 19.4955 25.0648C19.4978 25.0648 19.5001 25.0648 19.5024 25.0648C19.5047 25.0648 19.507 25.0648 19.5093 25.0648C19.5116 25.0648 19.5139 25.0648 19.5162 25.0648C19.5185 25.0648 19.5208 25.0648 19.5231 25.0648C19.5254 25.0648 19.5278 25.0648 19.5301 25.0648C19.5324 25.0648 19.5347 25.0648 19.537 25.0648C19.5393 25.0648 19.5416 25.0648 19.5439 25.0648C19.5463 25.0648 19.5486 25.0648 19.5509 25.0648C19.5532 25.0648 19.5555 25.0648 19.5578 25.0648C19.5602 25.0648 19.5625 25.0648 19.5648 25.0648C19.5671 25.0648 19.5695 25.0648 19.5718 25.0648C19.5741 25.0648 19.5764 25.0648 19.5787 25.0648C19.5811 25.0648 19.5834 25.0648 19.5857 25.0648C19.5881 25.0648 19.5904 25.0648 19.5927 25.0648C19.595 25.0648 19.5974 25.0648 19.5997 25.0648C19.602 25.0648 19.6044 25.0648 19.6067 25.0648C19.609 25.0648 19.6114 25.0648 19.6137 25.0648C19.616 25.0648 19.6184 25.0648 19.6207 25.0648C19.623 25.0648 19.6254 25.0648 19.6277 25.0648C19.63 25.0648 19.6324 25.0648 19.6347 25.0648C19.6371 25.0648 19.6394 25.0648 19.6417 25.0648C19.6441 25.0648 19.6464 25.0648 19.6488 25.0648C19.6511 25.0648 19.6535 25.0648 19.6558 25.0648C19.6582 25.0648 19.6605 25.0648 19.6628 25.0648C19.6652 25.0648 19.6675 25.0648 19.6699 25.0648C19.6722 25.0648 19.6746 25.0648 19.6769 25.0648C19.6793 25.0648 19.6816 25.0648 19.684 25.0648C19.6863 25.0648 19.6887 25.0648 19.691 25.0648C19.6934 25.0648 19.6957 25.0648 19.6981 25.0648C19.7005 25.0648 19.7028 25.0648 19.7052 25.0648C19.7075 25.0648 19.7099 25.0648 19.7122 25.0648C19.7146 25.0648 19.7169 25.0648 19.7193 25.0648C19.7217 25.0648 19.724 25.0648 19.7264 25.0648C19.7287 25.0648 19.7311 25.0648 19.7335 25.0648C19.7358 25.0648 19.7382 25.0648 19.7405 25.0648C19.7429 25.0648 19.7453 25.0648 19.7476 25.0648C19.75 25.0648 19.7524 25.0648 19.7547 25.0648C19.7571 25.0648 19.7595 25.0648 19.7618 25.0648C19.7642 25.0648 19.7666 25.0648 19.7689 25.0648C19.7713 25.0648 19.7737 25.0648 19.776 25.0648C19.7784 25.0648 19.7808 25.0648 19.7831 25.0648C19.7855 25.0648 19.7879 25.0648 19.7903 25.0648C19.7926 25.0648 19.795 25.0648 19.7974 25.0648C19.7997 25.0648 19.8021 25.0648 19.8045 25.0648C19.8069 25.0648 19.8092 25.0648 19.8116 25.0648C19.814 25.0648 19.8164 25.0648 19.8187 25.0648C19.8211 25.0648 19.8235 25.0648 19.8259 25.0648C19.8282 25.0648 19.8306 25.0648 19.833 25.0648C19.8354 25.0648 19.8378 25.0648 19.8401 25.0648C19.8425 25.0648 19.8449 25.0648 19.8473 25.0648C19.8496 25.0648 19.852 25.0648 19.8544 25.0648C19.8568 25.0648 19.8592 25.0648 19.8616 25.0648C19.8639 25.0648 19.8663 25.0648 19.8687 25.0648C19.8711 25.0648 19.8735 25.0648 19.8758 25.0648C19.8782 25.0648 19.8806 25.0648 19.883 25.0648C19.8854 25.0648 19.8878 25.0648 19.8902 25.0648C19.8925 25.0648 19.8949 25.0648 19.8973 25.0648C19.8997 25.0648 19.9021 25.0648 19.9045 25.0648C19.9069 25.0648 19.9092 25.0648 19.9116 25.0648C19.914 25.0648 19.9164 25.0648 19.9188 25.0648C19.9212 25.0648 19.9236 25.0648 19.926 25.0648C19.9283 25.0648 19.9307 25.0648 19.9331 25.0648C19.9355 25.0648 19.9379 25.0648 19.9403 25.0648C19.9427 25.0648 19.9451 25.0648 19.9475 25.0648C19.9499 25.0648 19.9522 25.0648 19.9546 25.0648C19.957 25.0648 19.9594 25.0648 19.9618 25.0648C19.9642 25.0648 19.9666 25.0648 19.969 25.0648C19.9714 25.0648 19.9738 25.0648 19.9762 25.0648C19.9786 25.0648 19.981 25.0648 19.9833 25.0648C19.9857 25.0648 19.9881 25.0648 19.9905 25.0648C19.9929 25.0648 19.9953 25.0648 19.9977 25.0648C20.0001 25.0648 20.0025 25.0648 20.0049 25.0648C20.0073 25.0648 20.0097 25.0648 20.0121 25.0648C20.0145 25.0648 20.0169 25.0648 20.0193 25.0648C20.0217 25.0648 20.0241 25.0648 20.0265 25.0648C20.0288 25.0648 20.0312 25.0648 20.0336 25.0648C20.036 25.0648 20.0384 25.0648 20.0408 25.0648C20.0432 25.0648 20.0456 25.0648 20.048 25.0648C20.0504 25.0648 20.0528 25.0648 20.0552 25.0648C20.0576 25.0648 20.06 25.0648 20.0624 25.0648C20.0648 25.0648 20.0672 25.0648 20.0696 25.0648C20.072 25.0648 20.0744 25.0648 20.0768 25.0648C20.0792 25.0648 20.0816 25.0648 20.084 25.0648C20.0864 25.0648 20.0888 25.0648 20.0912 25.0648C20.0936 25.0648 20.096 25.0648 20.0984 25.0648C20.1008 25.0648 20.1032 25.0648 20.1056 25.0648C20.108 25.0648 20.1104 25.0648 20.1128 25.0648C20.1151 25.0648 20.1175 25.0648 20.1199 25.0648C20.1223 25.0648 20.1247 25.0648 20.1271 25.0648C20.1295 25.0648 20.1319 25.0648 20.1343 25.0648C20.1367 25.0648 20.1391 25.0648 20.1415 25.0648C20.1439 25.0648 20.1463 25.0648 20.1487 25.0648C20.1511 25.0648 20.1535 25.0648 20.1559 25.0648C20.1583 25.0648 20.1607 25.0648 20.1631 25.0648C20.1655 25.0648 20.1679 25.0648 20.1703 25.0648C20.1727 25.0648 20.1751 25.0648 20.1775 25.0648C20.1799 25.0648 20.1823 25.0648 20.1847 25.0648C20.1871 25.0648 20.1895 25.0648 20.1919 25.0648C20.1943 25.0648 20.1967 25.0648 20.1991 25.0648C20.2015 25.0648 20.2039 25.0648 20.2062 25.0648C20.2086 25.0648 20.211 25.0648 20.2134 25.0648C20.2158 25.0648 20.2182 25.0648 20.2206 25.0648C20.223 25.0648 20.2254 25.0648 20.2278 25.0648C20.2302 25.0648 20.2326 25.0648 20.235 25.0648C20.2374 25.0648 20.2398 25.0648 20.2422 25.0648C20.2446 25.0648 20.247 25.0648 20.2494 25.0648C20.2518 25.0648 20.2541 25.0648 20.2565 25.0648C20.2589 25.0648 20.2613 25.0648 20.2637 25.0648C20.2661 25.0648 20.2685 25.0648 20.2709 25.0648C20.2733 25.0648 20.2757 25.0648 20.2781 25.0648C20.2805 25.0648 20.2829 25.0648 20.2852 25.0648C20.2876 25.0648 20.29 25.0648 20.2924 25.0648C20.2948 25.0648 20.2972 25.0648 20.2996 25.0648C20.302 25.0648 20.3044 25.0648 20.3068 25.0648C20.3092 25.0648 20.3115 25.0648 20.3139 25.0648C20.3163 25.0648 20.3187 25.0648 20.3211 25.0648C20.3235 25.0648 20.3259 25.0648 20.3283 25.0648C20.3306 25.0648 20.333 25.0648 20.3354 25.0648C20.3378 25.0648 20.3402 25.0648 20.3426 25.0648C20.345 25.0648 20.3473 25.0648 20.3497 25.0648C20.3521 25.0648 20.3545 25.0648 20.3569 25.0648C20.3593 25.0648 20.3617 25.0648 20.364 25.0648C20.3664 25.0648 20.3688 25.0648 20.3712 25.0648C20.3736 25.0648 20.376 25.0648 20.3783 25.0648C20.3807 25.0648 20.3831 25.0648 20.3855 25.0648C20.3879 25.0648 20.3902 25.0648 20.3926 25.0648C20.395 25.0648 20.3974 25.0648 20.3998 25.0648C20.4021 25.0648 20.4045 25.0648 20.4069 25.0648C20.4093 25.0648 20.4116 25.0648 20.414 25.0648C20.4164 25.0648 20.4188 25.0648 20.4212 25.0648C20.4235 25.0648 20.4259 25.0648 20.4283 25.0648C20.4307 25.0648 20.433 25.0648 20.4354 25.0648C20.4378 25.0648 20.4401 25.0648 20.4425 25.0648C20.4449 25.0648 20.4473 25.0648 20.4496 25.0648C20.452 25.0648 20.4544 25.0648 20.4567 25.0648C20.4591 25.0648 20.4615 25.0648 20.4639 25.0648C20.4662 25.0648 20.4686 25.0648 20.471 25.0648C20.4733 25.0648 20.4757 25.0648 20.4781 25.0648C20.4804 25.0648 20.4828 25.0648 20.4852 25.0648C20.4875 25.0648 20.4899 25.0648 20.4923 25.0648C20.4946 25.0648 20.497 25.0648 20.4993 25.0648C20.5017 25.0648 20.5041 25.0648 20.5064 25.0648C20.5088 25.0648 20.5111 25.0648 20.5135 25.0648C20.5159 25.0648 20.5182 25.0648 20.5206 25.0648C20.5229 25.0648 20.5253 25.0648 20.5277 25.0648C20.53 25.0648 20.5324 25.0648 20.5347 25.0648C20.5371 25.0648 20.5394 25.0648 20.5418 25.0648C20.5441 25.0648 20.5465 25.0648 20.5489 25.0648C20.5512 25.0648 20.5536 25.0648 20.5559 25.0648C20.5583 25.0648 20.5606 25.0648 20.563 25.0648C20.5653 25.0648 20.5677 25.0648 20.57 25.0648C20.5724 25.0648 20.5747 25.0648 20.577 25.0648C20.5794 25.0648 20.5817 25.0648 20.5841 25.0648C20.5864 25.0648 20.5888 25.0648 20.5911 25.0648C20.5935 25.0648 20.5958 25.0648 20.5981 25.0648C20.6005 25.0648 20.6028 25.0648 20.6052 25.0648C20.6075 25.0648 20.6098 25.0648 20.6122 25.0648C20.6145 25.0648 20.6169 25.0648 20.6192 25.0648C20.6215 25.0648 20.6239 25.0648 20.6262 25.0648C20.6285 25.0648 20.6309 25.0648 20.6332 25.0648C20.6355 25.0648 20.6379 25.0648 20.6402 25.0648C20.6425 25.0648 20.6448 25.0648 20.6472 25.0648C20.6495 25.0648 20.6518 25.0648 20.6542 25.0648C20.6565 25.0648 20.6588 25.0648 20.6611 25.0648C20.6635 25.0648 20.6658 25.0648 20.6681 25.0648C20.6704 25.0648 20.6728 25.0648 20.6751 25.0648C20.6774 25.0648 20.6797 25.0648 20.682 25.0648C20.6844 25.0648 20.6867 25.0648 20.689 25.0648C20.6913 25.0648 20.6936 25.0648 20.6959 25.0648C20.6983 25.0648 20.7006 25.0648 20.7029 25.0648C20.7052 25.0648 20.7075 25.0648 20.7098 25.0648C20.7121 25.0648 20.7144 25.0648 20.7168 25.0648C20.7191 25.0648 20.7214 25.0648 20.7237 25.0648C20.726 25.0648 20.7283 25.0648 20.7306 25.0648C20.7329 25.0648 20.7352 25.0648 20.7375 25.0648C20.7398 25.0648 20.7421 25.0648 20.7444 25.0648C20.7467 25.0648 20.749 25.0648 20.7513 25.0648C20.7536 25.0648 20.7559 25.0648 20.7582 25.0648C20.7605 25.0648 20.7628 25.0648 20.7651 25.0648C20.7674 25.0648 20.7697 25.0648 20.772 25.0648C20.7742 25.0648 20.7765 25.0648 20.7788 25.0648C20.7811 25.0648 20.7834 25.0648 20.7857 25.0648C20.788 25.0648 20.7903 25.0648 20.7925 25.0648C20.7948 25.0648 20.7971 25.0648 20.7994 25.0648C20.8017 25.0648 20.804 25.0648 20.8062 25.0648C20.8085 25.0648 20.8108 25.0648 20.8131 25.0648C20.8153 25.0648 20.8176 25.0648 20.8199 25.0648C20.8222 25.0648 20.8244 25.0648 20.8267 25.0648C20.829 25.0648 20.8313 25.0648 20.8335 25.0648C20.8358 25.0648 20.8381 25.0648 20.8403 25.0648C20.8426 25.0648 20.8449 25.0648 20.8471 25.0648C20.8494 25.0648 20.8517 25.0648 20.8539 25.0648C20.8562 25.0648 20.8584 25.0648 20.8607 25.0648C20.863 25.0648 20.8652 25.0648 20.8675 25.0648C20.8697 25.0648 20.872 25.0648 20.8742 25.0648C20.8765 25.0648 20.8787 25.0648 20.881 25.0648C20.8832 25.0648 20.8855 25.0648 20.8877 25.0648C20.89 25.0648 20.8922 25.0648 20.8945 25.0648C20.8967 25.0648 20.899 25.0648 20.9012 25.0648C20.9035 25.0648 20.9057 25.0648 20.9079 25.0648C20.9102 25.0648 20.9124 25.0648 20.9147 25.0648C20.9169 25.0648 20.9191 25.0648 20.9214 25.0648C20.9236 25.0648 20.9258 25.0648 20.9281 25.0648C20.9303 25.0648 20.9325 25.0648 20.9347 25.0648C20.937 25.0648 20.9392 25.0648 20.9414 25.0648C20.9437 25.0648 20.9459 25.0648 20.9481 25.0648C20.9503 25.0648 20.9525 25.0648 20.9548 25.0648C20.957 25.0648 20.9592 25.0648 20.9614 25.0648C20.9636 25.0648 20.9658 25.0648 20.9681 25.0648C20.9703 25.0648 20.9725 25.0648 20.9747 25.0648C20.9769 25.0648 20.9791 25.0648 20.9813 25.0648C20.9835 25.0648 20.9857 25.0648 20.9879 25.0648C20.9901 25.0648 20.9923 25.0648 20.9945 25.0648C20.9967 25.0648 20.9989 25.0648 21.0011 25.0648C21.0033 25.0648 21.0055 25.0648 21.0077 25.0648C21.0099 25.0648 21.0121 25.0648 21.0143 25.0648C21.0165 25.0648 21.0187 25.0648 21.0209 25.0648C21.0231 25.0648 21.0253 25.0648 21.0274 25.0648C21.0296 25.0648 21.0318 25.0648 21.034 25.0648C21.0362 25.0648 21.0383 25.0648 21.0405 25.0648C21.0427 25.0648 21.0449 25.0648 21.0471 25.0648C21.0492 25.0648 21.0514 25.0648 21.0536 25.0648C21.0557 25.0648 21.0579 25.0648 21.0601 25.0648C21.0623 25.0648 21.0644 25.0648 21.0666 25.0648C21.0687 25.0648 21.0709 25.0648 21.0731 25.0648C21.0752 25.0648 21.0774 25.0648 21.0796 25.0648C21.0817 25.0648 21.0839 25.0648 21.086 25.0648C21.0882 25.0648 21.0903 25.0648 21.0925 25.0648C21.0946 25.0648 21.0968 25.0648 21.0989 25.0648C21.1011 25.0648 21.1032 25.0648 21.1054 25.0648C21.1075 25.0648 21.1096 25.0648 21.1118 25.0648C21.1139 25.0648 21.1161 25.0648 21.1182 25.0648C21.1203 25.0648 21.1225 25.0648 21.1246 25.0648C21.1267 25.0648 21.1289 25.0648 21.131 25.0648C21.1331 25.0648 21.1353 25.0648 21.1374 25.0648C21.1395 25.0648 21.1416 25.0648 21.1437 25.0648C21.1459 25.0648 21.148 25.0648 21.1501 25.0648C21.1522 25.0648 21.1543 25.0648 21.1565 25.0648C21.1586 25.0648 21.1607 25.0648 21.1628 25.0648C21.1649 25.0648 21.167 25.0648 21.1691 25.0648C21.1712 25.0648 21.1733 25.0648 21.1754 25.0648C21.1775 25.0648 21.1796 25.0648 21.1817 25.0648C21.1838 25.0648 21.1859 25.0648 21.188 25.0648C21.1901 25.0648 21.1922 25.0648 21.1943 25.0648C21.1964 25.0648 21.1985 25.0648 21.2006 25.0648C21.2027 25.0648 21.2047 25.0648 21.2068 25.0648C21.2089 25.0648 21.211 25.0648 21.2131 25.0648C21.2151 25.0648 21.2172 25.0648 21.2193 25.0648C21.2214 25.0648 21.2234 25.0648 21.2255 25.0648C21.2276 25.0648 21.2297 25.0648 21.2317 25.0648C21.2338 25.0648 21.2359 25.0648 21.2379 25.0648C21.24 25.0648 21.242 25.0648 21.2441 25.0648C21.2462 25.0648 21.2482 25.0648 21.2503 25.0648C21.2523 25.0648 21.2544 25.0648 21.2564 25.0648C21.2585 25.0648 21.2605 25.0648 21.2626 25.0648C21.2646 25.0648 21.2667 25.0648 21.2687 25.0648C21.2708 25.0648 21.2728 25.0648 21.2748 25.0648C21.2769 25.0648 21.2789 25.0648 21.2809 25.0648C21.283 25.0648 21.285 25.0648 21.287 25.0648C21.2891 25.0648 21.2911 25.0648 21.2931 25.0648C21.2951 25.0648 21.2972 25.0648 21.2992 25.0648C21.3012 25.0648 21.3032 25.0648 21.3052 25.0648C21.3072 25.0648 21.3093 25.0648 21.3113 25.0648C21.3133 25.0648 21.3153 25.0648 21.3173 25.0648C21.3193 25.0648 21.3213 25.0648 21.3233 25.0648C21.3253 25.0648 21.3273 25.0648 21.3293 25.0648C21.3313 25.0648 21.3333 25.0648 21.3353 25.0648C21.3373 25.0648 21.3393 25.0648 21.3413 25.0648C21.3433 25.0648 21.3453 25.0648 21.3472 25.0648C21.3492 25.0648 21.3512 25.0648 21.3532 25.0648C21.3552 25.0648 21.3572 25.0648 21.3591 25.0648C21.3611 25.0648 21.3631 25.0648 21.365 25.0648C21.367 25.0648 21.369 25.0648 21.371 25.0648C21.3729 25.0648 21.3749 25.0648 21.3768 25.0648C21.3788 25.0648 21.3808 25.0648 21.3827 25.0648C21.3847 25.0648 21.3866 25.0648 21.3886 25.0648C21.3905 25.0648 21.3925 25.0648 21.3944 25.0648C21.3964 25.0648 21.3983 25.0648 21.4003 25.0648C21.4022 25.0648 21.4042 25.0648 21.4061 25.0648C21.408 25.0648 21.41 25.0648 21.4119 25.0648C21.4138 25.0648 21.4158 25.0648 21.4177 25.0648C21.4196 25.0648 21.4215 25.0648 21.4235 25.0648C21.4254 25.0648 21.4273 25.0648 21.4292 25.0648C21.4311 25.0648 21.4331 25.0648 21.435 25.0648C21.4369 25.0648 21.4388 25.0648 21.4407 25.0648C21.4426 25.0648 21.4445 25.0648 21.4464 25.0648C21.4483 25.0648 21.4502 25.0648 21.4521 25.0648C21.454 25.0648 21.4559 25.0648 21.4578 25.0648C21.4597 25.0648 21.4616 25.0648 21.4635 25.0648C21.4654 25.0648 21.4673 25.0648 21.4691 25.0648C21.471 25.0648 21.4729 25.0648 21.4748 25.0648C21.4767 25.0648 21.4785 25.0648 21.4804 25.0648C21.4823 25.0648 21.4842 25.0648 21.486 25.0648C21.4879 25.0648 21.4898 25.0648 21.4916 25.0648C21.4935 25.0648 21.4953 25.0648 21.4972 25.0648C21.4991 25.0648 21.5009 25.0648 21.5028 25.0648C21.5046 25.0648 21.5065 25.0648 21.5083 25.0648C21.5102 25.0648 21.512 25.0648 21.5139 25.0648C21.5157 25.0648 21.5175 25.0648 21.5194 25.0648C21.5212 25.0648 21.523 25.0648 21.5249 25.0648C21.5267 25.0648 21.5285 25.0648 21.5304 25.0648C21.5322 25.0648 21.534 25.0648 21.5358 25.0648C21.5376 25.0648 21.5395 25.0648 21.5413 25.0648C21.5431 25.0648 21.5449 25.0648 21.5467 25.0648C21.5485 25.0648 21.5503 25.0648 21.5521 25.0648C21.5539 25.0648 21.5557 25.0648 21.5575 25.0648C21.5593 25.0648 21.5611 25.0648 21.5629 25.0648C21.5647 25.0648 21.5665 25.0648 21.5683 25.0648C21.5701 25.0648 21.5719 25.0648 21.5737 25.0648C21.5754 25.0648 21.5772 25.0648 21.579 25.0648C21.5808 25.0648 21.5825 25.0648 21.5843 25.0648C21.5861 25.0648 21.5878 25.0648 21.5896 25.0648C21.5914 25.0648 21.5931 25.0648 21.5949 25.0648C21.5967 25.0648 21.5984 25.0648 21.6002 25.0648C21.6019 25.0648 21.6037 25.0648 21.6054 25.0648C21.6072 25.0648 21.6089 25.0648 21.6107 25.0648C21.6124 25.0648 21.6141 25.0648 21.6159 25.0648C21.6176 25.0648 21.6193 25.0648 21.6211 25.0648C21.6228 25.0648 21.6245 25.0648 21.6263 25.0648C21.628 25.0648 21.6297 25.0648 21.6314 25.0648C21.6331 25.0648 21.6349 25.0648 21.6366 25.0648C21.6383 25.0648 21.64 25.0648 21.6417 25.0648C21.6434 25.0648 21.6451 25.0648 21.6468 25.0648C21.6485 25.0648 21.6502 25.0648 21.6519 25.0648C21.6536 25.0648 21.6553 25.0648 21.657 25.0648C21.6587 25.0648 21.6604 25.0648 21.6621 25.0648C21.6637 25.0648 21.6654 25.0648 21.6671 25.0648C21.6688 25.0648 21.6704 25.0648 21.6721 25.0648C21.6738 25.0648 21.6755 25.0648 21.6771 25.0648C21.6788 25.0648 21.6805 25.0648 21.6821 25.0648C21.6838 25.0648 21.6854 25.0648 21.6871 25.0648C21.6887 25.0648 21.6904 25.0648 21.692 25.0648C21.6937 25.0648 21.6953 25.0648 21.697 25.0648C21.6986 25.0648 21.7002 25.0648 21.7019 25.0648C21.7035 25.0648 21.7051 25.0648 21.7068 25.0648C21.7084 25.0648 21.71 25.0648 21.7116 25.0648C21.7133 25.0648 21.7149 25.0648 21.7165 25.0648C21.7181 25.0648 21.7197 25.0648 21.7213 25.0648C21.723 25.0648 21.7246 25.0648 21.7262 25.0648C21.7278 25.0648 21.7294 25.0648 21.731 25.0648C21.7326 25.0648 21.7342 25.0648 21.7357 25.0648C21.7373 25.0648 21.7389 25.0648 21.7405 25.0648C21.7421 25.0648 21.7437 25.0648 21.7452 25.0648C21.7468 25.0648 21.7484 25.0648 21.75 25.0648V21.8389C21.7484 21.8389 21.7468 21.8389 21.7452 21.8389C21.7437 21.8389 21.7421 21.8389 21.7405 21.8389C21.7389 21.8389 21.7373 21.8389 21.7357 21.8389C21.7342 21.8389 21.7326 21.8389 21.731 21.8389C21.7294 21.8389 21.7278 21.8389 21.7262 21.8389C21.7246 21.8389 21.723 21.8389 21.7213 21.8389C21.7197 21.8389 21.7181 21.8389 21.7165 21.8389C21.7149 21.8389 21.7133 21.8389 21.7116 21.8389C21.71 21.8389 21.7084 21.8389 21.7068 21.8389C21.7051 21.8389 21.7035 21.8389 21.7019 21.8389C21.7002 21.8389 21.6986 21.8389 21.697 21.8389C21.6953 21.8389 21.6937 21.8389 21.692 21.8389C21.6904 21.8389 21.6887 21.8389 21.6871 21.8389C21.6854 21.8389 21.6838 21.8389 21.6821 21.8389C21.6805 21.8389 21.6788 21.8389 21.6771 21.8389C21.6755 21.8389 21.6738 21.8389 21.6721 21.8389C21.6704 21.8389 21.6688 21.8389 21.6671 21.8389C21.6654 21.8389 21.6637 21.8389 21.6621 21.8389C21.6604 21.8389 21.6587 21.8389 21.657 21.8389C21.6553 21.8389 21.6536 21.8389 21.6519 21.8389C21.6502 21.8389 21.6485 21.8389 21.6468 21.8389C21.6451 21.8389 21.6434 21.8389 21.6417 21.8389C21.64 21.8389 21.6383 21.8389 21.6366 21.8389C21.6349 21.8389 21.6331 21.8389 21.6314 21.8389C21.6297 21.8389 21.628 21.8389 21.6263 21.8389C21.6245 21.8389 21.6228 21.8389 21.6211 21.8389C21.6193 21.8389 21.6176 21.8389 21.6159 21.8389C21.6141 21.8389 21.6124 21.8389 21.6107 21.8389C21.6089 21.8389 21.6072 21.8389 21.6054 21.8389C21.6037 21.8389 21.6019 21.8389 21.6002 21.8389C21.5984 21.8389 21.5967 21.8389 21.5949 21.8389C21.5931 21.8389 21.5914 21.8389 21.5896 21.8389C21.5878 21.8389 21.5861 21.8389 21.5843 21.8389C21.5825 21.8389 21.5808 21.8389 21.579 21.8389C21.5772 21.8389 21.5754 21.8389 21.5737 21.8389C21.5719 21.8389 21.5701 21.8389 21.5683 21.8389C21.5665 21.8389 21.5647 21.8389 21.5629 21.8389C21.5611 21.8389 21.5593 21.8389 21.5575 21.8389C21.5557 21.8389 21.5539 21.8389 21.5521 21.8389C21.5503 21.8389 21.5485 21.8389 21.5467 21.8389C21.5449 21.8389 21.5431 21.8389 21.5413 21.8389C21.5395 21.8389 21.5376 21.8389 21.5358 21.8389C21.534 21.8389 21.5322 21.8389 21.5304 21.8389C21.5285 21.8389 21.5267 21.8389 21.5249 21.8389C21.523 21.8389 21.5212 21.8389 21.5194 21.8389C21.5175 21.8389 21.5157 21.8389 21.5139 21.8389C21.512 21.8389 21.5102 21.8389 21.5083 21.8389C21.5065 21.8389 21.5046 21.8389 21.5028 21.8389C21.5009 21.8389 21.4991 21.8389 21.4972 21.8389C21.4953 21.8389 21.4935 21.8389 21.4916 21.8389C21.4898 21.8389 21.4879 21.8389 21.486 21.8389C21.4842 21.8389 21.4823 21.8389 21.4804 21.8389C21.4785 21.8389 21.4767 21.8389 21.4748 21.8389C21.4729 21.8389 21.471 21.8389 21.4691 21.8389C21.4673 21.8389 21.4654 21.8389 21.4635 21.8389C21.4616 21.8389 21.4597 21.8389 21.4578 21.8389C21.4559 21.8389 21.454 21.8389 21.4521 21.8389C21.4502 21.8389 21.4483 21.8389 21.4464 21.8389C21.4445 21.8389 21.4426 21.8389 21.4407 21.8389C21.4388 21.8389 21.4369 21.8389 21.435 21.8389C21.4331 21.8389 21.4311 21.8389 21.4292 21.8389C21.4273 21.8389 21.4254 21.8389 21.4235 21.8389C21.4215 21.8389 21.4196 21.8389 21.4177 21.8389C21.4158 21.8389 21.4138 21.8389 21.4119 21.8389C21.41 21.8389 21.408 21.8389 21.4061 21.8389C21.4042 21.8389 21.4022 21.8389 21.4003 21.8389C21.3983 21.8389 21.3964 21.8389 21.3944 21.8389C21.3925 21.8389 21.3905 21.8389 21.3886 21.8389C21.3866 21.8389 21.3847 21.8389 21.3827 21.8389C21.3808 21.8389 21.3788 21.8389 21.3768 21.8389C21.3749 21.8389 21.3729 21.8389 21.371 21.8389C21.369 21.8389 21.367 21.8389 21.365 21.8389C21.3631 21.8389 21.3611 21.8389 21.3591 21.8389C21.3572 21.8389 21.3552 21.8389 21.3532 21.8389C21.3512 21.8389 21.3492 21.8389 21.3472 21.8389C21.3453 21.8389 21.3433 21.8389 21.3413 21.8389C21.3393 21.8389 21.3373 21.8389 21.3353 21.8389C21.3333 21.8389 21.3313 21.8389 21.3293 21.8389C21.3273 21.8389 21.3253 21.8389 21.3233 21.8389C21.3213 21.8389 21.3193 21.8389 21.3173 21.8389C21.3153 21.8389 21.3133 21.8389 21.3113 21.8389C21.3093 21.8389 21.3072 21.8389 21.3052 21.8389C21.3032 21.8389 21.3012 21.8389 21.2992 21.8389C21.2972 21.8389 21.2951 21.8389 21.2931 21.8389C21.2911 21.8389 21.2891 21.8389 21.287 21.8389C21.285 21.8389 21.283 21.8389 21.2809 21.8389C21.2789 21.8389 21.2769 21.8389 21.2748 21.8389C21.2728 21.8389 21.2708 21.8389 21.2687 21.8389C21.2667 21.8389 21.2646 21.8389 21.2626 21.8389C21.2605 21.8389 21.2585 21.8389 21.2564 21.8389C21.2544 21.8389 21.2523 21.8389 21.2503 21.8389C21.2482 21.8389 21.2462 21.8389 21.2441 21.8389C21.242 21.8389 21.24 21.8389 21.2379 21.8389C21.2359 21.8389 21.2338 21.8389 21.2317 21.8389C21.2297 21.8389 21.2276 21.8389 21.2255 21.8389C21.2234 21.8389 21.2214 21.8389 21.2193 21.8389C21.2172 21.8389 21.2151 21.8389 21.2131 21.8389C21.211 21.8389 21.2089 21.8389 21.2068 21.8389C21.2047 21.8389 21.2027 21.8389 21.2006 21.8389C21.1985 21.8389 21.1964 21.8389 21.1943 21.8389C21.1922 21.8389 21.1901 21.8389 21.188 21.8389C21.1859 21.8389 21.1838 21.8389 21.1817 21.8389C21.1796 21.8389 21.1775 21.8389 21.1754 21.8389C21.1733 21.8389 21.1712 21.8389 21.1691 21.8389C21.167 21.8389 21.1649 21.8389 21.1628 21.8389C21.1607 21.8389 21.1586 21.8389 21.1565 21.8389C21.1543 21.8389 21.1522 21.8389 21.1501 21.8389C21.148 21.8389 21.1459 21.8389 21.1437 21.8389C21.1416 21.8389 21.1395 21.8389 21.1374 21.8389C21.1353 21.8389 21.1331 21.8389 21.131 21.8389C21.1289 21.8389 21.1267 21.8389 21.1246 21.8389C21.1225 21.8389 21.1203 21.8389 21.1182 21.8389C21.1161 21.8389 21.1139 21.8389 21.1118 21.8389C21.1096 21.8389 21.1075 21.8389 21.1054 21.8389C21.1032 21.8389 21.1011 21.8389 21.0989 21.8389C21.0968 21.8389 21.0946 21.8389 21.0925 21.8389C21.0903 21.8389 21.0882 21.8389 21.086 21.8389C21.0839 21.8389 21.0817 21.8389 21.0796 21.8389C21.0774 21.8389 21.0752 21.8389 21.0731 21.8389C21.0709 21.8389 21.0687 21.8389 21.0666 21.8389C21.0644 21.8389 21.0623 21.8389 21.0601 21.8389C21.0579 21.8389 21.0557 21.8389 21.0536 21.8389C21.0514 21.8389 21.0492 21.8389 21.0471 21.8389C21.0449 21.8389 21.0427 21.8389 21.0405 21.8389C21.0383 21.8389 21.0362 21.8389 21.034 21.8389C21.0318 21.8389 21.0296 21.8389 21.0274 21.8389C21.0253 21.8389 21.0231 21.8389 21.0209 21.8389C21.0187 21.8389 21.0165 21.8389 21.0143 21.8389C21.0121 21.8389 21.0099 21.8389 21.0077 21.8389C21.0055 21.8389 21.0033 21.8389 21.0011 21.8389C20.9989 21.8389 20.9967 21.8389 20.9945 21.8389C20.9923 21.8389 20.9901 21.8389 20.9879 21.8389C20.9857 21.8389 20.9835 21.8389 20.9813 21.8389C20.9791 21.8389 20.9769 21.8389 20.9747 21.8389C20.9725 21.8389 20.9703 21.8389 20.9681 21.8389C20.9658 21.8389 20.9636 21.8389 20.9614 21.8389C20.9592 21.8389 20.957 21.8389 20.9548 21.8389C20.9525 21.8389 20.9503 21.8389 20.9481 21.8389C20.9459 21.8389 20.9437 21.8389 20.9414 21.8389C20.9392 21.8389 20.937 21.8389 20.9347 21.8389C20.9325 21.8389 20.9303 21.8389 20.9281 21.8389C20.9258 21.8389 20.9236 21.8389 20.9214 21.8389C20.9191 21.8389 20.9169 21.8389 20.9147 21.8389C20.9124 21.8389 20.9102 21.8389 20.9079 21.8389C20.9057 21.8389 20.9035 21.8389 20.9012 21.8389C20.899 21.8389 20.8967 21.8389 20.8945 21.8389C20.8922 21.8389 20.89 21.8389 20.8877 21.8389C20.8855 21.8389 20.8832 21.8389 20.881 21.8389C20.8787 21.8389 20.8765 21.8389 20.8742 21.8389C20.872 21.8389 20.8697 21.8389 20.8675 21.8389C20.8652 21.8389 20.863 21.8389 20.8607 21.8389C20.8584 21.8389 20.8562 21.8389 20.8539 21.8389C20.8517 21.8389 20.8494 21.8389 20.8471 21.8389C20.8449 21.8389 20.8426 21.8389 20.8403 21.8389C20.8381 21.8389 20.8358 21.8389 20.8335 21.8389C20.8313 21.8389 20.829 21.8389 20.8267 21.8389C20.8244 21.8389 20.8222 21.8389 20.8199 21.8389C20.8176 21.8389 20.8153 21.8389 20.8131 21.8389C20.8108 21.8389 20.8085 21.8389 20.8062 21.8389C20.804 21.8389 20.8017 21.8389 20.7994 21.8389C20.7971 21.8389 20.7948 21.8389 20.7925 21.8389C20.7903 21.8389 20.788 21.8389 20.7857 21.8389C20.7834 21.8389 20.7811 21.8389 20.7788 21.8389C20.7765 21.8389 20.7742 21.8389 20.772 21.8389C20.7697 21.8389 20.7674 21.8389 20.7651 21.8389C20.7628 21.8389 20.7605 21.8389 20.7582 21.8389C20.7559 21.8389 20.7536 21.8389 20.7513 21.8389C20.749 21.8389 20.7467 21.8389 20.7444 21.8389C20.7421 21.8389 20.7398 21.8389 20.7375 21.8389C20.7352 21.8389 20.7329 21.8389 20.7306 21.8389C20.7283 21.8389 20.726 21.8389 20.7237 21.8389C20.7214 21.8389 20.7191 21.8389 20.7168 21.8389C20.7144 21.8389 20.7121 21.8389 20.7098 21.8389C20.7075 21.8389 20.7052 21.8389 20.7029 21.8389C20.7006 21.8389 20.6983 21.8389 20.6959 21.8389C20.6936 21.8389 20.6913 21.8389 20.689 21.8389C20.6867 21.8389 20.6844 21.8389 20.682 21.8389C20.6797 21.8389 20.6774 21.8389 20.6751 21.8389C20.6728 21.8389 20.6704 21.8389 20.6681 21.8389C20.6658 21.8389 20.6635 21.8389 20.6611 21.8389C20.6588 21.8389 20.6565 21.8389 20.6542 21.8389C20.6518 21.8389 20.6495 21.8389 20.6472 21.8389C20.6448 21.8389 20.6425 21.8389 20.6402 21.8389C20.6379 21.8389 20.6355 21.8389 20.6332 21.8389C20.6309 21.8389 20.6285 21.8389 20.6262 21.8389C20.6239 21.8389 20.6215 21.8389 20.6192 21.8389C20.6169 21.8389 20.6145 21.8389 20.6122 21.8389C20.6098 21.8389 20.6075 21.8389 20.6052 21.8389C20.6028 21.8389 20.6005 21.8389 20.5981 21.8389C20.5958 21.8389 20.5935 21.8389 20.5911 21.8389C20.5888 21.8389 20.5864 21.8389 20.5841 21.8389C20.5817 21.8389 20.5794 21.8389 20.577 21.8389C20.5747 21.8389 20.5724 21.8389 20.57 21.8389C20.5677 21.8389 20.5653 21.8389 20.563 21.8389C20.5606 21.8389 20.5583 21.8389 20.5559 21.8389C20.5536 21.8389 20.5512 21.8389 20.5489 21.8389C20.5465 21.8389 20.5441 21.8389 20.5418 21.8389C20.5394 21.8389 20.5371 21.8389 20.5347 21.8389C20.5324 21.8389 20.53 21.8389 20.5277 21.8389C20.5253 21.8389 20.5229 21.8389 20.5206 21.8389C20.5182 21.8389 20.5159 21.8389 20.5135 21.8389C20.5111 21.8389 20.5088 21.8389 20.5064 21.8389C20.5041 21.8389 20.5017 21.8389 20.4993 21.8389C20.497 21.8389 20.4946 21.8389 20.4923 21.8389C20.4899 21.8389 20.4875 21.8389 20.4852 21.8389C20.4828 21.8389 20.4804 21.8389 20.4781 21.8389C20.4757 21.8389 20.4733 21.8389 20.471 21.8389C20.4686 21.8389 20.4662 21.8389 20.4639 21.8389C20.4615 21.8389 20.4591 21.8389 20.4567 21.8389C20.4544 21.8389 20.452 21.8389 20.4496 21.8389C20.4473 21.8389 20.4449 21.8389 20.4425 21.8389C20.4401 21.8389 20.4378 21.8389 20.4354 21.8389C20.433 21.8389 20.4307 21.8389 20.4283 21.8389C20.4259 21.8389 20.4235 21.8389 20.4212 21.8389C20.4188 21.8389 20.4164 21.8389 20.414 21.8389C20.4116 21.8389 20.4093 21.8389 20.4069 21.8389C20.4045 21.8389 20.4021 21.8389 20.3998 21.8389C20.3974 21.8389 20.395 21.8389 20.3926 21.8389C20.3902 21.8389 20.3879 21.8389 20.3855 21.8389C20.3831 21.8389 20.3807 21.8389 20.3783 21.8389C20.376 21.8389 20.3736 21.8389 20.3712 21.8389C20.3688 21.8389 20.3664 21.8389 20.364 21.8389C20.3617 21.8389 20.3593 21.8389 20.3569 21.8389C20.3545 21.8389 20.3521 21.8389 20.3497 21.8389C20.3473 21.8389 20.345 21.8389 20.3426 21.8389C20.3402 21.8389 20.3378 21.8389 20.3354 21.8389C20.333 21.8389 20.3306 21.8389 20.3283 21.8389C20.3259 21.8389 20.3235 21.8389 20.3211 21.8389C20.3187 21.8389 20.3163 21.8389 20.3139 21.8389C20.3115 21.8389 20.3092 21.8389 20.3068 21.8389C20.3044 21.8389 20.302 21.8389 20.2996 21.8389C20.2972 21.8389 20.2948 21.8389 20.2924 21.8389C20.29 21.8389 20.2876 21.8389 20.2852 21.8389C20.2829 21.8389 20.2805 21.8389 20.2781 21.8389C20.2757 21.8389 20.2733 21.8389 20.2709 21.8389C20.2685 21.8389 20.2661 21.8389 20.2637 21.8389C20.2613 21.8389 20.2589 21.8389 20.2565 21.8389C20.2541 21.8389 20.2518 21.8389 20.2494 21.8389C20.247 21.8389 20.2446 21.8389 20.2422 21.8389C20.2398 21.8389 20.2374 21.8389 20.235 21.8389C20.2326 21.8389 20.2302 21.8389 20.2278 21.8389C20.2254 21.8389 20.223 21.8389 20.2206 21.8389C20.2182 21.8389 20.2158 21.8389 20.2134 21.8389C20.211 21.8389 20.2086 21.8389 20.2062 21.8389C20.2039 21.8389 20.2015 21.8389 20.1991 21.8389C20.1967 21.8389 20.1943 21.8389 20.1919 21.8389C20.1895 21.8389 20.1871 21.8389 20.1847 21.8389C20.1823 21.8389 20.1799 21.8389 20.1775 21.8389C20.1751 21.8389 20.1727 21.8389 20.1703 21.8389C20.1679 21.8389 20.1655 21.8389 20.1631 21.8389C20.1607 21.8389 20.1583 21.8389 20.1559 21.8389C20.1535 21.8389 20.1511 21.8389 20.1487 21.8389C20.1463 21.8389 20.1439 21.8389 20.1415 21.8389C20.1391 21.8389 20.1367 21.8389 20.1343 21.8389C20.1319 21.8389 20.1295 21.8389 20.1271 21.8389C20.1247 21.8389 20.1223 21.8389 20.1199 21.8389C20.1175 21.8389 20.1151 21.8389 20.1128 21.8389C20.1104 21.8389 20.108 21.8389 20.1056 21.8389C20.1032 21.8389 20.1008 21.8389 20.0984 21.8389C20.096 21.8389 20.0936 21.8389 20.0912 21.8389C20.0888 21.8389 20.0864 21.8389 20.084 21.8389C20.0816 21.8389 20.0792 21.8389 20.0768 21.8389C20.0744 21.8389 20.072 21.8389 20.0696 21.8389C20.0672 21.8389 20.0648 21.8389 20.0624 21.8389C20.06 21.8389 20.0576 21.8389 20.0552 21.8389C20.0528 21.8389 20.0504 21.8389 20.048 21.8389C20.0456 21.8389 20.0432 21.8389 20.0408 21.8389C20.0384 21.8389 20.036 21.8389 20.0336 21.8389C20.0312 21.8389 20.0288 21.8389 20.0265 21.8389C20.0241 21.8389 20.0217 21.8389 20.0193 21.8389C20.0169 21.8389 20.0145 21.8389 20.0121 21.8389C20.0097 21.8389 20.0073 21.8389 20.0049 21.8389C20.0025 21.8389 20.0001 21.8389 19.9977 21.8389C19.9953 21.8389 19.9929 21.8389 19.9905 21.8389C19.9881 21.8389 19.9857 21.8389 19.9833 21.8389C19.981 21.8389 19.9786 21.8389 19.9762 21.8389C19.9738 21.8389 19.9714 21.8389 19.969 21.8389C19.9666 21.8389 19.9642 21.8389 19.9618 21.8389C19.9594 21.8389 19.957 21.8389 19.9546 21.8389C19.9522 21.8389 19.9499 21.8389 19.9475 21.8389C19.9451 21.8389 19.9427 21.8389 19.9403 21.8389C19.9379 21.8389 19.9355 21.8389 19.9331 21.8389C19.9307 21.8389 19.9283 21.8389 19.926 21.8389C19.9236 21.8389 19.9212 21.8389 19.9188 21.8389C19.9164 21.8389 19.914 21.8389 19.9116 21.8389C19.9092 21.8389 19.9069 21.8389 19.9045 21.8389C19.9021 21.8389 19.8997 21.8389 19.8973 21.8389C19.8949 21.8389 19.8925 21.8389 19.8902 21.8389C19.8878 21.8389 19.8854 21.8389 19.883 21.8389C19.8806 21.8389 19.8782 21.8389 19.8758 21.8389C19.8735 21.8389 19.8711 21.8389 19.8687 21.8389C19.8663 21.8389 19.8639 21.8389 19.8616 21.8389C19.8592 21.8389 19.8568 21.8389 19.8544 21.8389C19.852 21.8389 19.8496 21.8389 19.8473 21.8389C19.8449 21.8389 19.8425 21.8389 19.8401 21.8389C19.8378 21.8389 19.8354 21.8389 19.833 21.8389C19.8306 21.8389 19.8282 21.8389 19.8259 21.8389C19.8235 21.8389 19.8211 21.8389 19.8187 21.8389C19.8164 21.8389 19.814 21.8389 19.8116 21.8389C19.8092 21.8389 19.8069 21.8389 19.8045 21.8389C19.8021 21.8389 19.7997 21.8389 19.7974 21.8389C19.795 21.8389 19.7926 21.8389 19.7903 21.8389C19.7879 21.8389 19.7855 21.8389 19.7831 21.8389C19.7808 21.8389 19.7784 21.8389 19.776 21.8389C19.7737 21.8389 19.7713 21.8389 19.7689 21.8389C19.7666 21.8389 19.7642 21.8389 19.7618 21.8389C19.7595 21.8389 19.7571 21.8389 19.7547 21.8389C19.7524 21.8389 19.75 21.8389 19.7476 21.8389C19.7453 21.8389 19.7429 21.8389 19.7405 21.8389C19.7382 21.8389 19.7358 21.8389 19.7335 21.8389C19.7311 21.8389 19.7287 21.8389 19.7264 21.8389C19.724 21.8389 19.7217 21.8389 19.7193 21.8389C19.7169 21.8389 19.7146 21.8389 19.7122 21.8389C19.7099 21.8389 19.7075 21.8389 19.7052 21.8389C19.7028 21.8389 19.7005 21.8389 19.6981 21.8389C19.6957 21.8389 19.6934 21.8389 19.691 21.8389C19.6887 21.8389 19.6863 21.8389 19.684 21.8389C19.6816 21.8389 19.6793 21.8389 19.6769 21.8389C19.6746 21.8389 19.6722 21.8389 19.6699 21.8389C19.6675 21.8389 19.6652 21.8389 19.6628 21.8389C19.6605 21.8389 19.6582 21.8389 19.6558 21.8389C19.6535 21.8389 19.6511 21.8389 19.6488 21.8389C19.6464 21.8389 19.6441 21.8389 19.6417 21.8389C19.6394 21.8389 19.6371 21.8389 19.6347 21.8389C19.6324 21.8389 19.63 21.8389 19.6277 21.8389C19.6254 21.8389 19.623 21.8389 19.6207 21.8389C19.6184 21.8389 19.616 21.8389 19.6137 21.8389C19.6114 21.8389 19.609 21.8389 19.6067 21.8389C19.6044 21.8389 19.602 21.8389 19.5997 21.8389C19.5974 21.8389 19.595 21.8389 19.5927 21.8389C19.5904 21.8389 19.5881 21.8389 19.5857 21.8389C19.5834 21.8389 19.5811 21.8389 19.5787 21.8389C19.5764 21.8389 19.5741 21.8389 19.5718 21.8389C19.5695 21.8389 19.5671 21.8389 19.5648 21.8389C19.5625 21.8389 19.5602 21.8389 19.5578 21.8389C19.5555 21.8389 19.5532 21.8389 19.5509 21.8389C19.5486 21.8389 19.5463 21.8389 19.5439 21.8389C19.5416 21.8389 19.5393 21.8389 19.537 21.8389C19.5347 21.8389 19.5324 21.8389 19.5301 21.8389C19.5278 21.8389 19.5254 21.8389 19.5231 21.8389C19.5208 21.8389 19.5185 21.8389 19.5162 21.8389C19.5139 21.8389 19.5116 21.8389 19.5093 21.8389C19.507 21.8389 19.5047 21.8389 19.5024 21.8389C19.5001 21.8389 19.4978 21.8389 19.4955 21.8389C19.4932 21.8389 19.4909 21.8389 19.4886 21.8389C19.4863 21.8389 19.484 21.8389 19.4817 21.8389C19.4794 21.8389 19.4771 21.8389 19.4748 21.8389C19.4725 21.8389 19.4702 21.8389 19.4679 21.8389C19.4656 21.8389 19.4633 21.8389 19.4611 21.8389C19.4588 21.8389 19.4565 21.8389 19.4542 21.8389C19.4519 21.8389 19.4496 21.8389 19.4473 21.8389C19.4451 21.8389 19.4428 21.8389 19.4405 21.8389C19.4382 21.8389 19.4359 21.8389 19.4337 21.8389C19.4314 21.8389 19.4291 21.8389 19.4268 21.8389C19.4245 21.8389 19.4223 21.8389 19.42 21.8389C19.4177 21.8389 19.4154 21.8389 19.4132 21.8389C19.4109 21.8389 19.4086 21.8389 19.4064 21.8389C19.4041 21.8389 19.4018 21.8389 19.3996 21.8389C19.3973 21.8389 19.395 21.8389 19.3928 21.8389C19.3905 21.8389 19.3882 21.8389 19.386 21.8389C19.3837 21.8389 19.3814 21.8389 19.3792 21.8389C19.3769 21.8389 19.3747 21.8389 19.3724 21.8389C19.3702 21.8389 19.3679 21.8389 19.3657 21.8389C19.3634 21.8389 19.3611 21.8389 19.3589 21.8389C19.3566 21.8389 19.3544 21.8389 19.3521 21.8389C19.3499 21.8389 19.3477 21.8389 19.3454 21.8389C19.3432 21.8389 19.3409 21.8389 19.3387 21.8389C19.3364 21.8389 19.3342 21.8389 19.332 21.8389C19.3297 21.8389 19.3275 21.8389 19.3252 21.8389C19.323 21.8389 19.3208 21.8389 19.3185 21.8389C19.3163 21.8389 19.3141 21.8389 19.3118 21.8389C19.3096 21.8389 19.3074 21.8389 19.3051 21.8389C19.3029 21.8389 19.3007 21.8389 19.2985 21.8389C19.2962 21.8389 19.294 21.8389 19.2918 21.8389C19.2896 21.8389 19.2873 21.8389 19.2851 21.8389C19.2829 21.8389 19.2807 21.8389 19.2785 21.8389C19.2763 21.8389 19.274 21.8389 19.2718 21.8389C19.2696 21.8389 19.2674 21.8389 19.2652 21.8389C19.263 21.8389 19.2608 21.8389 19.2586 21.8389C19.2564 21.8389 19.2542 21.8389 19.252 21.8389C19.2497 21.8389 19.2475 21.8389 19.2453 21.8389C19.2431 21.8389 19.2409 21.8389 19.2387 21.8389C19.2366 21.8389 19.2344 21.8389 19.2322 21.8389C19.23 21.8389 19.2278 21.8389 19.2256 21.8389C19.2234 21.8389 19.2212 21.8389 19.219 21.8389C19.2168 21.8389 19.2146 21.8389 19.2125 21.8389C19.2103 21.8389 19.2081 21.8389 19.2059 21.8389C19.2037 21.8389 19.2015 21.8389 19.1994 21.8389C19.1972 21.8389 19.195 21.8389 19.1928 21.8389C19.1907 21.8389 19.1885 21.8389 19.1863 21.8389C19.1841 21.8389 19.182 21.8389 19.1798 21.8389C19.1776 21.8389 19.1755 21.8389 19.1733 21.8389C19.1711 21.8389 19.169 21.8389 19.1668 21.8389C19.1647 21.8389 19.1625 21.8389 19.1603 21.8389C19.1582 21.8389 19.156 21.8389 19.1539 21.8389C19.1517 21.8389 19.1496 21.8389 19.1474 21.8389C19.1453 21.8389 19.1431 21.8389 19.141 21.8389C19.1388 21.8389 19.1367 21.8389 19.1345 21.8389C19.1324 21.8389 19.1302 21.8389 19.1281 21.8389C19.126 21.8389 19.1238 21.8389 19.1217 21.8389C19.1196 21.8389 19.1174 21.8389 19.1153 21.8389C19.1132 21.8389 19.111 21.8389 19.1089 21.8389C19.1068 21.8389 19.1046 21.8389 19.1025 21.8389C19.1004 21.8389 19.0983 21.8389 19.0961 21.8389C19.094 21.8389 19.0919 21.8389 19.0898 21.8389C19.0877 21.8389 19.0855 21.8389 19.0834 21.8389C19.0813 21.8389 19.0792 21.8389 19.0771 21.8389C19.075 21.8389 19.0729 21.8389 19.0708 21.8389C19.0687 21.8389 19.0666 21.8389 19.0645 21.8389C19.0624 21.8389 19.0603 21.8389 19.0582 21.8389C19.0561 21.8389 19.054 21.8389 19.0519 21.8389C19.0498 21.8389 19.0477 21.8389 19.0456 21.8389C19.0435 21.8389 19.0414 21.8389 19.0393 21.8389C19.0372 21.8389 19.0351 21.8389 19.0331 21.8389C19.031 21.8389 19.0289 21.8389 19.0268 21.8389C19.0247 21.8389 19.0227 21.8389 19.0206 21.8389C19.0185 21.8389 19.0164 21.8389 19.0144 21.8389C19.0123 21.8389 19.0102 21.8389 19.0082 21.8389C19.0061 21.8389 19.004 21.8389 19.002 21.8389C18.9999 21.8389 18.9978 21.8389 18.9958 21.8389C18.9937 21.8389 18.9917 21.8389 18.9896 21.8389C18.9876 21.8389 18.9855 21.8389 18.9835 21.8389C18.9814 21.8389 18.9794 21.8389 18.9773 21.8389C18.9753 21.8389 18.9732 21.8389 18.9712 21.8389C18.9691 21.8389 18.9671 21.8389 18.9651 21.8389C18.963 21.8389 18.961 21.8389 18.959 21.8389C18.9569 21.8389 18.9549 21.8389 18.9529 21.8389C18.9508 21.8389 18.9488 21.8389 18.9468 21.8389C18.9448 21.8389 18.9427 21.8389 18.9407 21.8389C18.9387 21.8389 18.9367 21.8389 18.9347 21.8389C18.9326 21.8389 18.9306 21.8389 18.9286 21.8389C18.9266 21.8389 18.9246 21.8389 18.9226 21.8389C18.9206 21.8389 18.9186 21.8389 18.9166 21.8389C18.9146 21.8389 18.9126 21.8389 18.9106 21.8389C18.9086 21.8389 18.9066 21.8389 18.9046 21.8389C18.9026 21.8389 18.9006 21.8389 18.8986 21.8389C18.8966 21.8389 18.8946 21.8389 18.8926 21.8389C18.8907 21.8389 18.8887 21.8389 18.8867 21.8389C18.8847 21.8389 18.8827 21.8389 18.8808 21.8389C18.8788 21.8389 18.8768 21.8389 18.8748 21.8389C18.8729 21.8389 18.8709 21.8389 18.8689 21.8389C18.867 21.8389 18.865 21.8389 18.863 21.8389C18.8611 21.8389 18.8591 21.8389 18.8572 21.8389C18.8552 21.8389 18.8533 21.8389 18.8513 21.8389C18.8494 21.8389 18.8474 21.8389 18.8455 21.8389C18.8435 21.8389 18.8416 21.8389 18.8396 21.8389C18.8377 21.8389 18.8357 21.8389 18.8338 21.8389C18.8319 21.8389 18.8299 21.8389 18.828 21.8389C18.8261 21.8389 18.8241 21.8389 18.8222 21.8389C18.8203 21.8389 18.8183 21.8389 18.8164 21.8389C18.8145 21.8389 18.8126 21.8389 18.8107 21.8389C18.8087 21.8389 18.8068 21.8389 18.8049 21.8389C18.803 21.8389 18.8011 21.8389 18.7992 21.8389C18.7973 21.8389 18.7954 21.8389 18.7935 21.8389C18.7916 21.8389 18.7897 21.8389 18.7878 21.8389C18.7859 21.8389 18.784 21.8389 18.7821 21.8389C18.7802 21.8389 18.7783 21.8389 18.7764 21.8389C18.7745 21.8389 18.7726 21.8389 18.7707 21.8389C18.7689 21.8389 18.767 21.8389 18.7651 21.8389C18.7632 21.8389 18.7613 21.8389 18.7595 21.8389C18.7576 21.8389 18.7557 21.8389 18.7539 21.8389C18.752 21.8389 18.7501 21.8389 18.7483 21.8389C18.7464 21.8389 18.7445 21.8389 18.7427 21.8389C18.7408 21.8389 18.739 21.8389 18.7371 21.8389C18.7353 21.8389 18.7334 21.8389 18.7316 21.8389C18.7297 21.8389 18.7279 21.8389 18.726 21.8389C18.7242 21.8389 18.7224 21.8389 18.7205 21.8389C18.7187 21.8389 18.7168 21.8389 18.715 21.8389C18.7132 21.8389 18.7114 21.8389 18.7095 21.8389C18.7077 21.8389 18.7059 21.8389 18.7041 21.8389C18.7022 21.8389 18.7004 21.8389 18.6986 21.8389C18.6968 21.8389 18.695 21.8389 18.6932 21.8389C18.6914 21.8389 18.6896 21.8389 18.6878 21.8389C18.6859 21.8389 18.6841 21.8389 18.6823 21.8389C18.6806 21.8389 18.6788 21.8389 18.677 21.8389C18.6752 21.8389 18.6734 21.8389 18.6716 21.8389C18.6698 21.8389 18.668 21.8389 18.6662 21.8389C18.6645 21.8389 18.6627 21.8389 18.6609 21.8389C18.6591 21.8389 18.6573 21.8389 18.6556 21.8389C18.6538 21.8389 18.652 21.8389 18.6503 21.8389C18.6485 21.8389 18.6467 21.8389 18.645 21.8389C18.6432 21.8389 18.6415 21.8389 18.6397 21.8389C18.638 21.8389 18.6362 21.8389 18.6345 21.8389C18.6327 21.8389 18.631 21.8389 18.6292 21.8389C18.6275 21.8389 18.6257 21.8389 18.624 21.8389C18.6223 21.8389 18.6205 21.8389 18.6188 21.8389C18.6171 21.8389 18.6154 21.8389 18.6136 21.8389C18.6119 21.8389 18.6102 21.8389 18.6085 21.8389C18.6067 21.8389 18.605 21.8389 18.6033 21.8389C18.6016 21.8389 18.5999 21.8389 18.5982 21.8389C18.5965 21.8389 18.5948 21.8389 18.5931 21.8389C18.5914 21.8389 18.5897 21.8389 18.588 21.8389C18.5863 21.8389 18.5846 21.8389 18.5829 21.8389C18.5812 21.8389 18.5795 21.8389 18.5778 21.8389C18.5762 21.8389 18.5745 21.8389 18.5728 21.8389C18.5711 21.8389 18.5694 21.8389 18.5678 21.8389C18.5661 21.8389 18.5644 21.8389 18.5628 21.8389C18.5611 21.8389 18.5594 21.8389 18.5578 21.8389C18.5561 21.8389 18.5545 21.8389 18.5528 21.8389C18.5512 21.8389 18.5495 21.8389 18.5479 21.8389C18.5462 21.8389 18.5446 21.8389 18.5429 21.8389C18.5413 21.8389 18.5396 21.8389 18.538 21.8389C18.5364 21.8389 18.5347 21.8389 18.5331 21.8389C18.5315 21.8389 18.5299 21.8389 18.5282 21.8389C18.5266 21.8389 18.525 21.8389 18.5234 21.8389C18.5218 21.8389 18.5202 21.8389 18.5185 21.8389C18.5169 21.8389 18.5153 21.8389 18.5137 21.8389C18.5121 21.8389 18.5105 21.8389 18.5089 21.8389C18.5073 21.8389 18.5057 21.8389 18.5041 21.8389C18.5026 21.8389 18.501 21.8389 18.4994 21.8389C18.4978 21.8389 18.4962 21.8389 18.4946 21.8389C18.4931 21.8389 18.4915 21.8389 18.4899 21.8389V25.0648ZM23.3567 18.7111C22.8148 18.4977 22.2357 18.387 21.6493 18.387L21.6493 21.613C21.83 21.613 22.0081 21.6471 22.1743 21.7125L23.3567 18.7111ZM21.6493 18.387C20.8378 18.387 20.0398 18.5989 19.3355 19.0023L20.9387 21.8016C21.1539 21.6783 21.399 21.613 21.6493 21.613L21.6493 18.387ZM19.3355 19.0023C18.6311 19.4057 18.0446 19.9868 17.6361 20.6886L20.4242 22.3114C20.5466 22.101 20.7236 21.9248 20.9387 21.8016L19.3355 19.0023ZM17.6361 20.6886C17.2276 21.3905 17.012 22.1877 17.012 23L20.238 23C20.238 22.759 20.3019 22.5216 20.4242 22.3114L17.6361 20.6886ZM17.012 23C17.012 23.8123 17.2276 24.6095 17.6361 25.3114L20.4242 23.6886C20.3019 23.4784 20.238 23.241 20.238 23L17.012 23ZM17.6361 25.3114C18.0446 26.0132 18.6311 26.5943 19.3355 26.9977L20.9387 24.1984C20.7236 24.0752 20.5466 23.899 20.4242 23.6886L17.6361 25.3114ZM19.3355 26.9977C20.0398 27.4011 20.8378 27.613 21.6493 27.613L21.6493 24.387C21.399 24.387 21.1539 24.3217 20.9387 24.1984L19.3355 26.9977ZM21.6493 27.613C22.2357 27.613 22.8148 27.5023 23.3567 27.2889L22.1743 24.2875C22.0081 24.3529 21.83 24.387 21.6493 24.387L21.6493 27.613ZM21.819 23.4866C21.7647 23.5044 21.7074 23.5136 21.6493 23.5136L21.6493 26.7395C22.0488 26.7395 22.4443 26.6761 22.8211 26.553L21.819 23.4866ZM21.6493 23.5136C21.5536 23.5136 21.4603 23.4886 21.379 23.442L19.7758 26.2413C20.3462 26.568 20.9923 26.7395 21.6493 26.7395L21.6493 23.5136ZM21.379 23.442C21.2977 23.3955 21.2319 23.3295 21.1867 23.2519L18.3987 24.8747C18.7298 25.4437 19.2052 25.9146 19.7758 26.2413L21.379 23.442ZM21.1867 23.2519C21.1417 23.1745 21.1184 23.0876 21.1184 23L17.8925 23C17.8925 23.6589 18.0674 24.3055 18.3987 24.8747L21.1867 23.2519ZM21.1184 23C21.1184 22.9124 21.1417 22.8255 21.1867 22.7481L18.3987 21.1253C18.0674 21.6945 17.8925 22.3411 17.8925 23L21.1184 23ZM21.1867 22.7481C21.2319 22.6705 21.2977 22.6045 21.379 22.558L19.7758 19.7587C19.2052 20.0854 18.7298 20.5563 18.3987 21.1253L21.1867 22.7481ZM21.379 22.558C21.4603 22.5114 21.5536 22.4864 21.6493 22.4864L21.6493 19.2605C20.9923 19.2605 20.3462 19.432 19.7758 19.7587L21.379 22.558ZM21.6493 22.4864C21.7074 22.4864 21.7647 22.4956 21.819 22.5134L22.8211 19.447C22.4443 19.3239 22.0488 19.2605 21.6493 19.2605L21.6493 22.4864ZM21.819 22.5134C22.5732 22.7598 23.7347 22.6235 24.3353 21.5915L21.5473 19.9688C21.7191 19.6735 21.9817 19.5098 22.2086 19.4417C22.4255 19.3767 22.6371 19.3869 22.8211 19.447L21.819 22.5134ZM24.3353 24.4085C23.7347 23.3765 22.5732 23.2402 21.819 23.4866L22.8211 26.553C22.6371 26.6131 22.4255 26.6233 22.2086 26.5583C21.9817 26.4902 21.7191 26.3265 21.5473 26.0312L24.3353 24.4085ZM23.3567 27.2889C24.6451 26.7813 24.8732 25.3327 24.3353 24.4085L21.5473 26.0312C21.2525 25.5248 21.3378 24.617 22.1743 24.2875L23.3567 27.2889ZM22.1743 21.7125C21.3378 21.383 21.2525 20.4752 21.5473 19.9688L24.3353 21.5915C24.8732 20.6673 24.6451 19.2187 23.3567 18.7111L22.1743 21.7125Z" fill="#0898A0" mask="url(#path-6-inside-1_31555_36162)"/>
</svg>
