<svg width="80" height="80" viewBox="0 0 80 80" fill="none" xmlns="http://www.w3.org/2000/svg">
<rect x="1.5" y="1.5" width="77" height="77" rx="38.5" fill="#003399"/>
<path d="M39.5 9L40.5103 11.7639H43.7798L41.1347 13.4721L42.145 16.2361L39.5 14.5279L36.855 16.2361L37.8653 13.4721L35.2202 11.7639H38.4897L39.5 9Z" fill="#FFCC00"/>
<path d="M13 35L13.8981 38.1094H16.8042L14.4531 40.0312L15.3511 43.1406L13 41.2188L10.6489 43.1406L11.5469 40.0312L9.19577 38.1094H12.1019L13 35Z" fill="#FFCC00"/>
<path d="M17 22L17.8981 24.7639H20.8042L18.4531 26.4721L19.3511 29.2361L17 27.5279L14.6489 29.2361L15.5469 26.4721L13.1958 24.7639H16.1019L17 22Z" fill="#FFCC00"/>
<path d="M26 13L26.8981 15.7639H29.8042L27.4531 17.4721L28.3511 20.2361L26 18.5279L23.6489 20.2361L24.5469 17.4721L22.1958 15.7639H25.1019L26 13Z" fill="#FFCC00"/>
<path d="M62 22L62.8981 24.7639H65.8042L63.4531 26.4721L64.3511 29.2361L62 27.5279L59.6489 29.2361L60.5469 26.4721L58.1958 24.7639H61.1019L62 22Z" fill="#FFCC00"/>
<path d="M53 13L53.8981 15.7639H56.8042L54.4531 17.4721L55.3511 20.2361L53 18.5279L50.6489 20.2361L51.5469 17.4721L49.1958 15.7639H52.1019L53 13Z" fill="#FFCC00"/>
<path d="M39.5 62L40.5103 64.7639H43.7798L41.1347 66.4721L42.145 69.2361L39.5 67.5279L36.855 69.2361L37.8653 66.4721L35.2202 64.7639H38.4897L39.5 62Z" fill="#FFCC00"/>
<path d="M66 35L66.8981 38.1094H69.8042L67.4531 40.0312L68.3511 43.1406L66 41.2188L63.6489 43.1406L64.5469 40.0312L62.1958 38.1094H65.1019L66 35Z" fill="#FFCC00"/>
<path d="M62 49L62.8981 51.7639H65.8042L63.4531 53.4721L64.3511 56.2361L62 54.5279L59.6489 56.2361L60.5469 53.4721L58.1958 51.7639H61.1019L62 49Z" fill="#FFCC00"/>
<path d="M53 58L53.8981 60.7639H56.8042L54.4531 62.4721L55.3511 65.2361L53 63.5279L50.6489 65.2361L51.5469 62.4721L49.1958 60.7639H52.1019L53 58Z" fill="#FFCC00"/>
<path d="M17 49L17.8981 51.7639H20.8042L18.4531 53.4721L19.3511 56.2361L17 54.5279L14.6489 56.2361L15.5469 53.4721L13.1958 51.7639H16.1019L17 49Z" fill="#FFCC00"/>
<path d="M26 58L26.8981 60.7639H29.8042L27.4531 62.4721L28.3511 65.2361L26 63.5279L23.6489 65.2361L24.5469 62.4721L22.1958 60.7639H25.1019L26 58Z" fill="#FFCC00"/>
<rect x="1.5" y="1.5" width="77" height="77" rx="38.5" stroke="white" stroke-width="3"/>
</svg>
