<svg width="60" height="60" viewBox="0 0 60 60" fill="none" xmlns="http://www.w3.org/2000/svg">
    <rect width="60" height="60" rx="30" fill="#EB5757" fill-opacity="0.1"/>
    <path d="M29.0217 34.3546L28.7609 20H31.1348L30.8739 34.3546H29.0217ZM30.013 40C29.5783 40 29.213 39.8487 28.9174 39.5461C28.6391 39.2246 28.5 38.8369 28.5 38.383C28.5 37.9291 28.6391 37.5508 28.9174 37.2482C29.213 36.9267 29.5783 36.766 30.013 36.766C30.4304 36.766 30.7783 36.9267 31.0565 37.2482C31.3522 37.5508 31.5 37.9291 31.5 38.383C31.5 38.8369 31.3522 39.2246 31.0565 39.5461C30.7783 39.8487 30.4304 40 30.013 40Z" fill="#FF3535"/>
</svg>
    