<svg color="#41BCC4" width="13" height="26" viewBox="0 0 13 26" fill="none" xmlns="http://www.w3.org/2000/svg">
<g clip-path="url(#clip0_26501_13724)">
<path d="M6.50167 18.0001C10.3142 18.0001 13 14.9467 13 14.0025C13 13.0551 10.3018 10.0049 6.50167 10.0049C2.72726 10.0049 0 13.0551 0 14.0025C0 14.9467 2.72123 18.0001 6.50167 18.0001ZM6.50167 16.6247C4.99674 16.6247 3.80211 15.433 3.79422 14.0025C3.78935 12.537 4.99674 11.3803 6.50167 11.3803C7.98901 11.3803 9.20577 12.537 9.20577 14.0025C9.20577 15.433 7.98901 16.6247 6.50167 16.6247ZM6.50471 14.8949C7.01022 14.8949 7.42932 14.493 7.42932 14.0025C7.42932 13.5073 7.01022 13.1069 6.50471 13.1069C5.99277 13.1069 5.57218 13.5073 5.57218 14.0025C5.57218 14.493 5.99277 14.8949 6.50471 14.8949Z" fill="currentColor"/>
</g>
<defs>
<clipPath id="clip0_26501_13724">
<rect width="13" height="8" fill="white" transform="translate(0 10)"/>
</clipPath>
</defs>
</svg>
