<svg color="#94A1AD" width="13" height="26" viewBox="0 0 13 26" fill="none" xmlns="http://www.w3.org/2000/svg">
<path d="M10.2283 17.3306C10.3722 17.4815 10.6024 17.4913 10.751 17.3306C10.9045 17.1699 10.8949 16.9507 10.751 16.7998L2.73331 8.66231C2.58945 8.51621 2.34969 8.51621 2.20583 8.66231C2.06677 8.80353 2.06677 9.05189 2.20583 9.19311L10.2283 17.3306ZM10.6839 15.9232C12.0841 14.9833 13 13.6928 13 13.1133C13 12.1247 10.3386 8.97397 6.5024 8.97397C5.6872 8.97397 4.91996 9.1152 4.22464 9.34895L5.47141 10.6151C5.7879 10.4787 6.13316 10.4008 6.5024 10.4008C7.98414 10.4008 9.18296 11.5939 9.18296 13.1133C9.18296 13.4834 9.10144 13.8389 8.95758 14.1506L10.6839 15.9232ZM6.5024 17.2527C7.38952 17.2527 8.21431 17.0871 8.9384 16.8144L7.68204 15.5385C7.32719 15.7235 6.92438 15.8258 6.5024 15.8258C5.00627 15.8258 3.82184 14.5937 3.81704 13.1133C3.81704 12.675 3.91774 12.2611 4.09517 11.8959L2.45518 10.2206C0.94467 11.18 0 12.5289 0 13.1133C0 14.097 2.70933 17.2527 6.5024 17.2527ZM8.0273 13.011C8.0273 12.1588 7.35116 11.4673 6.5024 11.4673C6.44006 11.4673 6.37772 11.4722 6.32018 11.4771L8.01771 13.201C8.0225 13.1425 8.0273 13.0744 8.0273 13.011ZM4.9727 13.0013C4.9727 13.8584 5.66802 14.5499 6.50719 14.5499C6.57433 14.5499 6.63667 14.545 6.7038 14.5402L4.98229 12.7919C4.9775 12.8601 4.9727 12.9331 4.9727 13.0013Z" fill="currentColor"/>
</svg>
