<svg width="15" height="10" viewBox="0 0 15 10" fill="none" xmlns="http://www.w3.org/2000/svg">
<path d="M7.25 3.125C6.75272 3.125 6.27581 3.32254 5.92417 3.67417C5.57254 4.02581 5.375 4.50272 5.375 5C5.375 5.49728 5.57254 5.97419 5.92417 6.32583C6.27581 6.67746 6.75272 6.875 7.25 6.875C7.74728 6.875 8.22419 6.67746 8.57583 6.32583C8.92746 5.97419 9.125 5.49728 9.125 5C9.125 4.50272 8.92746 4.02581 8.57583 3.67417C8.22419 3.32254 7.74728 3.125 7.25 3.125ZM7.25 8.125C6.4212 8.125 5.62634 7.79576 5.04029 7.20971C4.45424 6.62366 4.125 5.8288 4.125 5C4.125 4.1712 4.45424 3.37634 5.04029 2.79029C5.62634 2.20424 6.4212 1.875 7.25 1.875C8.0788 1.875 8.87366 2.20424 9.45971 2.79029C10.0458 3.37634 10.375 4.1712 10.375 5C10.375 5.8288 10.0458 6.62366 9.45971 7.20971C8.87366 7.79576 8.0788 8.125 7.25 8.125ZM7.25 0.3125C4.125 0.3125 1.45625 2.25625 0.375 5C1.45625 7.74375 4.125 9.6875 7.25 9.6875C10.375 9.6875 13.0437 7.74375 14.125 5C13.0437 2.25625 10.375 0.3125 7.25 0.3125Z" fill="#0898A0"/>
</svg>
