<svg width="14" height="10" viewBox="0 0 14 10" fill="none" xmlns="http://www.w3.org/2000/svg">
<path d="M10.4783 9.33057C10.6222 9.48153 10.8524 9.49127 11.001 9.33057C11.1545 9.16986 11.1449 8.95072 11.001 8.79976L2.98331 0.662305C2.83945 0.516211 2.59969 0.516211 2.45583 0.662305C2.31677 0.80353 2.31677 1.05189 2.45583 1.19311L10.4783 9.33057ZM10.9339 7.92319C12.3341 6.98332 13.25 5.69282 13.25 5.11331C13.25 4.12474 10.5886 0.973973 6.7524 0.973973C5.9372 0.973973 5.16996 1.1152 4.47464 1.34895L5.72141 2.6151C6.0379 2.47874 6.38316 2.40083 6.7524 2.40083C8.23414 2.40083 9.43296 3.59393 9.43296 5.11331C9.43296 5.48342 9.35144 5.83891 9.20758 6.15058L10.9339 7.92319ZM6.7524 9.25265C7.63952 9.25265 8.46431 9.08708 9.1884 8.81437L7.93204 7.53848C7.57719 7.72353 7.17438 7.8258 6.7524 7.8258C5.25627 7.8258 4.07184 6.59373 4.06704 5.11331C4.06704 4.67503 4.16774 4.2611 4.34517 3.89586L2.70518 2.22064C1.19467 3.18 0.25 4.52893 0.25 5.11331C0.25 6.09701 2.95933 9.25265 6.7524 9.25265ZM8.2773 5.01105C8.2773 4.15883 7.60116 3.46732 6.7524 3.46732C6.69006 3.46732 6.62772 3.47219 6.57018 3.47706L8.26771 5.20097C8.2725 5.14253 8.2773 5.07435 8.2773 5.01105ZM5.2227 5.00131C5.2227 5.85839 5.91802 6.54991 6.75719 6.54991C6.82433 6.54991 6.88667 6.54504 6.9538 6.54017L5.23229 4.7919C5.2275 4.86008 5.2227 4.93313 5.2227 5.00131Z" fill="#71879C"/>
</svg>
