<svg width="37" height="37" viewBox="0 0 37 37" fill="none" xmlns="http://www.w3.org/2000/svg">
<path d="M36.4879 8.36739C36.4879 9.15152 36.5014 9.94917 36.4879 10.7333C36.4609 11.4769 35.7584 11.896 35.1775 11.5445C34.8263 11.3282 34.7182 10.9766 34.7317 10.5846C34.7317 9.25967 34.7317 7.92124 34.7317 6.59633C34.7182 5.00104 34.0563 3.75724 32.6783 2.91904C32.0028 2.51345 31.2598 2.35122 30.4898 2.36474C29.2469 2.36474 28.0176 2.37826 26.7747 2.35122C26.518 2.35122 26.2479 2.25658 26.0317 2.10787C25.7345 1.90508 25.6805 1.51301 25.7885 1.20206C25.9371 0.809997 26.2343 0.607205 26.7072 0.607205C27.9635 0.607205 29.2334 0.593685 30.4898 0.607205C30.9086 0.607205 31.3274 0.647763 31.7327 0.72888C34.2724 1.20206 36.2448 3.36518 36.4474 5.9474C36.515 6.75857 36.4609 7.56974 36.4609 8.38091C36.4609 8.36739 36.4744 8.36739 36.4879 8.36739Z" fill="#0898A0"/>
<path d="M0.593977 8.38088C0.593977 7.46156 0.512921 6.52871 0.607486 5.62291C0.891182 3.06773 3.16075 0.864051 5.71401 0.674778C7.2811 0.566623 8.86169 0.607181 10.4288 0.607181C10.9286 0.607181 11.3204 1.0398 11.3069 1.49947C11.2934 1.95913 10.8881 2.35119 10.3882 2.35119C9.07784 2.36471 7.78094 2.35119 6.47054 2.36471C4.41712 2.39175 2.82302 3.6761 2.39072 5.66347C2.32317 5.98793 2.30966 6.33944 2.30966 6.66391C2.29615 7.9753 2.30966 9.30021 2.29615 10.6116C2.29615 10.8549 2.2151 11.1253 2.08 11.3281C1.87736 11.6391 1.48559 11.7337 1.14786 11.612C0.769598 11.4768 0.53994 11.1659 0.53994 10.7333C0.52643 9.94914 0.53994 9.15149 0.53994 8.36736C0.553449 8.38088 0.566958 8.38088 0.593977 8.38088Z" fill="#0898A0"/>
<path d="M28.9644 36.5821C28.1944 36.5821 27.4108 36.5957 26.6408 36.5821C25.9383 36.5686 25.5331 35.9332 25.8032 35.3519C25.9654 35.0139 26.249 34.8517 26.6138 34.8381C27.0596 34.8381 27.5189 34.8381 27.9647 34.8381C28.9374 34.8381 29.9236 34.8517 30.8963 34.8111C32.9362 34.7165 34.6248 33.013 34.6924 30.958C34.7329 29.7007 34.7059 28.4299 34.7194 27.1726C34.7194 26.5101 35.0841 26.1181 35.6515 26.1451C36.0298 26.1586 36.354 26.4425 36.4351 26.8076C36.4621 26.9022 36.4756 27.0104 36.4756 27.105C36.4756 28.4434 36.5296 29.7954 36.4351 31.1203C36.2595 33.5132 34.9761 35.1626 32.8011 36.1495C31.9095 36.5551 30.9638 36.6092 29.9911 36.5821C29.6669 36.5686 29.3157 36.5821 28.9644 36.5821Z" fill="#0898A0"/>
<path d="M7.99719 36.5547C7.26769 36.5547 6.53818 36.5953 5.80868 36.5412C3.26892 36.379 0.94532 34.2429 0.594077 31.7148C0.486002 30.8901 0.513021 30.0248 0.499512 29.1866C0.499512 28.4971 0.499512 27.8076 0.499512 27.1046C0.499512 26.5233 0.837245 26.1447 1.3506 26.1312C1.87746 26.1177 2.25573 26.4962 2.25573 27.0911C2.26923 27.9969 2.25573 28.8892 2.25573 29.795C2.25573 30.5656 2.20169 31.3497 2.48538 32.0933C3.12032 33.8103 4.57933 34.8107 6.49766 34.8242C7.74051 34.8378 8.96986 34.8242 10.2127 34.8242C10.6315 34.8242 10.9692 34.9324 11.1584 35.338C11.4286 35.8923 11.0773 36.5412 10.4559 36.5683C9.64533 36.5953 8.82126 36.5683 7.99719 36.5547C7.99719 36.5683 7.99719 36.5683 7.99719 36.5547Z" fill="#0898A0"/>
<path d="M18.629 29.9309C15.9271 29.9715 13.7521 29.0251 11.9013 27.2946C11.5231 26.9431 11.4285 26.5646 11.5906 26.2131C11.7527 25.8481 12.131 25.6047 12.5228 25.6993C12.7524 25.7534 12.9956 25.9021 13.1847 26.0779C14.2114 27.0378 15.3867 27.7002 16.7647 27.9977C19.2909 28.5384 21.574 27.9977 23.5734 26.3348C23.7085 26.2131 23.8436 26.0914 23.9787 25.9833C24.411 25.6047 24.8973 25.6047 25.2485 25.9562C25.6268 26.3483 25.6268 26.8215 25.208 27.2406C24.1948 28.2545 23.006 29.0251 21.6415 29.4848C20.6148 29.7957 19.5611 29.9715 18.629 29.9309Z" fill="#0898A0"/>
<path d="M19.7099 17.3446C19.7099 18.4802 19.791 19.6294 19.6964 20.7515C19.5478 22.3062 18.1158 23.55 16.3191 23.4824C15.7922 23.4689 15.4545 23.0903 15.4545 22.5901C15.4545 22.0764 15.8057 21.7249 16.3596 21.7114C17.0215 21.7114 17.5619 21.4951 17.8456 20.8732C17.9672 20.6163 18.0077 20.3053 18.0077 20.0214C18.0212 18.1017 18.0077 16.1954 18.0212 14.2757C18.0212 13.789 18.2239 13.4915 18.6021 13.3563C19.2101 13.14 19.7639 13.5862 19.7775 14.3027C19.791 15.3167 19.7775 16.3306 19.7775 17.3446C19.7504 17.3446 19.7234 17.3446 19.7099 17.3446Z" fill="#0898A0"/>
<path d="M9.29405 15.6002C9.29405 15.073 9.26703 14.5457 9.30756 14.0185C9.33458 13.5588 9.71284 13.1803 10.1316 13.0991C10.645 12.991 11.1448 13.1938 11.3745 13.6399C11.4691 13.8292 11.5231 14.0455 11.5231 14.2483C11.5366 15.1541 11.5366 16.0734 11.5231 16.9792C11.5096 17.6687 11.0638 18.1419 10.4423 18.1554C9.8074 18.1689 9.30756 17.6958 9.28054 17.0063C9.26703 16.5331 9.28054 16.0599 9.28054 15.5867C9.26703 15.6002 9.28054 15.6002 9.29405 15.6002Z" fill="#0898A0"/>
<path d="M24.9651 15.6147C24.9651 15.128 24.9516 14.6413 24.9651 14.1681C24.9786 13.5327 25.4514 13.073 26.0864 13.073C26.7213 13.073 27.1941 13.5327 27.1941 14.1816C27.2077 15.128 27.2077 16.0743 27.1941 17.0207C27.1941 17.6561 26.6673 18.1834 26.0729 18.1698C25.4379 18.1563 24.9786 17.6696 24.9651 17.0072C24.9651 16.5475 24.9651 16.0743 24.9651 15.6147Z" fill="#0898A0"/>
</svg>
