<svg width="42" height="42" viewBox="0 0 42 42" fill="none" xmlns="http://www.w3.org/2000/svg">
<path d="M35.6945 13.3845C35.6945 14.0291 35.706 14.6848 35.6945 15.3294C35.6717 15.9407 35.0774 16.2853 34.586 15.9963C34.2888 15.8185 34.1974 15.5295 34.2088 15.2072C34.2088 14.118 34.2088 13.0177 34.2088 11.9285C34.1974 10.617 33.6374 9.59454 32.4717 8.90546C31.9002 8.57204 31.2717 8.43867 30.6202 8.44978C29.5688 8.44978 28.5288 8.46089 27.4773 8.43867C27.2602 8.43867 27.0316 8.36087 26.8488 8.23861C26.5973 8.0719 26.5516 7.74959 26.6431 7.49396C26.7688 7.17165 27.0202 7.00494 27.4202 7.00494C28.4831 7.00494 29.5574 6.99383 30.6202 7.00494C30.9745 7.00494 31.3288 7.03828 31.6717 7.10497C33.8202 7.49396 35.4888 9.27223 35.6602 11.395C35.7174 12.0619 35.6717 12.7287 35.6717 13.3956C35.6717 13.3845 35.6831 13.3845 35.6945 13.3845Z" fill="#222222"/>
<path d="M6.3515 13.4001C6.3515 12.6439 6.28303 11.8767 6.36291 11.1316C6.60254 9.02996 8.51961 7.21741 10.6763 7.06173C12 6.97277 13.3351 7.00613 14.6588 7.00613C15.081 7.00613 15.4119 7.36197 15.4005 7.74004C15.3891 8.11812 15.0468 8.4406 14.6245 8.4406C13.5177 8.45172 12.4222 8.4406 11.3153 8.45172C9.58084 8.47396 8.23433 9.53036 7.86917 11.165C7.81212 11.4319 7.80071 11.721 7.80071 11.9879C7.7893 13.0665 7.80071 14.1563 7.7893 15.2349C7.7893 15.4351 7.72083 15.6575 7.60672 15.8243C7.43555 16.08 7.10463 16.1579 6.81935 16.0578C6.49984 15.9466 6.30585 15.6908 6.30585 15.335C6.29444 14.69 6.30585 14.0339 6.30585 13.389C6.31726 13.4001 6.32868 13.4001 6.3515 13.4001Z" fill="#222222"/>
<path d="M29.3414 36.3952C28.6909 36.3952 28.0289 36.406 27.3784 36.3952C26.785 36.3843 26.4426 35.8733 26.6709 35.4057C26.8078 35.1339 27.0475 35.0034 27.3556 34.9925C27.7322 34.9925 28.1202 34.9925 28.4969 34.9925C29.3185 34.9925 30.1516 35.0034 30.9733 34.9708C32.6966 34.8947 34.1231 33.5246 34.1802 31.8719C34.2144 30.8607 34.1916 29.8386 34.203 28.8274C34.203 28.2946 34.5112 27.9793 34.9905 28.0011C35.31 28.0119 35.5839 28.2403 35.6524 28.5338C35.6752 28.61 35.6866 28.6969 35.6866 28.7731C35.6866 29.8495 35.7323 30.9368 35.6524 32.0024C35.504 33.9269 34.4199 35.2535 32.5825 36.0472C31.8293 36.3734 31.0304 36.4169 30.2087 36.3952C29.9348 36.3843 29.6381 36.3952 29.3414 36.3952Z" fill="#222222"/>
<path d="M12.6471 36.3798C12.0296 36.3798 11.4121 36.4124 10.7947 36.369C8.64491 36.2385 6.67813 34.5213 6.38082 32.4889C6.28935 31.826 6.31222 31.1304 6.30078 30.4565C6.30078 29.9023 6.30078 29.348 6.30078 28.7828C6.30078 28.3155 6.58665 28.0112 7.02117 28.0003C7.46713 27.9894 7.7873 28.2937 7.7873 28.7719C7.79874 29.5001 7.7873 30.2174 7.7873 30.9456C7.7873 31.5651 7.74156 32.1955 7.9817 32.7933C8.51913 34.1735 9.75409 34.9778 11.3778 34.9887C12.4298 34.9995 13.4704 34.9887 14.5224 34.9887C14.8769 34.9887 15.1627 35.0756 15.3228 35.4017C15.5515 35.8473 15.2542 36.369 14.7282 36.3907C14.0421 36.4124 13.3446 36.3907 12.6471 36.3798C12.6471 36.3907 12.6471 36.3907 12.6471 36.3798Z" fill="#222222"/>
<path d="M21.0867 30.7953C18.9272 30.8286 17.1887 30.0507 15.7094 28.6283C15.4071 28.3393 15.3315 28.0281 15.4611 27.7392C15.5907 27.4392 15.893 27.2391 16.2061 27.3169C16.3897 27.3614 16.5841 27.4836 16.7352 27.6281C17.5558 28.4171 18.4952 28.9616 19.5966 29.2061C21.6158 29.6507 23.4406 29.2061 25.0386 27.8392C25.1466 27.7392 25.2546 27.6392 25.3626 27.5503C25.7081 27.2391 26.0968 27.2391 26.3775 27.5281C26.6799 27.8503 26.6799 28.2393 26.3451 28.5838C25.5353 29.4173 24.5851 30.0507 23.4946 30.4286C22.6739 30.6842 21.8317 30.8286 21.0867 30.7953Z" fill="#222222"/>
<path d="M21.6398 20.835C21.6398 21.7717 21.7053 22.7196 21.6288 23.6452C21.5087 24.9276 20.3509 25.9536 18.8982 25.8978C18.4723 25.8867 18.1992 25.5744 18.1992 25.1618C18.1992 24.7381 18.4832 24.4481 18.931 24.437C19.4662 24.437 19.9031 24.2585 20.1325 23.7456C20.2308 23.5337 20.2635 23.2772 20.2635 23.043C20.2745 21.4595 20.2635 19.8871 20.2745 18.3035C20.2745 17.9021 20.4383 17.6567 20.7441 17.5452C21.2356 17.3668 21.6834 17.7348 21.6944 18.3258C21.7053 19.1622 21.6944 19.9986 21.6944 20.835C21.6725 20.835 21.6507 20.835 21.6398 20.835Z" fill="#222222"/>
<path d="M13.3189 18.8894C13.3189 18.4539 13.2938 18.0184 13.3315 17.583C13.3566 17.2033 13.7083 16.8907 14.0977 16.8237C14.5749 16.7343 15.0397 16.9018 15.2532 17.2703C15.3411 17.4266 15.3914 17.6053 15.3914 17.7728C15.4039 18.5209 15.4039 19.2802 15.3914 20.0284C15.3788 20.5978 14.9643 20.9886 14.3865 20.9998C13.7962 21.011 13.3315 20.6202 13.3064 20.0507C13.2938 19.6599 13.3064 19.2691 13.3064 18.8782C13.2938 18.8894 13.3064 18.8894 13.3189 18.8894Z" fill="#222222"/>
<path d="M26.6034 18.8944C26.6034 18.4933 26.5949 18.0923 26.6034 17.7024C26.6118 17.1788 26.9066 16.8 27.3025 16.8C27.6985 16.8 27.9933 17.1788 27.9933 17.7135C28.0017 18.4933 28.0017 19.2731 27.9933 20.0529C27.9933 20.5765 27.6648 21.011 27.2941 20.9998C26.8982 20.9887 26.6118 20.5877 26.6034 20.0418C26.6034 19.663 26.6034 19.2731 26.6034 18.8944Z" fill="#222222"/>
</svg>
