<svg width="70" height="70" viewBox="0 0 70 70" fill="none" xmlns="http://www.w3.org/2000/svg">
<rect width="70" height="70" rx="20" fill="#71879C" fill-opacity="0.1"/>
<path d="M55.9927 24.1207C55.9927 25.0416 56.0091 25.9783 55.9927 26.8992C55.9601 27.7725 55.1111 28.2647 54.4091 27.8518C53.9846 27.5978 53.854 27.185 53.8703 26.7246C53.8703 25.1686 53.8703 23.5967 53.8703 22.0407C53.854 20.1672 53.054 18.7065 51.3886 17.7221C50.5723 17.2458 49.6743 17.0552 48.7437 17.0711C47.2417 17.0711 45.756 17.087 44.2539 17.0552C43.9437 17.0552 43.6172 16.9441 43.3559 16.7694C42.9968 16.5313 42.9315 16.0708 43.0621 15.7057C43.2417 15.2452 43.6008 15.0071 44.1723 15.0071C45.6907 15.0071 47.2254 14.9912 48.7437 15.0071C49.2499 15.0071 49.756 15.0547 50.2458 15.15C53.3152 15.7057 55.6989 18.246 55.9438 21.2786C56.0254 22.2313 55.9601 23.1839 55.9601 24.1365C55.9601 24.1207 55.9764 24.1207 55.9927 24.1207Z" fill="#0898A0"/>
<path d="M14.0725 24.143C14.0725 23.0628 13.9746 21.9667 14.0888 20.9023C14.4311 17.8999 17.1697 15.3106 20.2507 15.0882C22.1417 14.9611 24.049 15.0088 25.94 15.0088C26.5431 15.0088 27.0159 15.5171 26.9996 16.0572C26.9833 16.5973 26.4942 17.058 25.8911 17.058C24.3098 17.0739 22.7449 17.058 21.1636 17.0739C18.6858 17.1057 16.7622 18.6148 16.2406 20.95C16.1591 21.3312 16.1428 21.7443 16.1428 22.1255C16.1264 23.6664 16.1428 25.2232 16.1264 26.7641C16.1264 27.0501 16.0286 27.3678 15.8656 27.6061C15.6211 27.9715 15.1484 28.0827 14.7408 27.9397C14.2844 27.7808 14.0072 27.4155 14.0072 26.9071C13.9909 25.9857 14.0072 25.0485 14.0072 24.1271C14.0235 24.143 14.0398 24.143 14.0725 24.143Z" fill="#0898A0"/>
<path d="M46.9168 56.9931C45.9875 56.9931 45.0419 57.0086 44.1126 56.9931C43.2649 56.9776 42.7758 56.2475 43.1018 55.5796C43.2975 55.1913 43.6398 55.0049 44.08 54.9893C44.618 54.9893 45.1723 54.9893 45.7104 54.9893C46.8842 54.9893 48.0743 55.0049 49.2482 54.9583C51.71 54.8495 53.7479 52.8923 53.8294 50.5313C53.8783 49.0867 53.8457 47.6266 53.862 46.182C53.862 45.4209 54.3022 44.9704 54.987 45.0015C55.4434 45.017 55.8347 45.3432 55.9325 45.7626C55.9651 45.8714 55.9815 45.9956 55.9815 46.1044C55.9815 47.6421 56.0467 49.1955 55.9325 50.7177C55.7206 53.4671 54.1718 55.3621 51.5469 56.496C50.4709 56.962 49.3297 57.0242 48.1559 56.9931C47.7646 56.9776 47.3407 56.9931 46.9168 56.9931Z" fill="#0898A0"/>
<path d="M23.0662 56.9712C22.184 56.9712 21.3019 57.0178 20.4198 56.9557C17.3488 56.7693 14.5391 54.3162 14.1143 51.4128C13.9837 50.4657 14.0163 49.472 14 48.5093C14 47.7175 14 46.9257 14 46.1183C14 45.4507 14.4084 45.0159 15.0291 45.0004C15.6662 44.9849 16.1236 45.4196 16.1236 46.1028C16.1399 47.143 16.1236 48.1678 16.1236 49.208C16.1236 50.093 16.0583 50.9936 16.4013 51.8475C17.1691 53.8193 18.9333 54.9683 21.2529 54.9838C22.7558 54.9993 24.2423 54.9838 25.7452 54.9838C26.2516 54.9838 26.6599 55.108 26.8886 55.5738C27.2153 56.2104 26.7906 56.9557 26.0392 56.9867C25.0591 57.0178 24.0626 56.9867 23.0662 56.9712C23.0662 56.9867 23.0662 56.9867 23.0662 56.9712Z" fill="#0898A0"/>
<path d="M35.1233 48.9932C32.0382 49.0408 29.5548 47.9295 27.4415 45.8974C27.0096 45.4847 26.9016 45.0401 27.0867 44.6274C27.2718 44.1987 27.7037 43.913 28.1511 44.0241C28.4133 44.0876 28.691 44.2622 28.9069 44.4686C30.0792 45.5958 31.4212 46.3737 32.9946 46.723C35.8791 47.358 38.486 46.723 40.7689 44.7702C40.9232 44.6274 41.0774 44.4845 41.2317 44.3575C41.7253 43.913 42.2806 43.913 42.6816 44.3257C43.1135 44.7861 43.1135 45.3418 42.6354 45.8339C41.4785 47.0246 40.121 47.9295 38.5631 48.4693C37.3908 48.8345 36.1876 49.0408 35.1233 48.9932Z" fill="#0898A0"/>
<path d="M35.915 34.7642C35.915 36.1024 36.0087 37.4566 35.8994 38.7788C35.7278 40.6109 34.0739 42.0766 31.9986 41.9969C31.3901 41.981 31 41.5349 31 40.9455C31 40.3401 31.4057 39.9259 32.0454 39.9099C32.81 39.9099 33.4341 39.655 33.7618 38.9222C33.9022 38.6195 33.949 38.2531 33.949 37.9186C33.9646 35.6564 33.949 33.4101 33.9646 31.1479C33.9646 30.5744 34.1987 30.2239 34.6356 30.0646C35.3377 29.8097 35.9775 30.3354 35.9931 31.1798C36.0087 32.3746 35.9931 33.5694 35.9931 34.7642C35.9619 34.7642 35.9307 34.7642 35.915 34.7642Z" fill="#0898A0"/>
<path d="M24.0259 31.9848C24.0259 31.3627 23.99 30.7406 24.0439 30.1184C24.0797 29.5761 24.5822 29.1294 25.1384 29.0337C25.8202 28.9061 26.4841 29.1454 26.7892 29.6718C26.9148 29.8951 26.9865 30.1503 26.9865 30.3896C27.0045 31.4584 27.0045 32.5431 26.9865 33.6119C26.9686 34.4254 26.3765 34.9837 25.5511 34.9997C24.7078 35.0156 24.0439 34.4573 24.008 33.6438C23.99 33.0855 24.008 32.5272 24.008 31.9688C23.99 31.9848 24.008 31.9848 24.0259 31.9848Z" fill="#0898A0"/>
<path d="M43.0053 31.9919C43.0053 31.419 42.9933 30.8461 43.0053 30.2891C43.0174 29.5411 43.4386 29 44.0042 29C44.5698 29 44.991 29.5411 44.991 30.305C45.003 31.419 45.003 32.533 44.991 33.647C44.991 34.395 44.5216 35.0156 43.9921 34.9997C43.4265 34.9838 43.0174 34.4109 43.0053 33.6311C43.0053 33.09 43.0053 32.533 43.0053 31.9919Z" fill="#0898A0"/>
</svg>
