<svg width="98" height="98" viewBox="0 0 98 98" fill="none" xmlns="http://www.w3.org/2000/svg">
<path d="M0 49C0 21.938 21.938 0 49 0C76.062 0 98 21.938 98 49C98 76.062 76.062 98 49 98C21.938 98 0 76.062 0 49Z" fill="white"/>
<path opacity="0.1" d="M0 49C0 21.938 21.938 0 49 0C76.062 0 98 21.938 98 49C98 76.062 76.062 98 49 98C21.938 98 0 76.062 0 49Z" fill="#FF9C00"/>
<path d="M31.3243 68.9004C31.8224 68.9004 32.0714 68.8008 32.5197 68.3525L49.4546 51.3678L66.4393 68.3525C66.8875 68.8008 67.1864 68.9004 67.5849 68.9004C68.3818 68.9004 69.0293 68.3525 69.0293 67.6054C69.0293 67.2069 68.8799 66.8582 68.5312 66.5096L51.4469 49.4253L68.5312 32.341C68.8799 31.9425 69.0293 31.6437 69.0293 31.1954C69.0293 30.4483 68.3818 29.9004 67.5849 29.9004C67.1864 29.9004 66.8377 30.0498 66.4393 30.4981L49.4546 47.433L32.5197 30.4981C32.0714 30.0498 31.8224 29.9004 31.3243 29.9004C30.5274 29.9004 29.9297 30.4483 29.9297 31.1954C29.9297 31.6437 30.0293 31.9425 30.378 32.341L47.5121 49.4253L30.378 66.5096C30.0293 66.8582 29.9297 67.2069 29.9297 67.6054C29.9297 68.3525 30.5274 68.9004 31.3243 68.9004Z" fill="#FF9C00"/>
</svg>
