<svg width="92" height="29" viewBox="0 0 92 29" fill="none" xmlns="http://www.w3.org/2000/svg">
<path d="M39.1201 10.7065V13.4487H42.4463V14.439H39.1201V18H37.9902V9.66553H43.0811V10.7065H39.1201ZM49.543 12.2681V18H48.5273V16.9844C48.3369 17.3398 48.0449 17.6255 47.6514 17.8413C47.2578 18.0529 46.8135 18.1587 46.3184 18.1587C45.7894 18.1587 45.3175 18.0339 44.9028 17.7842C44.4924 17.5303 44.1729 17.1769 43.9443 16.7241C43.7158 16.2671 43.6016 15.7424 43.6016 15.1499C43.6016 14.5448 43.7201 14.0116 43.957 13.5503C44.1982 13.0848 44.5283 12.7272 44.9473 12.4775C45.3662 12.2236 45.8486 12.0967 46.3945 12.0967C46.8812 12.0967 47.3107 12.194 47.6831 12.3887C48.0555 12.5833 48.3454 12.8499 48.5527 13.1885L48.6479 12.2681H49.543ZM46.5532 17.1812C47.116 17.1812 47.571 16.9928 47.918 16.6162C48.265 16.2396 48.4385 15.7339 48.4385 15.0991C48.4385 14.4855 48.2671 13.9946 47.9243 13.6265C47.5815 13.2583 47.133 13.0742 46.5786 13.0742C46.0073 13.0742 45.5524 13.2625 45.2139 13.6392C44.8753 14.0158 44.7061 14.5109 44.7061 15.1245C44.7061 15.7381 44.8753 16.2354 45.2139 16.6162C45.5524 16.9928 45.9989 17.1812 46.5532 17.1812ZM50.9395 15.1245C50.9395 14.5278 51.0643 14.001 51.314 13.5439C51.5679 13.0827 51.917 12.7272 52.3613 12.4775C52.8099 12.2236 53.3241 12.0967 53.9038 12.0967C54.6401 12.0967 55.2601 12.285 55.7637 12.6616C56.2673 13.0382 56.5698 13.5482 56.6714 14.1914H55.5669C55.4823 13.8359 55.2897 13.5566 54.9893 13.3535C54.6888 13.1504 54.3228 13.0488 53.8911 13.0488C53.3368 13.0488 52.8882 13.235 52.5454 13.6074C52.2026 13.9798 52.0312 14.4897 52.0312 15.1372C52.0312 15.7593 52.1963 16.2607 52.5264 16.6416C52.8564 17.0182 53.3114 17.2065 53.8911 17.2065C54.3228 17.2065 54.6909 17.1029 54.9956 16.8955C55.3003 16.6882 55.4907 16.4152 55.5669 16.0767H56.6714C56.5656 16.6987 56.2588 17.2023 55.751 17.5874C55.2474 17.9683 54.6359 18.1587 53.9165 18.1587C53.3283 18.1587 52.8078 18.0339 52.355 17.7842C51.9064 17.5303 51.5573 17.1748 51.3076 16.7178C51.0622 16.2565 50.9395 15.7254 50.9395 15.1245ZM63.3237 16.2861C63.1925 16.849 62.8752 17.3018 62.3716 17.6445C61.868 17.9873 61.2798 18.1587 60.6069 18.1587C60.0272 18.1587 59.5151 18.0317 59.0708 17.7778C58.6307 17.5197 58.2879 17.1621 58.0425 16.7051C57.8013 16.2438 57.6807 15.7127 57.6807 15.1118C57.6807 14.5151 57.8034 13.9883 58.0488 13.5312C58.2985 13.07 58.6413 12.7166 59.0771 12.4712C59.5173 12.2215 60.0145 12.0967 60.5688 12.0967C61.1147 12.0967 61.5929 12.2131 62.0034 12.4458C62.4139 12.6743 62.7334 12.9938 62.9619 13.4043C63.1947 13.8148 63.311 14.2845 63.311 14.8135C63.311 15.1012 63.2941 15.3192 63.2603 15.4673H58.7471C58.764 16.0132 58.9438 16.4512 59.2866 16.7812C59.6294 17.1071 60.0695 17.27 60.6069 17.27C61.0047 17.27 61.3517 17.1812 61.6479 17.0034C61.9484 16.8257 62.1558 16.5866 62.27 16.2861H63.3237ZM62.2192 14.6865C62.2108 14.1745 62.0542 13.7682 61.7495 13.4678C61.4448 13.1631 61.047 13.0107 60.5562 13.0107C60.0356 13.0107 59.6104 13.1631 59.2803 13.4678C58.9502 13.7682 58.7767 14.1745 58.7598 14.6865H62.2192ZM67.8433 12.0967C68.3807 12.0967 68.8589 12.2236 69.2778 12.4775C69.701 12.7272 70.0311 13.0827 70.2681 13.5439C70.505 14.001 70.6235 14.5278 70.6235 15.1245C70.6235 15.7212 70.5072 16.2502 70.2744 16.7114C70.0417 17.1727 69.7137 17.5303 69.2905 17.7842C68.8716 18.0339 68.3934 18.1587 67.856 18.1587C67.3608 18.1587 66.9207 18.0529 66.5356 17.8413C66.1506 17.6255 65.8586 17.3356 65.6597 16.9717L65.5708 18H64.6821V9.08154H65.7358V13.125C65.9347 12.8034 66.2204 12.5516 66.5928 12.3696C66.9652 12.1877 67.382 12.0967 67.8433 12.0967ZM67.6719 17.1812C68.2262 17.1812 68.6748 16.9928 69.0176 16.6162C69.3604 16.2396 69.5317 15.7424 69.5317 15.1245C69.5317 14.5109 69.3604 14.0158 69.0176 13.6392C68.6748 13.2625 68.222 13.0742 67.6592 13.0742C67.0964 13.0742 66.6478 13.2562 66.3135 13.6201C65.9834 13.984 65.8184 14.4771 65.8184 15.0991C65.8184 15.7339 65.9855 16.2396 66.3198 16.6162C66.6584 16.9928 67.109 17.1812 67.6719 17.1812ZM71.6709 15.1372C71.6709 14.5659 71.8 14.0518 72.0581 13.5947C72.3205 13.1335 72.6844 12.7695 73.1499 12.5029C73.6196 12.2321 74.1528 12.0967 74.7495 12.0967C75.3462 12.0967 75.8815 12.2321 76.3555 12.5029C76.8294 12.7695 77.1955 13.1335 77.4536 13.5947C77.716 14.0518 77.8472 14.5659 77.8472 15.1372C77.8472 15.7 77.7139 16.2121 77.4473 16.6733C77.1849 17.1346 76.8188 17.4985 76.3491 17.7651C75.8836 18.0275 75.3504 18.1587 74.7495 18.1587C74.1613 18.1587 73.6323 18.0275 73.1626 17.7651C72.6971 17.4985 72.3311 17.1367 72.0645 16.6797C71.8021 16.2184 71.6709 15.7043 71.6709 15.1372ZM72.7881 15.1372C72.7881 15.7297 72.9722 16.2205 73.3403 16.6099C73.7085 16.9992 74.1782 17.1938 74.7495 17.1938C75.3377 17.1938 75.8159 16.9992 76.1841 16.6099C76.5565 16.2205 76.7427 15.7297 76.7427 15.1372C76.7427 14.5405 76.5586 14.0454 76.1904 13.6519C75.8223 13.2583 75.342 13.0615 74.7495 13.0615C74.1782 13.0615 73.7085 13.2583 73.3403 13.6519C72.9722 14.0454 72.7881 14.5405 72.7881 15.1372ZM78.8818 15.1372C78.8818 14.5659 79.0109 14.0518 79.269 13.5947C79.5314 13.1335 79.8953 12.7695 80.3608 12.5029C80.8306 12.2321 81.3638 12.0967 81.9604 12.0967C82.5571 12.0967 83.0924 12.2321 83.5664 12.5029C84.0404 12.7695 84.4064 13.1335 84.6646 13.5947C84.9269 14.0518 85.0581 14.5659 85.0581 15.1372C85.0581 15.7 84.9248 16.2121 84.6582 16.6733C84.3958 17.1346 84.0298 17.4985 83.5601 17.7651C83.0946 18.0275 82.5614 18.1587 81.9604 18.1587C81.3722 18.1587 80.8433 18.0275 80.3735 17.7651C79.908 17.4985 79.542 17.1367 79.2754 16.6797C79.013 16.2184 78.8818 15.7043 78.8818 15.1372ZM79.999 15.1372C79.999 15.7297 80.1831 16.2205 80.5513 16.6099C80.9194 16.9992 81.3892 17.1938 81.9604 17.1938C82.5487 17.1938 83.0269 16.9992 83.395 16.6099C83.7674 16.2205 83.9536 15.7297 83.9536 15.1372C83.9536 14.5405 83.7695 14.0454 83.4014 13.6519C83.0332 13.2583 82.5529 13.0615 81.9604 13.0615C81.3892 13.0615 80.9194 13.2583 80.5513 13.6519C80.1831 14.0454 79.999 14.5405 79.999 15.1372ZM89.4697 14.4009L91.4375 18H90.2251L88.708 15.1816L87.5591 16.375V18H86.48V9.08154H87.5591V15.0356L90.1997 12.2681H91.5264L89.4697 14.4009Z" fill="#8B909D"/>
<rect width="29" height="29" rx="14.5" fill="#1877F2"/>
<path d="M17.9476 15.932L18.3883 13.0583H15.6311V11.1942C15.6311 10.408 16.0163 9.64078 17.2513 9.64078H18.5049V7.19417C18.5049 7.19417 17.3672 7 16.2794 7C14.0085 7 12.5243 8.37631 12.5243 10.868V13.0583H10V15.932H12.5243V22.8792C13.5536 23.0403 14.6017 23.0403 15.6311 22.8792V15.932H17.9476Z" fill="white"/>
</svg>
