<svg width="32" height="32" viewBox="0 0 32 32" fill="none" xmlns="http://www.w3.org/2000/svg">
<path d="M6 8C6 6.89543 6.89543 6 8 6H19.4545C20.5591 6 21.4545 6.89543 21.4545 8V26H8C6.89543 26 6 25.1046 6 24V8Z" stroke="#171C22" stroke-width="1.4"/>
<path d="M9.18182 25.9997L24 25.9997C25.1046 25.9997 26 25.1043 26 23.9997L26 15.2725C26 14.1679 25.1046 13.2725 24 13.2725L21.4545 13.2725" stroke="#171C22" stroke-width="1.4"/>
<path fill-rule="evenodd" clip-rule="evenodd" d="M6 8C6 6.89543 6.89543 6 8 6H19.4545C20.5591 6 21.4545 6.89543 21.4545 8V26H8C6.89543 26 6 25.1046 6 24V8ZM13 11C13 12.1046 12.1046 13 11 13C9.89543 13 9 12.1046 9 11C9 9.89543 9.89543 9 11 9C12.1046 9 13 9.89543 13 11ZM8.72729 17.8181H18.7273V16.3181H8.72729V17.8181ZM8.72729 21.4545H18.7273V19.9545H8.72729V21.4545Z" fill="#171C22"/>
</svg>
