<svg width="76" height="76" viewBox="0 0 76 76" fill="none" xmlns="http://www.w3.org/2000/svg">
<circle cx="38.3596" cy="37.8764" r="37.6404" fill="white"/>
<circle cx="38.3596" cy="37.8764" r="36.6404" fill="white" stroke="url(#paint0_linear)" stroke-width="2"/>
<mask id="mask0" mask-type="alpha" maskUnits="userSpaceOnUse" x="0" y="0" width="76" height="76">
<circle cx="38.3596" cy="37.8764" r="37.6404" fill="white"/>
</mask>
<g mask="url(#mask0)">
<path d="M48.0707 75.1617L48.1056 75.6961L47.5513 75.6661V75.1667L48.0707 75.1617Z" fill="#002324"/>
<path d="M48.0706 75.1616L48.0356 74.6921H48.0706V75.1616Z" fill="#002324"/>
<path d="M48.0709 75.1617H47.5714V74.6622L48.0159 74.6872L48.0709 75.1617Z" fill="#002324"/>
<path d="M47.6861 48.6168L47.4414 49.0513L47.4364 48.477L47.6861 48.6168Z" fill="#002324"/>
<path d="M47.6012 74.6675V75.1669H47.1018V74.9421C47.1575 74.8984 47.2109 74.8517 47.2616 74.8023L48.0257 74.0831L48.0657 74.6924L47.6012 74.6675Z" fill="#002324"/>
<path d="M47.4366 48.4772L47.4416 49.0515L46.9421 48.7719L46.9371 48.2025L47.4366 48.4772Z" fill="#002324"/>
<path d="M46.942 48.7719L47.4414 49.0515L47.1967 49.486L46.942 49.3462V48.7719Z" fill="#002324"/>
<path d="M46.942 48.7719V49.3463L32.8181 41.5002L34.5561 41.8948L46.942 48.7719Z" fill="#002324"/>
<path d="M46.8273 25.713L46.9371 48.1874L34.786 41.4401L34.9009 40.9407L33.1729 40.5511L20.6871 33.609C21.8109 31.5314 27.1797 22.3469 34.806 21.0284C38.7965 20.3442 42.8468 21.9174 46.8273 25.713Z" fill="#002324"/>
<path d="M32.7 75.1634L32.7013 75.666C32.8433 75.9788 32.6513 76.0821 32.7015 76.4219C35.7031 77.3259 43.912 78.6344 47.1433 76.1722L47.18 76.6999L48.1271 75.6927L47.5728 75.6628V75.1633H47.0734V74.9386C43.882 77.7853 35.6966 76.1623 32.7 75.1634Z" fill="#002324"/>
<path d="M34.7861 41.455L46.9372 48.2024L46.9422 48.7717L34.5564 41.8945L34.6813 41.9245L34.7861 41.455Z" fill="#002324"/>
<path d="M34.9008 40.9508L34.7859 41.4552L33.1727 40.5612L34.9008 40.9508Z" fill="#002324"/>
<path d="M32.988 41.0258L31.4398 40.1668L33.1728 40.5613L34.786 41.4553L34.6811 41.9247L34.5562 41.8948L32.988 41.0258Z" fill="#002324"/>
<path d="M32.9882 41.0257L34.5564 41.8947L32.8184 41.5001L29.7019 39.772L31.4399 40.1666L32.9882 41.0257Z" fill="#002324"/>
<path d="M33.3873 61.2974L32.6432 61.7119V60.8629H33.642V61.1576L33.3873 61.2974Z" fill="#002324"/>
<path d="M32.8183 41.5001L26.97 40.1766L27.1897 39.2027L29.7018 39.7721L32.8183 41.5001Z" fill="#002324"/>
<path d="M31.4399 40.1667L29.7018 39.7721L20.3925 34.623C20.4224 34.3932 20.4524 34.2184 20.4724 34.1236L31.4399 40.1667Z" fill="#002324"/>
<path d="M30.4609 51.7984L31.4098 52.118C30.321 55.3143 23.4988 55.9386 23.2092 55.9636L23.1193 54.9647C24.9172 54.8099 29.7317 53.9359 30.4609 51.7984Z" fill="#002324"/>
<path d="M29.8817 42.5641C30.0903 42.5641 30.2943 42.626 30.4677 42.7421C30.6411 42.8581 30.7761 43.0229 30.8557 43.2158C30.9353 43.4086 30.9559 43.6208 30.9148 43.8253C30.8738 44.0299 30.7729 44.2176 30.625 44.3648C30.4772 44.512 30.2889 44.612 30.0842 44.6521C29.8795 44.6921 29.6674 44.6706 29.4749 44.5901C29.2825 44.5095 29.1183 44.3737 29.0031 44.1997C28.8879 44.0258 28.8269 43.8215 28.8279 43.6129C28.8292 43.3343 28.9408 43.0675 29.1383 42.871C29.3358 42.6744 29.6031 42.5641 29.8817 42.5641Z" fill="#002324"/>
<path d="M23.7384 39.1878V50.5547H22.7395V40.1866H19.708C19.708 40.0434 19.723 39.8936 19.7529 39.7371L19.8129 39.1878H23.7384Z" fill="#002324"/>
<path d="M21.0565 42.5638C21.2653 42.5628 21.4698 42.6239 21.6438 42.7393C21.8179 42.8547 21.9537 43.0193 22.0341 43.212C22.1145 43.4048 22.1358 43.6171 22.0953 43.822C22.0548 44.0268 21.9543 44.2151 21.8066 44.3628C21.659 44.5104 21.4707 44.6109 21.2659 44.6514C21.061 44.6919 20.8487 44.6706 20.6559 44.5902C20.4632 44.5099 20.2987 44.374 20.1832 44.1999C20.0678 44.0259 20.0067 43.8215 20.0077 43.6126C20.0052 43.5777 20.0052 43.5426 20.0077 43.5077C20.0338 43.2481 20.1557 43.0076 20.3496 42.833C20.5436 42.6585 20.7956 42.5625 21.0565 42.5638Z" fill="#002324"/>
<path d="M20.677 33.6241L33.1627 40.5662L31.4297 40.1716L20.4423 34.0836C20.4423 34.0436 20.4423 34.0087 20.4423 33.9837L20.677 33.6241Z" fill="#002324"/>
<path d="M20.4873 33.9739C20.4873 33.9988 20.4873 34.0338 20.4873 34.0738L20.0228 33.819L20.0678 33.7341L20.2676 33.3845L20.6921 33.6192L20.4873 33.9739Z" fill="#002324"/>
<path d="M20.0081 33.8189L20.4726 34.0736C20.4726 34.1935 20.4227 34.3683 20.3927 34.573L19.7634 34.2234L20.0081 33.8189Z" fill="#002324"/>
<path d="M34.7959 21.0385C27.1696 22.357 21.8107 31.5265 20.677 33.6191L20.2525 33.3844L20.0527 33.734C20.8368 32.2008 32.1639 10.8202 47.3266 25.4984L47.4364 48.4721L46.937 48.1975L46.8271 25.7231C42.8467 21.9175 38.7963 20.3443 34.7959 21.0385Z" fill="#002324"/>
<path d="M18.8042 39.1879C19.1438 35.9916 19.5134 33.7591 19.5134 33.7392L19.5583 33.5993C20.6965 31.4118 22.0608 29.3496 23.6287 27.4463C27.0548 23.2661 30.8604 20.709 34.6161 20.0548C38.9961 19.2906 43.3911 21.0037 47.6662 25.139L47.8161 25.2838L48.0608 74.6924H48.0258L47.9859 74.0831L47.2217 74.8023C47.171 74.8517 47.1176 74.8984 47.0619 74.9421L46.9521 53.2419C45.4538 54.2658 41.6631 56.678 33.6323 61.1529V60.8582H32.6334L32.5086 60.6335L32.8881 60.4237C42.3773 55.1297 46.0481 52.6626 46.9471 52.0283V49.3413L47.2018 49.4812L47.4465 49.0467L47.6912 48.6122L47.4415 48.4723L47.3316 25.4986C32.1689 10.8203 20.8618 32.2009 20.0577 33.7342L20.0128 33.8191L19.7681 34.2536L20.3974 34.6032C20.2625 35.4822 20.0328 37.1253 19.818 39.1879H18.8042Z" fill="#002324"/>
<path d="M18.7593 39.6171C18.7593 39.4673 18.7892 39.3124 18.8042 39.1676H19.8031L19.7431 39.717C19.7431 39.8735 19.7282 40.0233 19.6982 40.1665H18.6993C18.7243 40.0067 18.7393 39.8219 18.7593 39.6171Z" fill="#002324"/>
<path d="M19.4333 43.4626C18.6841 54.3602 19.9327 61.4421 22.9293 63.3549C24.3427 64.2639 26.2305 64.0841 28.5429 62.8205C29.9646 62.0448 31.2864 61.3173 32.5083 60.638L32.6332 60.8628V61.7118C31.5111 62.3377 30.3075 63.0037 29.0223 63.7095C26.3653 65.1579 24.1329 65.3277 22.3899 64.2089C18.1198 61.4671 17.8951 51.3836 18.4245 43.4027C18.4944 42.4038 18.5793 41.355 18.6941 40.1964H19.693C19.5881 41.375 19.4982 42.4488 19.4333 43.4626Z" fill="#002324"/>
<path d="M18.804 39.1878C18.804 39.3326 18.7741 39.4874 18.7591 39.6372C18.7441 39.787 18.7241 40.0068 18.7042 40.1866H17.2808V39.1878H18.804Z" fill="#002324"/>
<path d="M32.7001 60.9842H34.0319V75.6341H32.7001V60.9842Z" fill="#002324"/>
<path d="M46.8286 49.0881L46.7044 23.4832C45.3965 22.1844 43.9189 21.0686 42.3118 20.1661C58.7446 27.0007 67.5497 52.5548 67.5497 52.5548L50.1118 56.3263L46.8427 51.1207L46.8286 49.0881Z" fill="#002324"/>
<path d="M46.7072 23.4832L46.8314 49.0881C46.6931 49.1897 46.4136 49.3874 45.9478 49.6979L30.5905 25.2702L28.366 21.7301C30.5849 19.9939 33.2103 18.6925 36.1491 18.5965C38.2701 18.8091 40.3474 19.3382 42.3117 20.1661C43.9199 21.0684 45.3984 22.1842 46.7072 23.4832Z" fill="#002324"/>
<path d="M28.3659 21.7302L30.5905 25.2702L20.5969 31.4358C20.5969 31.4358 23.5075 25.5328 28.3659 21.7302Z" fill="#002324"/>
<path d="M20.0605 35.3794C19.51 40.0798 18.8749 48.0294 19.9533 53.7659L6.74146 51.3606C6.74146 51.3606 15.2698 28.8695 28.3546 21.7188C23.4962 25.5214 20.5856 31.4244 20.5856 31.4244C20.5856 31.4244 20.34 32.9911 20.0605 35.3794Z" fill="#002324"/>
<path fill-rule="evenodd" clip-rule="evenodd" d="M36.3355 18.8656C33.2712 18.9588 30.5177 20.2154 28.1704 21.9152C25.5999 23.7772 23.538 26.159 22.1161 28.0823C21.406 29.0428 20.8576 29.886 20.4871 30.4886C20.3018 30.7898 20.1612 31.0307 20.067 31.1958C20.02 31.2783 19.9846 31.3419 19.9611 31.3846C19.9556 31.3945 19.9508 31.4033 19.9466 31.411L19.9418 31.4391C19.9338 31.4858 19.922 31.5552 19.907 31.6461C19.8769 31.8277 19.8335 32.0948 19.7807 32.4359C19.6751 33.118 19.5317 34.096 19.3807 35.2781C18.7905 39.9419 18.1159 47.7908 19.2625 53.4358L19.263 53.4381L19.2634 53.4404C19.4953 54.6962 18.9166 56.4999 19.4742 57.6647L18.9208 57.8916C18.3432 56.6851 18.9076 54.8377 18.6672 53.537C17.5023 47.7995 18.1895 39.8753 18.7795 35.2128C18.9312 34.0254 19.0753 33.0425 19.1815 32.3564C19.2346 32.0134 19.2783 31.7444 19.3087 31.5611C19.3239 31.4694 19.3358 31.3991 19.3439 31.3517L19.3532 31.2978L19.3563 31.2795C19.3563 31.2795 19.3564 31.2792 19.6551 31.3241C19.3837 31.2002 19.3838 31.2001 19.3838 31.2001L19.3845 31.1988L19.3864 31.1952L19.3937 31.1817C19.4 31.1699 19.4094 31.1527 19.4218 31.1302C19.4465 31.0853 19.4833 31.0193 19.5317 30.9344C19.6286 30.7644 19.7723 30.5183 19.961 30.2115C20.3383 29.598 20.8955 28.7413 21.6165 27.766C23.0569 25.8177 25.1593 23.3849 27.7973 21.4741C30.2069 19.7292 33.082 18.4035 36.3178 18.3057L36.322 18.3056C38.689 18.2644 41.0238 18.8181 43.0777 19.9077C44.825 20.8151 46.4316 21.9373 47.8537 23.2436L47.9426 23.3252L48.0763 48.8451L48.0763 48.8465L48.0763 51.1684L48.1459 64.222L47.5406 64.2248L47.4711 51.1698L47.471 51.1684V48.8465L47.3385 23.56C45.9769 22.3237 44.4442 21.2596 42.7803 20.3956L42.7778 20.3943C40.8192 19.355 38.5928 18.8267 36.3355 18.8656ZM19.6551 31.3241L19.3838 31.2001L19.3637 31.2378L19.3563 31.2795L19.6551 31.3241Z" fill="#002324"/>
<path fill-rule="evenodd" clip-rule="evenodd" d="M36.0784 17.8437H36.1866L36.2241 17.8475C38.4193 18.0675 40.5693 18.6149 42.6024 19.4717C51.0536 22.9873 57.4675 31.2694 61.7421 38.5478C63.8893 42.2038 65.517 45.642 66.6081 48.166C67.1539 49.4286 67.566 50.4638 67.8422 51.185C67.9803 51.5456 68.0845 51.8278 68.1544 52.0207C68.1894 52.1171 68.2158 52.1913 68.2337 52.2418L68.254 52.2996L68.2593 52.3149L68.2608 52.3191L68.2612 52.3203C68.2613 52.3207 68.2614 52.3209 67.5496 52.5661L68.2612 52.3203L68.5375 53.1226L49.7552 57.185L29.9418 25.6595L28.1004 22.7292C22.0224 26.3196 16.9271 33.3125 13.293 39.598C11.4247 42.8295 9.96094 45.8411 8.96443 48.0449C8.46637 49.1463 8.08553 50.0448 7.82968 50.6667C7.81302 50.7072 7.79688 50.7465 7.78127 50.7847L20.0937 53.0252L19.8241 54.5065L5.71692 51.9394L6.03758 51.0937L6.74148 51.3606C6.03758 51.0937 6.03746 51.094 6.03758 51.0937L6.03956 51.0885L6.04466 51.0752L6.06418 51.0245C6.08131 50.9801 6.10667 50.915 6.14014 50.8301C6.20708 50.6604 6.30645 50.4119 6.43729 50.0939C6.69896 49.4578 7.08662 48.5433 7.59255 47.4245C8.60401 45.1877 10.0902 42.1296 11.9895 38.8444C15.7689 32.3077 21.2585 24.7389 27.9936 21.0582L28.6152 20.7185L31.2165 24.8583L50.4683 55.4903L66.5461 52.0129C66.5124 51.9233 66.4757 51.8268 66.4362 51.7235C66.1667 51.0198 65.7625 50.0044 65.2261 48.7634C64.1527 46.2804 62.5521 42.9 60.4439 39.3103C56.208 32.0978 50.0035 24.1805 42.0226 20.8612L42.0193 20.8598C40.1357 20.0659 38.1444 19.5568 36.111 19.3493H36.0784V19.346C36.0769 19.3459 36.0754 19.3457 36.0739 19.3456L36.0784 19.3007V17.8437Z" fill="#002324"/>
<path fill-rule="evenodd" clip-rule="evenodd" d="M30.9858 25.9108L20.9922 32.0764L20.2017 30.795L30.1952 24.6295L30.9858 25.9108Z" fill="#002324"/>
</g>
<defs>
<linearGradient id="paint0_linear" x1="38.3596" y1="0.235962" x2="38.3596" y2="75.5169" gradientUnits="userSpaceOnUse">
<stop stop-color="#0898A0"/>
<stop offset="1" stop-color="#22D8E2"/>
</linearGradient>
</defs>
</svg>
