<svg width="76" height="76" viewBox="0 0 76 76" fill="none" xmlns="http://www.w3.org/2000/svg">
<circle cx="37.6404" cy="38.1236" r="37.6404" fill="white"/>
<circle cx="37.6404" cy="38.1236" r="36.6404" fill="white" stroke="url(#paint0_linear)" stroke-width="2"/>
<mask id="mask0" mask-type="alpha" maskUnits="userSpaceOnUse" x="0" y="0" width="76" height="76">
<circle cx="37.6404" cy="38.1236" r="37.6404" fill="white"/>
</mask>
<g mask="url(#mask0)">
<path d="M48.7775 15.0375C49.6973 15.0365 50.5968 15.3083 51.3621 15.8186C52.1274 16.329 52.7241 17.0548 53.0768 17.9043C53.4295 18.7538 53.5223 19.6889 53.3434 20.5912C53.1646 21.4934 52.7221 22.3224 52.0721 22.9732C51.422 23.6239 50.5935 24.0673 49.6914 24.2471C48.7893 24.4269 47.8542 24.3351 47.0043 23.9833C46.1544 23.6316 45.4279 23.0356 44.9167 22.2709C44.4056 21.5061 44.1328 20.607 44.1328 19.6871C44.1354 18.4556 44.6254 17.2753 45.4958 16.404C46.3661 15.5327 47.546 15.0414 48.7775 15.0375Z" fill="#002324"/>
<path d="M48.4729 51.8753L48.2281 52.3099L48.2231 51.7355L48.4729 51.8753Z" fill="#002324"/>
<path d="M48.2232 51.7357L48.2282 52.3101L47.7288 52.0304L47.7238 51.461L48.2232 51.7357Z" fill="#002324"/>
<path d="M47.7286 52.0304L48.2281 52.31L47.9834 52.7445L47.7286 52.6047V52.0304Z" fill="#002324"/>
<path d="M47.7286 52.0305V52.6048L33.6047 44.7587L35.3427 45.1533L47.7286 52.0305Z" fill="#002324"/>
<path d="M47.6139 28.9716L47.7238 51.4459L35.5727 44.6986L35.6875 44.1992L33.9595 43.8096L21.4738 36.8675C22.5975 34.7899 27.9663 25.6054 35.5926 24.2869C39.5831 23.6027 43.6335 25.1759 47.6139 28.9716Z" fill="#002324"/>
<path d="M44.1327 19.6873C44.1327 20.6071 44.4056 21.5063 44.9167 22.271C45.4279 23.0358 46.1543 23.6317 47.0042 23.9835C47.8541 24.3353 48.7893 24.4271 49.6914 24.2473C50.5935 24.0674 51.422 23.6241 52.072 22.9733C52.7221 22.3226 53.1645 21.4936 53.3434 20.5913C53.5222 19.689 53.4294 18.754 53.0767 17.9044C52.724 17.0549 52.1273 16.3291 51.362 15.8188C50.5967 15.3085 49.6973 15.0366 48.7775 15.0376C47.5451 15.0389 46.3637 15.5294 45.4928 16.4012C44.6219 17.273 44.1327 18.455 44.1327 19.6873ZM43.6333 19.6873C43.6323 18.6684 43.9336 17.6722 44.499 16.8247C45.0644 15.9772 45.8686 15.3164 46.8096 14.9261C47.7507 14.5357 48.7865 14.4333 49.7858 14.6319C50.7851 14.8304 51.703 15.3209 52.4234 16.0413C53.1438 16.7617 53.6343 17.6797 53.8329 18.679C54.0314 19.6783 53.929 20.714 53.5386 21.6551C53.1483 22.5962 52.4876 23.4003 51.64 23.9657C50.7925 24.5311 49.7963 24.8324 48.7775 24.8314C47.4135 24.8301 46.1059 24.2877 45.1414 23.3233C44.177 22.3588 43.6346 21.0512 43.6333 19.6873Z" fill="#002324"/>
<path d="M43.1339 19.6873C43.1329 18.5697 43.4635 17.4769 44.0838 16.5472C44.7041 15.6176 45.5862 14.8928 46.6185 14.4647C47.6509 14.0365 48.787 13.9242 49.8832 14.142C50.9794 14.3598 51.9863 14.8979 52.7766 15.6881C53.5668 16.4784 54.1049 17.4854 54.3227 18.5815C54.5405 19.6777 54.4282 20.8139 54.0001 21.8462C53.5719 22.8785 52.8472 23.7607 51.9175 24.381C50.9878 25.0013 49.8951 25.3318 48.7775 25.3308C47.2815 25.3282 45.8476 24.7328 44.7898 23.675C43.732 22.6172 43.1366 21.1832 43.1339 19.6873ZM48.7775 14.5382C47.7591 14.5382 46.7635 14.8401 45.9168 15.4059C45.07 15.9717 44.41 16.7759 44.0203 17.7168C43.6306 18.6577 43.5286 19.693 43.7273 20.6918C43.926 21.6907 44.4164 22.6081 45.1365 23.3283C45.8566 24.0484 46.7741 24.5388 47.7729 24.7375C48.7718 24.9361 49.8071 24.8342 50.7479 24.4444C51.6888 24.0547 52.493 23.3948 53.0588 22.548C53.6246 21.7012 53.9266 20.7057 53.9266 19.6873C53.9266 18.3216 53.3841 17.0119 52.4184 16.0463C51.4528 15.0806 50.1431 14.5382 48.7775 14.5382Z" fill="#002324"/>
<path d="M35.5728 44.7135L47.7239 51.4609L47.7289 52.0302L35.343 45.153L35.4679 45.183L35.5728 44.7135Z" fill="#002324"/>
<path d="M35.6875 44.2093L35.5727 44.7137L33.9595 43.8197L35.6875 44.2093Z" fill="#002324"/>
<path d="M33.7747 44.2843L32.2265 43.4253L33.9595 43.8198L35.5727 44.7138L35.4678 45.1832L35.3429 45.1533L33.7747 44.2843Z" fill="#002324"/>
<path d="M33.7748 44.2842L35.343 45.1532L33.605 44.7586L30.4885 43.0306L32.2266 43.4251L33.7748 44.2842Z" fill="#002324"/>
<path d="M34.174 64.5559L33.4299 64.9704V64.1214H34.4287V64.4161L34.174 64.5559Z" fill="#002324"/>
<path d="M33.6049 44.7586L27.7566 43.4351L27.9763 42.4612L30.4885 43.0306L33.6049 44.7586Z" fill="#002324"/>
<path d="M32.2265 43.4252L30.4885 43.0306L21.1791 37.8815C21.2091 37.6518 21.2391 37.477 21.259 37.3821L32.2265 43.4252Z" fill="#002324"/>
<path d="M31.2475 55.0569L32.1964 55.3765C31.1077 58.5728 24.2854 59.1971 23.9958 59.2221L23.9059 58.2232C25.7038 58.0684 30.5183 57.1944 31.2475 55.0569Z" fill="#002324"/>
<path d="M30.6683 45.8226C30.877 45.8226 31.0809 45.8846 31.2543 46.0006C31.4277 46.1166 31.5627 46.2815 31.6424 46.4743C31.722 46.6672 31.7425 46.8793 31.7015 47.0838C31.6604 47.2884 31.5595 47.4762 31.4117 47.6233C31.2638 47.7705 31.0756 47.8705 30.8708 47.9106C30.6661 47.9507 30.454 47.9291 30.2616 47.8486C30.0691 47.768 29.9049 47.6322 29.7897 47.4582C29.6745 47.2843 29.6135 47.0801 29.6145 46.8714C29.6158 46.5928 29.7275 46.326 29.9249 46.1295C30.1224 45.933 30.3897 45.8226 30.6683 45.8226Z" fill="#012224"/>
<path d="M24.5251 42.4463V53.8132H23.5262V43.4451H20.4947C20.4947 43.3019 20.5097 43.1521 20.5396 42.9956L20.5996 42.4463H24.5251Z" fill="#002324"/>
<path d="M21.8432 45.8223C22.052 45.8213 22.2565 45.8824 22.4305 45.9978C22.6046 46.1132 22.7404 46.2778 22.8208 46.4705C22.9012 46.6633 22.9225 46.8756 22.882 47.0805C22.8415 47.2853 22.741 47.4736 22.5933 47.6213C22.4457 47.7689 22.2574 47.8694 22.0525 47.9099C21.8477 47.9504 21.6354 47.9291 21.4426 47.8487C21.2499 47.7684 21.0853 47.6325 20.9699 47.4585C20.8545 47.2844 20.7934 47.08 20.7944 46.8711C20.7919 46.8362 20.7919 46.8012 20.7944 46.7662C20.8205 46.5066 20.9424 46.2661 21.1363 46.0915C21.3303 45.917 21.5823 45.821 21.8432 45.8223Z" fill="#012224"/>
<path d="M21.4636 36.8826L33.9494 43.8247L32.2163 43.4302L21.2289 37.3421C21.2289 37.3022 21.2289 37.2672 21.2289 37.2422L21.4636 36.8826Z" fill="#002324"/>
<path d="M21.2739 37.2324C21.2739 37.2574 21.2739 37.2923 21.2739 37.3323L20.8094 37.0776L20.8544 36.9926L21.0542 36.643L21.4787 36.8778L21.2739 37.2324Z" fill="#002324"/>
<path d="M20.7948 37.0774L21.2592 37.3321C21.2592 37.452 21.2093 37.6268 21.1793 37.8316L20.55 37.482L20.7948 37.0774Z" fill="#002324"/>
<path d="M35.5825 24.297C27.9563 25.6155 22.5974 34.785 21.4637 36.8776L21.0392 36.6429L20.8394 36.9925C21.6235 35.4593 32.9506 14.0787 48.1132 28.7569L48.2231 51.7307L47.7237 51.456L47.6138 28.9817C43.6334 25.176 39.583 23.6028 35.5825 24.297Z" fill="#002324"/>
<path d="M19.5908 42.4465C19.9304 39.2501 20.3 37.0177 20.3 36.9977L20.3449 36.8578C21.4831 34.6703 22.8474 32.6081 24.4153 30.7049C27.8414 26.5246 31.647 23.9675 35.4028 23.3133C39.7827 22.5491 44.1777 24.2622 48.4529 28.3975L48.6027 28.5423L48.8474 77.9509H48.8124L48.7725 77.3416L48.0084 78.0608C47.9576 78.1102 47.9042 78.1569 47.8485 78.2007L47.7387 56.5004C46.2404 57.5243 42.4497 59.9365 34.4189 64.4114V64.1167H33.42L33.2952 63.892L33.6747 63.6822C43.1639 58.3883 46.8347 55.9211 47.7337 55.2868V52.5999L47.9884 52.7397L48.2331 52.3052L48.4778 51.8707L48.2281 51.7309L48.1182 28.7571C32.9556 14.0788 21.6484 35.4594 20.8444 36.9927L20.7994 37.0776L20.5547 37.5121L21.184 37.8617C21.0492 38.7407 20.8194 40.3838 20.6046 42.4465H19.5908Z" fill="#002324"/>
<path d="M19.546 42.8756C19.546 42.7258 19.576 42.5709 19.591 42.4261H20.5898L20.5299 42.9755C20.5299 43.132 20.5149 43.2818 20.485 43.425H19.4861C19.5111 43.2652 19.526 43.0804 19.546 42.8756Z" fill="#002324"/>
<path d="M20.22 46.7212C19.4708 57.6187 20.7194 64.7006 23.716 66.6135C25.1293 67.5224 27.0172 67.3426 29.3295 66.0791C30.7513 65.3033 32.0731 64.5758 33.295 63.8966L33.4199 64.1213V64.9703C32.2978 65.5963 31.0942 66.2622 29.809 66.968C27.152 68.4164 24.9196 68.5862 23.1766 67.4675C18.9065 64.7256 18.6818 54.6421 19.2111 46.6612C19.2811 45.6624 19.366 44.6136 19.4808 43.4549H20.4797C20.3748 44.6335 20.2849 45.7073 20.22 46.7212Z" fill="#002324"/>
<path d="M19.5908 42.4463C19.5908 42.5911 19.5608 42.7459 19.5458 42.8957C19.5308 43.0455 19.5109 43.2653 19.4909 43.4451H18.0675V42.4463H19.5908Z" fill="#002324"/>
<path d="M33.4868 64.2427H34.8186V78.8926H33.4868V64.2427Z" fill="#002324"/>
</g>
<defs>
<linearGradient id="paint0_linear" x1="37.6404" y1="0.483154" x2="37.6404" y2="75.7641" gradientUnits="userSpaceOnUse">
<stop stop-color="#0898A0"/>
<stop offset="1" stop-color="#22D8E2"/>
</linearGradient>
</defs>
</svg>
