<svg width="133" height="34" viewBox="0 0 133 34" fill="none" xmlns="http://www.w3.org/2000/svg">
<rect x="0.195312" y="4.31152" width="132" height="29.2131" rx="10" fill="#E6F5F6"/>
<path d="M55.292 0.150195H53.8282H38.1956H36.7307C34.1054 0.150195 31.9676 2.24028 31.9676 4.81154C31.9676 7.38282 34.1054 9.4718 36.7307 9.4718C37.6053 9.4718 38.4893 9.261 39.2508 8.87131H52.7696C53.5322 9.26099 54.4162 9.4718 55.2896 9.4718C57.9149 9.4718 60.0539 7.38283 60.0539 4.81154C60.0539 2.2403 57.9174 0.150195 55.292 0.150195ZM50.6708 6.11121C50.7697 6.80564 51.0612 7.41039 51.503 7.90465H40.522C40.9638 7.41039 41.2553 6.80564 41.3543 6.11121H50.6708ZM55.292 8.50515C54.4085 8.50515 53.4994 8.25238 52.8113 7.76758C52.1262 7.2848 51.6613 6.57313 51.6543 5.64934C51.6547 5.64812 51.6551 5.64673 51.6555 5.64525C51.6567 5.64102 51.6578 5.63526 51.6578 5.62842C51.6578 4.9221 52.2842 4.3422 53.0633 4.3422C53.8424 4.3422 54.4689 4.92316 54.4689 5.62842C54.4689 5.89917 54.7076 6.11121 54.9903 6.11121C55.2731 6.11121 55.5117 5.89801 55.5117 5.62842C55.5117 4.3829 54.408 3.37554 53.0622 3.37554C51.8951 3.37554 50.9121 4.13285 50.6699 5.14564H41.3529C41.1118 4.13172 40.1275 3.37554 38.9594 3.37554C37.6135 3.37554 36.5098 4.3829 36.5098 5.62842C36.5098 5.89917 36.7485 6.11121 37.0312 6.11121C37.314 6.11121 37.5527 5.89801 37.5527 5.62842C37.5527 4.9221 38.1791 4.3422 38.9582 4.3422C39.7373 4.3422 40.3649 4.92321 40.3649 5.62842C40.3649 5.63518 40.3661 5.64061 40.367 5.64376L40.3672 5.6447C40.3631 6.56972 39.8986 7.28267 39.213 7.76638C38.5248 8.25184 37.6148 8.50515 36.7307 8.50515C34.679 8.50515 33.0116 6.848 33.0116 4.81154C33.0116 2.77507 34.6802 1.11685 36.7307 1.11685H38.1945H53.827H55.2908C57.3437 1.11685 59.0111 2.77507 59.0111 4.81154C59.0111 6.848 57.3437 8.50515 55.292 8.50515ZM40.3687 5.64931C40.3688 5.64977 40.3688 5.64964 40.3686 5.64905L40.3687 5.64931Z" fill="#0898A0" stroke="#0898A0" stroke-width="0.1"/>
<path d="M36.2136 25.5215V10.7886H55.8085L55.7486 25.5203V25.5205C55.7486 25.7919 55.9845 26.0042 56.2674 26.0054H56.2676H56.2677H56.2677H56.2677H56.2677H56.2677H56.2677H56.2678H56.2678H56.2678H56.2678H56.2678H56.2679H56.2679H56.2679H56.2679H56.2679H56.2679H56.268H56.268H56.268H56.268H56.268H56.2681H56.2681H56.2681H56.2681H56.2681H56.2682H56.2682H56.2682H56.2682H56.2682H56.2682H56.2683H56.2683H56.2683H56.2683H56.2683H56.2684H56.2684H56.2684H56.2684H56.2684H56.2685H56.2685H56.2685H56.2685H56.2685H56.2686H56.2686H56.2686H56.2686H56.2686H56.2687H56.2687H56.2687H56.2687H56.2687H56.2688H56.2688H56.2688H56.2688H56.2688H56.2688H56.2689H56.2689H56.2689H56.2689H56.2689H56.2689H56.269H56.269H56.269H56.269H56.269H56.2691H56.2691H56.2691H56.2691H56.2691H56.2691H56.2692H56.2692H56.2692H56.2692H56.2692H56.2692H56.2692H56.2693H56.2693H56.2693H56.2693H56.2693H56.2693H56.2694H56.2694H56.2694H56.2694H56.2694H56.2694H56.2695H56.2695H56.2695H56.2695H56.2695H56.2696H56.2696H56.2696H56.2696H56.2696H56.2696H56.2696H56.2697H56.2697H56.2697H56.2697H56.2697H56.2697H56.2698H56.2698H56.2698H56.2698H56.2698H56.2698H56.2699H56.2699H56.2699H56.2699H56.2699H56.2699H56.2699H56.27H56.27C56.554 26.0054 56.7901 25.7933 56.7914 25.525V25.525L56.8539 10.3082V10.308C56.8539 10.1788 56.7981 10.0542 56.6998 9.96389C56.6019 9.874 56.4695 9.82305 56.3313 9.82305H35.6921C35.4081 9.82305 35.1707 10.0363 35.1707 10.3058V25.5215C35.1707 25.7923 35.4094 26.0043 35.6921 26.0043C35.9749 26.0043 36.2136 25.7911 36.2136 25.5215Z" fill="#0898A0" stroke="#0898A0" stroke-width="0.1"/>
<path d="M39.9656 11.2381C39.6815 11.2381 39.4441 11.4514 39.4441 11.7209V25.5214C39.4441 25.7921 39.6829 26.0042 39.9656 26.0042C40.2484 26.0042 40.487 25.791 40.487 25.5214V11.722C40.487 11.4514 40.2484 11.2381 39.9656 11.2381Z" fill="#0898A0" stroke="#0898A0" stroke-width="0.1"/>
<path d="M43.9949 11.2381C43.7108 11.2381 43.4734 11.4514 43.4734 11.7209V25.5214C43.4734 25.7921 43.7122 26.0042 43.9949 26.0042C44.2777 26.0042 44.5163 25.791 44.5163 25.5214V11.722C44.5163 11.4514 44.2777 11.2381 43.9949 11.2381Z" fill="#0898A0" stroke="#0898A0" stroke-width="0.1"/>
<path d="M48.5515 11.7221C48.5527 11.4512 48.3139 11.2381 48.03 11.2381C47.746 11.2381 47.5086 11.4514 47.5086 11.7209V25.5214C47.5086 25.7921 47.7473 26.0042 48.03 26.0042C48.3128 26.0042 48.5515 25.791 48.5515 25.5214V11.7221ZM48.5515 11.7221C48.5515 11.7221 48.5515 11.7222 48.5515 11.7222L48.5015 11.722H48.5515V11.7221Z" fill="#0898A0" stroke="#0898A0" stroke-width="0.1"/>
<path d="M52.5827 11.7221C52.584 11.4512 52.3451 11.2381 52.0613 11.2381C51.7772 11.2381 51.5398 11.4514 51.5398 11.7209V25.5214C51.5398 25.7921 51.7786 26.0042 52.0613 26.0042C52.3441 26.0042 52.5827 25.791 52.5827 25.5214V11.7221ZM52.5827 11.7221C52.5827 11.7221 52.5827 11.7222 52.5827 11.7222L52.5327 11.722H52.5827V11.7221Z" fill="#0898A0" stroke="#0898A0" stroke-width="0.1"/>
<path d="M95.3643 0.150195H93.9005H78.2679H76.803C74.1776 0.150195 72.0398 2.24028 72.0398 4.81154C72.0398 7.38282 74.1776 9.4718 76.803 9.4718C77.6776 9.4718 78.5616 9.261 79.323 8.87131H92.8419C93.6044 9.26099 94.4885 9.4718 95.3619 9.4718C97.9872 9.4718 100.126 7.38283 100.126 4.81154C100.126 2.2403 97.9896 0.150195 95.3643 0.150195ZM90.7431 6.11121C90.842 6.80564 91.1335 7.41039 91.5753 7.90465H80.5943C81.0361 7.41039 81.3276 6.80564 81.4265 6.11121H90.7431ZM95.3643 8.50515C94.4808 8.50515 93.5716 8.25238 92.8836 7.76758C92.1984 7.2848 91.7335 6.57313 91.7266 5.64934C91.727 5.64812 91.7274 5.64673 91.7278 5.64525C91.7289 5.64102 91.7301 5.63526 91.7301 5.62842C91.7301 4.9221 92.3565 4.3422 93.1356 4.3422C93.9147 4.3422 94.5411 4.92316 94.5411 5.62842C94.5411 5.89917 94.7799 6.11121 95.0626 6.11121C95.3453 6.11121 95.584 5.89801 95.584 5.62842C95.584 4.3829 94.4803 3.37554 93.1344 3.37554C91.9674 3.37554 90.9844 4.13285 90.7421 5.14564H81.4251C81.184 4.13172 80.1997 3.37554 79.0316 3.37554C77.6858 3.37554 76.5821 4.3829 76.5821 5.62842C76.5821 5.89917 76.8208 6.11121 77.1035 6.11121C77.3863 6.11121 77.6249 5.89801 77.6249 5.62842C77.6249 4.9221 78.2513 4.3422 79.0305 4.3422C79.8096 4.3422 80.4372 4.92321 80.4372 5.62842C80.4372 5.63518 80.4384 5.64061 80.4392 5.64376L80.4395 5.6447C80.4353 6.56972 79.9709 7.28267 79.2852 7.76638C78.597 8.25184 77.687 8.50515 76.803 8.50515C74.7513 8.50515 73.0839 6.848 73.0839 4.81154C73.0839 2.77507 74.7524 1.11685 76.803 1.11685H78.2667H93.8993H95.3631C97.416 1.11685 99.0833 2.77507 99.0833 4.81154C99.0833 6.848 97.416 8.50515 95.3643 8.50515ZM80.4409 5.64931C80.4411 5.64977 80.441 5.64964 80.4408 5.64905L80.4409 5.64931Z" fill="#0898A0" stroke="#0898A0" stroke-width="0.1"/>
<path d="M76.2858 25.5215V10.7886H95.8807L95.8208 25.5203V25.5205C95.8208 25.7919 96.0568 26.0042 96.3397 26.0054H96.3399H96.3399H96.3399H96.34H96.34H96.34H96.34H96.34H96.34H96.3401H96.3401H96.3401H96.3401H96.3401H96.3402H96.3402H96.3402H96.3402H96.3402H96.3402H96.3403H96.3403H96.3403H96.3403H96.3403H96.3404H96.3404H96.3404H96.3404H96.3404H96.3405H96.3405H96.3405H96.3405H96.3405H96.3406H96.3406H96.3406H96.3406H96.3406H96.3407H96.3407H96.3407H96.3407H96.3407H96.3407H96.3408H96.3408H96.3408H96.3408H96.3408H96.3409H96.3409H96.3409H96.3409H96.3409H96.341H96.341H96.341H96.341H96.341H96.3411H96.3411H96.3411H96.3411H96.3411H96.3411H96.3412H96.3412H96.3412H96.3412H96.3412H96.3412H96.3413H96.3413H96.3413H96.3413H96.3413H96.3414H96.3414H96.3414H96.3414H96.3414H96.3414H96.3414H96.3415H96.3415H96.3415H96.3415H96.3415H96.3415H96.3416H96.3416H96.3416H96.3416H96.3416H96.3416H96.3417H96.3417H96.3417H96.3417H96.3417H96.3417H96.3418H96.3418H96.3418H96.3418H96.3418H96.3419H96.3419H96.3419H96.3419H96.3419H96.3419H96.3419H96.342H96.342H96.342H96.342H96.342H96.342H96.3421H96.3421H96.3421H96.3421H96.3421H96.3421H96.3422H96.3422H96.3422H96.3422H96.3422H96.3422H96.3422C96.6263 26.0054 96.8623 25.7933 96.8637 25.525V25.525L96.9261 10.3082V10.308C96.9261 10.1788 96.8704 10.0542 96.7721 9.96389C96.6742 9.874 96.5418 9.82305 96.4035 9.82305H75.7644C75.4803 9.82305 75.243 10.0363 75.243 10.3058V25.5215C75.243 25.7923 75.4817 26.0043 75.7644 26.0043C76.0472 26.0043 76.2858 25.7911 76.2858 25.5215Z" fill="#0898A0" stroke="#0898A0" stroke-width="0.1"/>
<path d="M80.0378 11.2381C79.7538 11.2381 79.5164 11.4514 79.5164 11.7209V25.5214C79.5164 25.7921 79.7551 26.0042 80.0378 26.0042C80.3206 26.0042 80.5593 25.791 80.5593 25.5214V11.722C80.5593 11.4514 80.3207 11.2381 80.0378 11.2381Z" fill="#0898A0" stroke="#0898A0" stroke-width="0.1"/>
<path d="M84.0671 11.2381C83.7831 11.2381 83.5457 11.4514 83.5457 11.7209V25.5214C83.5457 25.7921 83.7844 26.0042 84.0671 26.0042C84.3499 26.0042 84.5886 25.791 84.5886 25.5214V11.722C84.5886 11.4514 84.35 11.2381 84.0671 11.2381Z" fill="#0898A0" stroke="#0898A0" stroke-width="0.1"/>
<path d="M88.6237 11.7221C88.625 11.4512 88.3861 11.2381 88.1023 11.2381C87.8182 11.2381 87.5809 11.4514 87.5809 11.7209V25.5214C87.5809 25.7921 87.8196 26.0042 88.1023 26.0042C88.3851 26.0042 88.6237 25.791 88.6237 25.5214V11.7221ZM88.6237 11.7221C88.6237 11.7221 88.6237 11.7222 88.6237 11.7222L88.5737 11.722H88.6237V11.7221Z" fill="#0898A0" stroke="#0898A0" stroke-width="0.1"/>
<path d="M92.655 11.7221C92.6562 11.4512 92.4174 11.2381 92.1335 11.2381C91.8495 11.2381 91.6121 11.4514 91.6121 11.7209V25.5214C91.6121 25.7921 91.8508 26.0042 92.1335 26.0042C92.4163 26.0042 92.655 25.791 92.655 25.5214V11.7221ZM92.655 11.7221C92.655 11.7221 92.655 11.7222 92.655 11.7222L92.605 11.722H92.655V11.7221Z" fill="#0898A0" stroke="#0898A0" stroke-width="0.1"/>
</svg>
