<svg width="70" height="70" viewBox="0 0 70 70" fill="none" xmlns="http://www.w3.org/2000/svg">
<rect width="70" height="70" rx="20" fill="#71879C" fill-opacity="0.1"/>
<path d="M35.3999 12.0092C36.2991 12.1015 37.2071 12.1661 38.1063 12.2953C40.3632 12.6091 42.5054 13.3105 44.5506 14.3441C44.9738 14.5564 45.1149 14.9071 44.9562 15.2762C44.7975 15.6454 44.4096 15.7653 43.9864 15.5531C41.8178 14.4548 39.5345 13.735 37.1366 13.5043C31.9265 13.0059 27.1571 14.3164 22.8815 17.5003C21.1536 18.7831 19.6814 20.3428 18.4295 22.1239C18.218 22.4193 17.9799 22.6131 17.6097 22.5208C17.1513 22.4008 16.9926 21.8471 17.3364 21.4041C17.9799 20.5735 18.6147 19.7152 19.3376 18.9493C22.9256 15.147 27.2718 12.9136 32.332 12.2123C33.0902 12.1107 33.8483 12.0738 34.6065 12C34.8709 12.0092 35.1354 12.0092 35.3999 12.0092Z" fill="#0898A0"/>
<path d="M57 35.6369C56.7972 35.8122 56.6121 36.0706 56.3741 36.1445C55.995 36.2644 55.7129 35.8768 55.6776 35.36C55.5718 33.9573 55.563 32.5268 55.3162 31.1425C54.3024 25.4576 51.543 20.8893 47.0735 17.4747C46.5269 17.0594 46.4475 16.5149 46.8971 16.2104C47.2233 15.9889 47.5054 16.1273 47.7875 16.3396C50.7232 18.5637 53.0065 21.36 54.6286 24.747C55.9686 27.5525 56.762 30.5149 56.9207 33.6527C56.9295 33.8188 56.9736 33.9849 57 34.1511C57 34.6494 57 35.1478 57 35.6369Z" fill="#0898A0"/>
<path d="M46.8967 40.0296C46.7116 41.9677 46.5264 43.9057 46.3325 45.8437C46.2796 46.3606 45.9887 46.5913 45.5743 46.5267C45.1776 46.4621 45.0013 46.1298 45.0718 45.6223C45.6889 41.4509 45.6449 37.2979 44.8426 33.1542C44.1109 29.3427 42.0745 26.611 38.5922 25.2175C33.0295 22.9841 26.2502 26.3342 25.1041 33.2465C24.8573 34.7323 25.0777 36.1997 25.2716 37.6855C25.4303 38.913 25.4039 40.1681 25.4127 41.4047C25.4215 41.8938 25.0689 42.2076 24.6986 42.1615C24.3283 42.1246 24.0639 41.8108 24.1344 41.3309C24.3724 39.559 23.914 37.8516 23.7729 36.1166C23.4644 32.3975 24.6633 29.2228 27.1582 26.6018C29.2828 24.3684 31.9011 23.2425 34.9161 23.2056C40.1086 23.1502 44.7985 27.0079 45.9975 32.3052C46.5705 34.8431 46.7909 37.4179 46.7909 40.0204C46.8173 40.0204 46.8526 40.0296 46.8967 40.0296Z" fill="#0898A0"/>
<path d="M34.9428 17.5576C42.4803 17.6314 49.1626 23.0118 51.0845 30.6624C51.3401 31.6684 51.4812 32.702 51.6663 33.7264C51.7457 34.1509 51.5165 34.4831 51.155 34.5477C50.7583 34.6216 50.4938 34.3816 50.3969 33.9202C50.0883 32.4897 49.912 31.0039 49.4271 29.638C47.3819 23.8516 43.4324 20.2708 37.6228 19.2188C29.3801 17.7329 21.825 23.141 20.0001 31.6591C19.956 31.8529 19.9296 32.056 19.8855 32.2498C19.7885 32.6835 19.48 32.9235 19.1361 32.8404C18.7747 32.7573 18.5719 32.4343 18.6336 32.0006C18.9069 30.2748 19.4359 28.6413 20.2293 27.1001C22.7418 22.2181 26.5678 19.1357 31.7603 17.9729C32.8006 17.7422 33.8761 17.696 34.9428 17.5576Z" fill="#0898A0"/>
<path d="M38.7954 39.0863C38.7249 46.3862 36.8736 52.1819 33.1886 57.3223C33.1092 57.433 33.0299 57.553 32.9417 57.6453C32.6861 57.9037 32.3951 57.9591 32.1042 57.7284C31.7957 57.4884 31.7516 57.1562 31.9455 56.8332C32.1483 56.4917 32.3951 56.1872 32.6155 55.8642C35.1986 52.0988 36.7678 47.909 37.3232 43.313C37.667 40.4244 37.5436 37.5451 36.9882 34.6934C36.6972 33.1983 35.5071 32.5246 34.1759 33.0784C33.2238 33.4752 32.8183 34.3612 33.0475 35.5701C33.6117 38.5787 33.6117 41.5873 33.0211 44.5866C32.9153 45.1496 32.6244 45.408 32.2012 45.3157C31.8133 45.2234 31.6634 44.8727 31.7692 44.319C32.2982 41.4673 32.3246 38.6156 31.7604 35.7639C31.3902 33.872 32.6684 31.9248 34.4492 31.5925C36.1595 31.2787 38.0372 32.6446 38.2929 34.4996C38.5485 36.3084 38.6984 38.1265 38.7954 39.0863Z" fill="#0898A0"/>
<path d="M35.0568 14.8074C35.8767 14.872 36.6965 14.9274 37.5164 15.0104C37.8514 15.0473 38.1511 15.2411 38.1071 15.6195C38.0806 15.8687 37.8955 16.1363 37.7104 16.3024C37.5957 16.404 37.3489 16.3394 37.155 16.3301C36.0442 16.3024 34.9246 16.1825 33.8138 16.2563C30.1376 16.487 26.8229 17.7883 23.9225 20.1508C20.1229 23.2425 17.8925 27.3308 17.1608 32.3051C16.8434 34.4646 16.958 36.6149 17.3547 38.7652C17.7162 40.7494 17.2401 42.5398 16.0059 44.0994C15.6621 44.5424 15.3095 44.607 14.9833 44.3209C14.6748 44.0441 14.6836 43.6565 15.0274 43.2319C16.0853 41.9399 16.3586 40.4633 16.05 38.8021C14.1282 28.4659 20.4843 18.0467 30.261 15.4626C31.8302 15.0473 33.4259 14.8258 35.0568 14.8074Z" fill="#0898A0"/>
<path d="M54.8659 40.0466C54.7249 41.8647 54.5927 43.692 54.4428 45.5101C54.3987 45.9992 54.1166 46.2299 53.7199 46.1745C53.332 46.1284 53.1292 45.8146 53.191 45.3255C53.5083 42.5107 53.6053 39.6867 53.3761 36.8627C53.1204 33.605 52.7413 30.3472 51.4366 27.3294C49.2768 22.3459 45.6799 18.9958 40.7696 17.1778C40.6461 17.1316 40.5139 17.104 40.3993 17.0394C40.0819 16.864 39.9761 16.5779 40.0731 16.2272C40.1701 15.8858 40.4257 15.7289 40.7519 15.7935C41.0252 15.8396 41.2897 15.9411 41.5453 16.0519C47.8574 18.6359 51.9391 23.3334 53.7023 30.1903C54.4163 32.8943 54.7778 36.6043 54.8659 40.0466Z" fill="#0898A0"/>
<path d="M35.0655 27.3384C30.7634 27.3107 27.4398 30.9099 27.6602 35.4043C27.7043 36.2441 27.9071 37.0655 28.004 37.9053C28.4801 42.0952 27.5721 45.9528 25.4298 49.5058C24.6188 50.8532 23.6226 52.0438 22.4854 53.0958C22.1416 53.4096 21.8242 53.4373 21.5421 53.1789C21.1983 52.8651 21.2512 52.4406 21.6743 52.0438C22.9614 50.8532 24.037 49.4782 24.8833 47.9185C26.6023 44.7161 27.2371 41.283 26.6729 37.6561C26.4348 36.1149 26.2673 34.6014 26.6023 33.051C27.4927 28.9996 30.9926 26.0279 34.9597 25.9818C35.2241 25.9818 35.4886 26.0002 35.7531 26.0371C36.1057 26.0925 36.2997 26.3509 36.282 26.7108C36.2644 27.0984 36.0352 27.3292 35.6561 27.3384C35.4445 27.3476 35.2506 27.3384 35.0655 27.3384Z" fill="#0898A0"/>
<path d="M44.1287 39.8539C44.0847 46.0556 42.6565 51.7313 39.7738 57.0102C39.6944 57.1578 39.6151 57.3055 39.5005 57.4255C39.2713 57.6562 38.9539 57.7023 38.7423 57.4808C38.5836 57.3055 38.5131 56.9917 38.4867 56.7333C38.469 56.5764 38.6277 56.4011 38.7159 56.2442C40.7964 52.4235 42.1099 48.3351 42.6124 43.9699C43.0356 40.2784 42.8945 36.6054 42.0747 32.9785C41.6427 31.0774 40.5407 29.6192 38.9627 28.5579C38.8657 28.4933 38.7599 28.4287 38.663 28.3641C38.2398 28.0872 38.1252 27.7273 38.3456 27.3674C38.5484 27.0259 38.9186 26.9613 39.3153 27.2013C41.4311 28.5302 42.8328 30.4406 43.4058 32.96C43.926 35.258 44.0935 37.6206 44.1287 39.8539Z" fill="#0898A0"/>
<path d="M49.4604 40.0002C49.4428 44.7807 48.6405 49.4044 47.0449 53.8803C47.0272 53.9357 47.0096 54.0003 46.9831 54.0556C46.8068 54.5079 46.4983 54.6832 46.1192 54.5448C45.7666 54.4156 45.6343 54.0464 45.7754 53.5942C46.1456 52.3945 46.5512 51.2132 46.8685 50.0042C47.9705 45.8974 48.3496 41.7076 48.0675 37.4623C47.9353 35.3766 47.6708 33.3094 47.1418 31.2883C46.7716 29.8671 46.1368 28.5751 45.3434 27.3661C45.2288 27.1907 45.0966 26.9139 45.1495 26.7478C45.22 26.5263 45.4492 26.231 45.6431 26.2033C45.8635 26.1756 46.1897 26.3417 46.3308 26.5355C47.2388 27.8091 47.9 29.2303 48.3408 30.7623C48.905 32.7372 49.143 34.786 49.3017 36.8348C49.3987 37.8776 49.4163 38.9389 49.4604 40.0002Z" fill="#0898A0"/>
<path d="M27.3693 24.1918C27.1489 24.4687 26.9902 24.7179 26.7874 24.9117C24.8921 26.619 23.5521 28.7047 22.838 31.2149C22.2473 33.2914 22.2032 35.3955 22.5647 37.5366C23.3405 42.1418 22.0446 46.0178 18.6858 49.1187C18.2538 49.5155 17.7954 49.4509 17.5838 48.9895C17.3987 48.5927 17.5926 48.325 17.8747 48.0758C19.3998 46.7469 20.493 45.1042 21.0836 43.1108C21.6302 41.2927 21.5509 39.4746 21.2688 37.6104C20.4313 32.0916 22.0975 27.4865 26.0734 23.7765C26.3114 23.5551 26.5935 23.4258 26.8756 23.6012C27.0607 23.7119 27.1753 23.9427 27.3693 24.1918Z" fill="#0898A0"/>
<path d="M36.1414 39.1711C36.0444 46.3419 34.0697 51.9806 30.129 56.8626C29.7852 57.2872 29.3709 57.3702 29.0711 57.0841C28.7802 56.8073 28.8067 56.4012 29.1417 55.9859C32.0685 52.4144 33.9022 48.3168 34.5898 43.6655C35.0041 40.8784 34.9072 38.0914 34.4047 35.3227C34.3077 34.8059 34.4928 34.446 34.8983 34.3629C35.2686 34.2891 35.5948 34.5567 35.6565 35.0643C35.8593 36.6886 36.0444 38.3128 36.1414 39.1711Z" fill="#0898A0"/>
<path d="M41.4651 38.7364C41.4651 39.0779 41.4651 39.4101 41.4651 39.7516C41.4651 40.2961 41.2271 40.6099 40.8216 40.6191C40.4161 40.6283 40.178 40.3053 40.1692 39.77C40.1428 37.712 39.9841 35.6632 39.4816 33.6606C38.9526 31.5472 37.2336 30.1537 35.1795 30.1075C33.0284 30.0614 31.1771 31.418 30.5512 33.5037C30.4983 33.6791 30.4631 33.8636 30.4102 34.0297C30.2779 34.4543 29.9782 34.6388 29.6079 34.5373C29.2553 34.4358 29.079 34.0943 29.1759 33.6606C29.414 32.6085 29.8724 31.6764 30.5777 30.8827C32.1469 29.1293 34.0687 28.391 36.3167 28.9724C38.6353 29.5723 40.2309 31.095 40.7951 33.5498C41.1742 35.2387 41.3064 36.9922 41.5533 38.718C41.5092 38.718 41.4916 38.7272 41.4651 38.7364Z" fill="#0898A0"/>
<path d="M30.8266 39.7621C30.6767 45.6869 28.7373 50.5874 24.8231 54.6111C24.7085 54.7311 24.585 54.8603 24.4352 54.9064C24.1266 55.0079 23.8445 54.9341 23.677 54.6203C23.4919 54.2881 23.5889 54.0112 23.8269 53.7436C24.4704 53.0053 25.1581 52.3039 25.7399 51.5195C28.4992 47.8003 29.707 43.5643 29.4778 38.8669C29.4602 38.4424 29.3985 38.0086 29.3456 37.5841C29.2927 37.1319 29.5131 36.7812 29.8921 36.735C30.2977 36.6889 30.5886 36.9288 30.6238 37.3995C30.712 38.2578 30.7737 39.1068 30.8266 39.7621Z" fill="#0898A0"/>
<path d="M13 35.0176C13.0705 31.3907 13.8375 27.9576 15.3891 24.7183C15.6095 24.2476 15.9445 24.0907 16.3059 24.2845C16.6674 24.4783 16.7643 24.8383 16.5528 25.2997C15.583 27.3485 14.913 29.4896 14.578 31.7506C14.1725 34.5008 14.2959 37.2232 14.8954 39.9365C14.9218 40.0565 14.9483 40.1764 14.9659 40.2964C15.01 40.6932 14.8249 40.9701 14.4634 41.0439C14.0932 41.127 13.8199 40.9424 13.7229 40.564C13.5554 39.8627 13.3879 39.1613 13.2997 38.4507C13.1587 37.3155 13.097 36.1619 13 35.0176Z" fill="#0898A0"/>
<path d="M35.0488 21.7632C33.268 21.7632 31.5577 22.1416 29.918 22.8706C29.6976 22.9722 29.3891 23.0183 29.1687 22.9445C29.0012 22.8799 28.7984 22.5569 28.8248 22.3907C28.8601 22.1508 29.0629 21.8186 29.2568 21.7447C30.3852 21.3387 31.5137 20.8588 32.6862 20.6465C36.6268 19.9636 40.2148 20.9418 43.4414 23.4059C43.6089 23.5351 43.7764 23.6643 43.9175 23.8212C44.1555 24.0981 44.1643 24.4118 43.9351 24.6979C43.7059 24.9748 43.4061 25.0394 43.1064 24.8364C42.8596 24.6702 42.6392 24.4672 42.4011 24.2826C40.206 22.6122 37.7552 21.754 35.0488 21.7632Z" fill="#0898A0"/>
<path d="M41.2738 43.4701C40.9124 46.8017 40.1189 49.9211 38.7878 52.865C38.0649 54.4524 37.1833 55.9566 36.3458 57.4886C36.0637 58.0054 35.6846 58.1162 35.3408 57.8855C34.9793 57.6455 34.9617 57.2487 35.2967 56.7226C37.721 52.9296 39.2462 48.7675 39.8897 44.2546C39.9338 43.9685 39.9514 43.6732 39.9955 43.3871C40.0572 42.981 40.3393 42.7688 40.7096 42.8057C41.0534 42.8611 41.2914 43.1748 41.2738 43.4701Z" fill="#0898A0"/>
<path d="M50.7497 40.1766C50.7497 39.3183 50.7497 38.4601 50.7497 37.5926C50.7497 37.0573 50.9525 36.762 51.3492 36.7435C51.7724 36.7158 52.028 37.0019 52.0545 37.5464C52.2837 41.9855 51.8781 46.3507 50.8202 50.6513C50.8026 50.7251 50.7762 50.7989 50.7585 50.8727C50.6263 51.288 50.3089 51.5003 49.9563 51.3896C49.6301 51.2973 49.4362 50.965 49.5155 50.5497C49.6566 49.8576 49.8241 49.1747 49.9739 48.4917C50.547 45.76 50.7938 42.9822 50.7497 40.1766Z" fill="#0898A0"/>
<path d="M20.1583 39.8357C20.0613 42.6505 19.1356 44.9392 17.2314 46.7757C16.9758 47.0157 16.7113 47.191 16.3675 46.988C15.9179 46.7388 15.9003 46.2035 16.3322 45.8067C17.2667 44.9484 17.9631 43.924 18.4127 42.7151C18.9858 41.1739 18.9329 39.605 18.642 38.0084C18.5097 37.2609 18.4656 36.4857 18.4039 35.7289C18.3775 35.3321 18.6067 35.0829 18.9681 35.0367C19.3384 34.9906 19.6117 35.2121 19.6646 35.5905C19.8409 37.0394 19.9996 38.4975 20.1583 39.8357Z" fill="#0898A0"/>
<path d="M26.7451 56.3826C26.5247 56.1981 26.2338 56.0688 26.1897 55.875C26.128 55.6351 26.1985 55.2844 26.3484 55.0906C26.842 54.4261 27.4151 53.817 27.9087 53.1618C29.0548 51.6298 29.954 49.9502 30.6593 48.1506C30.7122 48.0214 30.7562 47.8922 30.818 47.7722C31.0031 47.4399 31.3028 47.3569 31.6114 47.4861C31.9287 47.6153 32.0786 47.9014 31.9816 48.2705C31.9111 48.5382 31.8053 48.7873 31.6995 49.0458C30.6505 51.5929 29.2135 53.8816 27.3886 55.8843C27.2123 56.0596 27.0007 56.1796 26.7451 56.3826Z" fill="#0898A0"/>
<path d="M24.5846 45.0496C24.5405 45.2065 24.5052 45.3542 24.4523 45.4926C23.5619 47.726 22.2484 49.6363 20.4853 51.2052C20.0797 51.5652 19.7183 51.5744 19.445 51.2329C19.1805 50.9007 19.2422 50.5408 19.6301 50.1993C21.2699 48.7596 22.4864 47.0061 23.2798 44.9297C23.3945 44.6251 23.5708 44.3482 23.9058 44.3852C24.1085 44.4036 24.3113 44.5697 24.4876 44.7174C24.5493 44.7728 24.5493 44.9297 24.5846 45.0496Z" fill="#0898A0"/>
<path d="M42.8238 56.5207C42.1274 56.5207 41.8894 56.0223 42.1097 55.4501C42.718 53.872 43.3263 52.2939 43.9082 50.7065C44.0757 50.2543 44.1726 49.7652 44.3049 49.2945C44.4371 48.8239 44.7368 48.5931 45.0983 48.6854C45.5038 48.7962 45.6713 49.1561 45.5391 49.6637C44.9837 51.8509 44.2255 53.9551 43.2822 55.9854C43.1765 56.2346 42.9208 56.4099 42.8238 56.5207Z" fill="#0898A0"/>
</svg>
