<svg width="36" height="38" viewBox="0 0 36 38" fill="none" xmlns="http://www.w3.org/2000/svg">
<path d="M18.3199 0.607359C19.0393 0.681189 19.7657 0.73287 20.4851 0.836232C22.2906 1.08725 24.0043 1.64836 25.6405 2.47526C25.9791 2.64507 26.0919 2.92562 25.965 3.22094C25.838 3.51626 25.5277 3.61224 25.1892 3.44243C23.4542 2.56385 21.6276 1.98798 19.7093 1.8034C15.5412 1.40472 11.7257 2.45311 8.30522 5.00024C6.92291 6.02648 5.74513 7.27421 4.74366 8.69913C4.57439 8.93538 4.38397 9.09043 4.08776 9.0166C3.72103 8.92062 3.59408 8.47764 3.86913 8.12325C4.38397 7.45878 4.89176 6.77216 5.47008 6.15938C8.34049 3.11758 11.8174 1.33089 15.8656 0.769785C16.4721 0.688572 17.0787 0.65904 17.6852 0.599976C17.8968 0.607359 18.1084 0.607359 18.3199 0.607359Z" fill="#222222"/>
<path d="M35.6 19.5095C35.4378 19.6498 35.2897 19.8565 35.0993 19.9155C34.796 20.0115 34.5703 19.7014 34.5421 19.288C34.4575 18.1658 34.4504 17.0214 34.253 15.914C33.4419 11.366 31.2345 7.71145 27.6588 4.97974C27.2215 4.6475 27.1581 4.21191 27.5177 3.96827C27.7787 3.79108 28.0044 3.90182 28.23 4.07163C30.5786 5.85093 32.4052 8.08798 33.7029 10.7975C34.7749 13.042 35.4096 15.4119 35.5365 17.9221C35.5436 18.055 35.5789 18.1879 35.6 18.3208C35.6 18.7195 35.6 19.1182 35.6 19.5095Z" fill="#222222"/>
<path d="M27.5174 23.0237C27.3693 24.5741 27.2212 26.1245 27.066 27.675C27.0237 28.0884 26.791 28.273 26.4595 28.2213C26.1421 28.1696 26.0011 27.9038 26.0575 27.4978C26.5512 24.1607 26.5159 20.8383 25.8741 17.5233C25.2888 14.4742 23.6596 12.2888 20.8738 11.174C16.4236 9.38727 11.0002 12.0673 10.0833 17.5972C9.88585 18.7858 10.0622 19.9597 10.2173 21.1484C10.3443 22.1303 10.3231 23.1344 10.3302 24.1237C10.3372 24.515 10.0551 24.7661 9.7589 24.7292C9.46269 24.6996 9.25111 24.4486 9.30753 24.0647C9.49795 22.6471 9.13122 21.2813 9.01838 19.8933C8.77153 16.9179 9.73069 14.3782 11.7266 12.2814C13.4263 10.4947 15.5209 9.594 17.9329 9.56447C22.0869 9.52017 25.8389 12.6063 26.798 16.8441C27.2564 18.8744 27.4327 20.9343 27.4327 23.0163C27.4539 23.0163 27.4821 23.0237 27.5174 23.0237Z" fill="#222222"/>
<path d="M17.9543 5.04605C23.9843 5.10511 29.3301 9.4094 30.8676 15.5299C31.0721 16.3347 31.185 17.1616 31.3331 17.9811C31.3966 18.3207 31.2132 18.5865 30.924 18.6382C30.6067 18.6972 30.3951 18.5053 30.3175 18.1361C30.0707 16.9917 29.9296 15.8031 29.5417 14.7104C27.9055 10.0813 24.7459 7.21665 20.0983 6.37499C13.5041 5.18632 7.45999 9.51276 6.0001 16.3273C5.96484 16.4823 5.94368 16.6447 5.90841 16.7998C5.83084 17.1468 5.58399 17.3387 5.30894 17.2723C5.01978 17.2058 4.85757 16.9474 4.90694 16.6004C5.12557 15.2198 5.54873 13.913 6.18347 12.6801C8.19346 8.77446 11.2543 6.30854 15.4083 5.37828C16.2405 5.19371 17.1009 5.15679 17.9543 5.04605Z" fill="#222222"/>
<path d="M21.0363 22.269C20.9799 28.1089 19.4989 32.7455 16.5509 36.8578C16.4874 36.9464 16.4239 37.0424 16.3534 37.1162C16.1489 37.3229 15.9161 37.3672 15.6834 37.1827C15.4366 36.9907 15.4013 36.7249 15.5565 36.4665C15.7187 36.1933 15.9161 35.9497 16.0925 35.6913C18.1589 32.679 19.4142 29.3271 19.8586 25.6504C20.1336 23.3395 20.0349 21.036 19.5906 18.7547C19.3578 17.5586 18.4057 17.0197 17.3408 17.4627C16.5791 17.7801 16.2547 18.4889 16.438 19.4561C16.8894 21.8629 16.8894 24.2698 16.4169 26.6693C16.3322 27.1196 16.0995 27.3263 15.761 27.2525C15.4507 27.1787 15.3308 26.8981 15.4154 26.4552C15.8386 24.1738 15.8597 21.8925 15.4084 19.6111C15.1121 18.0976 16.1348 16.5398 17.5594 16.274C18.9276 16.023 20.4298 17.1157 20.6343 18.5996C20.8389 20.0467 20.9588 21.5012 21.0363 22.269Z" fill="#222222"/>
<path d="M18.0455 2.84589C18.7014 2.89757 19.3573 2.94186 20.0131 3.00831C20.2811 3.03784 20.5209 3.19289 20.4857 3.49559C20.4645 3.69493 20.3164 3.90904 20.1683 4.04193C20.0766 4.12314 19.8791 4.07146 19.724 4.06408C18.8354 4.04193 17.9397 3.94595 17.051 4.00502C14.1101 4.18959 11.4583 5.23059 9.13802 7.12064C6.09834 9.59395 4.31403 12.8646 3.72866 16.8441C3.47477 18.5717 3.56645 20.2919 3.88382 22.0122C4.17298 23.5995 3.79214 25.0318 2.80477 26.2795C2.52972 26.6339 2.24761 26.6856 1.98667 26.4567C1.73982 26.2352 1.74688 25.9251 2.02193 25.5855C2.86824 24.5519 3.08687 23.3706 2.84003 22.0417C1.30256 13.7727 6.3875 5.43732 14.2088 3.37008C15.4642 3.03784 16.7407 2.86065 18.0455 2.84589Z" fill="#222222"/>
<path d="M33.8928 23.0373C33.7799 24.4917 33.6741 25.9536 33.5543 27.408C33.519 27.7993 33.2933 27.9839 32.9759 27.9396C32.6656 27.9027 32.5034 27.6517 32.5528 27.2604C32.8067 25.0085 32.8843 22.7493 32.7009 20.4901C32.4964 17.8839 32.1931 15.2777 31.1493 12.8635C29.4214 8.87668 26.544 6.19665 22.6157 4.7422C22.5169 4.70529 22.4111 4.68314 22.3195 4.63146C22.0656 4.49118 21.9809 4.26231 22.0585 3.98175C22.1361 3.70858 22.3406 3.58307 22.6016 3.63475C22.8202 3.67167 23.0318 3.75288 23.2363 3.84148C28.286 5.90872 31.5513 9.66666 32.9618 15.1522C33.5331 17.3155 33.8223 20.2834 33.8928 23.0373Z" fill="#222222"/>
<path d="M18.0524 12.8707C14.6107 12.8485 11.9519 15.7279 12.1282 19.3234C12.1635 19.9953 12.3257 20.6524 12.4033 21.3242C12.7841 24.6761 12.0577 27.7622 10.3439 30.6046C9.69506 31.6826 8.89811 32.635 7.98833 33.4766C7.71328 33.7277 7.45938 33.7498 7.2337 33.5431C6.95865 33.2921 7.00096 32.9524 7.33949 32.635C8.36917 31.6826 9.22959 30.5825 9.90664 29.3348C11.2819 26.7729 11.7897 24.0264 11.3383 21.1249C11.1479 19.8919 11.0139 18.6811 11.2819 17.4408C11.9942 14.1996 14.7941 11.8223 17.9678 11.7854C18.1793 11.7854 18.3909 11.8001 18.6025 11.8297C18.8846 11.874 19.0398 12.0807 19.0256 12.3686C19.0115 12.6787 18.8282 12.8633 18.5249 12.8707C18.3556 12.8781 18.2005 12.8707 18.0524 12.8707Z" fill="#222222"/>
<path d="M25.303 22.8831C25.2678 27.8445 24.1252 32.385 21.819 36.6081C21.7556 36.7262 21.6921 36.8444 21.6004 36.9403C21.417 37.1249 21.1631 37.1618 20.9939 36.9846C20.8669 36.8444 20.8105 36.5933 20.7893 36.3866C20.7752 36.2611 20.9022 36.1208 20.9727 35.9953C22.6371 32.9387 23.688 29.6681 24.09 26.1759C24.4285 23.2227 24.3156 20.2843 23.6598 17.3828C23.3142 15.8619 22.4326 14.6954 21.1702 13.8463C21.0926 13.7946 21.008 13.7429 20.9304 13.6913C20.5919 13.4698 20.5002 13.1818 20.6765 12.8939C20.8387 12.6207 21.1349 12.569 21.4523 12.761C23.1449 13.8242 24.2663 15.3524 24.7247 17.368C25.1408 19.2064 25.2748 21.0964 25.303 22.8831Z" fill="#222222"/>
<path d="M29.5683 23.0002C29.5542 26.8246 28.9124 30.5235 27.6359 34.1042C27.6218 34.1485 27.6077 34.2002 27.5865 34.2445C27.4455 34.6063 27.1986 34.7465 26.8954 34.6358C26.6133 34.5324 26.5075 34.2371 26.6203 33.8753C26.9165 32.9155 27.241 31.9705 27.4949 31.0033C28.3764 27.7179 28.6797 24.366 28.454 20.9698C28.3482 19.3013 28.1366 17.6475 27.7135 16.0306C27.4173 14.8936 26.9095 13.86 26.2747 12.8928C26.1831 12.7526 26.0773 12.5311 26.1196 12.3982C26.176 12.221 26.3594 11.9847 26.5145 11.9626C26.6909 11.9404 26.9518 12.0733 27.0646 12.2284C27.7911 13.2472 28.32 14.3842 28.6726 15.6098C29.124 17.1898 29.3144 18.8288 29.4414 20.4678C29.519 21.3021 29.5331 22.1511 29.5683 23.0002Z" fill="#222222"/>
<path d="M11.8955 10.3534C11.7191 10.5749 11.5922 10.7743 11.43 10.9293C9.91367 12.2952 8.84167 13.9637 8.27041 15.9719C7.79789 17.6331 7.76262 19.3164 8.05178 21.0293C8.67241 24.7134 7.63568 27.8142 4.94863 30.2949C4.60305 30.6124 4.23632 30.5607 4.06705 30.1916C3.91895 29.8741 4.07411 29.66 4.29979 29.4606C5.51989 28.3975 6.39442 27.0833 6.86694 25.4886C7.3042 24.0341 7.24073 22.5797 7.01505 21.0883C6.34505 16.6733 7.67799 12.9892 10.8587 10.0212C11.0491 9.84402 11.2748 9.74065 11.5005 9.88093C11.6486 9.96953 11.7403 10.1541 11.8955 10.3534Z" fill="#222222"/>
<path d="M18.9131 22.3369C18.8355 28.0735 17.2558 32.5845 14.1032 36.4901C13.8282 36.8297 13.4967 36.8961 13.2569 36.6673C13.0242 36.4458 13.0454 36.1209 13.3134 35.7887C15.6548 32.9315 17.1218 29.6534 17.6719 25.9324C18.0033 23.7027 17.9257 21.4731 17.5238 19.2582C17.4462 18.8447 17.5943 18.5568 17.9187 18.4903C18.2149 18.4313 18.4758 18.6454 18.5252 19.0514C18.6874 20.3508 18.8355 21.6502 18.9131 22.3369Z" fill="#222222"/>
<path d="M23.1721 21.9891C23.1721 22.2623 23.1721 22.5281 23.1721 22.8012C23.1721 23.2368 22.9817 23.4879 22.6573 23.4952C22.3329 23.5026 22.1424 23.2442 22.1354 22.816C22.1142 21.1696 21.9873 19.5306 21.5853 17.9284C21.1621 16.2377 19.7869 15.1229 18.1436 15.086C16.4228 15.0491 14.9417 16.1344 14.441 17.8029C14.3987 17.9432 14.3705 18.0909 14.3281 18.2238C14.2224 18.5634 13.9826 18.7111 13.6864 18.6298C13.4043 18.5486 13.2632 18.2755 13.3408 17.9284C13.5312 17.0868 13.8979 16.3411 14.4621 15.7062C15.7175 14.3034 17.255 13.7127 19.0534 14.1779C20.9082 14.6578 22.1848 15.876 22.6361 17.8399C22.9394 19.1909 23.0452 20.5937 23.2427 21.9743C23.2074 21.9743 23.1933 21.9817 23.1721 21.9891Z" fill="#222222"/>
<path d="M14.6613 22.8096C14.5414 27.5495 12.9898 31.4699 9.85848 34.6889C9.7668 34.7848 9.66806 34.8882 9.54817 34.9251C9.30133 35.0063 9.07564 34.9473 8.94164 34.6962C8.79354 34.4305 8.87112 34.209 9.06154 33.9949C9.57638 33.4042 10.1265 32.8431 10.592 32.2156C12.7994 29.2402 13.7656 25.8514 13.5823 22.0935C13.5682 21.7539 13.5188 21.4069 13.4765 21.0672C13.4342 20.7055 13.6105 20.4249 13.9137 20.388C14.2382 20.3511 14.4709 20.543 14.4991 20.9196C14.5696 21.6062 14.619 22.2854 14.6613 22.8096Z" fill="#222222"/>
<path d="M0.400024 19.014C0.456445 16.1125 1.07002 13.366 2.31128 10.7746C2.4876 10.3981 2.7556 10.2726 3.04475 10.4276C3.33391 10.5827 3.41149 10.8706 3.24223 11.2397C2.46644 12.8788 1.93044 14.5916 1.66244 16.4004C1.33802 18.6006 1.43676 20.7786 1.91634 22.9492C1.93749 23.0451 1.95865 23.1411 1.97276 23.2371C2.00802 23.5546 1.85991 23.7761 1.57076 23.8351C1.27455 23.9016 1.05592 23.7539 0.978339 23.4512C0.844339 22.8901 0.710339 22.329 0.639813 21.7605C0.526971 20.8524 0.477603 19.9295 0.400024 19.014Z" fill="#222222"/>
<path d="M18.039 8.41053C16.6144 8.41053 15.2462 8.71323 13.9344 9.29648C13.7581 9.3777 13.5113 9.41461 13.335 9.35555C13.201 9.30387 13.0387 9.04546 13.0599 8.91257C13.0881 8.72061 13.2503 8.45482 13.4055 8.39576C14.3082 8.07091 15.2109 7.68699 16.1489 7.51718C19.3015 6.97084 22.1719 7.75344 24.7531 9.7247C24.8871 9.82806 25.0211 9.93142 25.134 10.0569C25.3244 10.2784 25.3315 10.5294 25.1481 10.7583C24.9647 10.9798 24.7249 11.0315 24.4851 10.8691C24.2877 10.7362 24.1114 10.5737 23.9209 10.4261C22.1648 9.08976 20.2042 8.40314 18.039 8.41053Z" fill="#222222"/>
<path d="M23.0191 25.7761C22.7299 28.4414 22.0952 30.9368 21.0302 33.292C20.4519 34.5619 19.7466 35.7653 19.0766 36.9909C18.851 37.4043 18.5477 37.4929 18.2726 37.3083C17.9835 37.1164 17.9694 36.7989 18.2374 36.3781C20.1769 33.3437 21.397 30.0139 21.9118 26.4037C21.9471 26.1748 21.9612 25.9385 21.9964 25.7096C22.0458 25.3848 22.2715 25.215 22.5677 25.2445C22.8428 25.2888 23.0332 25.5398 23.0191 25.7761Z" fill="#222222"/>
<path d="M30.5998 23.1413C30.5998 22.4547 30.5998 21.768 30.5998 21.074C30.5998 20.6458 30.762 20.4096 31.0794 20.3948C31.4179 20.3726 31.6224 20.6015 31.6436 21.0371C31.827 24.5883 31.5025 28.0805 30.6562 31.521C30.6421 31.58 30.621 31.6391 30.6069 31.6982C30.5011 32.0304 30.2472 32.2002 29.9651 32.1116C29.7041 32.0378 29.549 31.772 29.6124 31.4398C29.7253 30.886 29.8593 30.3397 29.9792 29.7934C30.4376 27.608 30.6351 25.3857 30.5998 23.1413Z" fill="#222222"/>
<path d="M6.12664 22.8685C6.04906 25.1203 5.30854 26.9513 3.78517 28.4205C3.58065 28.6125 3.36907 28.7528 3.09402 28.5904C2.73434 28.391 2.72023 27.9628 3.06581 27.6453C3.81338 26.9587 4.37054 26.1392 4.73022 25.172C5.18864 23.9391 5.14633 22.684 4.91359 21.4067C4.8078 20.8087 4.77254 20.1885 4.72317 19.5831C4.70201 19.2656 4.88538 19.0663 5.17454 19.0294C5.47075 18.9925 5.68938 19.1696 5.73169 19.4724C5.87274 20.6315 5.99969 21.798 6.12664 22.8685Z" fill="#222222"/>
<path d="M11.3961 36.1061C11.2198 35.9584 10.987 35.8551 10.9518 35.7C10.9024 35.508 10.9588 35.2275 11.0787 35.0725C11.4737 34.5409 11.9321 34.0536 12.327 33.5294C13.2439 32.3038 13.9632 30.9601 14.5274 29.5204C14.5698 29.4171 14.605 29.3137 14.6544 29.2177C14.8025 28.9519 15.0423 28.8855 15.2891 28.9888C15.543 29.0922 15.6629 29.3211 15.5853 29.6164C15.5289 29.8305 15.4443 30.0299 15.3596 30.2366C14.5204 32.2743 13.3708 34.1053 11.9109 35.7074C11.7699 35.8477 11.6006 35.9436 11.3961 36.1061Z" fill="#222222"/>
<path d="M9.66768 27.0397C9.63242 27.1652 9.60421 27.2833 9.5619 27.3941C8.84958 29.1808 7.79875 30.709 6.38823 31.9642C6.06381 32.2521 5.77465 32.2595 5.55602 31.9863C5.34444 31.7205 5.39381 31.4326 5.70412 31.1594C7.01591 30.0077 7.98917 28.6049 8.6239 26.9437C8.71558 26.7001 8.85664 26.4786 9.12463 26.5081C9.28684 26.5229 9.44905 26.6558 9.59011 26.7739C9.63947 26.8182 9.63947 26.9437 9.66768 27.0397Z" fill="#222222"/>
<path d="M24.2591 36.2165C23.7019 36.2165 23.5115 35.8178 23.6878 35.3601C24.1745 34.0976 24.6611 32.8351 25.1266 31.5652C25.2606 31.2034 25.3381 30.8121 25.4439 30.4356C25.5497 30.0591 25.7895 29.8745 26.0787 29.9483C26.4031 30.0369 26.5371 30.3249 26.4313 30.7309C25.987 32.4807 25.3804 34.164 24.6258 35.7883C24.5412 35.9876 24.3367 36.1279 24.2591 36.2165Z" fill="#222222"/>
</svg>
