<svg width="29" height="28" viewBox="0 0 29 28" fill="none" xmlns="http://www.w3.org/2000/svg">
<path d="M27.1181 9.0214C26.5391 7.3787 25.7514 5.99856 24.8964 5.15028C24.7213 4.97523 24.4924 4.88098 24.2433 4.88098C23.9942 4.88098 23.7653 4.97523 23.5903 5.15028C23.2335 5.50709 23.2335 6.09281 23.5903 6.45636C24.2568 7.12287 24.9098 8.30103 25.3946 9.69464C25.886 11.1219 26.1621 12.63 26.1621 13.9428C26.1621 14.1447 26.1553 14.4544 26.1486 14.6227C26.1351 14.8718 26.2227 15.1007 26.391 15.2825C26.5593 15.4643 26.7814 15.572 27.0305 15.5787H27.0709C27.5624 15.5787 27.9663 15.195 27.9933 14.6968C28 14.4881 28.0067 14.1515 28.0067 13.936C28.0067 12.4011 27.6903 10.6506 27.1181 9.0214ZM6.39577 4.21448C6.59101 4.21448 6.77278 4.15388 6.93436 4.03943C8.94735 2.5987 11.3912 1.83794 14.0034 1.83794C16.7502 1.83794 19.396 2.83434 21.6581 4.7194C21.8264 4.85405 22.0351 4.93484 22.2505 4.93484C22.5266 4.93484 22.7824 4.81366 22.9574 4.60495C23.2806 4.21448 23.2267 3.63549 22.843 3.3056C20.2376 1.14451 17.1878 0 14.0034 0C11.0007 0 8.18659 0.881943 5.85718 2.54484C5.65521 2.68622 5.52729 2.90166 5.4869 3.14403C5.4465 3.38639 5.50036 3.62876 5.64847 3.83073C5.81678 4.0731 6.09954 4.21448 6.39577 4.21448ZM1.84467 13.936C1.84467 10.994 2.90839 8.15966 4.84059 5.9447C5.00217 5.75619 5.08295 5.52056 5.06276 5.27819C5.04929 5.03583 4.93484 4.80693 4.74633 4.64535C4.57802 4.49724 4.36259 4.41645 4.14042 4.41645C3.87112 4.41645 3.62203 4.5309 3.44698 4.73287C1.22529 7.28444 0 10.5497 0 13.936C0 16.1443 0.397211 17.8947 1.03679 20.0087C1.15797 20.3991 1.50806 20.6617 1.91873 20.6617C2.00625 20.6617 2.10051 20.6482 2.18803 20.6213C2.42366 20.5472 2.6189 20.3924 2.73335 20.177C2.8478 19.9615 2.87473 19.7124 2.80067 19.4768C2.20822 17.5244 1.84467 15.9221 1.84467 13.936Z" fill="#0898A0"/>
<path d="M20.7155 5.5071C18.8776 3.91153 16.629 3.06998 14.2053 3.06998C10.9535 3.06998 8.05189 4.26834 6.02544 6.4429C4.09324 8.51648 3.14398 11.27 3.35268 14.1919C3.50753 16.3934 3.75662 17.6052 3.97879 18.6757C4.26829 20.0962 4.49719 21.2205 4.32215 24.3376C4.29522 24.7887 4.57124 25.1926 4.99538 25.3205C5.07617 25.3475 5.15023 25.3542 5.23775 25.3542C5.72248 25.3542 6.12643 24.9704 6.16009 24.4857C6.35533 21.0926 6.10623 19.8606 5.78981 18.2986C5.5811 17.282 5.34547 16.1308 5.19736 14.0505C5.02231 11.647 5.80327 9.38496 7.37865 7.6884C9.04828 5.89085 11.4787 4.90119 14.2053 4.90119C16.1779 4.90119 18.0091 5.58789 19.5037 6.88724C21.005 8.18659 22.1428 10.0784 22.8026 12.3472C23.57 14.993 23.7788 18.3592 23.4152 22.0755C23.3681 22.5804 23.7384 23.0315 24.2433 23.0854C24.2702 23.0854 24.3039 23.0921 24.3308 23.0921C24.8088 23.0921 25.1993 22.7353 25.2464 22.2573C25.6369 18.3054 25.4013 14.7035 24.5664 11.8355C23.8191 9.23685 22.4861 7.04209 20.7155 5.5071Z" fill="#0898A0"/>
<path d="M21.9139 14.7776C21.5167 12.2529 20.5741 10.1457 19.1805 8.67805C17.7802 7.19692 15.9894 6.40923 14.0033 6.40923C12.7242 6.40923 11.4652 6.68526 10.3611 7.21712C10.112 7.3383 9.93022 7.56047 9.8629 7.82977C9.79557 8.1058 9.85617 8.38856 10.0312 8.61072C10.2063 8.83963 10.4688 8.96754 10.7583 8.96754C10.8997 8.96754 11.0276 8.93388 11.1555 8.88002C12.0038 8.47608 12.9867 8.26064 13.9966 8.26064C15.5046 8.26064 16.8579 8.88002 17.9216 10.0515C19.0055 11.2498 19.7595 12.9868 20.0827 15.0738C20.3991 17.0666 20.5539 18.6756 20.5607 19.9952C20.5741 22.668 20.2375 24.8896 20.2375 24.9166C20.1971 25.1589 20.2577 25.4013 20.4058 25.6033C20.5539 25.8052 20.7626 25.9332 21.005 25.9736C21.0521 25.9803 21.0993 25.987 21.1464 25.987C21.6042 25.987 21.9879 25.6571 22.0553 25.2061C22.0687 25.1118 22.4188 22.8363 22.4053 19.9885C22.4053 18.5545 22.2438 16.8579 21.9139 14.7776ZM9.24352 10.4689C9.51281 10.0784 9.43876 9.55326 9.07521 9.24357C8.9069 9.10219 8.6982 9.02813 8.48276 9.02813C8.1798 9.02813 7.89704 9.17625 7.722 9.42534C6.73234 10.8728 6.39572 12.7309 6.75254 14.7978C7.35172 18.2515 7.89031 22.2775 7.38538 25.9062C7.35172 26.1621 7.41904 26.4246 7.58062 26.6266C7.73546 26.8286 7.96437 26.9498 8.21346 26.97C8.24039 26.97 8.26732 26.9767 8.29425 26.9767C8.75205 26.9767 9.14253 26.6333 9.20312 26.1823C9.75518 22.2977 9.18966 18.0899 8.56355 14.4814C8.28752 12.8791 8.51642 11.5258 9.24352 10.4689ZM18.1437 22.8901H18.1101C17.5984 22.9103 17.2012 23.3345 17.2214 23.8461C17.2214 23.8596 17.2618 25.0512 17.0464 26.1823C16.9588 26.6468 17.2214 27.1046 17.659 27.246C17.7533 27.2729 17.8475 27.2931 17.9485 27.2931C18.3928 27.2931 18.7698 26.9767 18.8506 26.5458C19.1065 25.1926 19.0593 23.8394 19.0593 23.7788C19.0459 23.2739 18.6419 22.8901 18.1437 22.8901Z" fill="#0898A0"/>
<path d="M16.6021 10.6304C15.8481 9.92354 14.9056 9.54653 13.8755 9.54653C12.5425 9.54653 11.4047 10.038 10.6709 10.9267C10.1121 11.6066 9.52637 12.8656 9.93705 14.9661C10.7651 19.1738 10.9469 23.1527 10.4824 26.7882C10.415 27.2931 10.7786 27.7576 11.2768 27.8182C11.3172 27.825 11.3576 27.825 11.3912 27.825C11.8558 27.825 12.2463 27.4816 12.3068 27.0171C12.7983 23.1796 12.6098 19.0055 11.7481 14.6026C11.5326 13.4984 11.6538 12.63 12.0914 12.0914C12.4684 11.6336 13.1013 11.3845 13.8688 11.3845C15.5519 11.3845 16.2318 13.2426 16.4473 14.037C16.9118 15.7673 17.1811 18.2784 17.2215 21.2878C17.2282 21.786 17.6389 22.1967 18.1438 22.1967H18.1573C18.3997 22.19 18.6286 22.0957 18.8036 21.9207C18.9719 21.7456 19.0662 21.51 19.0662 21.2676C19.019 18.1034 18.7295 15.4441 18.2246 13.5658C17.8947 12.3203 17.3427 11.3306 16.6021 10.6304Z" fill="#0898A0"/>
<path d="M14.6227 13.3234C14.4814 12.98 14.1447 12.7511 13.7677 12.7511C13.6465 12.7511 13.5254 12.7781 13.4176 12.8185C12.9464 13.0137 12.7242 13.5523 12.9194 14.0236C13.3638 15.1007 13.7139 17.1339 13.8687 19.598C14.0303 22.0822 13.9832 24.7752 13.7341 26.9767C13.7071 27.219 13.7745 27.4614 13.9293 27.6566C14.0841 27.8519 14.2996 27.9663 14.5487 27.9933C14.5823 28 14.616 28 14.6497 28C15.1209 28 15.5114 27.6499 15.5653 27.1786C15.8278 24.7887 15.875 22.0216 15.6999 19.3825C15.5316 16.7367 15.1479 14.5823 14.6227 13.3234Z" fill="#0898A0"/>
</svg>
