<svg width="33" height="33" viewBox="0 0 33 33" fill="none" xmlns="http://www.w3.org/2000/svg">
<rect width="33" height="33" rx="16.5" fill="white"/>
<rect opacity="0.1" width="33" height="33" rx="16.5" fill="#BC1058"/>
<path fill-rule="evenodd" clip-rule="evenodd" d="M12.7644 10C13.0337 10 13.252 10.2183 13.252 10.4876V10.6917C14.5449 10.9225 15.5263 12.0525 15.5263 13.4117V14.0627C15.5263 14.332 15.308 14.5504 15.0387 14.5504C14.7694 14.5504 14.5511 14.332 14.5511 14.0627V13.4117C14.5511 12.5938 14.0018 11.9041 13.252 11.6915V16.1945L13.7915 16.4576C14.8529 16.9751 15.5263 18.0526 15.5263 19.2334L15.5263 19.5743C15.5263 20.9328 14.5457 22.0634 13.252 22.2943V22.5124C13.252 22.7817 13.0337 23 12.7644 23C12.4951 23 12.2768 22.7817 12.2768 22.5124V22.2948C10.9834 22.0651 10 20.9352 10 19.5743V18.9366C10 18.6673 10.2183 18.449 10.4876 18.449C10.7569 18.449 10.9752 18.6673 10.9752 18.9366V19.5743C10.9752 20.3936 11.5261 21.0835 12.2768 21.2953V16.804L11.7348 16.5397C10.6734 16.0222 10 14.9447 10 13.7638V13.4117C10 12.0516 10.9827 10.921 12.2768 10.6912V10.4876C12.2768 10.2183 12.4951 10 12.7644 10ZM10.9752 13.4117C10.9752 12.5929 11.5257 11.9026 12.2768 11.6908V15.719L12.1622 15.6631C11.436 15.309 10.9752 14.5718 10.9752 13.7638V13.4117ZM13.252 21.2946V17.2795L13.3641 17.3342C14.0903 17.6882 14.5511 18.4255 14.5511 19.2334L14.5511 19.5743C14.5511 20.3918 14.0022 21.0818 13.252 21.2946Z" fill="#BC1058"/>
<path d="M18.1269 16.5C18.1269 16.3904 18.1294 16.2818 18.1342 16.1743L19.2636 16.1749C19.5329 16.175 19.7513 15.9569 19.7514 15.6875C19.7516 15.4182 19.5334 15.1998 19.2641 15.1997L18.2454 15.1991C18.4058 14.3392 18.7203 13.5801 19.1343 12.986C19.7483 12.1051 20.5491 11.6238 21.3777 11.6238C21.6812 11.6238 22.0104 11.7124 22.2472 11.8684C22.4721 12.0166 22.7745 11.9544 22.9227 11.7296C23.0708 11.5047 23.0087 11.2023 22.7838 11.0541C22.3654 10.7784 21.8434 10.6486 21.3777 10.6486C20.1416 10.6486 19.0733 11.368 18.3342 12.4284C17.8045 13.1884 17.4274 14.1425 17.2557 15.1986L16.3394 15.1981C16.0701 15.1979 15.8517 15.4161 15.8515 15.6854C15.8514 15.9547 16.0696 16.1731 16.3389 16.1733L17.1581 16.1737C17.1539 16.2818 17.1517 16.3906 17.1517 16.5C17.1517 16.609 17.1538 16.7174 17.1581 16.8251L16.3391 16.8251C16.0698 16.8251 15.8515 17.0434 15.8515 17.3127C15.8515 17.582 16.0698 17.8003 16.3391 17.8003L17.2555 17.8003C17.4271 18.8567 17.8043 19.8113 18.3342 20.5715C19.0733 21.6319 20.1416 22.3514 21.3777 22.3514C21.8299 22.3514 22.3643 22.2421 22.7965 21.9415C23.0176 21.7877 23.0721 21.4838 22.9183 21.2627C22.7645 21.0417 22.4606 20.9871 22.2396 21.1409C22.0165 21.2961 21.6948 21.3761 21.3777 21.3761C20.5491 21.3761 19.7483 20.8948 19.1343 20.0139C18.7202 19.4197 18.4057 18.6604 18.2453 17.8003L19.2638 17.8003C19.5331 17.8003 19.7514 17.582 19.7514 17.3127C19.7514 17.0434 19.5331 16.8251 19.2638 16.8251L18.1341 16.8251C18.1294 16.7177 18.1269 16.6093 18.1269 16.5Z" fill="#BC1058"/>
</svg>
