<svg width="17" height="15" viewBox="0 0 17 15" fill="none" xmlns="http://www.w3.org/2000/svg">
<path fill-rule="evenodd" clip-rule="evenodd" d="M8.75457 0.46967C9.04746 0.176777 9.52234 0.176777 9.81523 0.46967L16.2294 6.8838C16.37 7.02445 16.449 7.21522 16.449 7.41413C16.449 7.61304 16.37 7.80381 16.2294 7.94446L9.81523 14.3586C9.52234 14.6515 9.04746 14.6515 8.75457 14.3586C8.46168 14.0657 8.46168 13.5908 8.75457 13.2979L13.8884 8.16413H1C0.585786 8.16413 0.25 7.82834 0.25 7.41413C0.25 6.99991 0.585786 6.66413 1 6.66413H13.8884L8.75457 1.53033C8.46168 1.23744 8.46168 0.762563 8.75457 0.46967Z" fill="white"/>
</svg>