<svg width="42" height="42" viewBox="0 0 42 42" fill="none" xmlns="http://www.w3.org/2000/svg">
<rect width="42" height="42" rx="21" fill="#71879C" fill-opacity="0.1"/>
<path d="M13.114 19.1531L21.0004 14.4947L28.8867 19.1531C28.9641 19.1989 29.0493 19.2206 29.1334 19.2206C29.2997 19.2206 29.4617 19.1354 29.5524 18.9819C29.6891 18.7509 29.6123 18.4528 29.381 18.3162L21.2477 13.5117C21.0951 13.4219 20.9059 13.4219 20.7534 13.5117L12.6198 18.3162C12.3887 18.4528 12.312 18.7509 12.4483 18.9819C12.585 19.213 12.883 19.2897 13.114 19.1531Z" fill="#0898A0"/>
<path d="M29.1341 27.5835H12.8668C12.5985 27.5835 12.3809 27.8011 12.3809 28.0695C12.3809 28.3378 12.5985 28.5555 12.8668 28.5555H29.1341C29.4024 28.5555 29.62 28.3378 29.62 28.0695C29.62 27.8008 29.4024 27.5835 29.1341 27.5835Z" fill="#0898A0"/>
<path d="M17.2662 19.9016C17.5346 19.9016 17.7522 19.684 17.7522 19.4157C17.7522 19.1473 17.5346 18.9297 17.2662 18.9297H15.6383C15.37 18.9297 15.1523 19.1473 15.1523 19.4157C15.1523 19.684 15.37 19.9016 15.6383 19.9016H15.9663V25.7609H15.6383C15.37 25.7609 15.1523 25.9786 15.1523 26.2469C15.1523 26.5153 15.37 26.7329 15.6383 26.7329H17.2662C17.5346 26.7329 17.7522 26.5153 17.7522 26.2469C17.7522 25.9786 17.5346 25.7609 17.2662 25.7609H16.9382V19.9016H17.2662Z" fill="#0898A0"/>
<path d="M26.36 19.8885C26.6283 19.8885 26.8459 19.6708 26.8459 19.4025C26.8459 19.1341 26.6283 18.9165 26.36 18.9165H24.7321C24.4637 18.9165 24.2461 19.1341 24.2461 19.4025C24.2461 19.6708 24.4637 19.8885 24.7321 19.8885H25.06V25.7477H24.7321C24.4637 25.7477 24.2461 25.9654 24.2461 26.2337C24.2461 26.5021 24.4637 26.7197 24.7321 26.7197H26.36C26.6283 26.7197 26.8459 26.5021 26.8459 26.2337C26.8459 25.9654 26.6283 25.7477 26.36 25.7477H26.032V19.8885H26.36Z" fill="#0898A0"/>
<path d="M22.3282 23.4777V22.9749H20.1221V21.8352C20.1221 20.9888 20.4962 20.6369 21.1908 20.6369C21.8702 20.6369 22.2977 20.9888 22.3359 21.8687H23C22.9924 20.6788 22.313 20 21.2214 20C20.0992 20 19.4733 20.595 19.4733 21.7514V22.9749H19V23.4777H19.4733V25.3631H19V26H23V25.3631H20.1221V23.4777H22.3282Z" fill="#0898A0"/>
<path fill-rule="evenodd" clip-rule="evenodd" d="M22.4286 23.5776H20.2225V25.263H23.1004V26.0999H18.9004V25.263H19.3737V23.5776H18.9004V22.8748H19.3737V21.7513C19.3737 21.1556 19.5352 20.6885 19.8566 20.3708C20.1779 20.0533 20.6438 19.8999 21.2218 19.8999C21.7887 19.8999 22.2596 20.0767 22.5895 20.4186C22.919 20.76 23.0965 21.2544 23.1004 21.868L23.101 21.9686H22.2405L22.2364 21.873C22.2179 21.4471 22.1059 21.1671 21.9332 20.9932C21.7615 20.8202 21.5142 20.7368 21.1912 20.7368C20.8597 20.7368 20.6242 20.8206 20.4696 20.9867C20.3136 21.1543 20.2225 21.4243 20.2225 21.8351V22.8748H22.4286V23.5776ZM22.3363 21.8686C22.2981 20.9887 21.8706 20.6368 21.1912 20.6368C20.4966 20.6368 20.1225 20.9887 20.1225 21.8351V22.9748H22.3286V23.4776H20.1225V25.363H23.0004V25.9999H19.0004V25.363H19.4737V23.4776H19.0004V22.9748H19.4737V21.7513C19.4737 20.5949 20.0996 19.9999 21.2218 19.9999C22.2824 19.9999 22.9539 20.6407 22.9981 21.7686C22.9994 21.8015 23.0002 21.8349 23.0004 21.8686H22.3363Z" fill="#0898A0"/>
</svg>
