<svg width="18" height="17" viewBox="0 0 18 17" fill="none" xmlns="http://www.w3.org/2000/svg">
<path d="M2.31943 4.34962C1.44785 4.34962 0.899994 4.93068 0.899994 5.83546V7.65334C0.899994 8.50002 1.35654 9.06447 2.16171 9.13087V14.7754C2.16171 16.1865 2.95859 16.9585 4.36972 16.9585H13.567C14.9781 16.9585 15.775 16.1865 15.775 14.7754V9.13087C16.5802 9.06447 17.0367 8.50002 17.0367 7.65334V5.83546C17.0367 4.93068 16.5221 4.34962 15.6173 4.34962H13.3097C13.9073 3.89308 14.2643 3.25392 14.2643 2.54005C14.2643 1.04591 13.1104 1.52588e-05 11.5914 1.52588e-05C10.3463 1.52588e-05 9.37509 0.713882 8.96835 1.9756C8.56161 0.713882 7.59042 1.52588e-05 6.34531 1.52588e-05C4.82626 1.52588e-05 3.67245 1.04591 3.67245 2.54005C3.67245 3.25392 4.01279 3.89308 4.61044 4.34962H2.31943ZM7.20859 4.34962C5.69785 4.34962 4.92587 3.43654 4.92587 2.54005C4.92587 1.70998 5.57333 1.18703 6.40341 1.18703C7.54062 1.18703 8.3624 2.10841 8.3624 3.63576V4.34962H7.20859ZM10.7281 4.34962H9.57431V3.63576C9.57431 2.10841 10.3961 1.18703 11.5333 1.18703C12.3634 1.18703 13.0108 1.70998 13.0108 2.54005C13.0108 3.43654 12.1891 4.34962 10.7281 4.34962ZM2.54355 5.32082H8.30429V8.16798H2.54355C2.12021 8.16798 1.92929 7.95216 1.92929 7.52882V5.95168C1.92929 5.52834 2.12021 5.32082 2.54355 5.32082ZM15.4015 5.32082C15.8248 5.32082 16.0074 5.52834 16.0074 5.95168V7.52882C16.0074 7.95216 15.8248 8.16798 15.4015 8.16798H9.63242V5.32082H15.4015ZM4.36972 16.0039C3.60605 16.0039 3.19101 15.5806 3.19101 14.8169V9.13918H8.30429V16.0039H4.36972ZM14.7457 14.8169C14.7457 15.5806 14.3307 16.0039 13.567 16.0039H9.63242V9.13918H14.7457V14.8169Z" fill="#0898A0"/>
</svg>
