<svg width="9" height="15" viewBox="0 0 9 15" fill="none" xmlns="http://www.w3.org/2000/svg">
<path d="M0.755371 14.4268C0.971191 14.4268 1.15381 14.3438 1.29492 14.2026L7.87744 7.76953C8.03516 7.61182 8.11816 7.4209 8.11816 7.21338C8.11816 6.99756 8.03516 6.79834 7.87744 6.65723L1.30322 0.232422C1.15381 0.0830078 0.971191 0 0.755371 0C0.32373 0 0 0.332031 0 0.763672C0 0.962891 0.0830078 1.16211 0.21582 1.30322L6.25879 7.21338L0.21582 13.1235C0.0830078 13.2646 0 13.4556 0 13.6631C0 14.0947 0.32373 14.4268 0.755371 14.4268Z" fill="#838F91"/>
</svg>
