<svg width="16" height="9" viewBox="0 0 16 9" fill="none" xmlns="http://www.w3.org/2000/svg">
<path d="M0.845825 1.20313C0.845825 1.41895 0.928833 1.60156 1.06995 1.74268L7.50305 8.3252C7.66077 8.48291 7.85168 8.56592 8.0592 8.56592C8.27502 8.56592 8.47424 8.48291 8.61536 8.3252L15.0402 1.75098C15.1896 1.60156 15.2726 1.41895 15.2726 1.20312C15.2726 0.771484 14.9406 0.447754 14.5089 0.447754C14.3097 0.447754 14.1105 0.530762 13.9694 0.663574L8.0592 6.70654L2.14905 0.663574C2.00793 0.530762 1.81702 0.447754 1.6095 0.447754C1.17786 0.447754 0.845825 0.771484 0.845825 1.20313Z" fill="#838F91"/>
</svg>
