<svg width="60" height="60" viewBox="0 0 60 60" fill="none" xmlns="http://www.w3.org/2000/svg">
<path d="M0 30C0 13.4315 13.4315 0 30 0C46.5685 0 60 13.4315 60 30C60 46.5685 46.5685 60 30 60C13.4315 60 0 46.5685 0 30Z" fill="#E6F5F6"/>
<path d="M19.5415 35.2986H23.5871L22.3903 41.2173C22.3643 41.3213 22.3513 41.4644 22.3513 41.5685C22.3513 42.0888 22.7025 42.375 23.2098 42.375C23.7172 42.375 24.0814 42.1018 24.1854 41.5815L25.4602 35.2986H31.535L30.3383 41.2173C30.3123 41.3213 30.2993 41.4644 30.2993 41.5685C30.2993 42.0888 30.6505 42.375 31.1578 42.375C31.6651 42.375 32.0293 42.1018 32.1334 41.5815L33.4082 35.2986H38.1041C38.6765 35.2986 39.0798 34.8953 39.0798 34.323C39.0798 33.8417 38.7546 33.4774 38.2733 33.4774H33.7724L35.1513 26.6742H39.7562C40.3285 26.6742 40.7188 26.2579 40.7188 25.6856C40.7188 25.2173 40.4066 24.853 39.9253 24.853H35.5285L36.5952 19.5457C36.6212 19.4677 36.6472 19.3246 36.6472 19.1945C36.6472 18.6742 36.27 18.375 35.7627 18.375C35.1773 18.375 34.9041 18.7002 34.8131 19.1945L33.6684 24.853H27.5676L28.6472 19.5457C28.6602 19.4677 28.6863 19.3246 28.6863 19.1945C28.6863 18.6742 28.309 18.375 27.8147 18.375C27.2163 18.375 26.9432 18.7002 26.8521 19.1945L25.7074 24.853H21.3757C20.8033 24.853 20.4001 25.2693 20.4001 25.8547C20.4001 26.336 20.7253 26.6742 21.1936 26.6742H25.3302L23.9513 33.4774H19.7237C19.1513 33.4774 18.748 33.9067 18.748 34.4791C18.748 34.9734 19.0733 35.2986 19.5415 35.2986ZM25.8245 33.4774L27.2033 26.6742H33.2911L31.9123 33.4774H25.8245Z" fill="#0898A0"/>
</svg>
