<svg width="33" height="32" viewBox="0 0 33 32" fill="none" xmlns="http://www.w3.org/2000/svg">
<path d="M26.7518 13.7979L17.5916 6.40038C16.887 5.86654 15.7909 5.86654 15.0863 6.40038L5.84785 13.7979C5.53468 14.103 5.2998 14.4843 5.2998 14.9418V24.4747C5.2998 25.3136 6.00443 26 6.86564 26H25.734C26.5952 26 27.2998 25.3136 27.2998 24.4747V14.9418C27.2998 14.4843 27.1432 14.103 26.7518 13.7979Z" stroke="#94A1AD" stroke-width="1.4" stroke-miterlimit="10" stroke-linecap="round" stroke-linejoin="round"/>
<path d="M19.5998 18C19.5998 19.8225 18.1223 21.3 16.2998 21.3C14.4773 21.3 12.9998 19.8225 12.9998 18C12.9998 16.1775 14.4773 14.7 16.2998 14.7C18.1223 14.7 19.5998 16.1775 19.5998 18Z" stroke="#94A1AD" stroke-width="1.4" stroke-miterlimit="10" stroke-linecap="round" stroke-linejoin="round"/>
</svg>
