<svg width="32" height="32" viewBox="0 0 32 32" fill="none" xmlns="http://www.w3.org/2000/svg">
<path fill-rule="evenodd" clip-rule="evenodd" d="M17.2135 6.40191L26.3737 13.8278C26.7651 14.134 27 14.5167 27 14.9761V24.4689C27 25.311 26.2954 26 25.4342 26H6.56584C5.70463 26 5 25.311 5 24.4689V14.8995C5 14.4402 5.15658 14.0574 5.54804 13.7512L14.7082 6.40191C15.4128 5.86603 16.5089 5.86603 17.2135 6.40191ZM20 18C20 20.2091 18.2091 22 16 22C13.7909 22 12 20.2091 12 18C12 15.7909 13.7909 14 16 14C18.2091 14 20 15.7909 20 18Z" fill="#171C22"/>
<path d="M26.3737 13.8278L25.9328 14.3716L25.9424 14.3791L26.3737 13.8278ZM17.2135 6.40191L17.6543 5.85815C17.6487 5.85359 17.643 5.84912 17.6373 5.84474L17.2135 6.40191ZM5.54804 13.7512L5.97937 14.3026L5.9861 14.2972L5.54804 13.7512ZM14.7082 6.40191L14.2844 5.84474C14.2796 5.84841 14.2749 5.85213 14.2701 5.85592L14.7082 6.40191ZM26.8145 13.284L17.6543 5.85815L16.7727 6.94568L25.9329 14.3715L26.8145 13.284ZM27.7 14.9761C27.7 14.244 27.315 13.6754 26.805 13.2764L25.9424 14.3791C26.2153 14.5926 26.3 14.7895 26.3 14.9761H27.7ZM27.7 24.4689V14.9761H26.3V24.4689H27.7ZM25.4342 26.7C26.6671 26.7 27.7 25.7123 27.7 24.4689H26.3C26.3 24.9097 25.9237 25.3 25.4342 25.3V26.7ZM6.56584 26.7H25.4342V25.3H6.56584V26.7ZM4.3 24.4689C4.3 25.7123 5.33291 26.7 6.56584 26.7V25.3C6.07634 25.3 5.7 24.9097 5.7 24.4689H4.3ZM4.3 14.8995V24.4689H5.7V14.8995H4.3ZM5.11675 13.1998C4.53797 13.6526 4.3 14.2484 4.3 14.8995H5.7C5.7 14.632 5.7752 14.4622 5.97934 14.3025L5.11675 13.1998ZM14.2701 5.85592L5.10999 13.2052L5.9861 14.2972L15.1462 6.94791L14.2701 5.85592ZM17.6373 5.84474C16.6822 5.11842 15.2395 5.11842 14.2844 5.84474L15.1319 6.95909C15.5862 6.61364 16.3356 6.61364 16.7898 6.95909L17.6373 5.84474ZM16 22.7C18.5957 22.7 20.7 20.5957 20.7 18H19.3C19.3 19.8225 17.8225 21.3 16 21.3V22.7ZM11.3 18C11.3 20.5957 13.4043 22.7 16 22.7V21.3C14.1775 21.3 12.7 19.8225 12.7 18H11.3ZM16 13.3C13.4043 13.3 11.3 15.4043 11.3 18H12.7C12.7 16.1775 14.1775 14.7 16 14.7V13.3ZM20.7 18C20.7 15.4043 18.5957 13.3 16 13.3V14.7C17.8225 14.7 19.3 16.1775 19.3 18H20.7Z" fill="#171C22"/>
</svg>
