<svg width="68" height="68" viewBox="0 0 68 68" fill="none" xmlns="http://www.w3.org/2000/svg">
<rect width="68" height="68" rx="34" fill="#71879C" fill-opacity="0.1"/>
<path d="M25.5019 21.1573H42.5117C42.5117 20.8155 42.2619 20.5 41.907 20.5H26.0935C25.7386 20.5 25.5019 20.8155 25.5019 21.1573ZM23.0701 23.9966H44.9435C44.9435 23.6548 44.6938 23.3393 44.3388 23.3393H23.6616C23.3067 23.3393 23.057 23.6548 23.0701 23.9966ZM23.5433 47.5H44.4703C46.6655 47.5 47.8354 46.3038 47.8354 44.1217V29.8987C47.8354 27.7167 46.6655 26.5204 44.4703 26.5204H23.5433C21.335 26.5204 20.165 27.6904 20.165 29.8987V44.1217C20.165 46.3301 21.335 47.5 23.5433 47.5ZM23.5696 46.8559C21.7556 46.8559 20.8091 45.9094 20.8091 44.0954V29.925C20.8091 28.111 21.7556 27.1646 23.5696 27.1646H44.4309C46.1792 27.1646 47.1913 28.111 47.1913 29.925V44.0954C47.1913 45.9094 46.1792 46.8559 44.4309 46.8559H42.7746C41.2235 43.4382 38.3315 41.1378 34.0068 41.1378C29.6821 41.1378 26.7902 43.4382 25.239 46.8559H23.5696ZM34.0068 39.258C36.1889 39.2975 37.9503 37.3651 37.9503 34.9333C37.9503 32.6198 36.1889 30.7269 34.0068 30.7269C31.8247 30.7269 30.0501 32.6198 30.0633 34.9333C30.0764 37.3651 31.8247 39.2317 34.0068 39.258Z" fill="#0898A0"/>
</svg>
