<svg width="42" height="42" viewBox="0 0 42 42" fill="none" xmlns="http://www.w3.org/2000/svg">
<path d="M0 21C0 9.40202 9.40202 0 21 0C32.598 0 42 9.40202 42 21C42 32.598 32.598 42 21 42C9.40202 42 0 32.598 0 21Z" fill="#E6F5F6"/>
<path d="M16.1084 13.1734H25.8916C25.8616 12.6853 25.5763 12.4 25.0507 12.4H16.9568C16.4313 12.4 16.1384 12.6853 16.1084 13.1734ZM14.6668 15.0955H27.3407C27.2656 14.5774 27.0028 14.2696 26.4322 14.2696H15.5753C15.0047 14.2696 14.7419 14.5774 14.6668 15.0955ZM15.2149 28.8055H26.7851C28.2492 28.8055 29 28.0546 29 26.6055V18.5793C29 17.1377 28.2492 16.3869 26.7851 16.3869H15.2149C13.7433 16.3869 13 17.1302 13 18.5793V26.6055C13 28.0621 13.7433 28.8055 15.2149 28.8055ZM15.2299 27.8744C14.389 27.8744 13.931 27.4239 13.931 26.5605V18.6318C13.931 17.7609 14.389 17.3179 15.2299 17.3179H26.7701C27.596 17.3179 28.069 17.7609 28.069 18.6318V26.5605C28.069 27.4239 27.596 27.8744 26.7701 27.8744H25.8315C25.1258 26.2977 23.5115 24.8561 20.9962 24.8561C18.481 24.8561 16.8667 26.2977 16.161 27.8744H15.2299ZM20.9962 23.805C22.2576 23.82 23.2712 22.6788 23.2712 21.3047C23.2712 19.9683 22.2576 18.8796 20.9962 18.8796C19.7349 18.8796 18.7137 19.9683 18.7213 21.3047C18.7213 22.6788 19.7349 23.79 20.9962 23.805Z" fill="#0898A0"/>
</svg>
