<svg width="93" height="29" viewBox="0 0 93 29" fill="none" xmlns="http://www.w3.org/2000/svg">
<path d="M37.9902 18V9.66553H39.1201V18H37.9902ZM43.8555 12.0967C44.5072 12.0967 45.0277 12.304 45.417 12.7188C45.8063 13.1292 46.001 13.7069 46.001 14.4517V18H44.9092V14.6992C44.9092 13.6159 44.4712 13.0742 43.5952 13.0742C43.117 13.0742 42.7383 13.2181 42.459 13.5059C42.1839 13.7894 42.0464 14.1554 42.0464 14.604V17.9873H40.9673V12.2681H41.8687L41.9702 13.0742C42.1437 12.778 42.4019 12.541 42.7446 12.3633C43.0874 12.1855 43.4577 12.0967 43.8555 12.0967ZM49.6763 18.1587C49.0076 18.1587 48.4575 17.9979 48.0259 17.6763C47.5985 17.3547 47.3678 16.9294 47.334 16.4004H48.3877C48.4131 16.6966 48.54 16.9251 48.7686 17.0859C48.9971 17.2467 49.2996 17.3271 49.6763 17.3271C50.0487 17.3271 50.3385 17.2531 50.5459 17.105C50.7533 16.9569 50.8569 16.7474 50.8569 16.4766C50.8569 16.21 50.7744 16.0195 50.6094 15.9053C50.4443 15.7868 50.2327 15.7 49.9746 15.645L48.959 15.4102C48.4554 15.2959 48.083 15.1034 47.8418 14.8325C47.6048 14.5617 47.4863 14.2316 47.4863 13.8423C47.4863 13.3133 47.6852 12.8901 48.083 12.5728C48.485 12.2554 49.0055 12.0967 49.6445 12.0967C50.2962 12.0967 50.8231 12.2596 51.2251 12.5854C51.6313 12.9113 51.8429 13.3429 51.8599 13.8804H50.8062C50.7977 13.5841 50.6834 13.3514 50.4634 13.1821C50.2476 13.0129 49.9704 12.9282 49.6318 12.9282C49.3102 12.9282 49.0542 13.0002 48.8638 13.144C48.6776 13.2879 48.5845 13.4889 48.5845 13.7471C48.5845 13.9883 48.6585 14.1639 48.8066 14.2739C48.959 14.384 49.1579 14.4644 49.4033 14.5151L50.5586 14.7754C51.0368 14.8812 51.3923 15.0758 51.625 15.3594C51.8577 15.6387 51.9741 15.9772 51.9741 16.375C51.9741 16.9209 51.7646 17.3547 51.3457 17.6763C50.931 17.9979 50.3745 18.1587 49.6763 18.1587ZM56.1128 13.1631H54.9829V18H53.9038V13.1631H52.7866V12.2681H53.9038V10.7446H54.9829V12.2681H56.1128V13.1631ZM62.7715 12.2681V18H61.7559V16.9844C61.5654 17.3398 61.2734 17.6255 60.8799 17.8413C60.4863 18.0529 60.042 18.1587 59.5469 18.1587C59.0179 18.1587 58.5461 18.0339 58.1313 17.7842C57.7209 17.5303 57.4014 17.1769 57.1729 16.7241C56.9443 16.2671 56.8301 15.7424 56.8301 15.1499C56.8301 14.5448 56.9486 14.0116 57.1855 13.5503C57.4268 13.0848 57.7568 12.7272 58.1758 12.4775C58.5947 12.2236 59.0771 12.0967 59.623 12.0967C60.1097 12.0967 60.5392 12.194 60.9116 12.3887C61.284 12.5833 61.5739 12.8499 61.7812 13.1885L61.8765 12.2681H62.7715ZM59.7817 17.1812C60.3446 17.1812 60.7995 16.9928 61.1465 16.6162C61.4935 16.2396 61.667 15.7339 61.667 15.0991C61.667 14.4855 61.4956 13.9946 61.1528 13.6265C60.8101 13.2583 60.3615 13.0742 59.8071 13.0742C59.2358 13.0742 58.7809 13.2625 58.4424 13.6392C58.1038 14.0158 57.9346 14.5109 57.9346 15.1245C57.9346 15.7381 58.1038 16.2354 58.4424 16.6162C58.7809 16.9928 59.2274 17.1812 59.7817 17.1812ZM70.0459 12.2681V17.9746C70.0459 18.8083 69.7814 19.4748 69.2524 19.9741C68.7235 20.4777 68.0125 20.7295 67.1196 20.7295C66.341 20.7295 65.6956 20.5285 65.1836 20.1265C64.6715 19.7244 64.3669 19.1722 64.2695 18.4697H65.3359C65.4206 18.8844 65.6216 19.2061 65.939 19.4346C66.2563 19.6673 66.6499 19.7837 67.1196 19.7837C67.7078 19.7837 68.1628 19.6229 68.4844 19.3013C68.806 18.9797 68.9668 18.5459 68.9668 18V16.7939C68.7679 17.124 68.4844 17.3822 68.1162 17.5684C67.7523 17.7503 67.3376 17.8413 66.8721 17.8413C66.3346 17.8413 65.8586 17.7186 65.4438 17.4731C65.0334 17.2277 64.7181 16.8892 64.498 16.4575C64.278 16.0216 64.168 15.535 64.168 14.9976C64.168 14.4517 64.2801 13.9587 64.5044 13.5186C64.7287 13.0742 65.0482 12.7272 65.4629 12.4775C65.8818 12.2236 66.3643 12.0967 66.9102 12.0967C67.3883 12.0967 67.8073 12.194 68.167 12.3887C68.5267 12.5833 68.806 12.8542 69.0049 13.2012L69.0684 12.2681H70.0459ZM67.0562 16.8955C67.6021 16.8955 68.0443 16.7114 68.3828 16.3433C68.7256 15.9751 68.897 15.5181 68.897 14.9722C68.897 14.4263 68.7277 13.9692 68.3892 13.6011C68.0549 13.2329 67.6105 13.0488 67.0562 13.0488C66.5103 13.0488 66.0765 13.2329 65.7549 13.6011C65.4333 13.9692 65.2725 14.4305 65.2725 14.9849C65.2725 15.5392 65.4354 15.9963 65.7612 16.356C66.0871 16.7157 66.5187 16.8955 67.0562 16.8955ZM74.356 12.2173C74.5464 12.2173 74.7284 12.2342 74.9019 12.2681V13.1885C74.8045 13.1715 74.6691 13.1631 74.4956 13.1631C73.9751 13.1631 73.5731 13.3175 73.2896 13.6265C73.0103 13.9354 72.8706 14.3628 72.8706 14.9087V18H71.7915V12.2681H72.7437L72.8706 13.1377C72.9679 12.8415 73.1499 12.6151 73.4165 12.4585C73.6873 12.2977 74.0005 12.2173 74.356 12.2173ZM81.5098 12.2681V18H80.4941V16.9844C80.3037 17.3398 80.0117 17.6255 79.6182 17.8413C79.2246 18.0529 78.7803 18.1587 78.2852 18.1587C77.7562 18.1587 77.2843 18.0339 76.8696 17.7842C76.4591 17.5303 76.1396 17.1769 75.9111 16.7241C75.6826 16.2671 75.5684 15.7424 75.5684 15.1499C75.5684 14.5448 75.6868 14.0116 75.9238 13.5503C76.165 13.0848 76.4951 12.7272 76.9141 12.4775C77.333 12.2236 77.8154 12.0967 78.3613 12.0967C78.848 12.0967 79.2775 12.194 79.6499 12.3887C80.0223 12.5833 80.3122 12.8499 80.5195 13.1885L80.6147 12.2681H81.5098ZM78.52 17.1812C79.0828 17.1812 79.5378 16.9928 79.8848 16.6162C80.2318 16.2396 80.4053 15.7339 80.4053 15.0991C80.4053 14.4855 80.2339 13.9946 79.8911 13.6265C79.5483 13.2583 79.0998 13.0742 78.5454 13.0742C77.9741 13.0742 77.5192 13.2625 77.1807 13.6392C76.8421 14.0158 76.6729 14.5109 76.6729 15.1245C76.6729 15.7381 76.8421 16.2354 77.1807 16.6162C77.5192 16.9928 77.9657 17.1812 78.52 17.1812ZM89.7173 12.0967C90.3224 12.0967 90.8133 12.2808 91.1899 12.6489C91.5708 13.0171 91.7612 13.5397 91.7612 14.2168V18.0127H90.6948V14.4517C90.6948 13.9735 90.5827 13.618 90.3584 13.3853C90.1383 13.1525 89.8337 13.0361 89.4443 13.0361C89.0212 13.0361 88.6847 13.18 88.4351 13.4678C88.1896 13.7513 88.0669 14.0962 88.0669 14.5024V18.0127H87.0005V14.4517C87.0005 14.0116 86.8883 13.6667 86.6641 13.417C86.4398 13.1631 86.1266 13.0361 85.7246 13.0361C85.3184 13.0361 84.9904 13.18 84.7407 13.4678C84.4953 13.7513 84.3726 14.092 84.3726 14.4897V18.0127H83.2935V12.2681H84.2583L84.3345 12.998C84.4995 12.7188 84.7301 12.4987 85.0264 12.3379C85.3268 12.1771 85.6548 12.0967 86.0103 12.0967C86.4419 12.0967 86.8228 12.2025 87.1528 12.4141C87.4829 12.6214 87.7178 12.9007 87.8574 13.252C88.014 12.888 88.2573 12.6045 88.5874 12.4014C88.9175 12.1982 89.2941 12.0967 89.7173 12.0967Z" fill="#8B909D"/>
<rect width="29" height="29" rx="14.5" fill="url(#paint0_diamond)"/>
<path d="M14.5058 8.75415C16.3748 8.75415 16.596 8.76138 17.3342 8.795C18.0166 8.82612 18.3873 8.94003 18.634 9.03589C18.9383 9.14793 19.2137 9.32681 19.4397 9.55935C19.6723 9.78541 19.8512 10.0607 19.9632 10.3651C20.0591 10.6118 20.173 10.9825 20.2041 11.6648C20.2377 12.4028 20.2449 12.6242 20.2449 14.4933C20.2449 16.3624 20.2377 16.5835 20.2041 17.3217C20.173 18.0041 20.0591 18.3748 19.9632 18.6215C19.7277 19.2319 19.2452 19.7144 18.6348 19.9499C18.3881 20.0457 18.0175 20.1596 17.3351 20.1908C16.5971 20.2244 16.3757 20.2316 14.5066 20.2316C12.6376 20.2316 12.4161 20.2244 11.6782 20.1908C10.9958 20.1596 10.6251 20.0457 10.3784 19.9499C10.0741 19.8378 9.79873 19.659 9.57267 19.4264C9.34013 19.2004 9.16126 18.925 9.04921 18.6207C8.95336 18.3739 8.83944 18.0033 8.80832 17.3209C8.77471 16.583 8.76748 16.3615 8.76748 14.4925C8.76748 12.6234 8.77471 12.4022 8.80832 11.664C8.83944 10.9816 8.95336 10.611 9.04921 10.3643C9.16126 10.0599 9.34013 9.78457 9.57267 9.55851C9.79873 9.32597 10.0741 9.1471 10.3784 9.03505C10.6251 8.9392 10.9958 8.82528 11.6782 8.79416C12.4161 8.76055 12.6376 8.75332 14.5066 8.75332L14.5058 8.75415ZM14.5066 7.49219C12.6056 7.49219 12.3672 7.50024 11.6207 7.53442C10.8741 7.56859 10.3662 7.68751 9.92081 7.86061C9.45379 8.03631 9.03071 8.31175 8.68107 8.66775C8.32508 9.01739 8.04963 9.44046 7.87394 9.90748C7.70084 10.3529 7.58248 10.8616 7.54858 11.6065C7.51468 12.3514 7.50635 12.5915 7.50635 14.4925C7.50635 16.3935 7.51441 16.6319 7.54858 17.3784C7.58275 18.125 7.70084 18.6321 7.87394 19.0774C8.04971 19.5445 8.32526 19.9676 8.68135 20.3172C9.03088 20.6732 9.45386 20.9488 9.92081 21.1246C10.3654 21.2977 10.8749 21.4161 11.6198 21.45C12.3647 21.4839 12.6048 21.4922 14.5058 21.4922C16.4068 21.4922 16.6452 21.4841 17.3918 21.45C18.1383 21.4158 18.6457 21.2977 19.0908 21.1246C20.031 20.761 20.7743 20.0177 21.1379 19.0774C21.311 18.6329 21.4294 18.1233 21.4633 17.3784C21.4972 16.6335 21.5055 16.3935 21.5055 14.4925C21.5055 12.5915 21.4975 12.3531 21.4633 11.6065C21.4291 10.8599 21.311 10.3526 21.1379 9.90748C20.9621 9.44044 20.6866 9.01736 20.3305 8.66775C19.9809 8.31165 19.5578 8.03611 19.0908 7.86033C18.6454 7.68751 18.1367 7.56915 17.3918 7.53525C16.6469 7.50136 16.4068 7.49302 14.5058 7.49302L14.5066 7.49219Z" fill="white"/>
<path d="M14.5055 10.8984C12.5206 10.8986 10.9115 12.5078 10.9116 14.4928C10.9117 16.4778 12.5209 18.0869 14.5059 18.0868C16.4909 18.0868 18.1 16.4776 18.1 14.4926C18.1 13.5393 17.7213 12.6251 17.0472 11.9511C16.3731 11.277 15.4588 10.8984 14.5055 10.8984ZM14.5055 16.826C13.2166 16.826 12.1716 15.781 12.1716 14.4921C12.1716 13.2031 13.2166 12.1582 14.5055 12.1582C15.7945 12.1582 16.8394 13.2031 16.8394 14.4921C16.8393 15.7809 15.7944 16.8257 14.5055 16.8257V16.826Z" fill="white"/>
<path d="M18.2413 11.5959C18.7052 11.5959 19.0812 11.2198 19.0812 10.7559C19.0812 10.2921 18.7052 9.91602 18.2413 9.91602C17.7774 9.91602 17.4014 10.2921 17.4014 10.7559C17.4014 11.2198 17.7774 11.5959 18.2413 11.5959Z" fill="white"/>
<defs>
<radialGradient id="paint0_diamond" cx="0" cy="0" r="1" gradientUnits="userSpaceOnUse" gradientTransform="translate(21 29) rotate(-111.161) scale(33.2415 81.1126)">
<stop stop-color="#FA972B"/>
<stop offset="0.541667" stop-color="#DE2B7B"/>
<stop offset="1" stop-color="#5257D3"/>
</radialGradient>
</defs>
</svg>
