<svg width="60" height="60" viewBox="0 0 60 60" fill="none" xmlns="http://www.w3.org/2000/svg">
<path d="M0 30C0 13.4315 13.4315 0 30 0C46.5685 0 60 13.4315 60 30C60 46.5685 46.5685 60 30 60C13.4315 60 0 46.5685 0 30Z" fill="#838F91" fill-opacity="0.05"/>
<path d="M17.2781 26.4753L29.9543 18.9876L42.6305 26.4753C42.7548 26.549 42.8918 26.5839 43.027 26.5839C43.2942 26.5839 43.5546 26.4468 43.7005 26.2002C43.9201 25.8288 43.7968 25.3498 43.4249 25.1302L30.3517 17.4076C30.1066 17.2632 29.8025 17.2632 29.5573 17.4076L16.4837 25.1302C16.1123 25.3498 15.989 25.8288 16.2081 26.2002C16.4277 26.5716 16.9067 26.6949 17.2781 26.4753Z" fill="#838F91"/>
<path d="M43.028 40.0264H16.8808C16.4494 40.0264 16.0996 40.3762 16.0996 40.8075C16.0996 41.2389 16.4494 41.5887 16.8808 41.5887H43.028C43.4594 41.5887 43.8092 41.2389 43.8092 40.8075C43.8092 40.3757 43.4594 40.0264 43.028 40.0264Z" fill="#838F91"/>
<path d="M23.9554 27.6785C24.3867 27.6785 24.7365 27.3287 24.7365 26.8974C24.7365 26.466 24.3867 26.1162 23.9554 26.1162H21.3388C20.9074 26.1162 20.5576 26.466 20.5576 26.8974C20.5576 27.3287 20.9074 27.6785 21.3388 27.6785H21.8659V37.0965H21.3388C20.9074 37.0965 20.5576 37.4463 20.5576 37.8776C20.5576 38.309 20.9074 38.6588 21.3388 38.6588H23.9554C24.3867 38.6588 24.7365 38.309 24.7365 37.8776C24.7365 37.4463 24.3867 37.0965 23.9554 37.0965H23.4282V27.6785H23.9554Z" fill="#838F91"/>
<path d="M31.262 27.6678C31.6933 27.6678 32.0431 27.318 32.0431 26.8866C32.0431 26.4553 31.6933 26.1055 31.262 26.1055H28.6454C28.2141 26.1055 27.8643 26.4553 27.8643 26.8866C27.8643 27.318 28.2141 27.6678 28.6454 27.6678H29.1726V37.0857H28.6454C28.2141 37.0857 27.8643 37.4355 27.8643 37.8669C27.8643 38.2982 28.2141 38.648 28.6454 38.648H31.262C31.6933 38.648 32.0431 38.2982 32.0431 37.8669C32.0431 37.4355 31.6933 37.0857 31.262 37.0857H30.7348V27.6678H31.262Z" fill="#838F91"/>
<path d="M38.5706 27.6575C39.0019 27.6575 39.3517 27.3077 39.3517 26.8764C39.3517 26.445 39.0019 26.0952 38.5706 26.0952H35.954C35.5226 26.0952 35.1729 26.445 35.1729 26.8764C35.1729 27.3077 35.5226 27.6575 35.954 27.6575H36.4811V37.0755H35.954C35.5226 37.0755 35.1729 37.4253 35.1729 37.8566C35.1729 38.288 35.5226 38.6378 35.954 38.6378H38.5706C39.0019 38.6378 39.3517 38.288 39.3517 37.8566C39.3517 37.4253 39.0019 37.0755 38.5706 37.0755H38.0434V27.6575H38.5706Z" fill="#838F91"/>
</svg>
