<svg width="14" height="15" viewBox="0 0 14 15" fill="none" xmlns="http://www.w3.org/2000/svg">
<path d="M6.33203 5.50016H7.66536V4.16683H6.33203V5.50016ZM6.9987 12.8335C4.0587 12.8335 1.66536 10.4402 1.66536 7.50016C1.66536 4.56016 4.0587 2.16683 6.9987 2.16683C9.9387 2.16683 12.332 4.56016 12.332 7.50016C12.332 10.4402 9.9387 12.8335 6.9987 12.8335ZM6.9987 0.833496C6.12322 0.833496 5.25631 1.00593 4.44747 1.34097C3.63864 1.676 2.90371 2.16706 2.28465 2.78612C1.03441 4.03636 0.332031 5.73205 0.332031 7.50016C0.332031 9.26827 1.03441 10.964 2.28465 12.2142C2.90371 12.8333 3.63864 13.3243 4.44747 13.6594C5.25631 13.9944 6.12322 14.1668 6.9987 14.1668C8.76681 14.1668 10.4625 13.4644 11.7127 12.2142C12.963 10.964 13.6654 9.26827 13.6654 7.50016C13.6654 6.62468 13.4929 5.75778 13.1579 4.94894C12.8229 4.1401 12.3318 3.40517 11.7127 2.78612C11.0937 2.16706 10.3588 1.676 9.54992 1.34097C8.74108 1.00593 7.87418 0.833496 6.9987 0.833496ZM6.33203 10.8335H7.66536V6.8335H6.33203V10.8335Z" fill="white"/>
</svg>
