<svg width="12" height="13" viewBox="0 0 12 13" fill="none" xmlns="http://www.w3.org/2000/svg">
<path d="M6.59995 1.80349C6.59995 1.64436 6.53674 1.49175 6.42422 1.37923C6.31169 1.26671 6.15908 1.20349 5.99995 1.20349C5.84082 1.20349 5.68821 1.26671 5.57569 1.37923C5.46317 1.49175 5.39995 1.64436 5.39995 1.80349V2.40349C5.39995 2.56262 5.46317 2.71523 5.57569 2.82776C5.68821 2.94028 5.84082 3.00349 5.99995 3.00349C6.15908 3.00349 6.31169 2.94028 6.42422 2.82776C6.53674 2.71523 6.59995 2.56262 6.59995 2.40349V1.80349ZM9.39415 3.45769C9.50345 3.34453 9.56392 3.19297 9.56256 3.03565C9.56119 2.87833 9.49809 2.72784 9.38684 2.6166C9.2756 2.50536 9.12511 2.44225 8.96779 2.44089C8.81047 2.43952 8.65891 2.5 8.54575 2.60929L8.12155 3.03349C8.01226 3.14665 7.95178 3.29821 7.95315 3.45553C7.95451 3.61285 8.01762 3.76334 8.12886 3.87458C8.24011 3.98583 8.39059 4.04893 8.54791 4.0503C8.70523 4.05166 8.85679 3.99119 8.96995 3.88189L9.39415 3.45769ZM10.8 6.00349C10.8 6.16262 10.7367 6.31523 10.6242 6.42776C10.5117 6.54028 10.3591 6.60349 10.2 6.60349H9.59995C9.44082 6.60349 9.28821 6.54028 9.17569 6.42776C9.06317 6.31523 8.99995 6.16262 8.99995 6.00349C8.99995 5.84436 9.06317 5.69175 9.17569 5.57923C9.28821 5.46671 9.44082 5.40349 9.59995 5.40349H10.2C10.3591 5.40349 10.5117 5.46671 10.6242 5.57923C10.7367 5.69175 10.8 5.84436 10.8 6.00349ZM3.02995 3.88189C3.0853 3.9392 3.15151 3.98491 3.22471 4.01635C3.29791 4.0478 3.37664 4.06435 3.45631 4.06504C3.53598 4.06573 3.61499 4.05055 3.68872 4.02038C3.76246 3.99022 3.82945 3.94566 3.88579 3.88933C3.94212 3.83299 3.98668 3.766 4.01684 3.69226C4.04701 3.61853 4.06219 3.53952 4.0615 3.45985C4.06081 3.38018 4.04426 3.30145 4.01281 3.22825C3.98137 3.15505 3.93566 3.08884 3.87835 3.03349L3.45415 2.60929C3.34099 2.5 3.18943 2.43952 3.03211 2.44089C2.87479 2.44225 2.7243 2.50536 2.61306 2.6166C2.50182 2.72784 2.43871 2.87833 2.43735 3.03565C2.43598 3.19297 2.49646 3.34453 2.60575 3.45769L3.02995 3.88189ZM2.99995 6.00349C2.99995 6.16262 2.93674 6.31523 2.82422 6.42776C2.71169 6.54028 2.55908 6.60349 2.39995 6.60349H1.79995C1.64082 6.60349 1.48821 6.54028 1.37569 6.42776C1.26317 6.31523 1.19995 6.16262 1.19995 6.00349C1.19995 5.84436 1.26317 5.69175 1.37569 5.57923C1.48821 5.46671 1.64082 5.40349 1.79995 5.40349H2.39995C2.55908 5.40349 2.71169 5.46671 2.82422 5.57923C2.93674 5.69175 2.99995 5.84436 2.99995 6.00349ZM4.79995 9.60349V9.00349H7.19995V9.60349C7.19995 9.92175 7.07352 10.227 6.84848 10.452C6.62344 10.6771 6.31821 10.8035 5.99995 10.8035C5.68169 10.8035 5.37647 10.6771 5.15142 10.452C4.92638 10.227 4.79995 9.92175 4.79995 9.60349ZM7.19995 8.40349C7.20895 8.19949 7.32475 8.01589 7.48615 7.88809C7.87776 7.57925 8.16342 7.15607 8.30344 6.67739C8.44345 6.1987 8.43086 5.68829 8.26741 5.21709C8.10396 4.74589 7.79777 4.33732 7.39141 4.04816C6.98505 3.759 6.49869 3.60363 5.99995 3.60363C5.50121 3.60363 5.01486 3.759 4.60849 4.04816C4.20213 4.33732 3.89594 4.74589 3.7325 5.21709C3.56905 5.68829 3.55645 6.1987 3.69647 6.67739C3.83648 7.15607 4.12214 7.57925 4.51375 7.88809C4.67575 8.01589 4.79095 8.19949 4.79935 8.40349H7.20055H7.19995Z" fill="white"/>
</svg>
