<svg width="19" height="20" viewBox="0 0 19 20" fill="none" xmlns="http://www.w3.org/2000/svg">
<path d="M6.35998 14.1201H4.63198C3.99575 14.1201 3.47998 13.6043 3.47998 12.9681V6.6321C3.47998 5.99587 3.99575 5.4801 4.63198 5.4801H6.35998" stroke="#94A1AD"/>
<rect x="6.35986" y="4.04016" width="8.64" height="11.52" rx="1.152" stroke="#94A1AD"/>
<path d="M10.6238 12.2852C10.5831 12.2852 10.5424 12.2852 10.5424 12.2444C10.5017 12.2037 10.5017 12.2037 10.5017 12.163V11.7559C10.2167 11.7152 10.0132 11.6745 9.80966 11.5524C9.60612 11.4303 9.484 11.3082 9.40258 11.186C9.32116 11.0639 9.23975 10.9011 9.23975 10.7382C9.23975 10.6975 9.23975 10.6975 9.28045 10.6568C9.32116 10.6161 9.32116 10.6161 9.36187 10.6161H9.80966C9.85037 10.6161 9.89108 10.6161 9.93179 10.6568C9.9725 10.6568 9.9725 10.6975 9.9725 10.7382C10.0132 10.8197 10.0539 10.8604 10.0946 10.9418C10.1353 11.0232 10.2575 11.0639 10.3389 11.1046C10.4203 11.1453 10.5831 11.186 10.746 11.186C11.0309 11.186 11.1937 11.1453 11.3566 11.0639C11.4787 10.9825 11.5601 10.8604 11.5601 10.6975C11.5601 10.5754 11.5194 10.494 11.438 10.4533C11.3566 10.3719 11.2752 10.3312 11.1123 10.2904C10.9495 10.2497 10.7867 10.1683 10.5424 10.1276C10.2575 10.0462 10.0539 9.96478 9.85037 9.88336C9.64683 9.80194 9.5247 9.67982 9.44329 9.51698C9.36187 9.35415 9.32116 9.19132 9.32116 8.98777C9.32116 8.70282 9.44329 8.45857 9.64683 8.25502C9.85037 8.05148 10.1353 7.92936 10.5017 7.88865V7.52227C10.5017 7.48156 10.5017 7.44086 10.5424 7.44086C10.5831 7.40015 10.5831 7.40015 10.6238 7.40015H10.9495C10.9902 7.40015 11.0309 7.40015 11.0309 7.44086C11.0716 7.48156 11.0716 7.48156 11.0716 7.52227V7.92936C11.3159 7.97007 11.5194 8.05148 11.6823 8.1329C11.8451 8.21432 11.9672 8.37715 12.0893 8.49927C12.1708 8.6214 12.2115 8.78423 12.2115 8.90636C12.2115 8.94707 12.2115 8.94707 12.1708 8.98777C12.1708 9.02848 12.13 9.02848 12.0893 9.02848H11.5601C11.5194 9.02848 11.4787 9.02848 11.4787 8.98777C11.438 8.98777 11.438 8.94707 11.3973 8.90636C11.3973 8.78423 11.3159 8.70282 11.1937 8.6214C11.0716 8.53998 10.9088 8.49927 10.7052 8.49927C10.5017 8.49927 10.3389 8.53998 10.2167 8.6214C10.0946 8.70282 10.0539 8.82494 10.0539 8.94707C10.0539 9.06919 10.0946 9.15061 10.1353 9.19132C10.176 9.23203 10.2982 9.31344 10.4203 9.35415C10.5424 9.39486 10.746 9.47628 10.9495 9.51698C11.2752 9.5984 11.5194 9.67982 11.723 9.76123C11.9265 9.84265 12.0486 9.96478 12.1708 10.1276C12.2522 10.2497 12.2929 10.4533 12.2929 10.6568C12.2929 10.8604 12.2522 11.0639 12.13 11.2267C12.0079 11.3896 11.8858 11.5117 11.6823 11.6338C11.4787 11.7152 11.2752 11.7967 10.9902 11.8374V12.2037C10.9902 12.2444 10.9902 12.2852 10.9495 12.2852C10.9088 12.3259 10.9088 12.3259 10.8681 12.3259H10.6238V12.2852Z" fill="#94A1AD" stroke="#94A1AD" stroke-width="0.2" stroke-miterlimit="10"/>
</svg>
