<svg width="24" height="24" viewBox="0 0 24 24" fill="none" xmlns="http://www.w3.org/2000/svg">
<g clip-path="url(#clip0_14938_103144)">
<path d="M11.9999 23.9999C18.6274 23.9999 23.9999 18.6274 23.9999 11.9999C23.9999 5.37252 18.6274 -6.10352e-05 11.9999 -6.10352e-05C5.37252 -6.10352e-05 -6.10352e-05 5.37252 -6.10352e-05 11.9999C-6.10352e-05 18.6274 5.37252 23.9999 11.9999 23.9999Z" fill="#F0F0F0"/>
<path d="M12 -6.10352e-05C7.24242 -6.10352e-05 3.13167 2.76861 1.19067 6.78256H22.8092C20.8682 2.76861 16.7574 -6.10352e-05 12 -6.10352e-05Z" fill="#222222"/>
<path d="M12 24C7.24242 24 3.13167 21.2313 1.19067 17.2173H22.8092C20.8682 21.2313 16.7574 24 12 24Z" fill="#496E2D"/>
<path d="M23.4333 8.34772H0.566672C0.199078 9.49939 0 10.7263 0 11.9999C0 13.2734 0.199078 14.5004 0.566672 15.6521H23.4333C23.8009 14.5004 24 13.2734 24 11.9999C24 10.7263 23.8009 9.49939 23.4333 8.34772Z" fill="#A2001D"/>
<path d="M15.7366 5.54533L14.3155 4.8894L11.9999 10.1324L9.68441 4.8894L8.26331 5.54533L11.1381 12L8.26331 18.4546L9.68441 19.1105L11.9999 13.8675L14.3155 19.1105L15.7366 18.4546L12.8618 12L15.7366 5.54533Z" fill="#F0F0F0"/>
<path d="M12.9651 6.16352C12.415 5.56272 11.9999 5.21735 11.9999 5.21735C11.9999 5.21735 11.5849 5.56267 11.0347 6.16352V17.8363C11.5849 18.4372 11.9999 18.7826 11.9999 18.7826C11.9999 18.7826 12.415 18.4373 12.9651 17.8364V6.16352Z" fill="#F0F0F0"/>
<path d="M9.3913 8.4019V15.5978C9.97264 16.6279 10.6842 17.4722 11.2174 18.0319V5.96777C10.6842 6.52751 9.97259 7.37187 9.3913 8.4019Z" fill="#A2001D"/>
<path d="M14.6087 8.4019C14.0273 7.37182 13.3158 6.52751 12.7826 5.96777V18.0319C13.3158 17.4722 14.0273 16.6279 14.6087 15.5978V8.4019Z" fill="#A2001D"/>
<path d="M14.6086 8.40198V15.5979C15.1972 14.5549 15.6521 13.3217 15.6521 12C15.6521 10.6782 15.1972 9.44495 14.6086 8.40198Z" fill="#222222"/>
<path d="M9.39126 8.40198V15.5979C8.80275 14.5549 8.34778 13.3217 8.34778 12C8.34778 10.6782 8.80275 9.44495 9.39126 8.40198Z" fill="#222222"/>
</g>
<defs>
<clipPath id="clip0_14938_103144">
<rect width="24" height="24" fill="white"/>
</clipPath>
</defs>
</svg>
