<svg width="107" height="107" viewBox="0 0 107 107" fill="none" xmlns="http://www.w3.org/2000/svg">
<path d="M0 53.5C0 23.9528 23.9528 0 53.5 0C83.0472 0 107 23.9528 107 53.5C107 83.0472 83.0472 107 53.5 107C23.9528 107 0 83.0472 0 53.5Z" fill="#E6F5F6"/>
<path d="M33.7512 69H67.2712C71.403 69 73.5006 66.8839 73.5006 62.821V40.2001C73.5006 36.1161 71.403 34 67.2712 34H33.7512C29.5983 34 27.5006 36.0949 27.5006 40.2001V62.821C27.5006 66.9051 29.5983 69 33.7512 69ZM30.128 40.3271C30.128 37.8936 31.4205 36.6239 33.7936 36.6239H67.2077C69.5384 36.6239 70.8944 37.8936 70.8944 40.3271V42.02H30.128V40.3271ZM33.7936 66.3761C31.4205 66.3761 30.128 65.1276 30.128 62.6729V45.9474H70.8944V62.6729C70.8944 65.1276 69.5384 66.3761 67.2077 66.3761H33.7936ZM36.3574 58.3561H41.5485C42.7986 58.3561 43.6462 57.5097 43.6462 56.3247V53.743C43.6462 52.558 42.7986 51.7328 41.5485 51.7328H36.3574C35.1284 51.7328 34.2809 52.558 34.2809 53.743V56.3247C34.2809 57.5097 35.1284 58.3561 36.3574 58.3561Z" fill="#0898A0"/>
<ellipse cx="69.5006" cy="62.5" rx="14" ry="13.5" fill="#E6F5F6"/>
<path d="M67.4324 62.9811L70.324 62.9884C69.8237 62.3262 69.4999 61.5021 69.4999 60.8252C69.4999 58.662 70.9862 57.1757 73.1273 57.1683L77.9761 57.1756C80.1246 57.1756 81.6036 58.6692 81.6036 60.8177C81.611 62.9736 80.1173 64.4672 77.9835 64.4672L76.6003 64.4673C76.2103 65.4606 75.4377 66.5275 74.3856 67.0646L78.0939 67.0793C81.7434 67.1087 84.3407 64.4819 84.3333 60.825C84.3333 57.1461 81.736 54.5635 78.0938 54.5562L73.0169 54.5563C69.3674 54.5563 66.7701 57.1536 66.7701 60.8179C66.7701 61.4506 66.9982 62.2968 67.4324 62.9811ZM75.6143 58.6398L72.7226 58.6325C73.223 59.2947 73.5467 60.1188 73.5467 60.7957C73.5467 62.9589 72.0531 64.4526 69.9193 64.4526L65.0705 64.4453C62.922 64.4453 61.4431 62.9517 61.4357 60.8105C61.4357 58.6473 62.9293 57.1537 65.0631 57.1537L66.439 57.161C66.8363 56.1603 67.6089 55.0934 68.661 54.5563L64.9527 54.5416C61.3032 54.5122 58.7059 57.139 58.7059 60.8032C58.7133 64.4748 61.3033 67.0647 64.9528 67.0647L70.0297 67.0646C73.6792 67.0646 76.2765 64.4673 76.2765 60.803C76.2765 60.1703 76.041 59.3315 75.6143 58.6398Z" fill="#0898A0"/>
</svg>
