<svg width="42" height="42" viewBox="0 0 42 42" fill="none" xmlns="http://www.w3.org/2000/svg">
<rect width="42" height="42" rx="21" fill="#71879C" fill-opacity="0.1"/>
<path d="M13.8472 16.7626H15.2477C15.7231 16.7626 16.1035 16.362 16.1035 15.8813C16.1035 15.3917 15.7231 15 15.2477 15H13.8472C13.3804 15 13 15.3917 13 15.8813C13 16.362 13.3804 16.7626 13.8472 16.7626ZM18.5759 16.6024H28.9152C29.3128 16.6024 29.6154 16.2908 29.6154 15.8813C29.6154 15.4718 29.3128 15.1602 28.9152 15.1602H18.5759C18.1783 15.1602 17.867 15.4718 17.867 15.8813C17.867 16.2819 18.1783 16.6024 18.5759 16.6024ZM13.8472 21.8813H15.2477C15.7231 21.8813 16.1035 21.4807 16.1035 21C16.1035 20.5104 15.7231 20.1187 15.2477 20.1187H13.8472C13.3804 20.1187 13 20.5104 13 21C13 21.4807 13.3804 21.8813 13.8472 21.8813ZM18.5759 21.7211H28.9152C29.3128 21.7211 29.6154 21.4095 29.6154 21C29.6154 20.5994 29.3128 20.2789 28.9152 20.2789H18.5759C18.1783 20.2789 17.867 20.5905 17.867 21C17.867 21.4095 18.1783 21.7211 18.5759 21.7211ZM13.8472 27H15.2477C15.7231 27 16.1035 26.5994 16.1035 26.1187C16.1035 25.6291 15.7231 25.2463 15.2477 25.2463H13.8472C13.3804 25.2463 13 25.6291 13 26.1187C13 26.5994 13.3804 27 13.8472 27ZM18.5759 26.8398H28.9152C29.3128 26.8398 29.6154 26.5282 29.6154 26.1187C29.6154 25.7181 29.3128 25.3976 28.9152 25.3976H18.5759C18.1783 25.3976 17.867 25.7181 17.867 26.1187C17.867 26.5282 18.1783 26.8398 18.5759 26.8398Z" fill="#0898A0"/>
</svg>
