<svg color="#94A1AD" width="10" height="14" viewBox="0 0 10 14" fill="none" xmlns="http://www.w3.org/2000/svg">
<path fill-rule="evenodd" clip-rule="evenodd" d="M1.5 3.75C1.5 1.817 3.067 0.25 5 0.25C6.933 0.25 8.5 1.817 8.5 3.75V9.75C8.5 11.683 6.933 13.25 5 13.25C3.067 13.25 1.5 11.683 1.5 9.75V3.75ZM5 1.25C3.61929 1.25 2.5 2.36929 2.5 3.75V9.75C2.5 11.1307 3.61929 12.25 5 12.25C6.38071 12.25 7.5 11.1307 7.5 9.75V3.75C7.5 2.36929 6.38071 1.25 5 1.25Z" fill="currentColor"/>
<path fill-rule="evenodd" clip-rule="evenodd" d="M1 5.75C0.447715 5.75 0 6.19772 0 6.75V12.75C0 13.3023 0.447715 13.75 1 13.75H9C9.55229 13.75 10 13.3023 10 12.75V6.75C10 6.19772 9.55228 5.75 9 5.75H1ZM5 7.75C4.44772 7.75 4 8.19772 4 8.75V9.75C4 10.3023 4.44772 10.75 5 10.75C5.55228 10.75 6 10.3023 6 9.75V8.75C6 8.19772 5.55228 7.75 5 7.75Z" fill="currentColor"/>
</svg>
