<svg width="24" height="24" viewBox="0 0 24 24" fill="none" xmlns="http://www.w3.org/2000/svg">
  <path
    d="M7.73086 20.1H16.2691C16.8643 20.1 17.3289 19.9526 17.6427 19.6156C17.955 19.2802 18.1 18.7758 18.1 18.102V11.8048C18.1 11.1499 17.9642 10.6561 17.6704 10.3211C17.3918 10.0035 16.9857 9.84473 16.4673 9.8115V8.87005C16.4673 7.36339 16.0012 6.1204 15.2064 5.25296C14.4112 4.38498 13.2931 3.9 12.0045 3.9C10.7114 3.9 9.59326 4.38493 8.79908 5.25302C8.00545 6.12051 7.54164 7.36352 7.54164 8.87005V9.81145C7.01906 9.84456 6.6107 10.0032 6.3309 10.3209C6.03584 10.656 5.9 11.1499 5.9 11.8048V18.102C5.9 18.7758 6.04496 19.2802 6.3573 19.6156C6.67108 19.9526 7.13574 20.1 7.73086 20.1ZM8.40186 8.85154C8.40186 7.61235 8.77704 6.5865 9.41158 5.87183C10.0453 5.15806 10.9433 4.74811 12.0045 4.74811C13.0565 4.74811 13.9523 5.15791 14.5862 5.87183C15.2208 6.5866 15.5981 7.6125 15.5981 8.85154V9.80674H8.40186V8.85154ZM7.71301 19.2519C7.3608 19.2519 7.13309 19.1835 6.98892 19.0281C6.84255 18.8703 6.76022 18.5996 6.76022 18.139V11.7677C6.76022 11.3071 6.84255 11.0364 6.98892 10.8786C7.13309 10.7232 7.3608 10.6548 7.71301 10.6548H16.2959C16.6434 10.6548 16.8688 10.7231 17.012 10.8784C17.1575 11.0362 17.2398 11.3071 17.2398 11.7677V18.139C17.2398 18.5996 17.1575 18.8705 17.012 19.0283C16.8688 19.1836 16.6434 19.2519 16.2959 19.2519H7.71301Z"
    fill="#0898A0" stroke="#0898A0" stroke-width="0.2" />
</svg>