<svg width="42" height="42" viewBox="0 0 42 42" fill="none" xmlns="http://www.w3.org/2000/svg">
<path opacity="0.1" d="M0 21C0 9.40202 9.40202 0 21 0C32.598 0 42 9.40202 42 21C42 32.598 32.598 42 21 42C9.40202 42 0 32.598 0 21Z" fill="#C81C1C"/>
<path d="M20.9951 29.5005C25.6525 29.5005 29.4906 25.6534 29.4906 20.996C29.4906 16.3475 25.6436 12.5005 20.9951 12.5005C16.3376 12.5005 12.4995 16.3475 12.4995 20.996C12.4995 25.6534 16.3466 29.5005 20.9951 29.5005ZM20.9951 28.2716C16.9699 28.2716 13.7284 25.0301 13.7284 20.996C13.7284 16.9709 16.961 13.7294 20.9951 13.7294C25.0202 13.7294 28.2617 16.9709 28.2706 20.996C28.2795 25.0301 25.0291 28.2716 20.9951 28.2716ZM25.3408 20.9871C25.3408 20.8357 25.2785 20.7111 25.136 20.5686L22.1973 17.6299C22.0993 17.5319 21.9657 17.4785 21.8143 17.4785C21.5205 17.4785 21.2978 17.7011 21.2978 17.995C21.2978 18.1553 21.3602 18.2889 21.4581 18.3868L22.6781 19.5979L23.7022 20.5063L22.0637 20.4439H17.2104C16.8987 20.4439 16.6671 20.6665 16.6671 20.996C16.6671 21.3077 16.8987 21.5393 17.2104 21.5393H22.0637L23.7111 21.4769L22.6781 22.3852L21.4581 23.5874C21.3513 23.6943 21.2978 23.819 21.2978 23.9793C21.2978 24.2731 21.5205 24.5047 21.8143 24.5047C21.9657 24.5047 22.0993 24.4512 22.1973 24.3533L25.136 21.4146C25.2695 21.281 25.3408 21.1563 25.3408 20.9871Z" fill="#C81C1C"/>
</svg>
