<svg width="29" height="29" viewBox="0 0 29 29" fill="none" xmlns="http://www.w3.org/2000/svg">
<rect width="29" height="29" rx="14.5" fill="#E6F5F6"/>
<path d="M20.8389 9.19922H8.14552C7.72552 9.19922 7.49219 9.47922 7.49219 9.88366V10.2259C7.49219 10.3037 7.5233 10.3659 7.58552 10.4126L14.3366 14.7214C14.4455 14.7837 14.5855 14.7837 14.6789 14.7214L21.3989 10.3348C21.4611 10.2881 21.4922 10.2259 21.4922 10.1481V9.88366C21.4922 9.47922 21.2589 9.19922 20.8389 9.19922Z" fill="#0898A0"/>
<path d="M21.3211 11.7653L14.8033 15.9964C14.6944 16.0586 14.6322 16.0897 14.5077 16.0897C14.3989 16.0897 14.3211 16.0586 14.2277 15.9964L7.6633 11.8275C7.58552 11.7808 7.49219 11.8275 7.49219 11.9208V19.0297C7.49219 19.4497 7.72552 19.7142 8.14552 19.7142H20.8389C21.2589 19.7142 21.4922 19.4342 21.4922 19.0297V11.8586C21.4922 11.7653 21.3989 11.7031 21.3211 11.7653Z" fill="#0898A0"/>
</svg>
