<svg width="76" height="76" viewBox="0 0 76 76" fill="none" xmlns="http://www.w3.org/2000/svg">
<circle cx="37.8764" cy="37.8764" r="37.6404" fill="white"/>
<circle cx="37.8764" cy="37.8764" r="36.6404" fill="white" stroke="url(#paint0_linear)" stroke-width="2"/>
<mask id="mask0" mask-type="alpha" maskUnits="userSpaceOnUse" x="0" y="0" width="76" height="76">
<circle cx="37.8764" cy="37.8764" r="37.6404" fill="white"/>
</mask>
<g mask="url(#mask0)">
<path d="M52.835 47.4082L52.568 47.8824L52.5625 47.2556L52.835 47.4082Z" fill="#012224"/>
<path d="M52.7424 75.8375V76.3826H52.1974V76.1373C52.2582 76.0896 52.3164 76.0386 52.3718 75.9847L53.2057 75.1998L53.2493 75.8648L52.7424 75.8375Z" fill="#012224"/>
<path d="M52.5624 47.256L52.5678 47.8828L52.0228 47.5776L52.0173 46.9563L52.5624 47.256Z" fill="#012224"/>
<path d="M52.0228 47.5774L52.5679 47.8826L52.3008 48.3567L52.0228 48.2041V47.5774Z" fill="#012224"/>
<path d="M38.8823 39.0422L38.757 39.5927L36.9965 38.6171L38.8823 39.0422Z" fill="#012224"/>
<path d="M36.7947 39.1241L35.1051 38.1867L36.9963 38.6172L38.7568 39.5928L38.6423 40.1051L38.5061 40.0724L36.7947 39.1241Z" fill="#012224"/>
<path d="M36.7948 39.1239L38.5062 40.0723L36.6095 39.6417L33.2084 37.7558L35.1052 38.1864L36.7948 39.1239Z" fill="#012224"/>
<path d="M37.2306 61.2464L36.4185 61.6988V60.7723H37.5086V61.0939L37.2306 61.2464Z" fill="#012224"/>
<path d="M36.6094 39.6417L30.227 38.1973L30.4668 37.1345L33.2083 37.7559L36.6094 39.6417Z" fill="#012224"/>
<path d="M34.0367 50.8802L35.0723 51.2291C33.8842 54.7173 26.439 55.3985 26.1229 55.4258L26.0248 54.3357C27.9869 54.1667 33.241 53.213 34.0367 50.8802Z" fill="#012224"/>
<path d="M33.4048 40.8027C33.6325 40.8027 33.855 40.8703 34.0443 40.9969C34.2335 41.1235 34.3809 41.3034 34.4678 41.5139C34.5547 41.7244 34.5771 41.9559 34.5323 42.1791C34.4875 42.4023 34.3774 42.6072 34.216 42.7678C34.0546 42.9285 33.8492 43.0376 33.6258 43.0813C33.4024 43.1251 33.1709 43.1015 32.9609 43.0136C32.7509 42.9258 32.5717 42.7775 32.446 42.5877C32.3202 42.3978 32.2537 42.175 32.2548 41.9473C32.2562 41.6432 32.378 41.3521 32.5936 41.1376C32.8091 40.9231 33.1007 40.8027 33.4048 40.8027Z" fill="#012224"/>
<path d="M26.7006 37.1183V49.5232H25.6105V38.2083H22.3022C22.3022 38.0521 22.3185 37.8886 22.3512 37.7178L22.4166 37.1183H26.7006Z" fill="#012224"/>
<path d="M23.7738 40.8025C24.0017 40.8014 24.2248 40.8681 24.4147 40.9941C24.6047 41.12 24.7529 41.2996 24.8406 41.5099C24.9284 41.7203 24.9516 41.952 24.9074 42.1756C24.8632 42.3992 24.7536 42.6046 24.5924 42.7657C24.4313 42.9269 24.2258 43.0365 24.0022 43.0807C23.7787 43.1249 23.547 43.1017 23.3366 43.014C23.1263 42.9263 22.9467 42.778 22.8208 42.5881C22.6948 42.3981 22.6282 42.175 22.6292 41.9471C22.6265 41.909 22.6265 41.8708 22.6292 41.8326C22.6577 41.5493 22.7907 41.2868 23.0024 41.0963C23.214 40.9059 23.489 40.8011 23.7738 40.8025Z" fill="#012224"/>
<path d="M23.1526 31.4282C23.1526 31.4554 23.1526 31.4936 23.1526 31.5372L22.6457 31.2592L22.6947 31.1665L22.9128 30.785L23.376 31.0412L23.1526 31.4282Z" fill="#012224"/>
<path d="M22.6294 31.259L23.1363 31.5369C23.1363 31.6677 23.0818 31.8585 23.0491 32.082L22.3624 31.7004L22.6294 31.259Z" fill="#012224"/>
<path d="M38.7676 17.3116C30.445 18.7505 24.5968 28.7573 23.3596 31.041L22.8963 30.7848L22.6783 31.1664C23.534 29.4931 35.8953 6.16027 52.4425 22.1788L52.5624 47.2503L52.0174 46.9505L51.8975 22.424C47.5536 18.2709 43.1333 16.554 38.7676 17.3116Z" fill="#012224"/>
<path d="M21.3158 37.1183C21.6864 33.6301 22.0897 31.1938 22.0897 31.172L22.1388 31.0194C23.3809 28.6322 24.8697 26.3816 26.5808 24.3046C30.3197 19.7427 34.4729 16.9521 38.5715 16.2381C43.3515 15.4042 48.1478 17.2737 52.8133 21.7865L52.9768 21.9446L53.2438 75.8648H53.2057L53.1621 75.1999L52.3282 75.9847C52.2728 76.0386 52.2146 76.0896 52.1538 76.1373L52.0339 52.4556C50.3988 53.5729 46.262 56.2054 37.4978 61.0889V60.7674H36.4078L36.2715 60.5221L36.6857 60.2932C47.0413 54.5158 51.0474 51.8233 52.0284 51.1311V48.1989L52.3064 48.3515L52.5734 47.8773L52.8405 47.4031L52.568 47.2505L52.4481 22.179C35.9009 6.16042 23.5613 29.4933 22.6838 31.1666L22.6348 31.2592L22.3677 31.7334L23.0545 32.1149C22.9073 33.0742 22.6566 34.8674 22.4222 37.1183H21.3158Z" fill="#012224"/>
<path d="M21.2668 37.5867C21.2668 37.4231 21.2995 37.2542 21.3158 37.0961H22.4059L22.3405 37.6957C22.3405 37.8664 22.3241 38.03 22.2914 38.1862H21.2014C21.2286 38.0118 21.245 37.8101 21.2668 37.5867Z" fill="#012224"/>
<path d="M22.0023 41.7837C21.1848 53.6763 22.5473 61.4049 25.8175 63.4923C27.36 64.4843 29.4202 64.2881 31.9437 62.9092C33.4952 62.0625 34.9377 61.2686 36.2712 60.5274L36.4075 60.7726V61.6992C35.183 62.3823 33.8694 63.109 32.4669 63.8793C29.5673 65.4599 27.1311 65.6452 25.2289 64.4243C20.5689 61.4321 20.3236 50.4279 20.9014 41.7182C20.9777 40.6282 21.0703 39.4836 21.1957 38.2191H22.2857C22.1713 39.5054 22.0732 40.6772 22.0023 41.7837Z" fill="#012224"/>
<path d="M21.3156 37.1183C21.3156 37.2763 21.2829 37.4453 21.2665 37.6088C21.2502 37.7723 21.2284 38.0121 21.2066 38.2083H19.6532V37.1183H21.3156Z" fill="#012224"/>
<path d="M36.4805 60.9047H37.9339V76.8924H36.4805V60.9047Z" fill="#012224"/>
<path d="M51.8701 22.1715L51.9595 40.7365C51.9595 40.7365 46.8453 37.8775 44.5409 36.22C42.2364 34.5625 44.5409 26.0102 44.5409 26.0102H26.2255C30.8436 19.7469 40.3017 10.979 51.8701 22.1715Z" fill="#012224"/>
</g>
<defs>
<linearGradient id="paint0_linear" x1="37.8764" y1="0.235962" x2="37.8764" y2="75.5169" gradientUnits="userSpaceOnUse">
<stop stop-color="#0898A0"/>
<stop offset="1" stop-color="#22D8E2"/>
</linearGradient>
</defs>
</svg>
