<svg width="37" height="23" viewBox="0 0 37 23" fill="none" xmlns="http://www.w3.org/2000/svg">
<rect x="12.8096" y="2.43311" width="10.718" height="17.5099" fill="#E5E9EA"/>
<path d="M13.9645 11.1879C13.9468 7.77987 15.4947 4.55242 18.1635 2.43292C13.5974 -1.15798 7.03818 -0.636539 3.09672 3.63069C-0.84474 7.89792 -0.84474 14.4778 3.09672 18.745C7.03818 23.0122 13.5974 23.5337 18.1635 19.9428C15.4947 17.8233 13.9468 14.5958 13.9645 11.1879Z" fill="#71879C"/>
<path d="M36.1759 11.1879C36.1731 15.4492 33.7392 19.3355 29.9066 21.1982C26.074 23.0609 21.5145 22.5735 18.1621 19.9429C22.991 16.1406 23.8273 9.14542 20.0307 4.31205C19.4864 3.61214 18.859 2.98115 18.1621 2.43299C21.5145 -0.197697 26.074 -0.685046 29.9066 1.17767C33.7392 3.04038 36.1731 6.92662 36.1759 11.1879V11.1879Z" fill="white"/>
</svg>
