<svg width="42" height="42" viewBox="0 0 42 42" fill="none" xmlns="http://www.w3.org/2000/svg">
<circle cx="21" cy="21" r="21" fill="black"/>
<path fill-rule="evenodd" clip-rule="evenodd" d="M33.4995 20.9464C33.4995 25.2245 30.038 28.6926 25.7679 28.6926C21.4979 28.6926 18.0364 25.2245 18.0364 20.9464C18.0364 16.6683 21.4979 13.2002 25.7679 13.2002C30.038 13.2002 33.4995 16.6683 33.4995 20.9464Z" fill="#F79F1A"/>
<path fill-rule="evenodd" clip-rule="evenodd" d="M23.9626 20.9469C23.9626 25.225 20.5011 28.6931 16.2311 28.6931C11.961 28.6931 8.49951 25.225 8.49951 20.9469C8.49951 16.6688 11.961 13.2007 16.2311 13.2007C20.5011 13.2007 23.9626 16.6688 23.9626 20.9469Z" fill="#EA001B"/>
<path fill-rule="evenodd" clip-rule="evenodd" d="M21.0005 14.8486C19.1966 16.2667 18.0386 18.4703 18.0386 20.9458C18.0386 23.4212 19.1966 25.6265 21.0005 27.0446C22.8045 25.6265 23.9625 23.4212 23.9625 20.9458C23.9625 18.4703 22.8045 16.2667 21.0005 14.8486Z" fill="#FF5F01"/>
</svg>
