<svg width="36" height="26" viewBox="0 0 36 26" fill="none" xmlns="http://www.w3.org/2000/svg">
<g clip-path="url(#clip0_31810_35918)">
<rect x="12.8096" y="3.43311" width="10.718" height="17.5099" fill="#F26122"/>
<path d="M13.9645 12.1879C13.9468 8.77987 15.4947 5.55242 18.1635 3.43292C13.5974 -0.157977 7.03818 0.363461 3.09672 4.63069C-0.84474 8.89792 -0.84474 15.4778 3.09672 19.745C7.03818 24.0122 13.5974 24.5337 18.1635 20.9428C15.4947 18.8233 13.9468 15.5958 13.9645 12.1879Z" fill="#EA1D25"/>
<path d="M36.1759 12.1879C36.1731 16.4492 33.7392 20.3355 29.9066 22.1982C26.074 24.0609 21.5145 23.5735 18.1621 20.9429C22.991 17.1406 23.8273 10.1454 20.0307 5.31205C19.4864 4.61214 18.859 3.98115 18.1621 3.43299C21.5145 0.802303 26.074 0.314954 29.9066 2.17767C33.7392 4.04038 36.1731 7.92662 36.1759 12.1879Z" fill="#F69E1E"/>
</g>
<defs>
<clipPath id="clip0_31810_35918">
<rect width="35.6916" height="25.1941" fill="white" transform="translate(0.140625)"/>
</clipPath>
</defs>
</svg>
