<svg width="16" height="16" viewBox="0 0 16 16" fill="none" xmlns="http://www.w3.org/2000/svg">
<rect width="16" height="16" rx="2" fill="#0898A0"/>
<path d="M9.55625 9.47764L8.12375 8.89639C7.67878 8.71873 7.20413 8.62711 6.725 8.62639H5.945C5.55124 8.62371 5.16923 8.49198 4.8575 8.25139C4.64662 8.07667 4.47656 7.85788 4.3593 7.6104C4.24204 7.36291 4.18041 7.09274 4.17875 6.81889V6.81889C4.17692 6.54283 4.23693 6.26987 4.35438 6.02003C4.47184 5.7702 4.64375 5.54984 4.8575 5.37514C5.17064 5.13452 5.55385 5.00283 5.94875 5.00014H6.725C7.20437 4.99814 7.679 4.90525 8.12375 4.72639L9.55625 4.13764C9.64097 4.10769 9.73163 4.09847 9.82064 4.11075C9.90965 4.12303 9.99443 4.15646 10.0679 4.20823C10.1413 4.26001 10.2013 4.32862 10.2427 4.40834C10.2842 4.48805 10.306 4.57653 10.3063 4.66639V8.94889C10.306 9.03875 10.2842 9.12723 10.2427 9.20694C10.2013 9.28666 10.1413 9.35527 10.0679 9.40705C9.99443 9.45882 9.90965 9.49225 9.82064 9.50453C9.73163 9.51681 9.64097 9.50759 9.55625 9.47764Z" stroke="white" stroke-width="0.6" stroke-miterlimit="10"/>
<path d="M4.54248 7.91047L5.79123 11.3342C5.85142 11.4995 5.96114 11.6423 6.10543 11.7429C6.24972 11.8436 6.42155 11.8973 6.59748 11.8967V11.8967C6.82424 11.8967 7.04171 11.8066 7.20206 11.6463C7.3624 11.486 7.45248 11.2685 7.45248 11.0417V4.91797" stroke="white" stroke-width="0.6" stroke-miterlimit="10"/>
<path d="M10.3137 8.2475C10.5635 8.28144 10.8176 8.24039 11.044 8.12955C11.2704 8.01871 11.4586 7.84309 11.585 7.625C11.7247 7.40416 11.8028 7.15001 11.8113 6.88884C11.8198 6.62767 11.7583 6.36897 11.6333 6.13953C11.5082 5.91008 11.3241 5.71822 11.1 5.58381C10.876 5.44939 10.62 5.3773 10.3587 5.375H10.3137" stroke="white" stroke-width="0.6" stroke-miterlimit="10"/>
</svg>
