<svg xmlns="http://www.w3.org/2000/svg" width="499.712" height="499.696" viewBox="0 0 499.712 499.696">
  <g id="moon" transform="translate(0 -0.008)">
    <path id="Path_1" data-name="Path 1" d="M146.88,375.528c126.272,0,228.624-102.368,228.624-228.64A227.65,227.65,0,0,0,321.984.008C425.056,33.1,499.7,129.64,499.7,243.7c0,141.392-114.608,256-256,256C129.632,499.7,33.088,425.064,0,321.992A227.609,227.609,0,0,0,146.88,375.528Z" fill="#425770"/>
    <path id="Path_2" data-name="Path 2" d="M401.92,42.776a254.463,254.463,0,0,1,54.816,157.952c0,141.392-114.608,256-256,256A254.463,254.463,0,0,1,42.784,401.912C89.632,461.384,162.128,499.7,243.712,499.7c141.392,0,256-114.608,256-256C499.712,162.12,461.392,89.64,401.92,42.776Z" fill="#62778e"/>
    <g id="Group_1" data-name="Group 1" opacity="0.416">
      <path id="Path_3" data-name="Path 3" d="M128.128,99.944,154.5,153.4l58.976,8.56L170.8,203.56,180.864,262.3l-52.736-27.728L75.376,262.3,85.44,203.56l-42.672-41.6,58.976-8.56Z" fill="#ffd83b"/>
      <path id="Path_4" data-name="Path 4" d="M276.864,82.84l13.664,27.712,30.576,4.432-22.128,21.568,5.232,30.432-27.344-14.368L249.52,166.984l5.232-30.432-22.128-21.568,30.576-4.432Z" fill="#ffd83b"/>
    </g>
  </g>
</svg>
