<svg width="35" height="60" viewBox="0 0 35 60" fill="none" xmlns="http://www.w3.org/2000/svg">
<path d="M33.5987 31.8702L33.3316 32.3444L33.3262 31.7175L33.5987 31.8702Z" fill="#012224"/>
<path d="M33.5065 60.2994V60.8445H32.9614V60.5992C33.0222 60.5515 33.0805 60.5005 33.1358 60.4466L33.9697 59.6617L34.0133 60.3267L33.5065 60.2994Z" fill="#012224"/>
<path d="M33.3263 31.7179L33.3317 32.3447L32.7867 32.0395L32.7812 31.4182L33.3263 31.7179Z" fill="#012224"/>
<path d="M32.7866 32.0392L33.3317 32.3445L33.0646 32.8186L32.7866 32.666V32.0392Z" fill="#012224"/>
<path d="M19.6461 23.5041L19.5207 24.0546L17.7603 23.079L19.6461 23.5041Z" fill="#012224"/>
<path d="M17.5587 23.586L15.8691 22.6486L17.7604 23.0791L19.5208 24.0547L19.4064 24.567L19.2701 24.5343L17.5587 23.586Z" fill="#012224"/>
<path d="M17.5585 23.5858L19.2699 24.5342L17.3732 24.1036L13.9722 22.2177L15.8689 22.6483L17.5585 23.5858Z" fill="#012224"/>
<path d="M17.9947 45.7083L17.1826 46.1607V45.2341H18.2727V45.5557L17.9947 45.7083Z" fill="#012224"/>
<path d="M17.3731 24.1036L10.9907 22.6592L11.2305 21.5964L13.972 22.2178L17.3731 24.1036Z" fill="#012224"/>
<path d="M14.8005 35.3422L15.8361 35.691C14.6479 39.1792 7.20279 39.8604 6.88668 39.8877L6.78857 38.7976C8.75069 38.6287 14.0048 37.6749 14.8005 35.3422Z" fill="#012224"/>
<path d="M14.1686 25.2646C14.3963 25.2646 14.6188 25.3322 14.8081 25.4588C14.9973 25.5854 15.1447 25.7653 15.2316 25.9758C15.3185 26.1862 15.3409 26.4177 15.2961 26.641C15.2513 26.8642 15.1412 27.0691 14.9798 27.2297C14.8184 27.3903 14.613 27.4994 14.3896 27.5432C14.1661 27.5869 13.9347 27.5634 13.7247 27.4755C13.5147 27.3877 13.3355 27.2394 13.2097 27.0496C13.084 26.8597 13.0175 26.6368 13.0186 26.4092C13.02 26.1051 13.1418 25.814 13.3573 25.5995C13.5729 25.385 13.8645 25.2646 14.1686 25.2646Z" fill="#012224"/>
<path d="M7.46431 21.5802V33.9851H6.37424V22.6703H3.06592C3.06592 22.514 3.08225 22.3505 3.11495 22.1797L3.18035 21.5802H7.46431Z" fill="#012224"/>
<path d="M4.53769 25.2644C4.7656 25.2633 4.98871 25.33 5.17866 25.456C5.36861 25.5819 5.51685 25.7615 5.60456 25.9718C5.69228 26.1822 5.71553 26.4139 5.67133 26.6375C5.62713 26.861 5.51749 27.0665 5.35633 27.2276C5.19517 27.3888 4.98975 27.4984 4.76616 27.5426C4.54258 27.5868 4.3109 27.5636 4.10054 27.4759C3.89019 27.3882 3.71064 27.2399 3.58469 27.05C3.45874 26.86 3.39207 26.6369 3.39315 26.409C3.39044 26.3709 3.39044 26.3327 3.39315 26.2945C3.42162 26.0112 3.55465 25.7487 3.76629 25.5582C3.97793 25.3677 4.25296 25.263 4.53769 25.2644Z" fill="#012224"/>
<path d="M3.91656 15.8901C3.91656 15.9174 3.91656 15.9555 3.91656 15.9991L3.40967 15.7211L3.4587 15.6285L3.67674 15.2469L4.14002 15.5031L3.91656 15.8901Z" fill="#012224"/>
<path d="M3.39353 15.7208L3.90041 15.9988C3.90041 16.1296 3.84592 16.3204 3.81322 16.5438L3.12646 16.1623L3.39353 15.7208Z" fill="#012224"/>
<path d="M19.5317 1.77355C11.2091 3.21244 5.3609 13.2192 4.12367 15.5029L3.66038 15.2468L3.44238 15.6283C4.29808 13.955 16.6594 -9.3778 33.2066 6.64071L33.3265 31.7122L32.7815 31.4124L32.6616 6.88596C28.3177 2.73281 23.8974 1.01596 19.5317 1.77355Z" fill="#012224"/>
<path d="M2.07959 21.5802C2.45021 18.092 2.85353 15.6557 2.85353 15.6339L2.90256 15.4813C4.14471 13.0941 5.63352 10.8435 7.3446 8.76649C11.0835 4.20456 15.2367 1.41397 19.3353 0.69998C24.1153 -0.133922 28.9116 1.73556 33.5771 6.24844L33.7406 6.40649L34.0076 60.3267H33.9695L33.9259 59.6618L33.092 60.4466C33.0366 60.5005 32.9784 60.5515 32.9176 60.5992L32.7977 36.9175C31.1626 38.0348 27.0258 40.6673 18.2616 45.5508V45.2293H17.1716L17.0353 44.984L17.4495 44.7551C27.8051 38.9777 31.8111 36.2852 32.7922 35.593V32.6608L33.0702 32.8134L33.3372 32.3392L33.6043 31.865L33.3318 31.7124L33.2119 6.64086C16.6647 -9.37768 4.3251 13.9552 3.4476 15.6285L3.39856 15.7211L3.1315 16.1953L3.81825 16.5768C3.67109 17.5361 3.42035 19.3293 3.18599 21.5802H2.07959Z" fill="#012224"/>
<path d="M2.03073 22.0486C2.03073 21.8851 2.06345 21.7161 2.0798 21.558H3.16988L3.10444 22.1576C3.10444 22.3284 3.08811 22.4919 3.05541 22.6481H1.96533C1.99258 22.4737 2.00893 22.272 2.03073 22.0486Z" fill="#012224"/>
<path d="M2.76622 26.2456C1.94867 38.1382 3.31125 45.8668 6.58144 47.9542C8.12387 48.9462 10.1841 48.75 12.7076 47.3711C14.2591 46.5244 15.7016 45.7305 17.0352 44.9893L17.1714 45.2345V46.1611C15.9469 46.8442 14.6334 47.5709 13.2308 48.3412C10.3313 49.9218 7.89498 50.1071 5.99283 48.8862C1.33281 45.894 1.08755 34.8898 1.66528 26.1801C1.74159 25.0901 1.83423 23.9455 1.95959 22.681H3.04965C2.93519 23.9673 2.83707 25.1391 2.76622 26.2456Z" fill="#012224"/>
<path d="M2.07937 21.5802C2.07937 21.7383 2.04665 21.9072 2.0303 22.0707C2.01395 22.2342 1.99216 22.474 1.97036 22.6702H0.416992V21.5802H2.07937Z" fill="#012224"/>
<path d="M17.2441 45.3666H18.6976V61.3543H17.2441V45.3666Z" fill="#012224"/>
<path d="M32.6339 6.63343L32.7233 25.1984C32.7233 25.1984 27.6091 22.3394 25.3047 20.6819C23.0002 19.0244 25.3047 10.4721 25.3047 10.4721H6.98926C11.6074 4.20882 21.0655 -4.55915 32.6339 6.63343Z" fill="#012224"/>
</svg>
