<svg width="42" height="43" viewBox="0 0 42 43" fill="none" xmlns="http://www.w3.org/2000/svg">
<rect y="0.592773" width="42" height="42" rx="21" fill="#71879C" fill-opacity="0.1"/>
<path d="M12.125 19.7153L20.9971 14.4746L29.8693 19.7153C29.9563 19.7669 30.0522 19.7913 30.1468 19.7913C30.3338 19.7913 30.5161 19.6954 30.6182 19.5228C30.7719 19.2628 30.6856 18.9275 30.4253 18.7738L21.2753 13.3688C21.1037 13.2677 20.8909 13.2677 20.7193 13.3688L11.569 18.7738C11.309 18.9275 11.2227 19.2628 11.3761 19.5228C11.5298 19.7827 11.8651 19.869 12.125 19.7153Z" fill="#0898A0"/>
<path d="M30.1473 29.1992H11.8467C11.5448 29.1992 11.2999 29.444 11.2999 29.7459C11.2999 30.0479 11.5448 30.2927 11.8467 30.2927H30.1473C30.4492 30.2927 30.694 30.0479 30.694 29.7459C30.694 29.4437 30.4492 29.1992 30.1473 29.1992Z" fill="#0898A0"/>
<path d="M16.7978 20.5563C17.0997 20.5563 17.3445 20.3115 17.3445 20.0096C17.3445 19.7077 17.0997 19.4629 16.7978 19.4629H14.9664C14.6645 19.4629 14.4197 19.7077 14.4197 20.0096C14.4197 20.3115 14.6645 20.5563 14.9664 20.5563H15.3354V27.148H14.9664C14.6645 27.148 14.4197 27.3929 14.4197 27.6948C14.4197 27.9967 14.6645 28.2415 14.9664 28.2415H16.7978C17.0997 28.2415 17.3445 27.9967 17.3445 27.6948C17.3445 27.3929 17.0997 27.148 16.7978 27.148H16.4288V20.5563H16.7978Z" fill="#0898A0"/>
<path d="M27.0275 20.5427C27.3294 20.5427 27.5742 20.2979 27.5742 19.9959C27.5742 19.694 27.3294 19.4492 27.0275 19.4492H25.1961C24.8942 19.4492 24.6494 19.694 24.6494 19.9959C24.6494 20.2979 24.8942 20.5427 25.1961 20.5427H25.5651V27.1344H25.1961C24.8942 27.1344 24.6494 27.3792 24.6494 27.6811C24.6494 27.983 24.8942 28.2278 25.1961 28.2278H27.0275C27.3294 28.2278 27.5742 27.983 27.5742 27.6811C27.5742 27.3792 27.3294 27.1344 27.0275 27.1344H26.6586V20.5427H27.0275Z" fill="#0898A0"/>
<path d="M23.2731 23.1428C23.3944 23.1428 23.4947 23.1885 23.574 23.28C23.658 23.3714 23.7 23.4885 23.7 23.6314C23.7 23.7743 23.658 23.8943 23.574 23.9914C23.4947 24.0828 23.3944 24.1285 23.2731 24.1285H22.9582V26.1685C22.9582 26.3171 22.9162 26.4428 22.8323 26.5457C22.753 26.6428 22.6527 26.6914 22.5314 26.6914C22.4661 26.6914 22.4008 26.68 22.3354 26.6571C22.2748 26.6285 22.2305 26.5914 22.2025 26.5457L20.5931 24.0428H19.6344V26.2114C19.6344 26.3485 19.5971 26.4628 19.5225 26.5543C19.4525 26.6457 19.3592 26.6914 19.2426 26.6914C19.1306 26.6914 19.0396 26.6457 18.9697 26.5543C18.8997 26.4628 18.8647 26.3485 18.8647 26.2114V24.1285H18.6268C18.5055 24.1285 18.4052 24.0828 18.3259 23.9914C18.2419 23.8943 18.2 23.7743 18.2 23.6314C18.2 23.4885 18.2419 23.3714 18.3259 23.28C18.4052 23.1885 18.5055 23.1428 18.6268 23.1428H18.8647V21.2143C18.8647 21.0657 18.9044 20.9428 18.9837 20.8457C19.0676 20.7428 19.1703 20.6914 19.2916 20.6914C19.3615 20.6914 19.4292 20.7085 19.4945 20.7428C19.5645 20.7771 19.6158 20.8228 19.6484 20.88L21.1529 23.2285H22.1955V21.1714C22.1955 21.0343 22.2305 20.92 22.3005 20.8285C22.3751 20.7371 22.4684 20.6914 22.5804 20.6914C22.6923 20.6914 22.7833 20.7371 22.8533 20.8285C22.9232 20.92 22.9582 21.0343 22.9582 21.1714V23.1428H23.2731ZM20.0683 23.2285L19.6344 22.5514V23.2285H20.0683ZM21.6707 24.0428L22.1955 24.8571V24.0428H21.6707Z" fill="#0898A0"/>
</svg>
