<svg width="18" height="14" viewBox="0 0 18 14" fill="none" xmlns="http://www.w3.org/2000/svg">
<path d="M2.84387 13.2974H15.2032C16.7267 13.2974 17.5001 12.5161 17.5001 11.0161V2.66455C17.5001 1.15674 16.7267 0.375488 15.2032 0.375488H2.84387C1.31262 0.375488 0.539185 1.14893 0.539185 2.66455V11.0161C0.539185 12.5239 1.31262 13.2974 2.84387 13.2974ZM1.50793 2.71143C1.50793 1.81299 1.9845 1.34424 2.8595 1.34424H15.1798C16.0392 1.34424 16.5392 1.81299 16.5392 2.71143V3.33643H1.50793V2.71143ZM2.8595 12.3286C1.9845 12.3286 1.50793 11.8677 1.50793 10.9614V4.78643H16.5392V10.9614C16.5392 11.8677 16.0392 12.3286 15.1798 12.3286H2.8595ZM3.80481 9.36767H5.71887C6.17981 9.36767 6.49231 9.05517 6.49231 8.61767V7.66455C6.49231 7.22705 6.17981 6.92236 5.71887 6.92236H3.80481C3.35168 6.92236 3.03918 7.22705 3.03918 7.66455V8.61767C3.03918 9.05517 3.35168 9.36767 3.80481 9.36767Z" fill="#0898A0"/>
</svg>
