<svg width="24" height="24" viewBox="0 0 24 24" fill="none" xmlns="http://www.w3.org/2000/svg">
<g clip-path="url(#clip0_14938_103138)">
<path d="M12.0003 24C18.6277 24 24.0003 18.6274 24.0003 12C24.0003 5.37258 18.6277 0 12.0003 0C5.37289 0 0.000305176 5.37258 0.000305176 12C0.000305176 18.6274 5.37289 24 12.0003 24Z" fill="#F0F0F0"/>
<path d="M0 12C0 17.1596 3.2565 21.5581 7.82611 23.2536V0.746399C3.2565 2.44187 0 6.84043 0 12Z" fill="#6DA544"/>
<path d="M24.0001 12C24.0001 6.84043 20.7436 2.44187 16.174 0.746399V23.2537C20.7436 21.5581 24.0001 17.1596 24.0001 12Z" fill="#6DA544"/>
</g>
<defs>
<clipPath id="clip0_14938_103138">
<rect width="24" height="24" fill="white"/>
</clipPath>
</defs>
</svg>
