<svg width="42" height="42" viewBox="0 0 42 42" fill="none" xmlns="http://www.w3.org/2000/svg">
<path d="M0 21C0 9.40202 9.40202 0 21 0C32.598 0 42 9.40202 42 21C42 32.598 32.598 42 21 42C9.40202 42 0 32.598 0 21Z" fill="#E6F5F6"/>
<path d="M21.0232 28.8305C25.4089 28.8305 29.0232 25.2078 29.0232 20.8305C29.0232 16.4447 25.4089 12.8221 21.0316 12.8221C20.6291 12.8221 20.453 13.0485 20.453 13.4258V16.5202C20.453 16.8137 20.6542 17.0569 20.9561 17.0569C21.258 17.0569 21.4593 16.8137 21.4593 16.5202V13.9961C25.0651 14.2225 27.866 17.1827 27.866 20.8305C27.866 24.6208 24.8219 27.6732 21.0232 27.6732C17.2328 27.6732 14.172 24.6208 14.1804 20.8305C14.1804 19.0946 14.8261 17.5181 15.8743 16.3189C16.0924 16.059 16.1091 15.7319 15.8827 15.4971C15.6563 15.2623 15.279 15.2791 15.0358 15.5726C13.7863 16.9814 13.0232 18.8263 13.0232 20.8305C13.0232 25.2078 16.6458 28.8305 21.0232 28.8305ZM22.2224 21.8787C22.8094 21.2581 22.6836 20.4279 21.9792 19.9332L17.8366 17.0066C17.4676 16.755 17.0987 17.124 17.3586 17.4845L20.2769 21.6271C20.78 22.3399 21.6102 22.4741 22.2224 21.8787Z" fill="#0898A0"/>
</svg>
