<svg width="42" height="42" viewBox="0 0 42 42" fill="none" xmlns="http://www.w3.org/2000/svg">
<path d="M0 21C0 9.40202 9.40202 0 21 0C32.598 0 42 9.40202 42 21C42 32.598 32.598 42 21 42C9.40202 42 0 32.598 0 21Z" fill="white"/>
<path opacity="0.1" d="M0 21C0 9.40202 9.40202 0 21 0C32.598 0 42 9.40202 42 21C42 32.598 32.598 42 21 42C9.40202 42 0 32.598 0 21Z" fill="#FF9C00"/>
<path d="M21.0056 32C27.0413 32 32 27.0438 32 21C32 14.9562 27.0413 10 21.0056 10C20.512 10 20.3661 10.2018 20.3661 10.5719V15.0571C20.3661 15.3038 20.5008 15.4944 20.77 15.4944C21.028 15.4944 21.1627 15.3038 21.1627 15.0571V10.8634C26.7384 10.9867 31.1474 15.472 31.1474 21C31.1474 26.5953 26.6038 31.1366 21.0056 31.1366C15.3962 31.1366 10.8526 26.5953 10.8526 21C10.8526 18.2752 11.9408 15.8196 13.6798 13.9918C13.8593 13.79 13.8705 13.5433 13.7022 13.3751C13.5339 13.1957 13.2647 13.2069 13.0739 13.4088C11.178 15.3935 10 18.0734 10 21C10 27.0438 14.9587 32 21.0056 32ZM22.408 22.1774C23.1147 21.4261 22.9577 20.4506 22.1163 19.8451L16.4508 15.7187C16.0581 15.4495 15.6879 15.8196 15.9684 16.2008L20.0857 21.8746C20.7027 22.7044 21.6787 22.8838 22.408 22.1774Z" fill="#FF9C00"/>
</svg>
