<svg width="25" height="24" viewBox="0 0 25 24" fill="none" xmlns="http://www.w3.org/2000/svg">
  <path
    d="M13.0043 11.9594C15.0478 11.9594 16.7135 10.1391 16.7135 7.92387C16.7135 5.72582 15.0564 4 13.0043 4C10.9694 4 9.29508 5.76016 9.29508 7.94104C9.30366 10.1477 10.9608 11.9594 13.0043 11.9594ZM13.0043 10.6629C11.7507 10.6629 10.6774 9.46079 10.6774 7.94104C10.6774 6.44705 11.7335 5.29651 13.0043 5.29651C14.2836 5.29651 15.3311 6.42988 15.3311 7.92387C15.3311 9.44362 14.2665 10.6629 13.0043 10.6629ZM7.60361 19.9015H18.3964C19.8217 19.9015 20.5 19.4722 20.5 18.5278C20.5 16.2782 17.658 13.024 13.0043 13.024C8.34201 13.024 5.5 16.2782 5.5 18.5278C5.5 19.4722 6.17831 19.9015 7.60361 19.9015ZM7.20006 18.605C6.97682 18.605 6.88237 18.5449 6.88237 18.3646C6.88237 16.9565 9.06325 14.3205 13.0043 14.3205C16.9367 14.3205 19.1176 16.9565 19.1176 18.3646C19.1176 18.5449 19.0318 18.605 18.8085 18.605H7.20006Z"
    fill="#0898A0" />
</svg>
  