<svg width="29" height="29" viewBox="0 0 29 29" fill="none" xmlns="http://www.w3.org/2000/svg">
<rect width="29" height="29" rx="14.5" fill="#E6F5F6"/>
<path fill-rule="evenodd" clip-rule="evenodd" d="M8.62913 13.1543C7.81623 11.6805 7.50635 10.4924 7.50635 9.68994C7.50635 8.88746 7.70351 8.6573 7.90358 8.47136C8.10364 8.28542 9.0058 7.72921 9.15952 7.62548C9.31323 7.52175 9.8999 7.32016 10.2678 7.8494C10.6357 8.37865 11.3285 9.44127 11.8062 10.1472C12.5557 11.147 11.9586 11.586 11.7657 11.8491C11.4108 12.3332 11.2064 12.4526 11.2064 13.047C11.2064 13.6414 12.8677 15.3302 13.2649 15.7463C13.6591 16.1593 15.3145 17.6104 15.8274 17.688C16.3439 17.7661 17.0354 17.2192 17.1824 17.0806C17.9303 16.5064 18.3525 16.9417 18.697 17.1309C19.0415 17.3202 20.598 18.2901 21.0804 18.617C21.5344 18.9439 21.506 19.4492 21.506 19.4492C21.506 19.4492 20.5697 20.9353 20.4562 21.1136C20.3143 21.3217 19.9738 21.5 19.2077 21.5C18.4417 21.5 17.6231 21.3601 15.6779 20.2903C14.0862 19.4149 12.5688 18.0441 11.7744 17.2416C10.9516 16.4392 9.55768 14.8377 8.62913 13.1543Z" fill="#0898A0"/>
</svg>
