<svg width="42" height="42" viewBox="0 0 42 42" fill="none" xmlns="http://www.w3.org/2000/svg">
<rect width="42" height="42" rx="21" fill="#71879C" fill-opacity="0.1"/>
<path d="M13 14.6C13 13.7163 13.7163 13 14.6 13C15.4837 13 16.2 13.7163 16.2 14.6C16.2 15.4837 15.4837 16.2 14.6 16.2C13.7163 16.2 13 15.4837 13 14.6Z" fill="#0898A0"/>
<path d="M19.4 14.6C19.4 13.7163 20.1163 13 21 13C21.8837 13 22.6 13.7163 22.6 14.6C22.6 15.4837 21.8837 16.2 21 16.2C20.1163 16.2 19.4 15.4837 19.4 14.6Z" fill="#0898A0"/>
<path d="M25.8 14.6C25.8 13.7163 26.5163 13 27.4 13C28.2837 13 29 13.7163 29 14.6C29 15.4837 28.2837 16.2 27.4 16.2C26.5163 16.2 25.8 15.4837 25.8 14.6Z" fill="#0898A0"/>
<path d="M13 21C13 20.1163 13.7163 19.4 14.6 19.4C15.4837 19.4 16.2 20.1163 16.2 21C16.2 21.8837 15.4837 22.6 14.6 22.6C13.7163 22.6 13 21.8837 13 21Z" fill="#0898A0"/>
<path d="M19.4 21C19.4 20.1163 20.1163 19.4 21 19.4C21.8837 19.4 22.6 20.1163 22.6 21C22.6 21.8837 21.8837 22.6 21 22.6C20.1163 22.6 19.4 21.8837 19.4 21Z" fill="#0898A0"/>
<path d="M19.4 27.4C19.4 26.5163 20.1163 25.8 21 25.8C21.8837 25.8 22.6 26.5163 22.6 27.4C22.6 28.2837 21.8837 29 21 29C20.1163 29 19.4 28.2837 19.4 27.4Z" fill="#0898A0"/>
<path d="M25.8 21C25.8 20.1163 26.5163 19.4 27.4 19.4C28.2837 19.4 29 20.1163 29 21C29 21.8837 28.2837 22.6 27.4 22.6C26.5163 22.6 25.8 21.8837 25.8 21Z" fill="#0898A0"/>
</svg>
