<svg width="32" height="32" viewBox="0 0 32 32" fill="none" xmlns="http://www.w3.org/2000/svg">
<path d="M11 23.5H8C6.89543 23.5 6 22.6046 6 21.5V10.5C6 9.39543 6.89543 8.5 8 8.5H11" stroke="#171C22" stroke-width="1.4"/>
<path fill-rule="evenodd" clip-rule="evenodd" d="M13 5C11.8954 5 11 5.89543 11 7V25C11 26.1046 11.8954 27 13 27H25C26.1046 27 27 26.1046 27 25V7C27 5.89543 26.1046 5 25 5H13ZM18.5631 20.5316C18.5631 20.6117 18.6432 20.6117 18.7233 20.6117V20.6918H19.2039C19.284 20.6918 19.284 20.6918 19.3641 20.6117L19.3641 20.6117C19.4442 20.6117 19.4442 20.5316 19.4442 20.4515V19.7306C20.0049 19.6505 20.4054 19.4903 20.8059 19.3301C21.2063 19.0899 21.4466 18.8496 21.6869 18.5292C21.9272 18.2088 22.0073 17.8083 22.0073 17.4078C22.0073 17.0073 21.9272 16.6068 21.767 16.3665C21.5267 16.0461 21.2864 15.8059 20.886 15.6457C20.4855 15.4855 20.0049 15.3253 19.3641 15.1651C19.0536 15.103 18.7431 14.9927 18.5073 14.909C18.4389 14.8847 18.3768 14.8627 18.3228 14.8447C18.0825 14.7646 17.8422 14.6044 17.7621 14.5243C17.682 14.4442 17.602 14.284 17.602 14.0437C17.602 13.8034 17.682 13.5631 17.9223 13.4029C18.1626 13.2427 18.483 13.1626 18.8835 13.1626C19.284 13.1626 19.6044 13.2427 19.8447 13.4029C20.085 13.5631 20.2452 13.7233 20.2452 13.9636C20.2758 13.9942 20.2947 14.0248 20.3108 14.0509C20.337 14.0932 20.3559 14.1238 20.4054 14.1238C20.4054 14.2039 20.4855 14.2039 20.5656 14.2039H21.6068C21.6869 14.2039 21.767 14.2039 21.767 14.1238C21.8471 14.0437 21.8471 14.0437 21.8471 13.9636C21.8471 13.7233 21.767 13.4029 21.6068 13.1626C21.548 13.1038 21.4891 13.0401 21.429 12.9751C21.244 12.775 21.0477 12.5627 20.8059 12.4418C20.4855 12.2816 20.085 12.1214 19.6044 12.0413V11.2403C19.6044 11.1602 19.6044 11.1602 19.5243 11.0801C19.5243 11 19.4442 11 19.3641 11H18.7233C18.6432 11 18.6432 11 18.5631 11.0801L18.5631 11.0801C18.483 11.0801 18.483 11.1602 18.483 11.2403V11.2403V11.9612C17.7621 12.0413 17.2015 12.2816 16.801 12.6821C16.4005 13.0825 16.1602 13.5631 16.1602 14.1238C16.1602 14.5243 16.2403 14.8447 16.4005 15.1651C16.5607 15.4855 16.801 15.7258 17.2015 15.886C17.602 16.0461 18.0024 16.2063 18.5631 16.3665C18.8648 16.4168 19.1033 16.4987 19.3184 16.5724C19.4459 16.6162 19.5652 16.6571 19.6845 16.6869C20.0049 16.767 20.1651 16.8471 20.3253 17.0073C20.4855 17.0874 20.5656 17.2476 20.5656 17.4879C20.5656 17.8083 20.4054 18.0486 20.1651 18.2088C19.8447 18.369 19.5243 18.4491 18.9636 18.4491C18.6432 18.4491 18.3228 18.369 18.1626 18.2889C18.1318 18.2735 18.098 18.258 18.0629 18.242C17.9158 18.175 17.7467 18.0978 17.682 17.9685C17.642 17.8884 17.602 17.8283 17.5619 17.7682C17.5219 17.7082 17.4818 17.6481 17.4418 17.568C17.4418 17.4879 17.4418 17.4078 17.3617 17.4078C17.2816 17.3277 17.2015 17.3277 17.1214 17.3277H16.2403C16.2063 17.3277 16.1867 17.3277 16.1693 17.3339C16.1457 17.3422 16.1262 17.3617 16.0801 17.4078C16 17.4879 16 17.4879 16 17.568C16 17.8884 16.1602 18.2088 16.3204 18.4491C16.4806 18.6894 16.7209 18.9297 17.1214 19.1699C17.5219 19.4102 17.9223 19.4903 18.483 19.5704V20.3714C18.483 20.4515 18.483 20.4515 18.5631 20.5316Z" fill="#171C22"/>
</svg>
