<svg width="33" height="32" viewBox="0 0 33 32" fill="none" xmlns="http://www.w3.org/2000/svg">
<path d="M11.8999 23.5H8.8999C7.79533 23.5 6.8999 22.6046 6.8999 21.5V10.5C6.8999 9.39543 7.79533 8.5 8.8999 8.5H11.8999" stroke="#94A1AD" stroke-width="1.4"/>
<rect x="11.8999" y="6" width="15" height="20" rx="2" stroke="#94A1AD" stroke-width="1.4"/>
<path d="M19.3028 20.3139C19.2322 20.3139 19.1615 20.3139 19.1615 20.2433C19.0908 20.1726 19.0908 20.1726 19.0908 20.1019V19.3952C18.5961 19.3245 18.2427 19.2538 17.8893 19.0418C17.536 18.8298 17.3239 18.6177 17.1826 18.4057C17.0413 18.1937 16.8999 17.911 16.8999 17.6283C16.8999 17.5576 16.8999 17.5576 16.9706 17.487C17.0413 17.4163 17.0413 17.4163 17.1119 17.4163H17.8893C17.96 17.4163 18.0307 17.4163 18.1014 17.487C18.172 17.487 18.172 17.5576 18.172 17.6283C18.2427 17.7696 18.3134 17.8403 18.3841 17.9817C18.4547 18.123 18.6668 18.1937 18.8081 18.2644C18.9495 18.335 19.2322 18.4057 19.5149 18.4057C20.0096 18.4057 20.2923 18.335 20.575 18.1937C20.787 18.0523 20.9283 17.8403 20.9283 17.5576C20.9283 17.3456 20.8577 17.2043 20.7163 17.1336C20.575 16.9922 20.4336 16.9216 20.1509 16.8509C19.8682 16.7802 19.5855 16.6389 19.1615 16.5682C18.6668 16.4268 18.3134 16.2855 17.96 16.1441C17.6066 16.0028 17.3946 15.7908 17.2533 15.5081C17.1119 15.2254 17.0413 14.9427 17.0413 14.5893C17.0413 14.0946 17.2533 13.6705 17.6066 13.3172C17.96 12.9638 18.4547 12.7518 19.0908 12.6811V12.045C19.0908 11.9744 19.0908 11.9037 19.1615 11.9037C19.2322 11.833 19.2322 11.833 19.3028 11.833H19.8682C19.9389 11.833 20.0096 11.833 20.0096 11.9037C20.0802 11.9744 20.0802 11.9744 20.0802 12.045V12.7518C20.5043 12.8225 20.8577 12.9638 21.1404 13.1051C21.4231 13.2465 21.6351 13.5292 21.8471 13.7412C21.9885 13.9532 22.0591 14.2359 22.0591 14.448C22.0591 14.5186 22.0591 14.5186 21.9885 14.5893C21.9885 14.66 21.9178 14.66 21.8471 14.66H20.9283C20.8577 14.66 20.787 14.66 20.787 14.5893C20.7163 14.5893 20.7163 14.5186 20.6456 14.448C20.6456 14.2359 20.5043 14.0946 20.2923 13.9532C20.0802 13.8119 19.7975 13.7412 19.4442 13.7412C19.0908 13.7412 18.8081 13.8119 18.5961 13.9532C18.3841 14.0946 18.3134 14.3066 18.3134 14.5186C18.3134 14.7307 18.3841 14.872 18.4547 14.9427C18.5254 15.0134 18.7374 15.1547 18.9495 15.2254C19.1615 15.2961 19.5149 15.4374 19.8682 15.5081C20.4336 15.6494 20.8577 15.7908 21.211 15.9321C21.5644 16.0735 21.7764 16.2855 21.9885 16.5682C22.1298 16.7802 22.2005 17.1336 22.2005 17.487C22.2005 17.8403 22.1298 18.1937 21.9178 18.4764C21.7058 18.7591 21.4937 18.9711 21.1404 19.1831C20.787 19.3245 20.4336 19.4658 19.9389 19.5365V20.1726C19.9389 20.2433 19.9389 20.3139 19.8682 20.3139C19.7975 20.3846 19.7975 20.3846 19.7269 20.3846H19.3028V20.3139Z" fill="#94A1AD"/>
</svg>
