<svg width="36" height="41" viewBox="0 0 36 41" fill="none" xmlns="http://www.w3.org/2000/svg">
<path d="M1 33.9174V7.08259C1 3.96955 4.39944 2.04966 7.06539 3.65707L29.3187 17.0745C31.8981 18.6298 31.8981 22.3702 29.3187 23.9255L7.06539 37.3429C4.39944 38.9503 1 37.0304 1 33.9174Z" stroke="#EB5757" stroke-width="2"/>
<rect x="12" width="24" height="24" rx="12" fill="#1C232B"/>
<path d="M23.1 9.3H24.9V7.5H23.1V9.3ZM24 19.2C20.031 19.2 16.8 15.969 16.8 12C16.8 8.031 20.031 4.8 24 4.8C27.969 4.8 31.2 8.031 31.2 12C31.2 15.969 27.969 19.2 24 19.2ZM24 3C22.8181 3 21.6478 3.23279 20.5558 3.68508C19.4639 4.13738 18.4718 4.80031 17.636 5.63604C15.9482 7.32387 15 9.61305 15 12C15 14.3869 15.9482 16.6761 17.636 18.364C18.4718 19.1997 19.4639 19.8626 20.5558 20.3149C21.6478 20.7672 22.8181 21 24 21C26.3869 21 28.6761 20.0518 30.364 18.364C32.0518 16.6761 33 14.3869 33 12C33 10.8181 32.7672 9.64778 32.3149 8.55585C31.8626 7.46392 31.1997 6.47177 30.364 5.63604C29.5282 4.80031 28.5361 4.13738 27.4442 3.68508C26.3522 3.23279 25.1819 3 24 3V3ZM23.1 16.5H24.9V11.1H23.1V16.5Z" fill="#EB5757"/>
</svg>
