<svg width="33" height="34" viewBox="0 0 33 34" fill="none" xmlns="http://www.w3.org/2000/svg">
<g clip-path="url(#clip0)">
<rect y="0.400146" width="33" height="33" rx="16.5" fill="white"/>
<rect opacity="0.1" y="0.400146" width="33" height="33" rx="16.5" fill="#24346A"/>
<path d="M16.5034 23.4004C20.0567 23.4004 23 20.4571 23 16.897C23 13.3437 20.05 10.4004 16.4966 10.4004C12.9433 10.4004 10 13.3437 10 16.897C10 20.4571 12.95 23.4004 16.5034 23.4004ZM16.5034 22.2405C13.54 22.2405 11.1666 19.8671 11.1666 16.897C11.1666 13.9337 13.5333 11.5536 16.4966 11.5536C19.46 11.5536 21.8401 13.9337 21.8468 16.897C21.8535 19.8671 19.4667 22.2405 16.5034 22.2405ZM14.6931 19.3978C14.6931 19.7129 14.8943 19.9141 15.2094 19.9141H15.4843V20.4169C15.4843 20.5979 15.6117 20.7253 15.786 20.7253C15.9603 20.7253 16.0877 20.5979 16.0877 20.4169V19.9141H16.4966V20.4169C16.4966 20.5979 16.6307 20.7253 16.7983 20.7253C16.9727 20.7253 17.1001 20.5979 17.1001 20.4169V19.9006C18.1661 19.7934 18.7896 19.1833 18.7896 18.2446C18.7896 17.5474 18.3672 17.011 17.7169 16.8166C18.1795 16.5953 18.508 16.0925 18.508 15.5561C18.508 14.7717 17.9649 14.2085 17.1001 14.0879V13.5716C17.1001 13.3906 16.9727 13.2699 16.7983 13.2699C16.6307 13.2699 16.4966 13.3906 16.4966 13.5716V14.061H16.0877V13.5716C16.0877 13.3906 15.9603 13.2699 15.786 13.2699C15.6117 13.2699 15.4843 13.3906 15.4843 13.5716V14.061H15.2094C14.901 14.061 14.6931 14.2689 14.6931 14.584V19.3978ZM15.558 16.5216V14.8254H16.6039C17.2677 14.8254 17.6431 15.1136 17.6431 15.6366C17.6431 16.2065 17.214 16.5283 16.4296 16.5216H15.558ZM15.558 19.1497V17.2792H16.5972C17.4688 17.2792 17.9247 17.5943 17.9247 18.2111C17.9247 18.8212 17.4889 19.1363 16.6643 19.143L15.558 19.1497Z" fill="#24346A"/>
</g>
<defs>
<clipPath id="clip0">
<rect width="33" height="33" fill="white" transform="translate(0 0.400146)"/>
</clipPath>
</defs>
</svg>
