<svg width="34" height="34" viewBox="0 0 34 34" fill="none" xmlns="http://www.w3.org/2000/svg">
<g clip-path="url(#clip0)">
<rect x="0.5" y="0.800293" width="33" height="33" rx="16.5" fill="white"/>
<rect opacity="0.1" x="0.5" y="0.800293" width="33" height="33" rx="16.5" fill="#7CB285"/>
<path d="M17.0034 23.8005C20.5567 23.8005 23.5 20.8573 23.5 17.2972C23.5 13.7438 20.55 10.8005 16.9966 10.8005C13.4433 10.8005 10.5 13.7438 10.5 17.2972C10.5 20.8573 13.45 23.8005 17.0034 23.8005ZM17.0034 22.6407C14.04 22.6407 11.6666 20.2673 11.6666 17.2972C11.6666 14.4746 13.8187 12.175 16.5877 11.9738V17.4045C16.5877 17.552 16.6346 17.6726 16.7486 17.7866L20.4428 21.4003C19.5175 22.1781 18.3174 22.6407 17.0034 22.6407ZM17.4995 16.7139V11.9805C19.189 12.1347 20.6439 13.0667 21.5021 14.421L17.4995 16.7139ZM17.8816 17.552L21.9244 15.2255C22.1926 15.8624 22.3468 16.5597 22.3468 17.2972C22.3468 18.6113 21.8842 19.8047 21.1065 20.7366L17.8816 17.552Z" fill="#7CB285"/>
</g>
<defs>
<clipPath id="clip0">
<rect width="33" height="33" fill="white" transform="translate(0.5 0.800293)"/>
</clipPath>
</defs>
</svg>
