<svg width="11" height="10" viewBox="0 0 11 10" fill="none" xmlns="http://www.w3.org/2000/svg">
<g clip-path="url(#clip0_31826_5152)">
<path d="M5.75 9.99513C8.48531 9.99513 10.75 7.72662 10.75 4.99756C10.75 2.2636 8.48039 0 5.74509 0C3.0147 0 0.75 2.2636 0.75 4.99756C0.75 7.72662 3.0196 9.99513 5.75 9.99513ZM5.75 9.16218C3.43627 9.16218 1.58823 7.31015 1.58823 4.99756C1.58823 2.68496 3.43137 0.832929 5.74509 0.832929C8.05879 0.832929 9.91665 2.68496 9.91665 4.99756C9.91665 7.31015 8.06371 9.16218 5.75 9.16218ZM5.64705 6.01176C5.89213 6.01176 6.04412 5.85497 6.04412 5.66392C6.04412 5.6443 6.04412 5.61982 6.04412 5.60512C6.04412 5.33073 6.20099 5.15433 6.54413 4.92897C7.01958 4.61539 7.35785 4.33122 7.35785 3.74327C7.35785 2.92994 6.63237 2.48898 5.79902 2.48898C4.95588 2.48898 4.40196 2.89075 4.2696 3.34151C4.24509 3.4199 4.23039 3.49829 4.23039 3.58158C4.23039 3.80206 4.40196 3.91966 4.56372 3.91966C4.73039 3.91966 4.83823 3.84126 4.92646 3.72367L5.0147 3.60608C5.18627 3.32191 5.44117 3.15532 5.7696 3.15532C6.21569 3.15532 6.50487 3.4101 6.50487 3.78247C6.50487 4.11564 6.29902 4.27732 5.87255 4.5762C5.5196 4.82118 5.2549 5.08088 5.2549 5.56102C5.2549 5.58059 5.2549 5.60512 5.2549 5.62469C5.2549 5.87951 5.39705 6.01176 5.64705 6.01176ZM5.63725 7.47185C5.92155 7.47185 6.16665 7.24648 6.16665 6.96231C6.16665 6.67809 5.92646 6.45272 5.63725 6.45272C5.34804 6.45272 5.10784 6.68301 5.10784 6.96231C5.10784 7.24157 5.35293 7.47185 5.63725 7.47185Z" fill="#94A1AD"/>
</g>
<defs>
<clipPath id="clip0_31826_5152">
<rect width="10" height="10" fill="white" transform="translate(0.75)"/>
</clipPath>
</defs>
</svg>
