<svg width="42" height="42" viewBox="0 0 42 42" fill="none" xmlns="http://www.w3.org/2000/svg">
<path d="M0 21C0 9.40202 9.40202 0 21 0C32.598 0 42 9.40202 42 21C42 32.598 32.598 42 21 42C9.40202 42 0 32.598 0 21Z" fill="#E6F5F6"/>
<path d="M20.5735 24.4719C21.0638 24.4719 21.2955 24.1331 21.2955 23.6786V23.2596C21.3134 22.1008 21.7145 21.5928 23.0961 20.639C24.5936 19.605 25.4493 18.5086 25.4493 16.9309C25.4493 14.4886 23.4616 13 20.9479 13C19.0404 13 17.4003 13.9716 16.7228 15.6117C16.5624 15.995 16.5 16.3604 16.5 16.6546C16.5 17.0646 16.7318 17.3409 17.1685 17.3409C17.534 17.3409 17.7747 17.127 17.8816 16.7705C18.2738 15.0947 19.4237 14.337 20.9033 14.337C22.6237 14.337 23.9786 15.3532 23.9786 16.9309C23.9786 18.1343 23.2565 18.8563 22.0799 19.6942C20.6983 20.6747 19.8337 21.6106 19.8337 23.0813V23.6964C19.8337 24.151 20.0833 24.4719 20.5735 24.4719ZM20.5825 29C21.1708 29 21.6432 28.5187 21.6432 27.9393C21.6432 27.3599 21.1708 26.8875 20.5825 26.8875C20.0031 26.8875 19.5306 27.3599 19.5306 27.9393C19.5306 28.5187 20.0031 29 20.5825 29Z" fill="#0898A0"/>
</svg>
