<svg width="40" height="40" viewBox="0 0 40 40" fill="none" xmlns="http://www.w3.org/2000/svg">
<rect x="0.5" y="0.5" width="39" height="39" rx="19.5" fill="white" stroke="url(#paint0_linear)"/>
<path d="M15.7158 19.2667C16.735 19.2667 17.5932 19.6154 18.2905 20.3127C18.9878 21.01 19.3365 21.904 19.3365 22.9947C19.3365 24.1747 18.9431 25.1492 18.1564 25.918C17.3697 26.6869 16.3327 27.0713 15.0453 27.0713C13.7222 27.0713 12.6404 26.5885 11.8001 25.623C10.9597 24.6396 10.5396 23.3254 10.5396 21.6805C10.5396 19.374 11.3084 17.4251 12.8461 15.8337C14.3837 14.2424 16.4578 13.3216 19.0683 13.0713V15.0291C17.5664 15.2437 16.3774 15.7622 15.5012 16.5847C14.643 17.3893 14.2139 18.3727 14.2139 19.5349C14.6966 19.3561 15.1973 19.2667 15.7158 19.2667ZM26.5242 19.2667C27.5434 19.2667 28.4016 19.6154 29.0989 20.3127C29.7963 21.01 30.1449 21.904 30.1449 22.9947C30.1449 24.1747 29.7516 25.1492 28.9648 25.918C28.1781 26.6869 27.1679 27.0713 25.9342 27.0713C24.5753 27.0713 23.4757 26.5796 22.6353 25.5962C21.795 24.5949 21.3748 23.2897 21.3748 21.6805C21.3748 19.3382 22.1615 17.3804 23.735 15.8069C25.3084 14.2335 27.3735 13.3216 29.9304 13.0713V15.0291C28.4284 15.2079 27.2394 15.7175 26.3633 16.5579C25.4872 17.3804 25.0491 18.3906 25.0491 19.5885C25.5676 19.374 26.0593 19.2667 26.5242 19.2667Z" fill="url(#paint1_linear)"/>
<defs>
<linearGradient id="paint0_linear" x1="20" y1="0" x2="20" y2="40" gradientUnits="userSpaceOnUse">
<stop stop-color="#0898A0"/>
<stop offset="1" stop-color="#22D8E2"/>
</linearGradient>
<linearGradient id="paint1_linear" x1="20.3422" y1="13.0713" x2="20.3422" y2="27.0713" gradientUnits="userSpaceOnUse">
<stop stop-color="#0898A0"/>
<stop offset="1" stop-color="#22D8E2"/>
</linearGradient>
</defs>
</svg>
