<svg width="133" height="33" viewBox="0 0 133 33" fill="none" xmlns="http://www.w3.org/2000/svg">
<rect x="0.378906" y="3.31152" width="132" height="29.2131" rx="10" fill="#E6F5F6"/>
<path d="M54.3562 8.68905L66.3597 1.59871L78.3631 8.68905C78.4808 8.75883 78.6106 8.79186 78.7386 8.79186C78.9916 8.79186 79.2382 8.66207 79.3764 8.42853C79.5843 8.07683 79.4676 7.62324 79.1154 7.41529L66.736 0.10258C66.5039 -0.0341933 66.2159 -0.0341933 65.9838 0.10258L53.6039 7.41529C53.2522 7.62324 53.1355 8.07683 53.3429 8.42853C53.5509 8.78023 54.0045 8.897 54.3562 8.68905Z" fill="#0898A0"/>
<path d="M78.7396 21.5205H53.9799C53.5715 21.5205 53.2402 21.8517 53.2402 22.2602C53.2402 22.6687 53.5715 22.9999 53.9799 22.9999H78.7396C79.1481 22.9999 79.4793 22.6687 79.4793 22.2602C79.4793 21.8513 79.1481 21.5205 78.7396 21.5205Z" fill="#0898A0"/>
<path d="M60.6784 9.82826C61.0868 9.82826 61.4181 9.49703 61.4181 9.08857C61.4181 8.68011 61.0868 8.34888 60.6784 8.34888H58.2006C57.7922 8.34888 57.4609 8.68011 57.4609 9.08857C57.4609 9.49703 57.7922 9.82826 58.2006 9.82826H58.6998V18.7464H58.2006C57.7922 18.7464 57.4609 19.0777 57.4609 19.4861C57.4609 19.8946 57.7922 20.2258 58.2006 20.2258H60.6784C61.0868 20.2258 61.4181 19.8946 61.4181 19.4861C61.4181 19.0777 61.0868 18.7464 60.6784 18.7464H60.1792V9.82826H60.6784Z" fill="#0898A0"/>
<path d="M67.5983 9.81874C68.0067 9.81874 68.338 9.48751 68.338 9.07905C68.338 8.67059 68.0067 8.33936 67.5983 8.33936H65.1206C64.7121 8.33936 64.3809 8.67059 64.3809 9.07905C64.3809 9.48751 64.7121 9.81874 65.1206 9.81874H65.6197V18.7369H65.1206C64.7121 18.7369 64.3809 19.0681 64.3809 19.4766C64.3809 19.8851 64.7121 20.2163 65.1206 20.2163H67.5983C68.0067 20.2163 68.338 19.8851 68.338 19.4766C68.338 19.0681 68.0067 18.7369 67.5983 18.7369H67.0991V9.81874H67.5983Z" fill="#0898A0"/>
<path d="M74.5182 9.80824C74.9267 9.80824 75.2579 9.47701 75.2579 9.06855C75.2579 8.66009 74.9267 8.32886 74.5182 8.32886H72.0405C71.632 8.32886 71.3008 8.66009 71.3008 9.06855C71.3008 9.47701 71.632 9.80824 72.0405 9.80824H72.5396V18.7264H72.0405C71.632 18.7264 71.3008 19.0576 71.3008 19.4661C71.3008 19.8746 71.632 20.2058 72.0405 20.2058H74.5182C74.9267 20.2058 75.2579 19.8746 75.2579 19.4661C75.2579 19.0576 74.9267 18.7264 74.5182 18.7264H74.019V9.80824H74.5182Z" fill="#0898A0"/>
<path d="M18.116 8.68905L30.1194 1.59871L42.1229 8.68905C42.2406 8.75883 42.3704 8.79186 42.4983 8.79186C42.7514 8.79186 42.998 8.66207 43.1361 8.42853C43.3441 8.07683 43.2273 7.62324 42.8752 7.41529L30.4958 0.10258C30.2636 -0.0341933 29.9757 -0.0341933 29.7435 0.10258L17.3637 7.41529C17.012 7.62324 16.8952 8.07683 17.1027 8.42853C17.3107 8.78023 17.7642 8.897 18.116 8.68905Z" fill="#0898A0"/>
<path d="M42.4994 21.5205H17.7397C17.3312 21.5205 17 21.8517 17 22.2602C17 22.6687 17.3312 22.9999 17.7397 22.9999H42.4994C42.9078 22.9999 43.239 22.6687 43.239 22.2602C43.239 21.8513 42.9078 21.5205 42.4994 21.5205Z" fill="#0898A0"/>
<path d="M24.4381 9.82826C24.8466 9.82826 25.1778 9.49703 25.1778 9.08857C25.1778 8.68011 24.8466 8.34888 24.4381 8.34888H21.9604C21.5519 8.34888 21.2207 8.68011 21.2207 9.08857C21.2207 9.49703 21.5519 9.82826 21.9604 9.82826H22.4596V18.7464H21.9604C21.5519 18.7464 21.2207 19.0777 21.2207 19.4861C21.2207 19.8946 21.5519 20.2258 21.9604 20.2258H24.4381C24.8466 20.2258 25.1778 19.8946 25.1778 19.4861C25.1778 19.0777 24.8466 18.7464 24.4381 18.7464H23.939V9.82826H24.4381Z" fill="#0898A0"/>
<path d="M31.358 9.81874C31.7665 9.81874 32.0977 9.48751 32.0977 9.07905C32.0977 8.67059 31.7665 8.33936 31.358 8.33936H28.8803C28.4719 8.33936 28.1406 8.67059 28.1406 9.07905C28.1406 9.48751 28.4719 9.81874 28.8803 9.81874H29.3795V18.7369H28.8803C28.4719 18.7369 28.1406 19.0681 28.1406 19.4766C28.1406 19.8851 28.4719 20.2163 28.8803 20.2163H31.358C31.7665 20.2163 32.0977 19.8851 32.0977 19.4766C32.0977 19.0681 31.7665 18.7369 31.358 18.7369H30.8589V9.81874H31.358Z" fill="#0898A0"/>
<path d="M38.278 9.80824C38.6864 9.80824 39.0177 9.47701 39.0177 9.06855C39.0177 8.66009 38.6864 8.32886 38.278 8.32886H35.8002C35.3918 8.32886 35.0605 8.66009 35.0605 9.06855C35.0605 9.47701 35.3918 9.80824 35.8002 9.80824H36.2994V18.7264H35.8002C35.3918 18.7264 35.0605 19.0576 35.0605 19.4661C35.0605 19.8746 35.3918 20.2058 35.8002 20.2058H38.278C38.6864 20.2058 39.0177 19.8746 39.0177 19.4661C39.0177 19.0576 38.6864 18.7264 38.278 18.7264H37.7788V9.80824H38.278Z" fill="#0898A0"/>
<path d="M90.5964 8.68905L102.6 1.59871L114.603 8.68905C114.721 8.75883 114.851 8.79186 114.979 8.79186C115.232 8.79186 115.478 8.66207 115.617 8.42853C115.825 8.07683 115.708 7.62324 115.356 7.41529L102.976 0.10258C102.744 -0.0341933 102.456 -0.0341933 102.224 0.10258L89.8442 7.41529C89.4925 7.62324 89.3757 8.07683 89.5832 8.42853C89.7911 8.78023 90.2447 8.897 90.5964 8.68905Z" fill="#0898A0"/>
<path d="M114.98 21.5205H90.2202C89.8117 21.5205 89.4805 21.8517 89.4805 22.2602C89.4805 22.6687 89.8117 22.9999 90.2202 22.9999H114.98C115.388 22.9999 115.72 22.6687 115.72 22.2602C115.72 21.8513 115.388 21.5205 114.98 21.5205Z" fill="#0898A0"/>
<path d="M96.9186 9.82826C97.3271 9.82826 97.6583 9.49703 97.6583 9.08857C97.6583 8.68011 97.3271 8.34888 96.9186 8.34888H94.4409C94.0324 8.34888 93.7012 8.68011 93.7012 9.08857C93.7012 9.49703 94.0324 9.82826 94.4409 9.82826H94.94V18.7464H94.4409C94.0324 18.7464 93.7012 19.0777 93.7012 19.4861C93.7012 19.8946 94.0324 20.2258 94.4409 20.2258H96.9186C97.3271 20.2258 97.6583 19.8946 97.6583 19.4861C97.6583 19.0777 97.3271 18.7464 96.9186 18.7464H96.4194V9.82826H96.9186Z" fill="#0898A0"/>
<path d="M103.839 9.81874C104.247 9.81874 104.578 9.48751 104.578 9.07905C104.578 8.67059 104.247 8.33936 103.839 8.33936H101.361C100.952 8.33936 100.621 8.67059 100.621 9.07905C100.621 9.48751 100.952 9.81874 101.361 9.81874H101.86V18.7369H101.361C100.952 18.7369 100.621 19.0681 100.621 19.4766C100.621 19.8851 100.952 20.2163 101.361 20.2163H103.839C104.247 20.2163 104.578 19.8851 104.578 19.4766C104.578 19.0681 104.247 18.7369 103.839 18.7369H103.339V9.81874H103.839Z" fill="#0898A0"/>
<path d="M110.758 9.80824C111.167 9.80824 111.498 9.47701 111.498 9.06855C111.498 8.66009 111.167 8.32886 110.758 8.32886H108.281C107.872 8.32886 107.541 8.66009 107.541 9.06855C107.541 9.47701 107.872 9.80824 108.281 9.80824H108.78V18.7264H108.281C107.872 18.7264 107.541 19.0576 107.541 19.4661C107.541 19.8746 107.872 20.2058 108.281 20.2058H110.758C111.167 20.2058 111.498 19.8746 111.498 19.4661C111.498 19.0576 111.167 18.7264 110.758 18.7264H110.259V9.80824H110.758Z" fill="#0898A0"/>
</svg>
