<svg width="33" height="33" viewBox="0 0 33 33" fill="none" xmlns="http://www.w3.org/2000/svg">
<rect width="33" height="33" rx="16.5" fill="#E6F5F6"/>
<path d="M16.2164 10.1984C16.3827 10.0673 16.6173 10.0673 16.7836 10.1984L21.1266 13.6201C21.6781 14.0547 22 14.7181 22 15.4202V21.1001C22 21.522 21.658 21.864 21.2361 21.864H18.1806C17.7587 21.864 17.4167 21.522 17.4167 21.1001V18.0445C17.4167 17.9602 17.3483 17.8918 17.2639 17.8918H15.7361C15.6517 17.8918 15.5833 17.9602 15.5833 18.0445V21.1001C15.5833 21.522 15.2413 21.864 14.8194 21.864H11.7639C11.342 21.864 11 21.522 11 21.1001V15.4202C11 14.7181 11.3219 14.0547 11.8734 13.6201L16.2164 10.1984ZM16.5 11.1419L12.4407 14.3402C12.1098 14.6009 11.9167 14.9989 11.9167 15.4202V20.9473H14.6667V18.0445C14.6667 17.4539 15.1455 16.9751 15.7361 16.9751H17.2639C17.8545 16.9751 18.3333 17.4539 18.3333 18.0445V20.9473H21.0833V15.4202C21.0833 14.9989 20.8902 14.6009 20.5593 14.3402L16.5 11.1419Z" fill="#0898A0"/>
</svg>
