<svg width="142" height="143" viewBox="0 0 142 143" fill="none" xmlns="http://www.w3.org/2000/svg">
<g filter="url(#filter0_d)">
<path d="M24 64.5005C24 38.6787 44.9327 17.7461 70.7544 17.7461C96.5761 17.7461 117.509 38.6787 117.509 64.5005C117.509 90.3222 96.5761 111.255 70.7544 111.255C44.9327 111.255 24 90.3222 24 64.5005Z" fill="white"/>
<path opacity="0.1" d="M24 64.5005C24 38.6787 44.9327 17.7461 70.7544 17.7461C96.5761 17.7461 117.509 38.6787 117.509 64.5005C117.509 90.3222 96.5761 111.255 70.7544 111.255C44.9327 111.255 24 90.3222 24 64.5005Z" fill="#BC1058"/>
<path d="M69.5187 65.5486V55.4539H66.7057C63.6334 55.4539 61.9975 53.4788 61.9975 51.5037C61.9975 49.4888 63.4938 48.2918 65.5087 48.2918C67.8229 48.2918 69.5985 50.0673 69.5985 53.0399V55.4539H72.8703V53.0399C72.8703 50.0673 74.6658 48.2918 76.9801 48.2918C78.9751 48.2918 80.4713 49.4888 80.4713 51.5037C80.4713 53.4788 78.7955 55.4539 75.7631 55.4539H72.9701V65.5486H86.1771C88.3317 65.5486 89.4688 64.6908 89.4688 62.5761V58.4264C89.4688 56.2918 88.3317 55.4539 86.1771 55.4539H81.9676C83.1446 54.3965 83.8429 52.9401 83.8429 51.3042C83.8429 47.6334 80.9102 45 77.2195 45C74.4663 45 72.192 46.5362 71.2344 49.2893C70.2768 46.5362 68.0025 45 65.2494 45C61.5586 45 58.6259 47.6334 58.6259 51.3042C58.6259 52.9401 59.3042 54.3965 60.4813 55.4539H56.3117C54.2369 55.4539 53 56.2918 53 58.4264V62.5761C53 64.6908 54.1571 65.5486 56.3117 65.5486H69.5187ZM69.5187 85V67.6035H55.6534V80.1721C55.6534 83.3242 57.5287 85 60.6808 85H69.5187ZM72.9701 67.6035V85H81.788C84.9402 85 86.8155 83.3242 86.8155 80.1721V67.6035H72.9701Z" fill="#BC1058"/>
</g>
<defs>
<filter id="filter0_d" x="0" y="0.746094" width="141.509" height="141.509" filterUnits="userSpaceOnUse" color-interpolation-filters="sRGB">
<feFlood flood-opacity="0" result="BackgroundImageFix"/>
<feColorMatrix in="SourceAlpha" type="matrix" values="0 0 0 0 0 0 0 0 0 0 0 0 0 0 0 0 0 0 127 0"/>
<feOffset dy="7"/>
<feGaussianBlur stdDeviation="12"/>
<feColorMatrix type="matrix" values="0 0 0 0 0.737255 0 0 0 0 0.0627451 0 0 0 0 0.345098 0 0 0 0.25 0"/>
<feBlend mode="normal" in2="BackgroundImageFix" result="effect1_dropShadow"/>
<feBlend mode="normal" in="SourceGraphic" in2="effect1_dropShadow" result="shape"/>
</filter>
</defs>
</svg>
