<svg width="270" height="98" viewBox="0 0 270 98" fill="none" xmlns="http://www.w3.org/2000/svg">
<g filter="url(#filter0_d)">
<rect x="24.2344" y="17.5515" width="221.286" height="48.9731" fill="#E6F5F6"/>
</g>
<path d="M114.72 26.5664L134.843 14.6801L154.966 26.5664C155.163 26.6834 155.381 26.7388 155.595 26.7388C156.019 26.7388 156.433 26.5212 156.664 26.1297C157.013 25.5401 156.817 24.7797 156.227 24.4311L135.474 12.172C135.085 11.9427 134.602 11.9427 134.213 12.172L113.459 24.4311C112.87 24.7797 112.674 25.5401 113.022 26.1297C113.37 26.7193 114.131 26.915 114.72 26.5664Z" fill="#0898A0"/>
<path d="M155.597 48.0771H114.09C113.405 48.0771 112.85 48.6324 112.85 49.3172C112.85 50.0019 113.405 50.5572 114.09 50.5572H155.597C156.282 50.5572 156.837 50.0019 156.837 49.3172C156.837 48.6316 156.282 48.0771 155.597 48.0771Z" fill="#0898A0"/>
<path d="M125.318 28.4761C126.002 28.4761 126.558 27.9209 126.558 27.2361C126.558 26.5514 126.002 25.9961 125.318 25.9961H121.164C120.479 25.9961 119.924 26.5514 119.924 27.2361C119.924 27.9209 120.479 28.4761 121.164 28.4761H122.001V43.4266H121.164C120.479 43.4266 119.924 43.9819 119.924 44.6667C119.924 45.3514 120.479 45.9067 121.164 45.9067H125.318C126.002 45.9067 126.558 45.3514 126.558 44.6667C126.558 43.9819 126.002 43.4266 125.318 43.4266H124.481V28.4761H125.318Z" fill="#0898A0"/>
<path d="M136.919 28.4603C137.604 28.4603 138.159 27.905 138.159 27.2203C138.159 26.5355 137.604 25.9802 136.919 25.9802H132.765C132.081 25.9802 131.525 26.5355 131.525 27.2203C131.525 27.905 132.081 28.4603 132.765 28.4603H133.602V43.4108H132.765C132.081 43.4108 131.525 43.9661 131.525 44.6508C131.525 45.3355 132.081 45.8908 132.765 45.8908H136.919C137.604 45.8908 138.159 45.3355 138.159 44.6508C138.159 43.9661 137.604 43.4108 136.919 43.4108H136.082V28.4603H136.919Z" fill="#0898A0"/>
<path d="M148.521 28.4427C149.205 28.4427 149.761 27.8874 149.761 27.2027C149.761 26.5179 149.205 25.9626 148.521 25.9626H144.367C143.682 25.9626 143.127 26.5179 143.127 27.2027C143.127 27.8874 143.682 28.4427 144.367 28.4427H145.204V43.3932H144.367C143.682 43.3932 143.127 43.9485 143.127 44.6332C143.127 45.318 143.682 45.8732 144.367 45.8732H148.521C149.205 45.8732 149.761 45.318 149.761 44.6332C149.761 43.9485 149.205 43.3932 148.521 43.3932H147.684V28.4427H148.521Z" fill="#0898A0"/>
<path d="M53.9665 26.5664L74.0892 14.6801L94.2119 26.5664C94.4093 26.6834 94.6268 26.7388 94.8413 26.7388C95.2656 26.7388 95.6789 26.5212 95.9105 26.1297C96.2592 25.5401 96.0634 24.7797 95.473 24.4311L74.7201 12.172C74.331 11.9427 73.8482 11.9427 73.4591 12.172L52.7054 24.4311C52.1158 24.7797 51.9201 25.5401 52.2679 26.1297C52.6165 26.7193 53.3769 26.915 53.9665 26.5664Z" fill="#0898A0"/>
<path d="M94.843 48.0771H53.3357C52.651 48.0771 52.0957 48.6324 52.0957 49.3172C52.0957 50.0019 52.651 50.5572 53.3357 50.5572H94.843C95.5278 50.5572 96.0831 50.0019 96.0831 49.3172C96.0831 48.6316 95.5278 48.0771 94.843 48.0771Z" fill="#0898A0"/>
<path d="M64.5656 28.4761C65.2503 28.4761 65.8056 27.9209 65.8056 27.2361C65.8056 26.5514 65.2503 25.9961 64.5656 25.9961H60.4119C59.7272 25.9961 59.1719 26.5514 59.1719 27.2361C59.1719 27.9209 59.7272 28.4761 60.4119 28.4761H61.2487V43.4266H60.4119C59.7272 43.4266 59.1719 43.9819 59.1719 44.6667C59.1719 45.3514 59.7272 45.9067 60.4119 45.9067H64.5656C65.2503 45.9067 65.8056 45.3514 65.8056 44.6667C65.8056 43.9819 65.2503 43.4266 64.5656 43.4266H63.7288V28.4761H64.5656Z" fill="#0898A0"/>
<path d="M76.1672 28.4603C76.8519 28.4603 77.4072 27.905 77.4072 27.2203C77.4072 26.5355 76.8519 25.9802 76.1672 25.9802H72.0135C71.3287 25.9802 70.7734 26.5355 70.7734 27.2203C70.7734 27.905 71.3287 28.4603 72.0135 28.4603H72.8503V43.4108H72.0135C71.3287 43.4108 70.7734 43.9661 70.7734 44.6508C70.7734 45.3355 71.3287 45.8908 72.0135 45.8908H76.1672C76.8519 45.8908 77.4072 45.3355 77.4072 44.6508C77.4072 43.9661 76.8519 43.4108 76.1672 43.4108H75.3303V28.4603H76.1672Z" fill="#0898A0"/>
<path d="M87.7668 28.4427C88.4515 28.4427 89.0068 27.8874 89.0068 27.2027C89.0068 26.5179 88.4515 25.9626 87.7668 25.9626H83.6131C82.9283 25.9626 82.373 26.5179 82.373 27.2027C82.373 27.8874 82.9283 28.4427 83.6131 28.4427H84.4499V43.3932H83.6131C82.9283 43.3932 82.373 43.9485 82.373 44.6332C82.373 45.318 82.9283 45.8732 83.6131 45.8732H87.7668C88.4515 45.8732 89.0068 45.318 89.0068 44.6332C89.0068 43.9485 88.4515 43.3932 87.7668 43.3932H86.9299V28.4427H87.7668Z" fill="#0898A0"/>
<path d="M175.474 26.5664L195.597 14.6801L215.72 26.5664C215.917 26.6834 216.135 26.7388 216.349 26.7388C216.773 26.7388 217.187 26.5212 217.418 26.1297C217.767 25.5401 217.571 24.7797 216.981 24.4311L196.228 12.172C195.839 11.9427 195.356 11.9427 194.967 12.172L174.213 24.4311C173.624 24.7797 173.428 25.5401 173.776 26.1297C174.124 26.7193 174.885 26.915 175.474 26.5664Z" fill="#0898A0"/>
<path d="M216.351 48.0771H174.844C174.159 48.0771 173.604 48.6324 173.604 49.3172C173.604 50.0019 174.159 50.5572 174.844 50.5572H216.351C217.036 50.5572 217.591 50.0019 217.591 49.3172C217.591 48.6316 217.036 48.0771 216.351 48.0771Z" fill="#0898A0"/>
<path d="M186.071 28.4761C186.756 28.4761 187.311 27.9209 187.311 27.2361C187.311 26.5514 186.756 25.9961 186.071 25.9961H181.918C181.233 25.9961 180.678 26.5514 180.678 27.2361C180.678 27.9209 181.233 28.4761 181.918 28.4761H182.755V43.4266H181.918C181.233 43.4266 180.678 43.9819 180.678 44.6667C180.678 45.3514 181.233 45.9067 181.918 45.9067H186.071C186.756 45.9067 187.311 45.3514 187.311 44.6667C187.311 43.9819 186.756 43.4266 186.071 43.4266H185.235V28.4761H186.071Z" fill="#0898A0"/>
<path d="M197.673 28.4603C198.358 28.4603 198.913 27.905 198.913 27.2203C198.913 26.5355 198.358 25.9802 197.673 25.9802H193.519C192.835 25.9802 192.279 26.5355 192.279 27.2203C192.279 27.905 192.835 28.4603 193.519 28.4603H194.356V43.4108H193.519C192.835 43.4108 192.279 43.9661 192.279 44.6508C192.279 45.3355 192.835 45.8908 193.519 45.8908H197.673C198.358 45.8908 198.913 45.3355 198.913 44.6508C198.913 43.9661 198.358 43.4108 197.673 43.4108H196.836V28.4603H197.673Z" fill="#0898A0"/>
<path d="M209.275 28.4427C209.959 28.4427 210.515 27.8874 210.515 27.2027C210.515 26.5179 209.959 25.9626 209.275 25.9626H205.121C204.436 25.9626 203.881 26.5179 203.881 27.2027C203.881 27.8874 204.436 28.4427 205.121 28.4427H205.958V43.3932H205.121C204.436 43.3932 203.881 43.9485 203.881 44.6332C203.881 45.318 204.436 45.8732 205.121 45.8732H209.275C209.959 45.8732 210.515 45.318 210.515 44.6332C210.515 43.9485 209.959 43.3932 209.275 43.3932H208.438V28.4427H209.275Z" fill="#0898A0"/>
<defs>
<filter id="filter0_d" x="0.234375" y="0.551514" width="269.286" height="96.9731" filterUnits="userSpaceOnUse" color-interpolation-filters="sRGB">
<feFlood flood-opacity="0" result="BackgroundImageFix"/>
<feColorMatrix in="SourceAlpha" type="matrix" values="0 0 0 0 0 0 0 0 0 0 0 0 0 0 0 0 0 0 127 0"/>
<feOffset dy="7"/>
<feGaussianBlur stdDeviation="12"/>
<feColorMatrix type="matrix" values="0 0 0 0 0.0313726 0 0 0 0 0.596078 0 0 0 0 0.627451 0 0 0 0.25 0"/>
<feBlend mode="normal" in2="BackgroundImageFix" result="effect1_dropShadow"/>
<feBlend mode="normal" in="SourceGraphic" in2="effect1_dropShadow" result="shape"/>
</filter>
</defs>
</svg>
