<svg width="98" height="98" viewBox="0 0 98 98" fill="none" xmlns="http://www.w3.org/2000/svg">
<path d="M0 49C0 21.938 21.938 0 49 0C76.062 0 98 21.938 98 49C98 76.062 76.062 98 49 98C21.938 98 0 76.062 0 49Z" fill="white"/>
<path opacity="0.1" d="M0 49C0 21.938 21.938 0 49 0C76.062 0 98 21.938 98 49C98 76.062 76.062 98 49 98C21.938 98 0 76.062 0 49Z" fill="#FF9C00"/>
<path d="M49 69C59.9684 69 68.9796 59.9888 68.9796 49C68.9796 38.0112 59.9684 29 49 29C48.103 29 47.8379 29.367 47.8379 30.0398V38.1947C47.8379 38.6432 48.0826 38.9898 48.5719 38.9898C49.0408 38.9898 49.2854 38.6432 49.2854 38.1947V30.5698C59.4179 30.7941 67.4302 38.949 67.4302 49C67.4302 59.1733 59.1733 67.4302 49 67.4302C38.8063 67.4302 30.5494 59.1733 30.5494 49C30.5494 44.0459 32.527 39.581 35.6871 36.2579C36.0133 35.8909 36.0336 35.4424 35.7278 35.1366C35.422 34.8104 34.9327 34.8308 34.5861 35.1978C31.1407 38.8063 29 43.6789 29 49C29 59.9888 38.0112 69 49 69ZM51.5484 51.1407C52.8328 49.7747 52.5474 48.001 51.0184 46.9001L40.7227 39.3976C40.0092 38.9083 39.3364 39.581 39.8461 40.2742L47.3282 50.5902C48.4495 52.0989 50.2232 52.4251 51.5484 51.1407Z" fill="#FF9C00"/>
</svg>
