<svg width="16" height="12" viewBox="0 0 16 12" fill="none" xmlns="http://www.w3.org/2000/svg">
<path fill-rule="evenodd" clip-rule="evenodd" d="M10.2211 11.0572C10.2211 11.0572 15.0798 6.62359 15.1265 6.58652C15.3549 6.40613 15.5 6.14271 15.5 5.84668C15.5 5.53829 15.3418 5.26548 15.0966 5.08509C15.0439 5.04654 10.2211 0.636166 10.2211 0.636166C9.79656 0.250184 9.10782 0.250184 8.68381 0.636166C8.25926 1.02215 8.25926 1.64832 8.68381 2.03381L11.7899 4.85825L1.28651 4.85825C0.683116 4.85825 0.193877 5.30107 0.193877 5.84668C0.193877 6.39279 0.683116 6.83511 1.28651 6.83511L11.7899 6.83511L8.68381 9.65955C8.25926 10.045 8.25926 10.6712 8.68381 11.0572C9.10782 11.4432 9.79656 11.4432 10.2211 11.0572Z" fill="#222222"/>
</svg>
