<svg width="92" height="95" viewBox="0 0 92 95" fill="none" xmlns="http://www.w3.org/2000/svg">
<rect y="15" width="80" height="80" rx="16" fill="#0898A0"/>
<path d="M14.0125 53.0494L13.881 46.6097H10V63.477H14.0125V56.8412C14.1112 51.7091 16.0846 50.042 21.3798 49.7152V46.3482C16.6437 46.3482 14.9005 48.1461 14.1441 53.0494H14.0125Z" fill="white"/>
<path d="M23.1946 63.477H27.2071V46.6097H23.1946V63.477Z" fill="white"/>
<path d="M37.5994 64C42.4013 64 45.2298 62.0387 45.2298 58.7372C45.2298 56.2201 43.6182 54.7819 40.2964 54.0627L35.8234 53.1147C34.4092 52.7879 33.6198 52.0687 33.6198 51.1534C33.6198 49.8132 34.9683 48.996 37.2048 48.996C39.6715 48.996 41.1186 50.1728 41.1186 52.1014H44.9667C44.9667 48.3095 42.0395 46.0867 37.0732 46.0867C32.5345 46.0867 29.6731 48.1134 29.6731 51.2515C29.6731 53.8012 31.5478 55.4029 34.6394 56.024L38.915 56.9393C40.6582 57.3316 41.2502 57.8873 41.2502 58.9006C41.2502 60.2735 39.8688 61.0907 37.6323 61.0907C34.9025 61.0907 33.3567 59.9793 33.2251 57.9853H29.2784C29.4099 61.8426 32.37 64 37.5994 64Z" fill="white"/>
<path d="M63.4282 54.4877C63.4282 49.8459 60.238 46.0867 55.0414 46.0867C49.812 46.0867 46.3586 49.4863 46.3586 54.978C46.3586 60.9273 49.8778 64 55.2388 64C59.021 64 62.7704 61.7445 63.2967 57.5931H59.6459C59.2184 59.489 57.6068 60.8946 55.2388 60.8946C52.3445 60.8946 50.3053 59.064 50.2067 55.7952H63.4282V54.4877ZM54.877 49.1921C57.541 49.1921 59.2842 50.8266 59.4815 53.5397H50.2067C50.404 50.6631 52.3774 49.1921 54.877 49.1921Z" fill="white"/>
<path d="M70 48.5892C70 50.0191 68.8337 51.1784 67.3949 51.1784C65.9561 51.1784 64.7898 50.0191 64.7898 48.5892C64.7898 47.1592 65.9561 46 67.3949 46C68.8337 46 70 47.1592 70 48.5892Z" fill="white"/>
<path d="M70.6292 2.86742C72.5342 -0.561626 77.4658 -0.561632 79.3708 2.86741L90.8732 23.5718C92.7247 26.9044 90.3148 31 86.5024 31H63.4976C59.6852 31 57.2753 26.9044 59.1268 23.5718L70.6292 2.86742Z" fill="#FF3535"/>
<path d="M73 8H77L76.5 19H73.5L73 8Z" fill="white"/>
<rect x="73" y="21" width="4" height="4" rx="2" fill="white"/>
</svg>
