<svg width="64" height="20" viewBox="0 0 64 20" fill="none" xmlns="http://www.w3.org/2000/svg">
<path d="M4.28003 8.31932L4.13969 1.45039H0V19.4421H4.28003V12.364C4.38527 6.88975 6.4902 5.11149 12.1384 4.76282V1.17144C7.0866 1.17144 5.22724 3.08917 4.42035 8.31932H4.28003Z" fill="#EDFFFF"/>
<path d="M14.0742 19.4421H18.3543V1.45039H14.0742V19.4421Z" fill="#EDFFFF"/>
<path d="M29.4394 20C34.5614 20 37.5785 17.9079 37.5785 14.3863C37.5785 11.7015 35.8594 10.1673 32.3161 9.40022L27.545 8.38905C26.0364 8.04038 25.1945 7.27329 25.1945 6.29699C25.1945 4.86742 26.6328 3.99573 29.0184 3.99573C31.6496 3.99573 33.1932 5.25096 33.1932 7.30816H37.2978C37.2978 3.26351 34.1755 0.892505 28.8781 0.892505C24.0368 0.892505 20.9846 3.0543 20.9846 6.4016C20.9846 9.12127 22.9843 10.8298 26.282 11.4923L30.8427 12.4686C32.702 12.887 33.3335 13.4797 33.3335 14.5606C33.3335 16.0251 31.8601 16.8968 29.4745 16.8968C26.5627 16.8968 24.9138 15.7113 24.7735 13.5843H20.5636C20.7039 17.6987 23.8613 20 29.4394 20Z" fill="#EDFFFF"/>
<path d="M56.9901 9.8535C56.9901 4.90229 53.5871 0.892505 48.0442 0.892505C42.4661 0.892505 38.7825 4.51874 38.7825 10.3765C38.7825 16.7224 42.5363 20 48.2547 20C52.2891 20 56.2885 17.5941 56.8498 13.1659H52.9557C52.4996 15.1883 50.7806 16.6876 48.2547 16.6876C45.1674 16.6876 42.9923 14.735 42.8871 11.2482H56.9901V9.8535ZM47.8688 4.20493C50.7104 4.20493 52.5698 5.94832 52.7803 8.84233H42.8871C43.0976 5.77398 45.2025 4.20493 47.8688 4.20493Z" fill="#EDFFFF"/>
<path d="M64 3.56178C64 5.08708 62.7559 6.32358 61.2212 6.32358C59.6865 6.32358 58.4424 5.08708 58.4424 3.56178C58.4424 2.03649 59.6865 0.799988 61.2212 0.799988C62.7559 0.799988 64 2.03649 64 3.56178Z" fill="#EDFFFF"/>
</svg>
