<svg width="33" height="33" viewBox="0 0 33 33" fill="none" xmlns="http://www.w3.org/2000/svg">
<rect width="33" height="33" rx="16.5" fill="#E6F5F6"/>
<path d="M18.3994 20.7011C18.9844 21.1408 19.7118 21.4013 20.5 21.4013C21.2875 21.4013 22.0143 21.1412 22.5992 20.7022L22.5995 22.9744C22.5995 23.3739 22.1764 23.6179 21.8365 23.4426L21.7739 23.4047L20.4997 22.5142L19.2261 23.4047C18.8986 23.6335 18.4562 23.4265 18.4053 23.0474L18.4004 22.9744L18.3994 20.7011ZM21.3745 10.2041C22.3982 10.2041 23.2352 11.0032 23.2958 12.0117L23.2993 12.129L23.3003 15.8008C23.0173 15.4241 22.6601 15.1063 22.2503 14.8693L22.2494 12.129C22.2494 11.676 21.9051 11.3034 21.4639 11.2585L21.3745 11.254H11.2252C10.7721 11.254 10.3995 11.5983 10.3547 12.0395L10.3502 12.129V18.7785C10.3502 19.2315 10.6945 19.6041 11.1357 19.6489L11.2252 19.6535L17.4694 19.6535C17.5392 19.7741 17.6161 19.8901 17.6994 20.001L17.6997 20.7034H11.2252C10.2015 20.7034 9.36441 19.9042 9.30381 18.8958L9.30029 18.7785V12.129C9.30029 11.1053 10.0994 10.2682 11.1079 10.2076L11.2252 10.2041H21.3745ZM20.5 15.1008C22.0465 15.1008 23.3002 16.3545 23.3002 17.9011C23.3002 19.4476 22.0465 20.7013 20.5 20.7013C18.9534 20.7013 17.6997 19.4476 17.6997 17.9011C17.6997 16.3545 18.9534 15.1008 20.5 15.1008ZM15.7748 16.8507C16.0648 16.8507 16.2998 17.0857 16.2998 17.3757C16.2998 17.6414 16.1023 17.8611 15.8461 17.8958L15.7748 17.9006H12.6251C12.3351 17.9006 12.1001 17.6656 12.1001 17.3757C12.1001 17.1099 12.2976 16.8903 12.5538 16.8555L12.6251 16.8507H15.7748ZM19.9746 13.001C20.2645 13.001 20.4995 13.236 20.4995 13.5259C20.4995 13.7917 20.302 14.0113 20.0458 14.0461L19.9746 14.0509H12.6251C12.3351 14.0509 12.1001 13.8159 12.1001 13.5259C12.1001 13.2602 12.2976 13.0405 12.5538 13.0058L12.6251 13.001H19.9746Z" fill="#0898A0"/>
</svg>
