<svg width="14" height="15" viewBox="0 0 14 15" fill="none" xmlns="http://www.w3.org/2000/svg">
<path opacity="0.5" fill-rule="evenodd" clip-rule="evenodd" d="M13.7431 13.5701L9.91009 9.73565C10.5972 8.79855 10.9652 7.66563 10.9601 6.50365C10.947 3.4705 8.49372 1.01367 5.46059 0.996149C4.00907 0.989582 2.61522 1.56381 1.58953 2.5909C0.563845 3.61799 -0.00846493 5.01264 9.46502e-05 6.46415C0.0132044 9.49757 2.4667 11.9546 5.50009 11.9721C6.6668 11.9772 7.80387 11.6048 8.74159 10.9106L8.74559 10.9076L12.5751 14.7391C12.7821 14.9564 13.0907 15.0443 13.3811 14.9689C13.6716 14.8934 13.8983 14.6665 13.9735 14.376C14.0487 14.0855 13.9605 13.777 13.7431 13.5701ZM5.49609 10.8741C3.06951 10.8602 1.10675 8.89475 1.09609 6.46815C1.08955 5.30709 1.54743 4.1916 2.36783 3.36999C3.18822 2.54837 4.30303 2.08883 5.46409 2.09365C7.89068 2.10761 9.85344 4.07305 9.86409 6.49965C9.87064 7.66071 9.41276 8.7762 8.59236 9.59781C7.77197 10.4194 6.65716 10.879 5.49609 10.8741Z" fill="#0898A0"/>
</svg>
