<svg width="21" height="21" viewBox="0 0 21 21" fill="none" xmlns="http://www.w3.org/2000/svg">
<path d="M16.6099 15.2971L16.3285 15.6481L16.6479 15.9649L20.3535 19.6405C20.4417 19.7334 20.491 19.8567 20.491 19.9849C20.491 20.1135 20.4414 20.2371 20.3527 20.3301C20.3067 20.3759 20.2522 20.4123 20.1923 20.4372C20.1314 20.4626 20.066 20.4757 20 20.4757C19.934 20.4757 19.8686 20.4626 19.8077 20.4372C19.7468 20.4119 19.6915 20.3747 19.645 20.3278L19.6436 20.3264L15.9636 16.6464L15.6467 16.3295L15.2972 16.6099C13.6013 17.9699 11.4488 18.6286 9.28228 18.4504C7.11573 18.2722 5.0998 17.2707 3.649 15.6517C2.1982 14.0328 1.42282 11.9196 1.48228 9.7465C1.54174 7.57345 2.43153 5.50576 3.96869 3.9686C5.50585 2.43144 7.57354 1.54165 9.7466 1.48219C11.9197 1.42273 14.0329 2.19811 15.6518 3.64891C17.2707 5.0997 18.2723 7.11564 18.4505 9.28219C18.6287 11.4487 17.97 13.6012 16.6099 15.2971ZM5.83322 16.2359C7.06659 17.06 8.51664 17.4999 10 17.4999C11.9891 17.4999 13.8968 16.7097 15.3033 15.3032C16.7098 13.8967 17.5 11.989 17.5 9.9999C17.5 8.51654 17.0601 7.0665 16.236 5.83313C15.4119 4.59976 14.2406 3.63847 12.8701 3.07081C11.4997 2.50315 9.99168 2.35463 8.53682 2.64401C7.08196 2.9334 5.74559 3.64771 4.6967 4.6966C3.6478 5.7455 2.9335 7.08187 2.64411 8.53673C2.35472 9.99158 2.50324 11.4996 3.0709 12.87C3.63856 14.2405 4.59985 15.4118 5.83322 16.2359Z" fill="#222222" stroke="#8898AA"/>
</svg>
