<svg width="12" height="15" viewBox="0 0 12 15" fill="none" xmlns="http://www.w3.org/2000/svg">
<path fill-rule="evenodd" clip-rule="evenodd" d="M10.9808 5.31943C10.9808 5.31943 6.54717 0.875352 6.5101 0.832592C6.32972 0.623762 6.0663 0.491007 5.77026 0.491007C5.46187 0.491007 5.18907 0.635696 5.00868 0.859938C4.97013 0.908168 0.55975 5.31943 0.55975 5.31943C0.173768 5.70776 0.173768 6.33772 0.55975 6.72555C0.945733 7.11387 1.5719 7.11387 1.95739 6.72555L4.78183 3.88448L4.78183 13.4916C4.78183 14.0435 5.22465 14.491 5.77026 14.491C6.31637 14.491 6.75869 14.0435 6.75869 13.4916L6.75869 3.88448L9.58314 6.72555C9.96862 7.11387 10.5948 7.11387 10.9808 6.72555C11.3668 6.33772 11.3668 5.70776 10.9808 5.31943Z" fill="#E6F5F6"/>
</svg>
