<svg width="42" height="42" viewBox="0 0 42 42" fill="none" xmlns="http://www.w3.org/2000/svg">
<rect width="42" height="42" rx="21" fill="#71879C" fill-opacity="0.1"/>
<path d="M17 27H15C13.8954 27 13 26.1046 13 25V17C13 15.8954 13.8954 15 15 15H17" stroke="#0898A0" stroke-width="1.2"/>
<rect x="17" y="13" width="12" height="16" rx="2" stroke="#0898A0" stroke-width="1.2"/>
<path d="M22.9223 24.4517C22.8658 24.4517 22.8093 24.4517 22.8093 24.3952C22.7527 24.3386 22.7527 24.3386 22.7527 24.2821V23.7167C22.3569 23.6602 22.0742 23.6036 21.7916 23.434C21.5089 23.2644 21.3392 23.0948 21.2262 22.9252C21.1131 22.7555 21 22.5294 21 22.3032C21 22.2467 21 22.2467 21.0565 22.1901C21.1131 22.1336 21.1131 22.1336 21.1696 22.1336H21.7916C21.8481 22.1336 21.9046 22.1336 21.9612 22.1901C22.0177 22.1901 22.0177 22.2467 22.0177 22.3032C22.0742 22.4163 22.1308 22.4728 22.1873 22.5859C22.2439 22.699 22.4135 22.7555 22.5266 22.8121C22.6396 22.8686 22.8658 22.9252 23.092 22.9252C23.4877 22.9252 23.7139 22.8686 23.9401 22.7555C24.1097 22.6425 24.2227 22.4728 24.2227 22.2467C24.2227 22.0771 24.1662 21.964 24.0531 21.9075C23.9401 21.7944 23.827 21.7378 23.6008 21.6813C23.3747 21.6248 23.1485 21.5117 22.8093 21.4551C22.4135 21.3421 22.1308 21.229 21.8481 21.1159C21.5654 21.0028 21.3958 20.8332 21.2827 20.607C21.1696 20.3809 21.1131 20.1547 21.1131 19.872C21.1131 19.4763 21.2827 19.137 21.5654 18.8543C21.8481 18.5716 22.2439 18.402 22.7527 18.3455V17.8366C22.7527 17.7801 22.7527 17.7235 22.8093 17.7235C22.8658 17.667 22.8658 17.667 22.9223 17.667H23.3747C23.4312 17.667 23.4877 17.667 23.4877 17.7235C23.5443 17.7801 23.5443 17.7801 23.5443 17.8366V18.402C23.8835 18.4585 24.1662 18.5716 24.3924 18.6847C24.6185 18.7978 24.7881 19.0239 24.9578 19.1936C25.0708 19.3632 25.1274 19.5893 25.1274 19.759C25.1274 19.8155 25.1274 19.8155 25.0708 19.872C25.0708 19.9286 25.0143 19.9286 24.9578 19.9286H24.2227C24.1662 19.9286 24.1097 19.9286 24.1097 19.872C24.0531 19.872 24.0531 19.8155 23.9966 19.759C23.9966 19.5893 23.8835 19.4763 23.7139 19.3632C23.5443 19.2501 23.3181 19.1936 23.0354 19.1936C22.7527 19.1936 22.5266 19.2501 22.3569 19.3632C22.1873 19.4763 22.1308 19.6459 22.1308 19.8155C22.1308 19.9851 22.1873 20.0982 22.2439 20.1547C22.3004 20.2113 22.47 20.3243 22.6396 20.3809C22.8093 20.4374 23.092 20.5505 23.3747 20.607C23.827 20.7201 24.1662 20.8332 24.4489 20.9463C24.7316 21.0594 24.9012 21.229 25.0708 21.4551C25.1839 21.6248 25.2405 21.9075 25.2405 22.1901C25.2405 22.4728 25.1839 22.7555 25.0143 22.9817C24.8447 23.2079 24.6751 23.3775 24.3924 23.5471C24.1097 23.6602 23.827 23.7733 23.4312 23.8298V24.3386C23.4312 24.3952 23.4312 24.4517 23.3747 24.4517C23.3181 24.5083 23.3181 24.5083 23.2616 24.5083H22.9223V24.4517Z" fill="#0898A0"/>
</svg>
