<svg width="40" height="40" viewBox="0 0 40 40" fill="none" xmlns="http://www.w3.org/2000/svg">
<rect width="40" height="40" rx="20" fill="#71879C" fill-opacity="0.1"/>
<g clip-path="url(#clip0_31639_1274)">
<path d="M10.6888 14.7716V15.746H29.3112V14.7716H10.6888ZM12.5175 27.9945H27.4799C29.1542 27.9945 30 27.1175 30 25.4183V14.5824C30 12.8831 29.1542 12 27.4799 12H12.5175C10.8517 12 10 12.8749 10 14.5824V25.4183C10 27.1257 10.8517 27.9945 12.5175 27.9945ZM12.5372 26.9037C11.5746 26.9037 11.0573 26.3779 11.0573 25.3579V14.6427C11.0573 13.6227 11.5746 13.0936 12.5372 13.0936H27.4629C28.4063 13.0936 28.9427 13.6227 28.9427 14.6427V25.3579C28.9427 26.3779 28.4063 26.9037 27.4629 26.9037H12.5372ZM20.0059 24.6572C20.2911 24.6572 20.527 24.4132 20.527 24.127V20.9381L20.4864 19.3006L21.5994 20.4818L22.6434 21.5672C22.7424 21.6696 22.8677 21.73 23.004 21.73C23.2944 21.73 23.4984 21.5312 23.4984 21.2397C23.4984 21.0638 23.4188 20.9411 23.2863 20.8222L20.3901 17.9606C20.2557 17.8277 20.1423 17.7768 20.0059 17.7768C19.8662 17.7768 19.7614 17.825 19.6244 17.9606L16.7223 20.8222C16.5956 20.9411 16.5161 21.0638 16.5161 21.2397C16.5161 21.5312 16.7141 21.73 16.9987 21.73C17.135 21.73 17.2661 21.6696 17.371 21.5672L18.415 20.4818L19.5281 19.3006L19.4815 20.9381V24.127C19.4815 24.4132 19.7234 24.6572 20.0059 24.6572Z" fill="#0898A0"/>
</g>
<defs>
<clipPath id="clip0_31639_1274">
<rect width="20" height="16" fill="white" transform="translate(10 12)"/>
</clipPath>
</defs>
</svg>
