<svg width="42" height="42" viewBox="0 0 42 42" fill="none" xmlns="http://www.w3.org/2000/svg">
<circle cx="21" cy="21" r="21" fill="white"/>
<circle cx="21" cy="21" r="20" fill="white" stroke="url(#paint0_linear)" stroke-width="2"/>
<mask id="mask0" mask-type="alpha" maskUnits="userSpaceOnUse" x="0" y="0" width="42" height="42">
<circle cx="21" cy="21" r="21" fill="white"/>
</mask>
<g mask="url(#mask0)">
<path d="M27.2134 8.12002C27.7266 8.11946 28.2284 8.27113 28.6554 8.55584C29.0823 8.84055 29.4153 9.2455 29.612 9.71946C29.8088 10.1934 29.8606 10.7151 29.7608 11.2185C29.661 11.7219 29.4142 12.1844 29.0515 12.5474C28.6888 12.9105 28.2266 13.1578 27.7233 13.2582C27.22 13.3585 26.6983 13.3073 26.2241 13.111C25.7499 12.9148 25.3446 12.5823 25.0595 12.1556C24.7743 11.729 24.6221 11.2273 24.6221 10.7141C24.6235 10.027 24.8969 9.3685 25.3825 8.88241C25.8681 8.39632 26.5263 8.12222 27.2134 8.12002Z" fill="#002324"/>
<path d="M27.0434 28.6722L26.9069 28.9147L26.9041 28.5942L27.0434 28.6722Z" fill="#002324"/>
<path d="M26.9042 28.5943L26.907 28.9148L26.6284 28.7587L26.6256 28.4411L26.9042 28.5943Z" fill="#002324"/>
<path d="M26.6282 28.7587L26.9069 28.9148L26.7703 29.1572L26.6282 29.0792V28.7587Z" fill="#002324"/>
<path d="M26.6282 28.7588V29.0792L18.7484 24.7018L19.718 24.9219L26.6282 28.7588Z" fill="#002324"/>
<path d="M26.5643 15.894L26.6256 28.4327L19.8463 24.6683L19.9104 24.3896L18.9463 24.1723L11.9804 20.2992C12.6073 19.1401 15.6027 14.016 19.8575 13.2804C22.0838 12.8986 24.3435 13.7763 26.5643 15.894Z" fill="#002324"/>
<path d="M24.6221 10.7142C24.6221 11.2274 24.7743 11.729 25.0595 12.1557C25.3446 12.5823 25.75 12.9148 26.2241 13.1111C26.6983 13.3073 27.22 13.3586 27.7233 13.2582C28.2266 13.1579 28.6888 12.9106 29.0515 12.5475C29.4142 12.1844 29.661 11.7219 29.7608 11.2186C29.8606 10.7152 29.8088 10.1935 29.612 9.71952C29.4153 9.24555 29.0823 8.8406 28.6554 8.55589C28.2284 8.27119 27.7266 8.11951 27.2134 8.12007C26.5259 8.1208 25.8668 8.39443 25.3809 8.88084C24.895 9.36725 24.6221 10.0267 24.6221 10.7142ZM24.3434 10.7142C24.3429 10.1458 24.511 9.58996 24.8264 9.11711C25.1419 8.64427 25.5905 8.27562 26.1156 8.05785C26.6406 7.84007 27.2184 7.78295 27.776 7.89371C28.3335 8.00446 28.8456 8.27812 29.2475 8.68005C29.6495 9.08198 29.9231 9.59411 30.0339 10.1516C30.1446 10.7091 30.0875 11.287 29.8697 11.812C29.652 12.3371 29.2833 12.7857 28.8105 13.1012C28.3376 13.4166 27.7818 13.5847 27.2134 13.5841C26.4525 13.5834 25.7229 13.2808 25.1849 12.7427C24.6468 12.2047 24.3442 11.4751 24.3434 10.7142Z" fill="#002324"/>
<path d="M24.0649 10.7142C24.0643 10.0907 24.2488 9.48099 24.5948 8.96232C24.9409 8.44365 25.433 8.0393 26.009 7.80043C26.5849 7.56157 27.2188 7.49892 27.8304 7.62043C28.442 7.74193 29.0037 8.04213 29.4446 8.48303C29.8855 8.92393 30.1857 9.48571 30.3072 10.0973C30.4287 10.7088 30.3661 11.3427 30.1272 11.9187C29.8884 12.4946 29.484 12.9868 28.9653 13.3328C28.4467 13.6789 27.837 13.8633 27.2135 13.8628C26.3789 13.8613 25.5789 13.5291 24.9887 12.939C24.3986 12.3488 24.0664 11.5488 24.0649 10.7142ZM27.2135 7.84144C26.6453 7.84144 26.0899 8.00992 25.6175 8.32558C25.145 8.64124 24.7768 9.08991 24.5594 9.61483C24.342 10.1398 24.2851 10.7174 24.3959 11.2746C24.5068 11.8319 24.7804 12.3438 25.1821 12.7455C25.5839 13.1473 26.0958 13.4209 26.653 13.5317C27.2103 13.6426 27.7879 13.5857 28.3128 13.3683C28.8378 13.1508 29.2864 12.7826 29.6021 12.3102C29.9177 11.8378 30.0862 11.2824 30.0862 10.7142C30.0862 9.95229 29.7836 9.22159 29.2448 8.68284C28.7061 8.1441 27.9754 7.84144 27.2135 7.84144Z" fill="#002324"/>
<path d="M19.8464 24.6766L26.6257 28.441L26.6285 28.7586L19.7183 24.9218L19.7879 24.9385L19.8464 24.6766Z" fill="#002324"/>
<path d="M19.9104 24.3953L19.8463 24.6767L18.9463 24.1779L19.9104 24.3953Z" fill="#002324"/>
<path d="M18.8433 24.4371L17.9795 23.9579L18.9463 24.178L19.8463 24.6767L19.7878 24.9386L19.7182 24.9219L18.8433 24.4371Z" fill="#002324"/>
<path d="M18.8433 24.4371L19.7182 24.9219L18.7486 24.7018L17.0099 23.7376L17.9796 23.9578L18.8433 24.4371Z" fill="#002324"/>
<path d="M19.066 35.7469L18.6508 35.9781V35.5044H19.2081V35.6689L19.066 35.7469Z" fill="#002324"/>
<path d="M18.7484 24.7017L15.4856 23.9633L15.6082 23.42L17.0097 23.7377L18.7484 24.7017Z" fill="#002324"/>
<path d="M17.9795 23.9578L17.0098 23.7377L11.816 20.8649C11.8328 20.7368 11.8495 20.6392 11.8606 20.5863L17.9795 23.9578Z" fill="#002324"/>
<path d="M17.4332 30.4472L17.9626 30.6256C17.3552 32.4088 13.549 32.7571 13.3874 32.7711L13.3373 32.2138C14.3404 32.1274 17.0264 31.6398 17.4332 30.4472Z" fill="#002324"/>
<path d="M17.1102 25.2954C17.2266 25.2954 17.3403 25.3299 17.4371 25.3947C17.5338 25.4594 17.6092 25.5514 17.6536 25.659C17.698 25.7665 17.7095 25.8849 17.6866 25.999C17.6636 26.1131 17.6074 26.2179 17.5249 26.3C17.4424 26.3821 17.3374 26.4379 17.2231 26.4603C17.1089 26.4826 16.9906 26.4706 16.8832 26.4257C16.7758 26.3807 16.6842 26.3049 16.62 26.2079C16.5557 26.1108 16.5217 25.9969 16.5222 25.8805C16.523 25.7251 16.5852 25.5762 16.6954 25.4666C16.8056 25.3569 16.9547 25.2954 17.1102 25.2954Z" fill="#012224"/>
<path d="M13.6827 23.4117V29.7534H13.1255V23.9689H11.4341C11.4341 23.8891 11.4425 23.8055 11.4592 23.7182L11.4926 23.4117H13.6827Z" fill="#002324"/>
<path d="M12.1865 25.2952C12.303 25.2946 12.4171 25.3287 12.5142 25.3931C12.6113 25.4575 12.6871 25.5493 12.7319 25.6568C12.7768 25.7644 12.7886 25.8828 12.7661 25.9971C12.7435 26.1114 12.6874 26.2165 12.605 26.2989C12.5226 26.3812 12.4176 26.4373 12.3033 26.4599C12.189 26.4825 12.0706 26.4706 11.963 26.4258C11.8555 26.3809 11.7637 26.3051 11.6993 26.208C11.6349 26.1109 11.6008 25.9969 11.6014 25.8803C11.6 25.8609 11.6 25.8413 11.6014 25.8218C11.6159 25.677 11.6839 25.5428 11.7921 25.4454C11.9003 25.348 12.0409 25.2945 12.1865 25.2952Z" fill="#012224"/>
<path d="M11.9747 20.3077L18.9406 24.1807L17.9738 23.9606L11.8438 20.564C11.8438 20.5417 11.8438 20.5222 11.8438 20.5083L11.9747 20.3077Z" fill="#002324"/>
<path d="M11.8689 20.5028C11.8689 20.5167 11.8689 20.5362 11.8689 20.5585L11.6098 20.4164L11.6349 20.369L11.7463 20.174L11.9832 20.3049L11.8689 20.5028Z" fill="#002324"/>
<path d="M11.6016 20.4163L11.8607 20.5584C11.8607 20.6253 11.8328 20.7228 11.8161 20.8371L11.465 20.642L11.6016 20.4163Z" fill="#002324"/>
<path d="M19.8518 13.286C15.597 14.0216 12.6073 19.1374 11.9748 20.3049L11.7379 20.1739L11.6265 20.369C12.0639 19.5135 18.3834 7.58511 26.8428 15.7742L26.9041 28.5915L26.6255 28.4383L26.5642 15.8996C24.3434 13.7764 22.0837 12.8987 19.8518 13.286Z" fill="#002324"/>
<path d="M10.9299 23.4118C11.1194 21.6285 11.3256 20.383 11.3256 20.3718L11.3507 20.2938C11.9857 19.0734 12.7468 17.9228 13.6216 16.861C15.533 14.5288 17.6562 13.1022 19.7516 12.7372C22.1952 12.3109 24.6472 13.2666 27.0324 15.5737L27.1159 15.6545L27.2525 43.2201H27.233L27.2107 42.8802L26.7844 43.2814C26.7561 43.309 26.7263 43.335 26.6952 43.3594L26.6339 31.2526C25.798 31.8238 23.6832 33.1696 19.2027 35.6662V35.5019H18.6454L18.5757 35.3765L18.7875 35.2594C24.0816 32.3059 26.1296 30.9294 26.6311 30.5755V29.0765L26.7732 29.1545L26.9098 28.9121L27.0463 28.6697L26.907 28.5916L26.8457 15.7743C18.3863 7.58517 12.0779 19.5136 11.6293 20.369L11.6042 20.4164L11.4677 20.6588L11.8188 20.8539C11.7436 21.3443 11.6154 22.261 11.4956 23.4118H10.9299Z" fill="#002324"/>
<path d="M10.9048 23.6512C10.9048 23.5676 10.9216 23.4812 10.9299 23.4004H11.4872L11.4537 23.7069C11.4537 23.7942 11.4454 23.8778 11.4287 23.9577H10.8714C10.8853 23.8685 10.8937 23.7654 10.9048 23.6512Z" fill="#002324"/>
<path d="M11.2809 25.7967C10.863 31.8765 11.5596 35.8276 13.2314 36.8948C14.0199 37.4019 15.0732 37.3016 16.3633 36.5966C17.1564 36.1638 17.8939 35.758 18.5756 35.379L18.6453 35.5044V35.9781C18.0193 36.3273 17.3478 36.6988 16.6307 37.0926C15.1484 37.9007 13.9029 37.9954 12.9305 37.3712C10.5481 35.8415 10.4227 30.2158 10.7181 25.7632C10.7571 25.206 10.8045 24.6208 10.8686 23.9744H11.4258C11.3673 24.632 11.3171 25.231 11.2809 25.7967Z" fill="#002324"/>
<path d="M10.9298 23.4117C10.9298 23.4925 10.9131 23.5788 10.9047 23.6624C10.8964 23.746 10.8852 23.8686 10.8741 23.9689H10.08V23.4117H10.9298Z" fill="#002324"/>
<path d="M18.6826 35.5721H19.4256V43.7455H18.6826V35.5721Z" fill="#002324"/>
</g>
<defs>
<linearGradient id="paint0_linear" x1="21" y1="0" x2="21" y2="42" gradientUnits="userSpaceOnUse">
<stop stop-color="#0898A0"/>
<stop offset="1" stop-color="#22D8E2"/>
</linearGradient>
</defs>
</svg>
