<svg width="10" height="11" viewBox="0 0 10 11" fill="none" xmlns="http://www.w3.org/2000/svg">
<path d="M5 10.5C7.7683 10.5 10 8.2683 10 5.5C10 2.73671 7.77332 0.5 5.00501 0.5C4.64895 0.5 4.42327 0.710632 4.42327 1.05165V2.66148C4.42327 2.95737 4.6339 3.17803 4.92477 3.17803C5.21565 3.17803 5.42126 2.95737 5.42126 2.66148V1.71866C7.32197 1.9343 8.77633 3.54413 8.77633 5.5C8.77633 7.58626 7.1013 9.28134 5 9.28134C2.8987 9.28134 1.21866 7.58626 1.22367 5.5C1.22367 4.64744 1.51956 3.84002 2.00602 3.20812C2.23671 2.87212 2.29188 2.5662 2.02106 2.30542C1.75527 2.05466 1.334 2.08475 1.06319 2.45085C0.406219 3.29338 0 4.35657 0 5.5C0 8.2683 2.2317 10.5 5 10.5ZM5.7673 6.29238C6.18355 5.85607 6.09328 5.25426 5.60181 4.92828L3.34002 3.41374C2.98897 3.18305 2.668 3.50903 2.89368 3.85507L4.41324 6.12187C4.73922 6.61334 5.34102 6.70863 5.7673 6.29238Z" fill="white"/>
</svg>
