<svg width="16" height="16" viewBox="0 0 16 16" fill="none" xmlns="http://www.w3.org/2000/svg">
<rect opacity="0.2" width="16" height="16" rx="8" fill="white"/>
<path fill-rule="evenodd" clip-rule="evenodd" d="M7.38954 8.07598L4.98967 5.67611C4.80032 5.48676 4.80032 5.17977 4.98967 4.99043C5.17901 4.80108 5.486 4.80108 5.67534 4.99043L8.07522 7.39031L10.4751 4.99043C10.6644 4.80108 10.9714 4.80108 11.1608 4.99043C11.3501 5.17977 11.3501 5.48676 11.1608 5.67611L8.7609 8.07598L11.1608 10.4759C11.3501 10.6652 11.3501 10.9722 11.1608 11.1615C10.9714 11.3509 10.6644 11.3509 10.4751 11.1615L8.07522 8.76166L5.67534 11.1615C5.486 11.3509 5.17901 11.3509 4.98967 11.1615C4.80032 10.9722 4.80032 10.6652 4.98967 10.4759L7.38954 8.07598Z" fill="white"/>
</svg>
