<svg width="133" height="37" viewBox="0 0 133 37" fill="none" xmlns="http://www.w3.org/2000/svg">
<rect x="0.28125" y="6.56714" width="122.149" height="29.5522" rx="10" fill="#E6F5F6"/>
<g clip-path="url(#clip0)">
<mask id="path-2-outside-1" maskUnits="userSpaceOnUse" x="110.225" y="0.245361" width="18" height="21" fill="black">
<rect fill="white" x="110.225" y="0.245361" width="18" height="21"/>
<path d="M116.94 8.8329L116.8 8.86313C116.248 8.96859 115.704 9.11307 115.173 9.29546C114.091 9.70072 113.151 10.4098 112.468 11.3362C111.159 13.0746 110.881 14.9399 111.646 16.8809C112.05 18.0131 112.882 18.9447 113.967 19.4779C114.761 19.8629 115.633 20.0635 116.516 20.0644C116.919 20.0635 117.321 20.024 117.716 19.9465C118.783 19.7745 119.791 19.3492 120.656 18.707C120.96 18.4772 121.228 18.2293 121.5 17.9874L121.628 17.8725C122.086 18.4978 122.595 19.0843 123.15 19.626C123.316 19.7905 123.538 19.8877 123.772 19.8989C124.007 19.9101 124.237 19.8344 124.418 19.6865L126.854 17.6579C126.95 17.5777 127.022 17.4732 127.062 17.3555C127.106 17.2147 127.118 17.0655 127.094 16.9196C127.071 16.7738 127.014 16.6353 126.927 16.5151C126.86 16.4213 126.797 16.3246 126.729 16.2127C126.611 16.0344 126.486 15.8499 126.352 15.6746C126.062 15.2801 125.874 14.8214 125.804 14.3383C125.753 14.1015 125.726 13.8606 125.721 13.6188C125.721 11.5025 125.721 9.20779 125.721 6.88893C125.738 6.27456 125.653 5.66161 125.468 5.07496C125.18 4.13284 124.591 3.30935 123.79 2.72889C122.513 1.84784 121.014 1.33803 119.461 1.25684C117.908 1.17566 116.363 1.52631 114.999 2.26935C114.203 2.67952 113.51 3.26238 112.972 3.97469C112.433 4.687 112.064 5.51048 111.89 6.38404C111.858 6.51071 111.855 6.64283 111.881 6.77077C111.907 6.89871 111.962 7.01923 112.041 7.12353C112.12 7.22783 112.222 7.31328 112.338 7.37364C112.455 7.434 112.584 7.46775 112.715 7.47242L114.406 7.62056C114.738 7.6508 115.073 7.68103 115.405 7.70522C115.621 7.73529 115.841 7.68748 116.025 7.57046C116.209 7.45344 116.344 7.27495 116.407 7.0673C116.504 6.58978 116.752 6.15577 117.117 5.82919C117.481 5.50261 117.941 5.30075 118.429 5.25333C118.88 5.15979 119.349 5.21059 119.769 5.39845C120.075 5.52399 120.334 5.73868 120.514 6.01406C120.693 6.28943 120.784 6.61247 120.775 6.94032V8.40359C119.485 8.41872 118.2 8.56254 116.94 8.8329ZM120.044 4.8724C119.691 4.70136 119.303 4.61538 118.911 4.62146C118.719 4.62236 118.527 4.63752 118.338 4.66681C117.731 4.72986 117.159 4.98293 116.706 5.38944C116.254 5.79595 115.943 6.33484 115.819 6.92823C115.788 6.99593 115.735 7.05146 115.669 7.08597C115.603 7.12049 115.527 7.13201 115.453 7.1187L114.451 7.01893L112.761 6.87079C112.715 6.86921 112.67 6.85819 112.628 6.83841C112.587 6.81864 112.55 6.79054 112.52 6.7559C112.496 6.71981 112.48 6.67899 112.473 6.63622C112.466 6.59345 112.469 6.54972 112.48 6.50799C112.633 5.71855 112.965 4.97405 113.451 4.3312C113.937 3.68835 114.565 3.16411 115.286 2.79842C116.549 2.10813 117.982 1.78171 119.422 1.85596C120.862 1.93021 122.252 2.40217 123.437 3.21866C124.133 3.72467 124.643 4.44383 124.887 5.26542C125.053 5.78911 125.13 6.33699 125.112 6.8859C125.112 9.20779 125.112 11.4934 125.112 13.6188C125.112 13.8966 125.137 14.1739 125.188 14.4471C125.274 15.0305 125.503 15.584 125.855 16.0586C125.98 16.2188 126.093 16.3881 126.212 16.5634L126.416 16.8658C126.45 16.9111 126.472 16.9641 126.48 17.02C126.489 17.0758 126.483 17.133 126.464 17.1862C126.464 17.1862 126.464 17.2074 126.446 17.2134C125.634 17.8907 124.827 18.5659 124.025 19.239C123.959 19.2859 123.879 19.3071 123.798 19.2988C123.718 19.2904 123.643 19.253 123.589 19.1937C123.003 18.6254 122.472 18.004 122.002 17.3374L121.926 17.2679L121.673 17.4402L121.914 17.2528C121.888 17.2201 121.856 17.193 121.82 17.1731C121.784 17.1531 121.744 17.1408 121.702 17.1369C121.661 17.1329 121.619 17.1374 121.58 17.15C121.54 17.1627 121.503 17.1832 121.472 17.2104L121.091 17.5369C120.817 17.7818 120.555 18.0146 120.281 18.2293C119.49 18.8118 118.57 19.1975 117.598 19.3539C116.465 19.5894 115.285 19.4415 114.247 18.9337C113.774 18.7064 113.351 18.3889 113.002 17.9993C112.653 17.6098 112.385 17.1558 112.212 16.6632C111.533 14.9309 111.783 13.262 112.956 11.702C113.57 10.867 114.417 10.2282 115.392 9.86384C115.897 9.69211 116.413 9.55572 116.937 9.4557L117.074 9.42546C118.352 9.15156 119.656 9.01172 120.963 9.00825H121.061H121.101C121.174 9.00252 121.243 8.97057 121.294 8.91832C121.346 8.86607 121.377 8.79706 121.381 8.72406V8.67267C121.381 8.62732 121.381 8.58499 121.381 8.53964V6.9373C121.386 6.50088 121.263 6.07243 121.025 5.70528C120.787 5.33813 120.446 5.04848 120.044 4.8724Z"/>
</mask>
<path d="M116.94 8.8329L116.8 8.86313C116.248 8.96859 115.704 9.11307 115.173 9.29546C114.091 9.70072 113.151 10.4098 112.468 11.3362C111.159 13.0746 110.881 14.9399 111.646 16.8809C112.05 18.0131 112.882 18.9447 113.967 19.4779C114.761 19.8629 115.633 20.0635 116.516 20.0644C116.919 20.0635 117.321 20.024 117.716 19.9465C118.783 19.7745 119.791 19.3492 120.656 18.707C120.96 18.4772 121.228 18.2293 121.5 17.9874L121.628 17.8725C122.086 18.4978 122.595 19.0843 123.15 19.626C123.316 19.7905 123.538 19.8877 123.772 19.8989C124.007 19.9101 124.237 19.8344 124.418 19.6865L126.854 17.6579C126.95 17.5777 127.022 17.4732 127.062 17.3555C127.106 17.2147 127.118 17.0655 127.094 16.9196C127.071 16.7738 127.014 16.6353 126.927 16.5151C126.86 16.4213 126.797 16.3246 126.729 16.2127C126.611 16.0344 126.486 15.8499 126.352 15.6746C126.062 15.2801 125.874 14.8214 125.804 14.3383C125.753 14.1015 125.726 13.8606 125.721 13.6188C125.721 11.5025 125.721 9.20779 125.721 6.88893C125.738 6.27456 125.653 5.66161 125.468 5.07496C125.18 4.13284 124.591 3.30935 123.79 2.72889C122.513 1.84784 121.014 1.33803 119.461 1.25684C117.908 1.17566 116.363 1.52631 114.999 2.26935C114.203 2.67952 113.51 3.26238 112.972 3.97469C112.433 4.687 112.064 5.51048 111.89 6.38404C111.858 6.51071 111.855 6.64283 111.881 6.77077C111.907 6.89871 111.962 7.01923 112.041 7.12353C112.12 7.22783 112.222 7.31328 112.338 7.37364C112.455 7.434 112.584 7.46775 112.715 7.47242L114.406 7.62056C114.738 7.6508 115.073 7.68103 115.405 7.70522C115.621 7.73529 115.841 7.68748 116.025 7.57046C116.209 7.45344 116.344 7.27495 116.407 7.0673C116.504 6.58978 116.752 6.15577 117.117 5.82919C117.481 5.50261 117.941 5.30075 118.429 5.25333C118.88 5.15979 119.349 5.21059 119.769 5.39845C120.075 5.52399 120.334 5.73868 120.514 6.01406C120.693 6.28943 120.784 6.61247 120.775 6.94032V8.40359C119.485 8.41872 118.2 8.56254 116.94 8.8329ZM120.044 4.8724C119.691 4.70136 119.303 4.61538 118.911 4.62146C118.719 4.62236 118.527 4.63752 118.338 4.66681C117.731 4.72986 117.159 4.98293 116.706 5.38944C116.254 5.79595 115.943 6.33484 115.819 6.92823C115.788 6.99593 115.735 7.05146 115.669 7.08597C115.603 7.12049 115.527 7.13201 115.453 7.1187L114.451 7.01893L112.761 6.87079C112.715 6.86921 112.67 6.85819 112.628 6.83841C112.587 6.81864 112.55 6.79054 112.52 6.7559C112.496 6.71981 112.48 6.67899 112.473 6.63622C112.466 6.59345 112.469 6.54972 112.48 6.50799C112.633 5.71855 112.965 4.97405 113.451 4.3312C113.937 3.68835 114.565 3.16411 115.286 2.79842C116.549 2.10813 117.982 1.78171 119.422 1.85596C120.862 1.93021 122.252 2.40217 123.437 3.21866C124.133 3.72467 124.643 4.44383 124.887 5.26542C125.053 5.78911 125.13 6.33699 125.112 6.8859C125.112 9.20779 125.112 11.4934 125.112 13.6188C125.112 13.8966 125.137 14.1739 125.188 14.4471C125.274 15.0305 125.503 15.584 125.855 16.0586C125.98 16.2188 126.093 16.3881 126.212 16.5634L126.416 16.8658C126.45 16.9111 126.472 16.9641 126.48 17.02C126.489 17.0758 126.483 17.133 126.464 17.1862C126.464 17.1862 126.464 17.2074 126.446 17.2134C125.634 17.8907 124.827 18.5659 124.025 19.239C123.959 19.2859 123.879 19.3071 123.798 19.2988C123.718 19.2904 123.643 19.253 123.589 19.1937C123.003 18.6254 122.472 18.004 122.002 17.3374L121.926 17.2679L121.673 17.4402L121.914 17.2528C121.888 17.2201 121.856 17.193 121.82 17.1731C121.784 17.1531 121.744 17.1408 121.702 17.1369C121.661 17.1329 121.619 17.1374 121.58 17.15C121.54 17.1627 121.503 17.1832 121.472 17.2104L121.091 17.5369C120.817 17.7818 120.555 18.0146 120.281 18.2293C119.49 18.8118 118.57 19.1975 117.598 19.3539C116.465 19.5894 115.285 19.4415 114.247 18.9337C113.774 18.7064 113.351 18.3889 113.002 17.9993C112.653 17.6098 112.385 17.1558 112.212 16.6632C111.533 14.9309 111.783 13.262 112.956 11.702C113.57 10.867 114.417 10.2282 115.392 9.86384C115.897 9.69211 116.413 9.55572 116.937 9.4557L117.074 9.42546C118.352 9.15156 119.656 9.01172 120.963 9.00825H121.061H121.101C121.174 9.00252 121.243 8.97057 121.294 8.91832C121.346 8.86607 121.377 8.79706 121.381 8.72406V8.67267C121.381 8.62732 121.381 8.58499 121.381 8.53964V6.9373C121.386 6.50088 121.263 6.07243 121.025 5.70528C120.787 5.33813 120.446 5.04848 120.044 4.8724Z" fill="#0898A0"/>
<path d="M116.94 8.8329L116.8 8.86313C116.248 8.96859 115.704 9.11307 115.173 9.29546C114.091 9.70072 113.151 10.4098 112.468 11.3362C111.159 13.0746 110.881 14.9399 111.646 16.8809C112.05 18.0131 112.882 18.9447 113.967 19.4779C114.761 19.8629 115.633 20.0635 116.516 20.0644C116.919 20.0635 117.321 20.024 117.716 19.9465C118.783 19.7745 119.791 19.3492 120.656 18.707C120.96 18.4772 121.228 18.2293 121.5 17.9874L121.628 17.8725C122.086 18.4978 122.595 19.0843 123.15 19.626C123.316 19.7905 123.538 19.8877 123.772 19.8989C124.007 19.9101 124.237 19.8344 124.418 19.6865L126.854 17.6579C126.95 17.5777 127.022 17.4732 127.062 17.3555C127.106 17.2147 127.118 17.0655 127.094 16.9196C127.071 16.7738 127.014 16.6353 126.927 16.5151C126.86 16.4213 126.797 16.3246 126.729 16.2127C126.611 16.0344 126.486 15.8499 126.352 15.6746C126.062 15.2801 125.874 14.8214 125.804 14.3383C125.753 14.1015 125.726 13.8606 125.721 13.6188C125.721 11.5025 125.721 9.20779 125.721 6.88893C125.738 6.27456 125.653 5.66161 125.468 5.07496C125.18 4.13284 124.591 3.30935 123.79 2.72889C122.513 1.84784 121.014 1.33803 119.461 1.25684C117.908 1.17566 116.363 1.52631 114.999 2.26935C114.203 2.67952 113.51 3.26238 112.972 3.97469C112.433 4.687 112.064 5.51048 111.89 6.38404C111.858 6.51071 111.855 6.64283 111.881 6.77077C111.907 6.89871 111.962 7.01923 112.041 7.12353C112.12 7.22783 112.222 7.31328 112.338 7.37364C112.455 7.434 112.584 7.46775 112.715 7.47242L114.406 7.62056C114.738 7.6508 115.073 7.68103 115.405 7.70522C115.621 7.73529 115.841 7.68748 116.025 7.57046C116.209 7.45344 116.344 7.27495 116.407 7.0673C116.504 6.58978 116.752 6.15577 117.117 5.82919C117.481 5.50261 117.941 5.30075 118.429 5.25333C118.88 5.15979 119.349 5.21059 119.769 5.39845C120.075 5.52399 120.334 5.73868 120.514 6.01406C120.693 6.28943 120.784 6.61247 120.775 6.94032V8.40359C119.485 8.41872 118.2 8.56254 116.94 8.8329ZM120.044 4.8724C119.691 4.70136 119.303 4.61538 118.911 4.62146C118.719 4.62236 118.527 4.63752 118.338 4.66681C117.731 4.72986 117.159 4.98293 116.706 5.38944C116.254 5.79595 115.943 6.33484 115.819 6.92823C115.788 6.99593 115.735 7.05146 115.669 7.08597C115.603 7.12049 115.527 7.13201 115.453 7.1187L114.451 7.01893L112.761 6.87079C112.715 6.86921 112.67 6.85819 112.628 6.83841C112.587 6.81864 112.55 6.79054 112.52 6.7559C112.496 6.71981 112.48 6.67899 112.473 6.63622C112.466 6.59345 112.469 6.54972 112.48 6.50799C112.633 5.71855 112.965 4.97405 113.451 4.3312C113.937 3.68835 114.565 3.16411 115.286 2.79842C116.549 2.10813 117.982 1.78171 119.422 1.85596C120.862 1.93021 122.252 2.40217 123.437 3.21866C124.133 3.72467 124.643 4.44383 124.887 5.26542C125.053 5.78911 125.13 6.33699 125.112 6.8859C125.112 9.20779 125.112 11.4934 125.112 13.6188C125.112 13.8966 125.137 14.1739 125.188 14.4471C125.274 15.0305 125.503 15.584 125.855 16.0586C125.98 16.2188 126.093 16.3881 126.212 16.5634L126.416 16.8658C126.45 16.9111 126.472 16.9641 126.48 17.02C126.489 17.0758 126.483 17.133 126.464 17.1862C126.464 17.1862 126.464 17.2074 126.446 17.2134C125.634 17.8907 124.827 18.5659 124.025 19.239C123.959 19.2859 123.879 19.3071 123.798 19.2988C123.718 19.2904 123.643 19.253 123.589 19.1937C123.003 18.6254 122.472 18.004 122.002 17.3374L121.926 17.2679L121.673 17.4402L121.914 17.2528C121.888 17.2201 121.856 17.193 121.82 17.1731C121.784 17.1531 121.744 17.1408 121.702 17.1369C121.661 17.1329 121.619 17.1374 121.58 17.15C121.54 17.1627 121.503 17.1832 121.472 17.2104L121.091 17.5369C120.817 17.7818 120.555 18.0146 120.281 18.2293C119.49 18.8118 118.57 19.1975 117.598 19.3539C116.465 19.5894 115.285 19.4415 114.247 18.9337C113.774 18.7064 113.351 18.3889 113.002 17.9993C112.653 17.6098 112.385 17.1558 112.212 16.6632C111.533 14.9309 111.783 13.262 112.956 11.702C113.57 10.867 114.417 10.2282 115.392 9.86384C115.897 9.69211 116.413 9.55572 116.937 9.4557L117.074 9.42546C118.352 9.15156 119.656 9.01172 120.963 9.00825H121.061H121.101C121.174 9.00252 121.243 8.97057 121.294 8.91832C121.346 8.86607 121.377 8.79706 121.381 8.72406V8.67267C121.381 8.62732 121.381 8.58499 121.381 8.53964V6.9373C121.386 6.50088 121.263 6.07243 121.025 5.70528C120.787 5.33813 120.446 5.04848 120.044 4.8724Z" stroke="#0898A0" stroke-width="0.4" mask="url(#path-2-outside-1)"/>
<path d="M121.472 11.826V11.8267C121.469 12.2441 121.466 12.6721 121.475 13.1119L121.475 13.1129C121.483 13.9112 121.258 14.6947 120.826 15.3681C120.544 15.8258 120.186 16.2325 119.767 16.5708C119.37 16.9131 118.86 17.0988 118.334 17.0928C118.334 17.0928 118.334 17.0928 118.334 17.0928L118.335 16.9928C118.151 16.9925 117.967 16.9733 117.787 16.9354L121.472 11.826ZM121.472 11.826V11.8249V11.8238V11.8227V11.8215V11.8204V11.8193V11.8182V11.8171V11.816V11.8148V11.8137V11.8126V11.8115V11.8104V11.8093V11.8081V11.807V11.8059V11.8048V11.8037V11.8026V11.8014V11.8003V11.7992V11.7981V11.797V11.7959V11.7948V11.7936V11.7925V11.7914V11.7903V11.7892V11.7881V11.7869V11.7858V11.7847V11.7836V11.7825V11.7814V11.7802V11.7791V11.778V11.7769V11.7758V11.7747V11.7736V11.7724V11.7713V11.7702V11.7691V11.768V11.7669V11.7657V11.7646V11.7635V11.7624V11.7613V11.7602V11.759V11.7579V11.7568V11.7557V11.7546V11.7535V11.7524V11.7512V11.7501V11.749V11.7479V11.7468V11.7457V11.7445V11.7434V11.7423V11.7412V11.7401V11.739V11.7378V11.7367V11.7356V11.7345V11.7334V11.7323V11.7312V11.73V11.7289V11.7278V11.7267V11.7256V11.7245V11.7233V11.7222V11.7211V11.72V11.7189V11.7178V11.7167V11.7155V11.7144V11.7133V11.7122V11.7111V11.71V11.7088V11.7077V11.7066V11.7055V11.7044V11.7033V11.7022V11.701V11.6999V11.6988V11.6977V11.6966V11.6955V11.6943V11.6932V11.6921V11.691V11.6899V11.6888V11.6877V11.6865V11.6854V11.6843V11.6832V11.6821V11.681V11.6799V11.6787V11.6776V11.6765V11.6754V11.6743V11.6732V11.6721V11.6709V11.6698V11.6687V11.6676V11.6665V11.6654V11.6642V11.6631V11.662V11.6609V11.6598V11.6587V11.6576V11.6564V11.6553V11.6542V11.6531V11.652V11.6509V11.6498V11.6486V11.6475V11.6464V11.6453V11.6442V11.6431V11.642V11.6408V11.6397V11.6386V11.6375V11.6364V11.6353V11.6342V11.633V11.6319V11.6308V11.6297V11.6286V11.6275V11.6264V11.6252V11.6241V11.623V11.6219V11.6208V11.6197V11.6186V11.6175V11.6163V11.6152V11.6141V11.613V11.6119V11.6108V11.6097V11.6085V11.6074V11.6063V11.6052V11.6041V11.603V11.6019V11.6008V11.5996V11.5985V11.5974V11.5963V11.5952V11.5941V11.593V11.5918V11.5907V11.5896V11.5885V11.5874V11.5863V11.5852V11.5841V11.5829V11.5818V11.5807V11.5796V11.5785V11.5774V11.5763V11.5752V11.574V11.5729V11.5718V11.5707V11.5696V11.5685V11.5674V11.5663V11.5651V11.564V11.5629V11.5618V11.5607V11.5596V11.5585V11.5574V11.5562V11.5551V11.554V11.5529V11.5518V11.5507V11.5496V11.5485V11.5473V11.5462V11.5451V11.544V11.5429V11.5418V11.5407V11.5396V11.5385V11.5373V11.5362V11.5351V11.534V11.5329V11.5318V11.5307V11.5296V11.5285V11.5273V11.5262V11.5251V11.524V11.5229V11.5218V11.5207V11.5196V11.5185V11.5173V11.5162V11.5151V11.514V11.5129V11.5118V11.5107V11.5096V11.5085V11.5073V11.5062V11.5051V11.504V11.5029V11.5018V11.5007V11.4996V11.4985V11.4974V11.4962V11.4951V11.494V11.4929V11.4918V11.4907V11.4896V11.4885V11.4874V11.4863V11.4851V11.484V11.4829V11.4818V11.4807V11.4796V11.4785V11.4774V11.4763V11.4752V11.4741V11.4729V11.4718V11.4707V11.4696V11.4685V11.4674V11.4663V11.4652V11.4641V11.463V11.4619V11.4607V11.4596V11.4585V11.4574V11.4563V11.4552V11.4541V11.453V11.4519V11.4508V11.4497V11.4485V11.4474V11.4463V11.4452V11.4441V11.443V11.4419V11.4408V11.4397V11.4386V11.4375V11.4364V11.4353V11.4341V11.433V11.4319V11.4308V11.4297V11.4286V11.4275V11.4264V11.4253V11.4242V11.4231V11.422V11.4209V11.4198V11.4186V11.4175V11.4164V11.4153V11.4142V11.4131V11.412V11.4109V11.4098V11.4087V11.4076V11.4065V11.4054V11.4043V11.4032V11.402V11.4009V11.3998V11.3987V11.3976V11.3965V11.3954V11.3943V11.3932V11.3921V11.391V11.3899V11.3888V11.3877V11.3866V11.3855V11.3844V11.3832V11.3821V11.381V11.3799V11.3788V11.3777V11.3766V11.3755V11.3744V11.3733V11.3722V11.3711V11.37V11.3689V11.3678V11.3667V11.3656V11.3645V11.3634V11.3623V11.3612V11.36V11.3589V11.3578V11.3567V11.3556V11.3545V11.3534V11.3523V11.3512V11.3501V11.349V11.3479V11.3468V11.3457V11.3446V11.3435V11.3424V11.3413V11.3402V11.3391V11.338V11.3369V11.3358V11.3347V11.3336V11.3325V11.3314V11.3303V11.3292V11.3281V11.3269V11.3258V11.3247V11.3236V11.3225V11.3214V11.3203V11.3192V11.3181V11.317V11.3159V11.3148V11.3137V11.3126V11.3115V11.3104V11.3093V11.3082V11.3071V11.306V11.3049V11.3038V11.3027V11.3016V11.3005V11.2994V11.2983V11.2972V11.2961V11.295V11.2939V11.2928V11.2917V11.2906V11.2895V11.2884V11.2873V11.2862V11.2851V11.284V11.2829V11.2818V11.2807V11.2796V11.2785V11.2774V11.2763V11.2752V11.2741V11.273V11.2719V11.2708V11.2697V11.2686V11.2675V11.2664V11.2653V11.2642V11.2631V11.262V11.2609V11.2598V11.2587V11.2576L121.472 11.0796L121.372 11.0792H121.472V11.0794C121.472 10.9779 121.434 10.8801 121.365 10.8056C121.295 10.7311 121.201 10.6853 121.099 10.6772L121.099 10.6769H121.091H121.052C121.013 10.6742 120.973 10.6742 120.933 10.6771L120.41 10.7043L120.41 10.7043L120.41 10.7043C119.953 10.7285 119.496 10.7527 119.035 10.783L119.035 10.783C118.458 10.8212 117.9 11.0027 117.412 11.3109C116.722 11.7016 116.193 12.3211 115.917 13.0608L115.917 13.0608L115.916 13.064C115.689 13.7405 115.665 14.4676 115.846 15.1575L121.472 11.826ZM120.136 14.9308L120.136 14.9308L120.136 14.9323C119.897 15.3138 119.596 15.6528 119.244 15.9353L119.244 15.9353L119.243 15.9363C119.063 16.0848 118.851 16.1882 118.622 16.2375C118.394 16.2867 118.157 16.2804 117.932 16.2191L117.932 16.2191L117.929 16.2184C117.725 16.169 117.529 16.0939 117.344 15.9951C117.154 15.8889 116.991 15.7409 116.868 15.5624C116.745 15.3837 116.665 15.1793 116.634 14.965L116.634 14.9649L116.631 14.9538C116.489 14.4149 116.505 13.8469 116.678 13.3167C116.896 12.75 117.312 12.2793 117.849 11.9896L117.849 11.9898L117.855 11.986C118.23 11.748 118.659 11.6077 119.103 11.5781L119.103 11.5781C119.433 11.5561 119.766 11.539 120.097 11.5219C120.22 11.5155 120.343 11.5092 120.466 11.5026C120.466 11.5026 120.466 11.5026 120.466 11.5026L120.666 11.4927V11.4929V11.4938V11.4947V11.4955V11.4964V11.4973V11.4982V11.499V11.4999V11.5008V11.5017V11.5025V11.5034V11.5043V11.5051V11.506V11.5069V11.5078V11.5086V11.5095V11.5104V11.5113V11.5121V11.513V11.5139V11.5148V11.5156V11.5165V11.5174V11.5182V11.5191V11.52V11.5209V11.5217V11.5226V11.5235V11.5244V11.5252V11.5261V11.527V11.5279V11.5287V11.5296V11.5305V11.5314V11.5322V11.5331V11.534V11.5348V11.5357V11.5366V11.5375V11.5383V11.5392V11.5401V11.541V11.5418V11.5427V11.5436V11.5445V11.5453V11.5462V11.5471V11.548V11.5488V11.5497V11.5506V11.5515V11.5523V11.5532V11.5541V11.5549V11.5558V11.5567V11.5576V11.5584V11.5593V11.5602V11.5611V11.5619V11.5628V11.5637V11.5646V11.5654V11.5663V11.5672V11.568V11.5689V11.5698V11.5707V11.5715V11.5724V11.5733V11.5742V11.575V11.5759V11.5768V11.5776V11.5785V11.5794V11.5803V11.5811V11.582V11.5829V11.5837V11.5846V11.5855V11.5864V11.5872V11.5881V11.589V11.5898V11.5907V11.5916V11.5925V11.5933V11.5942V11.5951V11.5959V11.5968V11.5977V11.5985V11.5994V11.6003V11.6012V11.602V11.6029V11.6038V11.6046V11.6055V11.6064V11.6072V11.6081V11.609V11.6098V11.6107V11.6116V11.6124V11.6133V11.6142V11.615V11.6159V11.6168V11.6176V11.6185V11.6194V11.6202V11.6211V11.622V11.6228V11.6237V11.6246V11.6254V11.6263V11.6272V11.628V11.6289V11.6298V11.6306V11.6315V11.6324V11.6332V11.6341V11.6349V11.6358V11.6367V11.6375V11.6384V11.6393V11.6401V11.641V11.6418V11.6427V11.6436V11.6444V11.6453V11.6462V11.647V11.6479V11.6487V11.6496V11.6505V11.6513V11.6522V11.653V11.6539V11.6547V11.6556V11.6565V11.6573V11.6582V11.659V11.6599V11.6608V11.6616V11.6625V11.6633V11.6642V11.665V11.6659V11.6667V11.6676V11.6685V11.6693V11.6702V11.671V11.6719V11.6727V11.6736V11.6744V11.6753V11.6761V11.677V11.6778V11.6787V11.6795V11.6804V11.6813V11.6821V11.683V11.6838V11.6847V11.6855V11.6864V11.6872V11.688V11.6889V11.6897V11.6906V11.6914V11.6923V11.6931V11.694V11.6948V11.6957V11.6965V11.6974V11.6982V11.6991V11.6999V11.7007V11.7016V11.7024V11.7033V11.7041V11.705V11.7058V11.7066V11.7075V11.7083V11.7092V11.71V11.7109V11.7117V11.7125V11.7134V11.7142V11.7151V11.7159V11.7167V11.7176V11.7184V11.7192V11.7201V11.7209V11.7218V11.7226V11.7234V11.7243V11.7251V11.7259V11.7268V11.7276V11.7284V11.7293V11.7301V11.7309V11.7318V11.7326V11.7334V11.7343V11.7351V11.7359V11.7367V11.7376V11.7384V11.7392V11.7401V11.7409V11.7417V11.7425V11.7434V11.7442V11.745V11.7458V11.7467V11.7475V11.7483V11.7491V11.75V11.7508V11.7516V11.7524V11.7533V11.7541V11.7549V11.7557V11.7565V11.7574V11.7582V11.759V11.7598V11.7606V11.7614V11.7623V11.7631V11.7639V11.7647V11.7655V11.7663V11.7672V11.768V11.7688V11.7696V11.7704V11.7712V11.772V11.7728V11.7737V11.7745V11.7753V11.7761V11.7769V11.7777V11.7785V11.7793V11.7801V11.7809V11.7817V11.7825V11.7833V11.7842V11.785V11.7858V11.7866V11.7874V11.7882V11.789V11.7898V11.7906V11.7914V11.7922V11.793V11.7938V11.7946V11.7954V11.7962V11.797V11.7978V11.7986V11.7994V11.8001V11.8009V11.8017V11.8025V11.8033V11.8041V11.8049V11.8057V11.8065V11.8073V11.8081V11.8089V11.8097V11.8104V11.8112V11.812V11.8128V11.8136V11.8144V11.8152V11.8159V11.8167V11.8175V11.8183V11.8191V11.8199V11.8206V11.8214V11.8222V11.823V11.8254V11.8279V11.8304V11.8328V11.8353V11.8378V11.8402V11.8427V11.8452V11.8476V11.8501V11.8526V11.855V11.8575V11.86V11.8624V11.8649V11.8674V11.8698V11.8723V11.8748V11.8772V11.8797V11.8822V11.8846V11.8871V11.8896V11.8921V11.8945V11.897V11.8995V11.9019V11.9044V11.9069V11.9094V11.9118V11.9143V11.9168V11.9193V11.9217V11.9242V11.9267V11.9292V11.9316V11.9341V11.9366V11.9391V11.9416V11.944V11.9465V11.949V11.9515V11.9539V11.9564V11.9589V11.9614V11.9639V11.9663V11.9688V11.9713V11.9738V11.9763V11.9788V11.9812V11.9837V11.9862V11.9887V11.9912V11.9937V11.9961V11.9986V12.0011V12.0036V12.0061V12.0086V12.0111V12.0135V12.016V12.0185V12.021V12.0235V12.026V12.0285V12.031V12.0334V12.0359V12.0384V12.0409V12.0434V12.0459V12.0484V12.0509V12.0534V12.0559V12.0583V12.0608V12.0633V12.0658V12.0683V12.0708V12.0733V12.0758V12.0783V12.0808V12.0833V12.0858V12.0883V12.0908V12.0933V12.0957V12.0982V12.1007V12.1032V12.1057V12.1082V12.1107V12.1132V12.1157V12.1182V12.1207V12.1232V12.1257V12.1282V12.1307V12.1332V12.1357V12.1382V12.1407V12.1432V12.1457V12.1482V12.1507V12.1532V12.1557V12.1582V12.1607V12.1632V12.1657V12.1682V12.1707V12.1732V12.1757V12.1782V12.1807V12.1832V12.1857V12.1883V12.1908V12.1933V12.1958V12.1983V12.2008V12.2033V12.2058V12.2083V12.2108V12.2133V12.2158V12.2183V12.2208V12.2233V12.2258V12.2283V12.2309V12.2334V12.2359V12.2384V12.2409V12.2434V12.2459V12.2484V12.2509V12.2534V12.2559V12.2585V12.261V12.2635V12.266V12.2685V12.271V12.2735V12.276V12.2785V12.2811V12.2836V12.2861V12.2886V12.2911V12.2936V12.2961V12.2987V12.3012V12.3037V12.3062V12.3087V12.3112V12.3137V12.3163V12.3188V12.3213V12.3238V12.3263V12.3288V12.3313V12.3339V12.3364V12.3389V12.3414V12.3439V12.3464V12.349V12.3515V12.354V12.3565V12.359V12.3616V12.3641V12.3666V12.3691V12.3716V12.3741V12.3767V12.3792V12.3817V12.3842V12.3867V12.3893V12.3918V12.3943V12.3968V12.3993V12.4019V12.4044V12.4069V12.4094V12.4119V12.4145V12.417V12.4195V12.422V12.4246V12.4271V12.4296V12.4321V12.4346V12.4372V12.4397V12.4422V12.4447V12.4473V12.4498V12.4523V12.4548V12.4574V12.4599V12.4624V12.4649V12.4675V12.47V12.4725V12.475V12.4776V12.4801V12.4826V12.4851V12.4877V12.4902V12.4927V12.4952V12.4978V12.5003V12.5028V12.5053V12.5079V12.5104V12.5129V12.5154V12.518V12.5205V12.523V12.5256V12.5281V12.5306V12.5331V12.5357V12.5382V12.5407V12.5432V12.5458V12.5483V12.5508V12.5534V12.5559V12.5584V12.561V12.5635V12.566V12.5685V12.5711V12.5736V12.5761V12.5787V12.5812V12.5837V12.5862V12.5888V12.5913V12.5938V12.5964V12.5989V12.6014V12.604V12.6065V12.609V12.6116V12.6141V12.6166V12.6191V12.6217V12.6242V12.6267V12.6293V12.6318V12.6343V12.6369V12.6394V12.6419V12.6445V12.647V12.6495V12.6521V12.6546V12.6571V12.6597V12.6622V12.6647V12.6673V12.6698V12.6723V12.6749V12.6774V12.6799V12.6825V12.685V12.6875V12.6901V12.6926V12.6951V12.6977V12.7002V12.7027V12.7053V12.7078V12.7103V12.7129V12.7154V12.7179V12.7205V12.723V12.7255V12.7281V12.7306V12.7331V12.7357V12.7382V12.7407V12.7433V12.7458V12.7483V12.7509V12.7534V12.7559V12.7585V12.761V12.7636V12.7661V12.7686V12.7712V12.7737V12.7762V12.7788V12.7813V12.7838V12.7864V12.7889V12.7914V12.794V12.7965V12.799V12.8016V12.8041V12.8067V12.8092V12.8117V12.8143V12.8168V12.8193V12.8219V12.8244V12.8269V12.8295V12.832V12.8345V12.8371V12.8396V12.8422V12.8447V12.8472V12.8498V12.8523V12.8548V12.8574V12.8599V12.8624V12.865V12.8675V12.8701V12.8726V12.8751V12.8777V12.8802V12.8827V12.8853V12.8878V12.8903V12.8929V12.8954V12.8979V12.9005V12.903V12.9056V12.9081V12.9106V12.9132V12.9157V12.9182V12.9208V12.9233V12.9258V12.9284V12.9309V12.9335V12.936V12.9385V12.9411V12.9436V12.9461V12.9487V12.9512V12.9537V12.9563V12.9588V12.9613V12.9639V12.9664V12.969V12.9715V12.974V12.9766V12.9791V12.9816V12.9842V12.9867V12.9892V12.9918V12.9943V12.9968V12.9994V13.0019V13.0045V13.007V13.0095V13.0121V13.0146V13.0171V13.0197V13.0222V13.0247V13.0273V13.0298V13.0323V13.0349V13.0374V13.0399V13.0425V13.045V13.0476V13.0501V13.0526V13.0552V13.0577V13.0602V13.0628V13.0653V13.0678V13.0704V13.0729V13.0754V13.078V13.0805V13.083V13.0856V13.0881V13.0906V13.0932V13.0957V13.0982V13.1008V13.1033V13.1058V13.1084L120.666 13.1109L120.666 13.1121C120.673 13.7567 120.489 14.3893 120.136 14.9308Z" fill="#0898A0" stroke="#0898A0" stroke-width="0.2"/>
<mask id="path-4-outside-2" maskUnits="userSpaceOnUse" x="105.531" y="18.6572" width="23" height="8" fill="black">
<rect fill="white" x="105.531" y="18.6572" width="23" height="8"/>
<path d="M127.037 21.2707C126.946 21.3039 126.857 21.3462 126.769 21.3886L126.623 21.4551L125.944 21.7574C125.563 21.9207 125.185 22.0809 124.808 22.2472C124.213 22.4907 123.603 22.6928 122.98 22.8518L122.791 22.9063L122.066 23.1028C121.935 23.136 121.804 23.1632 121.673 23.1904L121.481 23.2297L121.198 23.2963C120.988 23.3446 120.787 23.39 120.589 23.4202C120.391 23.4504 120.159 23.4595 119.934 23.4716H119.663H119.498C119.337 23.4716 119.176 23.4928 119.017 23.4958C118.542 23.4958 118.006 23.4958 117.494 23.4807C117.238 23.4807 116.976 23.4504 116.72 23.4263L116.325 23.39C116.167 23.3812 116.011 23.364 115.855 23.3386C115.551 23.2872 115.246 23.2267 114.942 23.1693L114.451 23.0997C113.943 23.0055 113.446 22.8638 112.965 22.6765C112.554 22.5163 112.142 22.3469 111.746 22.1776C111.405 22.0355 111.101 21.9055 110.796 21.7604C110.418 21.579 110.05 21.3855 109.739 21.2193C109.428 21.053 109.13 20.8897 108.844 20.7174C108.649 20.6055 108.454 20.4876 108.265 20.3667C107.96 20.1672 107.656 19.9646 107.366 19.762C107.263 19.6826 107.132 19.6461 107.002 19.6602C106.872 19.6743 106.753 19.7379 106.669 19.8376C106.58 19.9321 106.531 20.0563 106.531 20.1853C106.531 20.3143 106.58 20.4385 106.669 20.533C106.937 20.8353 107.181 21.0923 107.412 21.3311C107.494 21.4158 107.586 21.4974 107.677 21.579L107.878 21.7635C108.387 22.2608 108.937 22.7149 109.523 23.1209C109.882 23.3749 110.187 23.5774 110.491 23.7528C110.918 24.0128 111.335 24.2607 111.768 24.4814C112.13 24.6628 112.508 24.82 112.87 24.9712L113.068 25.0558C113.339 25.1702 113.616 25.2711 113.897 25.3581L114.265 25.473C114.689 25.6203 115.127 25.7217 115.572 25.7754C115.816 25.7965 116.056 25.8328 116.297 25.8691C116.538 25.9054 116.803 25.9477 117.062 25.9719C117.294 25.9839 117.527 25.9839 117.759 25.9719H117.914C117.957 25.9911 118.002 26.0014 118.049 26.0021H118.067L118.545 25.9779C118.914 25.9598 119.294 25.9416 119.672 25.9054C120.118 25.8699 120.563 25.8124 121.003 25.733C121.472 25.6363 121.917 25.5274 122.346 25.4065C122.627 25.3279 122.898 25.2221 123.163 25.1223L123.467 25.0135C123.705 24.9228 123.949 24.8321 124.186 24.7112C124.561 24.5267 124.92 24.3242 125.249 24.1307C125.578 23.9372 125.858 23.7528 126.163 23.5623C126.394 23.4038 126.616 23.2322 126.827 23.0484C127.132 22.7853 127.436 22.5072 127.707 22.2502C127.8 22.1494 127.855 22.0204 127.865 21.8843C127.874 21.7481 127.837 21.6129 127.759 21.5004C127.676 21.3949 127.562 21.3166 127.434 21.2757C127.305 21.2347 127.167 21.233 127.037 21.2707ZM126.407 22.5797C126.214 22.7494 126.01 22.9069 125.797 23.0514C125.532 23.2358 125.249 23.4142 124.932 23.5956C124.616 23.777 124.262 23.9825 123.894 24.1579C123.678 24.2605 123.456 24.3514 123.23 24.43L122.925 24.5449C122.663 24.6446 122.416 24.7384 122.161 24.8109C121.752 24.9258 121.314 25.0316 120.86 25.1133C120.44 25.2051 120.016 25.2757 119.59 25.3249C119.23 25.3612 118.859 25.3793 118.499 25.3944L118.17 25.4307C118.132 25.4124 118.091 25.4031 118.049 25.4035H117.744C117.541 25.4138 117.338 25.4138 117.135 25.4035C116.891 25.3793 116.641 25.343 116.401 25.3067C116.16 25.2705 115.898 25.2312 115.645 25.207C115.242 25.1475 114.846 25.0462 114.463 24.9046L114.086 24.7837C113.825 24.6962 113.569 24.5953 113.318 24.4814L113.12 24.3967C112.764 24.2486 112.398 24.0944 112.057 23.9221C111.643 23.7135 111.235 23.4716 110.82 23.2207C110.537 23.0484 110.242 22.8549 109.891 22.616C109.333 22.2316 108.808 21.8007 108.323 21.3281C108.25 21.2555 108.174 21.189 108.1 21.1195C108.027 21.05 107.939 20.9774 107.863 20.9018L107.637 20.666L107.942 20.8625C108.143 20.9925 108.344 21.1134 108.551 21.2314C108.856 21.4067 109.16 21.579 109.465 21.7423C109.77 21.9055 110.159 22.1111 110.546 22.2956C110.851 22.4467 111.174 22.5797 111.521 22.7249C111.932 22.8972 112.346 23.0665 112.761 23.2297C113.278 23.4295 113.812 23.5813 114.357 23.6832L114.85 23.78C115.155 23.8374 115.459 23.8979 115.764 23.9493C115.944 23.9795 116.12 23.9946 116.291 24.0098L116.678 24.043C116.943 24.0672 117.217 24.0914 117.491 24.1005C118.027 24.1186 118.572 24.1156 119.051 24.1156C119.224 24.1156 119.398 24.1005 119.572 24.0884H119.73H119.995C120.223 24.0884 120.464 24.0672 120.702 24.0339C120.939 24.0007 121.152 23.9493 121.369 23.8979L121.643 23.8344L121.826 23.7981C121.969 23.7679 122.109 23.7377 122.249 23.7014C122.493 23.6409 122.736 23.5714 122.98 23.5018L123.172 23.4504C123.82 23.2777 124.456 23.0615 125.076 22.8035L126.209 22.3167L126.888 22.0144L127.058 21.9358L127.238 21.8511C126.958 22.0869 126.687 22.3409 126.407 22.5797Z"/>
</mask>
<path d="M127.037 21.2707C126.946 21.3039 126.857 21.3462 126.769 21.3886L126.623 21.4551L125.944 21.7574C125.563 21.9207 125.185 22.0809 124.808 22.2472C124.213 22.4907 123.603 22.6928 122.98 22.8518L122.791 22.9063L122.066 23.1028C121.935 23.136 121.804 23.1632 121.673 23.1904L121.481 23.2297L121.198 23.2963C120.988 23.3446 120.787 23.39 120.589 23.4202C120.391 23.4504 120.159 23.4595 119.934 23.4716H119.663H119.498C119.337 23.4716 119.176 23.4928 119.017 23.4958C118.542 23.4958 118.006 23.4958 117.494 23.4807C117.238 23.4807 116.976 23.4504 116.72 23.4263L116.325 23.39C116.167 23.3812 116.011 23.364 115.855 23.3386C115.551 23.2872 115.246 23.2267 114.942 23.1693L114.451 23.0997C113.943 23.0055 113.446 22.8638 112.965 22.6765C112.554 22.5163 112.142 22.3469 111.746 22.1776C111.405 22.0355 111.101 21.9055 110.796 21.7604C110.418 21.579 110.05 21.3855 109.739 21.2193C109.428 21.053 109.13 20.8897 108.844 20.7174C108.649 20.6055 108.454 20.4876 108.265 20.3667C107.96 20.1672 107.656 19.9646 107.366 19.762C107.263 19.6826 107.132 19.6461 107.002 19.6602C106.872 19.6743 106.753 19.7379 106.669 19.8376C106.58 19.9321 106.531 20.0563 106.531 20.1853C106.531 20.3143 106.58 20.4385 106.669 20.533C106.937 20.8353 107.181 21.0923 107.412 21.3311C107.494 21.4158 107.586 21.4974 107.677 21.579L107.878 21.7635C108.387 22.2608 108.937 22.7149 109.523 23.1209C109.882 23.3749 110.187 23.5774 110.491 23.7528C110.918 24.0128 111.335 24.2607 111.768 24.4814C112.13 24.6628 112.508 24.82 112.87 24.9712L113.068 25.0558C113.339 25.1702 113.616 25.2711 113.897 25.3581L114.265 25.473C114.689 25.6203 115.127 25.7217 115.572 25.7754C115.816 25.7965 116.056 25.8328 116.297 25.8691C116.538 25.9054 116.803 25.9477 117.062 25.9719C117.294 25.9839 117.527 25.9839 117.759 25.9719H117.914C117.957 25.9911 118.002 26.0014 118.049 26.0021H118.067L118.545 25.9779C118.914 25.9598 119.294 25.9416 119.672 25.9054C120.118 25.8699 120.563 25.8124 121.003 25.733C121.472 25.6363 121.917 25.5274 122.346 25.4065C122.627 25.3279 122.898 25.2221 123.163 25.1223L123.467 25.0135C123.705 24.9228 123.949 24.8321 124.186 24.7112C124.561 24.5267 124.92 24.3242 125.249 24.1307C125.578 23.9372 125.858 23.7528 126.163 23.5623C126.394 23.4038 126.616 23.2322 126.827 23.0484C127.132 22.7853 127.436 22.5072 127.707 22.2502C127.8 22.1494 127.855 22.0204 127.865 21.8843C127.874 21.7481 127.837 21.6129 127.759 21.5004C127.676 21.3949 127.562 21.3166 127.434 21.2757C127.305 21.2347 127.167 21.233 127.037 21.2707ZM126.407 22.5797C126.214 22.7494 126.01 22.9069 125.797 23.0514C125.532 23.2358 125.249 23.4142 124.932 23.5956C124.616 23.777 124.262 23.9825 123.894 24.1579C123.678 24.2605 123.456 24.3514 123.23 24.43L122.925 24.5449C122.663 24.6446 122.416 24.7384 122.161 24.8109C121.752 24.9258 121.314 25.0316 120.86 25.1133C120.44 25.2051 120.016 25.2757 119.59 25.3249C119.23 25.3612 118.859 25.3793 118.499 25.3944L118.17 25.4307C118.132 25.4124 118.091 25.4031 118.049 25.4035H117.744C117.541 25.4138 117.338 25.4138 117.135 25.4035C116.891 25.3793 116.641 25.343 116.401 25.3067C116.16 25.2705 115.898 25.2312 115.645 25.207C115.242 25.1475 114.846 25.0462 114.463 24.9046L114.086 24.7837C113.825 24.6962 113.569 24.5953 113.318 24.4814L113.12 24.3967C112.764 24.2486 112.398 24.0944 112.057 23.9221C111.643 23.7135 111.235 23.4716 110.82 23.2207C110.537 23.0484 110.242 22.8549 109.891 22.616C109.333 22.2316 108.808 21.8007 108.323 21.3281C108.25 21.2555 108.174 21.189 108.1 21.1195C108.027 21.05 107.939 20.9774 107.863 20.9018L107.637 20.666L107.942 20.8625C108.143 20.9925 108.344 21.1134 108.551 21.2314C108.856 21.4067 109.16 21.579 109.465 21.7423C109.77 21.9055 110.159 22.1111 110.546 22.2956C110.851 22.4467 111.174 22.5797 111.521 22.7249C111.932 22.8972 112.346 23.0665 112.761 23.2297C113.278 23.4295 113.812 23.5813 114.357 23.6832L114.85 23.78C115.155 23.8374 115.459 23.8979 115.764 23.9493C115.944 23.9795 116.12 23.9946 116.291 24.0098L116.678 24.043C116.943 24.0672 117.217 24.0914 117.491 24.1005C118.027 24.1186 118.572 24.1156 119.051 24.1156C119.224 24.1156 119.398 24.1005 119.572 24.0884H119.73H119.995C120.223 24.0884 120.464 24.0672 120.702 24.0339C120.939 24.0007 121.152 23.9493 121.369 23.8979L121.643 23.8344L121.826 23.7981C121.969 23.7679 122.109 23.7377 122.249 23.7014C122.493 23.6409 122.736 23.5714 122.98 23.5018L123.172 23.4504C123.82 23.2777 124.456 23.0615 125.076 22.8035L126.209 22.3167L126.888 22.0144L127.058 21.9358L127.238 21.8511C126.958 22.0869 126.687 22.3409 126.407 22.5797Z" fill="#0898A0"/>
<path d="M127.037 21.2707C126.946 21.3039 126.857 21.3462 126.769 21.3886L126.623 21.4551L125.944 21.7574C125.563 21.9207 125.185 22.0809 124.808 22.2472C124.213 22.4907 123.603 22.6928 122.98 22.8518L122.791 22.9063L122.066 23.1028C121.935 23.136 121.804 23.1632 121.673 23.1904L121.481 23.2297L121.198 23.2963C120.988 23.3446 120.787 23.39 120.589 23.4202C120.391 23.4504 120.159 23.4595 119.934 23.4716H119.663H119.498C119.337 23.4716 119.176 23.4928 119.017 23.4958C118.542 23.4958 118.006 23.4958 117.494 23.4807C117.238 23.4807 116.976 23.4504 116.72 23.4263L116.325 23.39C116.167 23.3812 116.011 23.364 115.855 23.3386C115.551 23.2872 115.246 23.2267 114.942 23.1693L114.451 23.0997C113.943 23.0055 113.446 22.8638 112.965 22.6765C112.554 22.5163 112.142 22.3469 111.746 22.1776C111.405 22.0355 111.101 21.9055 110.796 21.7604C110.418 21.579 110.05 21.3855 109.739 21.2193C109.428 21.053 109.13 20.8897 108.844 20.7174C108.649 20.6055 108.454 20.4876 108.265 20.3667C107.96 20.1672 107.656 19.9646 107.366 19.762C107.263 19.6826 107.132 19.6461 107.002 19.6602C106.872 19.6743 106.753 19.7379 106.669 19.8376C106.58 19.9321 106.531 20.0563 106.531 20.1853C106.531 20.3143 106.58 20.4385 106.669 20.533C106.937 20.8353 107.181 21.0923 107.412 21.3311C107.494 21.4158 107.586 21.4974 107.677 21.579L107.878 21.7635C108.387 22.2608 108.937 22.7149 109.523 23.1209C109.882 23.3749 110.187 23.5774 110.491 23.7528C110.918 24.0128 111.335 24.2607 111.768 24.4814C112.13 24.6628 112.508 24.82 112.87 24.9712L113.068 25.0558C113.339 25.1702 113.616 25.2711 113.897 25.3581L114.265 25.473C114.689 25.6203 115.127 25.7217 115.572 25.7754C115.816 25.7965 116.056 25.8328 116.297 25.8691C116.538 25.9054 116.803 25.9477 117.062 25.9719C117.294 25.9839 117.527 25.9839 117.759 25.9719H117.914C117.957 25.9911 118.002 26.0014 118.049 26.0021H118.067L118.545 25.9779C118.914 25.9598 119.294 25.9416 119.672 25.9054C120.118 25.8699 120.563 25.8124 121.003 25.733C121.472 25.6363 121.917 25.5274 122.346 25.4065C122.627 25.3279 122.898 25.2221 123.163 25.1223L123.467 25.0135C123.705 24.9228 123.949 24.8321 124.186 24.7112C124.561 24.5267 124.92 24.3242 125.249 24.1307C125.578 23.9372 125.858 23.7528 126.163 23.5623C126.394 23.4038 126.616 23.2322 126.827 23.0484C127.132 22.7853 127.436 22.5072 127.707 22.2502C127.8 22.1494 127.855 22.0204 127.865 21.8843C127.874 21.7481 127.837 21.6129 127.759 21.5004C127.676 21.3949 127.562 21.3166 127.434 21.2757C127.305 21.2347 127.167 21.233 127.037 21.2707ZM126.407 22.5797C126.214 22.7494 126.01 22.9069 125.797 23.0514C125.532 23.2358 125.249 23.4142 124.932 23.5956C124.616 23.777 124.262 23.9825 123.894 24.1579C123.678 24.2605 123.456 24.3514 123.23 24.43L122.925 24.5449C122.663 24.6446 122.416 24.7384 122.161 24.8109C121.752 24.9258 121.314 25.0316 120.86 25.1133C120.44 25.2051 120.016 25.2757 119.59 25.3249C119.23 25.3612 118.859 25.3793 118.499 25.3944L118.17 25.4307C118.132 25.4124 118.091 25.4031 118.049 25.4035H117.744C117.541 25.4138 117.338 25.4138 117.135 25.4035C116.891 25.3793 116.641 25.343 116.401 25.3067C116.16 25.2705 115.898 25.2312 115.645 25.207C115.242 25.1475 114.846 25.0462 114.463 24.9046L114.086 24.7837C113.825 24.6962 113.569 24.5953 113.318 24.4814L113.12 24.3967C112.764 24.2486 112.398 24.0944 112.057 23.9221C111.643 23.7135 111.235 23.4716 110.82 23.2207C110.537 23.0484 110.242 22.8549 109.891 22.616C109.333 22.2316 108.808 21.8007 108.323 21.3281C108.25 21.2555 108.174 21.189 108.1 21.1195C108.027 21.05 107.939 20.9774 107.863 20.9018L107.637 20.666L107.942 20.8625C108.143 20.9925 108.344 21.1134 108.551 21.2314C108.856 21.4067 109.16 21.579 109.465 21.7423C109.77 21.9055 110.159 22.1111 110.546 22.2956C110.851 22.4467 111.174 22.5797 111.521 22.7249C111.932 22.8972 112.346 23.0665 112.761 23.2297C113.278 23.4295 113.812 23.5813 114.357 23.6832L114.85 23.78C115.155 23.8374 115.459 23.8979 115.764 23.9493C115.944 23.9795 116.12 23.9946 116.291 24.0098L116.678 24.043C116.943 24.0672 117.217 24.0914 117.491 24.1005C118.027 24.1186 118.572 24.1156 119.051 24.1156C119.224 24.1156 119.398 24.1005 119.572 24.0884H119.73H119.995C120.223 24.0884 120.464 24.0672 120.702 24.0339C120.939 24.0007 121.152 23.9493 121.369 23.8979L121.643 23.8344L121.826 23.7981C121.969 23.7679 122.109 23.7377 122.249 23.7014C122.493 23.6409 122.736 23.5714 122.98 23.5018L123.172 23.4504C123.82 23.2777 124.456 23.0615 125.076 22.8035L126.209 22.3167L126.888 22.0144L127.058 21.9358L127.238 21.8511C126.958 22.0869 126.687 22.3409 126.407 22.5797Z" stroke="#0898A0" stroke-width="0.4" mask="url(#path-4-outside-2)"/>
<path d="M130.595 18.45C130.265 18.3956 129.931 18.3683 129.596 18.3684C129.039 18.3719 128.485 18.4358 127.942 18.5589C127.246 18.725 126.582 19.0038 125.977 19.3842C125.882 19.4491 125.811 19.5438 125.776 19.6533C125.771 19.666 125.765 19.6781 125.758 19.6896C125.736 19.7302 125.723 19.7754 125.721 19.8217C125.719 19.868 125.728 19.914 125.747 19.9564C125.765 19.9988 125.794 20.0363 125.83 20.066C125.865 20.0957 125.908 20.1169 125.953 20.128H125.995C126.085 20.1649 126.182 20.1795 126.279 20.1703C126.382 20.1542 126.484 20.136 126.583 20.1159C126.701 20.0914 126.82 20.0742 126.94 20.0645C127.272 20.0342 127.604 20.0161 127.951 19.9949L128.374 19.9708L128.652 19.9949L129.373 20.0554C129.431 20.0657 129.487 20.0883 129.535 20.1217C129.583 20.1551 129.624 20.1985 129.654 20.2489C129.687 20.2911 129.709 20.3404 129.72 20.3929C129.731 20.4454 129.729 20.4996 129.715 20.5512C129.662 20.7068 129.618 20.8653 129.584 21.0259C129.556 21.1377 129.529 21.2466 129.495 21.3554C129.337 21.8633 129.191 22.335 129.023 22.7915C128.984 22.9124 128.932 23.0273 128.883 23.1422C128.834 23.2571 128.795 23.3478 128.755 23.4445C128.727 23.5433 128.727 23.648 128.755 23.7468C128.761 23.8233 128.795 23.8949 128.852 23.9471C128.908 23.9993 128.982 24.0282 129.06 24.028H129.118C129.203 24.0322 129.289 24.0166 129.367 23.9826C129.482 23.931 129.586 23.857 129.672 23.765L129.9 23.505C130.122 23.2531 130.328 22.9875 130.516 22.7098C130.764 22.3273 130.977 21.9224 131.149 21.5005C131.263 21.2078 131.343 20.9037 131.39 20.5935C131.458 20.2384 131.498 19.8786 131.509 19.5173C131.51 19.2602 131.419 19.0112 131.251 18.8153C131.084 18.6195 130.851 18.4899 130.595 18.45ZM130.796 20.4817C130.758 20.7521 130.69 21.0177 130.595 21.2738C130.437 21.6557 130.243 22.0221 130.016 22.3682C129.9 22.5342 129.775 22.6936 129.641 22.8459C129.785 22.4226 129.928 21.9903 130.074 21.5247C130.111 21.4038 130.141 21.2798 130.168 21.1559C130.196 21.0319 130.238 20.8747 130.284 20.7447C130.328 20.6073 130.339 20.4617 130.318 20.3192C130.296 20.1767 130.242 20.041 130.159 19.9224C130.08 19.7928 129.971 19.683 129.843 19.6013C129.714 19.5196 129.568 19.4681 129.416 19.4507L128.691 19.3842L128.387 19.36H128.341L127.902 19.3842L127.177 19.4266C127.467 19.3008 127.766 19.1996 128.073 19.1242C128.572 19.0108 129.083 18.952 129.596 18.9489C129.894 18.9472 130.191 18.9715 130.485 19.0214C130.603 19.0365 130.711 19.0948 130.788 19.1849C130.864 19.275 130.904 19.3903 130.899 19.5082C130.887 19.8349 130.85 20.1602 130.79 20.4817H130.796Z" fill="#0898A0"/>
</g>
<g clip-path="url(#clip1)">
<path d="M84.3539 10.8687V13.1209H81.1359H80.9859V13.2709V18.1455V18.2955H81.1359H84.3539V26.086C78.7172 24.8343 74.5022 19.8043 74.5022 13.791C74.5022 6.83529 80.141 1.19655 87.0967 1.19655C94.0524 1.19655 99.6912 6.83529 99.6912 13.791C99.6912 19.8043 95.4762 24.8343 89.8395 26.086V18.2955H92.7066H92.8353L92.8548 18.1683L93.6025 13.2936L93.629 13.1209H93.4542H89.8395V11.3039C89.8395 10.8764 89.9452 10.5366 90.1393 10.3121C90.3176 10.1058 90.653 9.90149 91.331 9.90149H93.5238H93.6738V9.75149V5.52801V5.40143L93.549 5.38014L93.1171 5.30645L93.1163 5.30632L93.1162 5.3063L93.1145 5.306L93.1143 5.30597L93.1104 5.30531L93.1101 5.30526L92.9685 5.28109L92.9682 5.28256C92.9319 5.27695 92.8894 5.27052 92.8413 5.26343C92.6706 5.23831 92.4284 5.20497 92.1399 5.17166C91.5658 5.10537 90.7954 5.03769 90.0344 5.03769C88.3841 5.03769 86.9456 5.5403 85.9189 6.56793C84.8916 7.59623 84.3539 9.07274 84.3539 10.8687ZM85.0241 17.4754H81.8061V13.941H85.0241H85.1741V13.791V10.8687C85.1741 9.23637 85.6597 7.98787 86.4991 7.14762C87.3388 6.30721 88.5497 5.85788 90.0344 5.85788C90.7518 5.85788 91.4878 5.922 92.0458 5.98643C92.3245 6.0186 92.5581 6.05077 92.7219 6.07487C92.7728 6.08237 92.817 6.08909 92.8536 6.09478V9.08131H91.331C90.4746 9.08131 89.8882 9.3484 89.5188 9.77575C89.1529 10.199 89.0193 10.7571 89.0193 11.3039V13.791V13.941H89.1693H92.6734L92.1313 17.4754H89.1693H89.0193V17.6254V26.8946V27.0699L89.1926 27.0427C89.3691 27.015 89.5445 26.9839 89.7186 26.9494C95.8721 25.73 100.511 20.3025 100.511 13.791C100.511 6.38231 94.5054 0.376367 87.0967 0.376367C79.688 0.376367 73.682 6.38231 73.682 13.791C73.682 20.3025 78.3213 25.73 84.4748 26.9494C84.6489 26.9839 84.8243 27.015 85.0008 27.0427L85.1741 27.0699V26.8946V17.6254V17.4754H85.0241Z" fill="#0898A0" stroke="#0898A0" stroke-width="0.3"/>
</g>
<g clip-path="url(#clip2)">
<path d="M52.9019 7.3006L52.9019 7.30426C52.9015 7.74693 52.9528 8.18834 53.055 8.62039L53.1754 9.12914L53.219 9.13139L53.2113 9.28119L53.0654 9.31573L53.0553 9.27316L52.5168 9.24546C47.4785 8.98624 42.7774 6.80105 39.4721 3.20732C39.4507 3.25853 39.4301 3.30991 39.4103 3.36146M52.9019 7.3006L43.0483 10.9937L42.804 10.9846L41.5413 10.1432C39.1849 8.57307 38.3093 5.71462 39.2973 3.23849C39.3348 3.27966 39.3725 3.32065 39.4103 3.36146M52.9019 7.3006L52.9019 7.29695L52.9019 7.3006ZM39.4103 3.36146C42.7403 6.95366 47.4573 9.13535 52.5091 9.39526L53.2036 9.43099L53.4033 9.44127L53.3573 9.24666L53.201 8.58586C53.1014 8.16514 53.0515 7.73537 53.0519 7.30441L53.0519 7.30076H53.0519L53.0519 7.29853L53.0519 7.29491M39.4103 3.36146C38.4916 5.75449 39.3469 8.50079 41.6245 10.0184L43.1259 11.0188L43.568 11.3134L43.0371 11.2935L41.2199 11.2255C40.4807 11.1979 39.7583 11.0619 39.0773 10.8497C39.4713 13.0533 41.242 14.8761 43.6379 15.3704L43.7537 15.3943L43.7575 15.5125L43.7897 16.5045L43.7936 16.623L43.6791 16.6541C43.066 16.8207 42.4314 16.9042 41.7942 16.9022C41.7941 16.9022 41.794 16.9022 41.7939 16.9022L53.0519 7.29491M53.0519 7.29491C53.0105 4.25389 55.5775 1.72081 58.8329 1.67852C60.4412 1.6804 61.9692 2.32594 63.0434 3.44896L63.241 3.65553L63.2972 3.71423L63.377 3.69927L63.6615 3.64598C64.4964 3.48957 65.3119 3.25678 66.0968 2.95164C65.6534 3.51837 65.0965 4.00595 64.4501 4.38311L64.3434 4.44538L64.3841 4.56205L64.7139 5.50797L64.7533 5.62117L64.8725 5.60763C65.4233 5.545 65.9687 5.44967 66.5056 5.32245C66.01 5.8167 65.4697 6.2711 64.8901 6.68014L64.6619 6.84113L64.595 6.88834L64.5985 6.97015L64.6104 7.2445C64.6216 7.50637 64.6255 7.77046 64.6255 8.02571C64.6255 16.0529 58.3656 25.2646 46.9471 25.2647C44.4729 25.2635 42.0396 24.7583 39.8072 23.7959C42.4405 23.5684 44.9555 22.6024 47.0254 21.0054L48.1628 20.1279L48.4982 19.869L48.0747 19.8591L46.6246 19.8252C44.4908 19.7753 42.6028 18.6272 41.6415 16.9008L53.0519 7.29491ZM65.4495 8.02571C65.4495 7.78875 65.4463 7.54099 65.4369 7.2918C66.4182 6.59038 67.293 5.76557 68.0377 4.84092C68.2434 4.58559 68.4391 4.32265 68.6244 4.05259L68.9181 3.62463L68.4414 3.82995C68.1491 3.95584 67.8522 4.07081 67.5512 4.17469C67.0243 4.35651 66.4852 4.50433 65.9374 4.61715C65.7719 4.65125 65.6055 4.68215 65.4385 4.70983C65.5723 4.61251 65.702 4.51064 65.8273 4.40448C66.5199 3.81771 67.0788 3.0998 67.4667 2.29536C67.5869 2.0463 67.6906 1.78897 67.7769 1.52469L67.8988 1.15091L67.5589 1.34846C67.3306 1.4811 67.0982 1.6065 66.8618 1.72452C65.8319 2.23884 64.7293 2.61281 63.5864 2.83429C62.3557 1.58055 60.6328 0.868381 58.8289 0.867566L58.827 0.867589C55.1425 0.912912 52.1806 3.78766 52.2279 7.3047C52.2276 7.61787 52.2506 7.93043 52.2966 8.24007C52.3132 8.35189 52.3328 8.46334 52.3554 8.57429C52.2407 8.56719 52.1262 8.55906 52.0119 8.54991C47.225 8.16641 42.7989 5.98092 39.7205 2.48445C39.5999 2.34739 39.4813 2.20833 39.3648 2.06727L39.2293 1.90314L39.1203 2.08597C39.0216 2.25144 38.9313 2.41943 38.8493 2.58949C37.6116 5.15398 38.2506 8.17701 40.3873 10.0901C40.4969 10.1882 40.6103 10.2833 40.7277 10.3754C40.5762 10.3581 40.4255 10.3359 40.276 10.3093C39.803 10.2249 39.341 10.0953 38.8992 9.93076C38.7235 9.86535 38.5511 9.79444 38.3825 9.7187L38.1734 9.62481L38.171 9.85398C38.169 10.0498 38.1763 10.244 38.1927 10.4362C38.3985 12.8557 40.0311 14.9401 42.3631 15.8397C42.5214 15.9007 42.6829 15.9563 42.8473 16.0062C42.6765 16.0346 42.5044 16.056 42.3315 16.0702C42.1534 16.0848 41.9746 16.0919 41.7954 16.0913L41.7947 16.0913C41.5872 16.0916 41.3799 16.0819 41.1737 16.0621C40.9834 16.0439 40.794 16.0171 40.6061 15.9818L40.359 15.9354L40.4355 16.1749C40.4973 16.3681 40.5682 16.557 40.6478 16.741C41.537 18.7972 43.5039 20.25 45.8038 20.571C45.9304 20.5886 46.058 20.6029 46.1865 20.6136C46.0841 20.6873 45.9806 20.7595 45.8761 20.8301C43.7562 22.2617 41.2131 23.0371 38.5969 23.0372C38.4685 23.0362 38.3402 23.0337 38.2119 23.0295C37.8319 23.0173 37.4524 22.991 37.0744 22.9509L36.9788 23.2271C37.3097 23.4347 37.6468 23.6315 37.9898 23.8173C40.7128 25.2927 43.799 26.0741 46.9467 26.0757H46.9468C58.9086 26.0757 65.4495 16.4091 65.4495 8.02571Z" fill="#0898A0" stroke="#0898A0" stroke-width="0.3"/>
</g>
<mask id="path-8-outside-3" maskUnits="userSpaceOnUse" x="4.64258" y="0.0175781" width="27" height="27" fill="black">
<rect fill="white" x="4.64258" y="0.0175781" width="27" height="27"/>
<path fill-rule="evenodd" clip-rule="evenodd" d="M11.1921 11.8945C11.24 11.711 11.2951 11.5289 11.3571 11.3485C11.4167 11.1734 11.4824 11.001 11.5541 10.8314C12.7222 8.0688 15.4704 6.07318 18.6733 6.07318C20.5311 6.04502 22.3266 6.73025 23.6721 7.98807L27.3924 4.34133C27.2653 4.22436 27.136 4.11023 27.0045 3.99898C24.699 2.04796 21.7354 0.982918 18.6733 1.01844C13.7464 1.01844 9.24082 3.74058 7.02873 8.05846C5.18053 11.6676 5.18052 15.9198 7.02872 19.529C9.24082 23.8422 13.7464 26.5643 18.6733 26.5643C21.9762 26.5643 24.7928 25.5653 26.9124 23.8244C27.0431 23.717 27.1711 23.6068 27.2965 23.4939C27.3012 23.4897 27.3059 23.4854 27.3106 23.4812C27.3107 23.4811 27.3109 23.4809 27.311 23.4808L27.3084 23.4788C27.3085 23.4787 27.3087 23.4786 27.3088 23.4785C27.3135 23.4742 27.3183 23.4699 27.323 23.4657C27.4471 23.3532 27.5686 23.2381 27.6873 23.1203C29.9175 20.9082 31.1893 17.766 31.1893 14.0847C31.1893 13.2165 31.1175 12.3435 30.9643 11.4893H18.6733V16.4079H25.7118C25.68 16.5806 25.6406 16.751 25.5938 16.9189C25.2103 18.2936 24.3317 19.4946 23.1071 20.2893V20.2925C21.9395 21.0696 20.4329 21.5096 18.6781 21.5096C15.2786 21.5096 12.3962 19.2615 11.3619 16.239L11.3571 16.239C10.8734 14.833 10.8184 13.3239 11.1921 11.8945ZM10.9958 16.7496L10.9828 16.7496L10.8632 16.4023C10.281 14.71 10.281 12.8775 10.8632 11.1852M10.9958 16.7496C12.1919 19.7872 15.1694 22.0205 18.6781 22.0205C20.5217 22.0205 22.1338 21.5579 23.3999 20.7152L23.6283 20.5632V20.5566C24.9943 19.5841 25.9243 18.1302 26.2247 16.4987L26.3355 15.897H19.1946V12.0002H30.5197C30.6202 12.688 30.6681 13.3872 30.6681 14.0847C30.6681 17.8457 29.2993 20.9872 26.9553 23.103L26.7561 23.2828C24.7202 25.0315 21.9605 26.0534 18.6733 26.0534C13.9434 26.0534 9.61817 23.4402 7.49456 19.2998C5.72221 15.8387 5.72022 11.7618 7.48857 8.29936L7.49453 8.28774C9.61812 4.14261 13.9434 1.52936 18.6733 1.52936H18.6764L18.6795 1.52932C21.6015 1.49543 24.4298 2.5072 26.6349 4.36127L23.6513 7.28584C22.2582 6.14836 20.4914 5.53558 18.6693 5.56226C15.3082 5.5639 12.4303 7.61509 11.1478 10.4637L11.1201 10.4387L10.8806 11.1347C10.8749 11.151 10.8693 11.1675 10.8637 11.1839"/>
</mask>
<path fill-rule="evenodd" clip-rule="evenodd" d="M11.1921 11.8945C11.24 11.711 11.2951 11.5289 11.3571 11.3485C11.4167 11.1734 11.4824 11.001 11.5541 10.8314C12.7222 8.0688 15.4704 6.07318 18.6733 6.07318C20.5311 6.04502 22.3266 6.73025 23.6721 7.98807L27.3924 4.34133C27.2653 4.22436 27.136 4.11023 27.0045 3.99898C24.699 2.04796 21.7354 0.982918 18.6733 1.01844C13.7464 1.01844 9.24082 3.74058 7.02873 8.05846C5.18053 11.6676 5.18052 15.9198 7.02872 19.529C9.24082 23.8422 13.7464 26.5643 18.6733 26.5643C21.9762 26.5643 24.7928 25.5653 26.9124 23.8244C27.0431 23.717 27.1711 23.6068 27.2965 23.4939C27.3012 23.4897 27.3059 23.4854 27.3106 23.4812C27.3107 23.4811 27.3109 23.4809 27.311 23.4808L27.3084 23.4788C27.3085 23.4787 27.3087 23.4786 27.3088 23.4785C27.3135 23.4742 27.3183 23.4699 27.323 23.4657C27.4471 23.3532 27.5686 23.2381 27.6873 23.1203C29.9175 20.9082 31.1893 17.766 31.1893 14.0847C31.1893 13.2165 31.1175 12.3435 30.9643 11.4893H18.6733V16.4079H25.7118C25.68 16.5806 25.6406 16.751 25.5938 16.9189C25.2103 18.2936 24.3317 19.4946 23.1071 20.2893V20.2925C21.9395 21.0696 20.4329 21.5096 18.6781 21.5096C15.2786 21.5096 12.3962 19.2615 11.3619 16.239L11.3571 16.239C10.8734 14.833 10.8184 13.3239 11.1921 11.8945ZM10.9958 16.7496L10.9828 16.7496L10.8632 16.4023C10.281 14.71 10.281 12.8775 10.8632 11.1852M10.9958 16.7496C12.1919 19.7872 15.1694 22.0205 18.6781 22.0205C20.5217 22.0205 22.1338 21.5579 23.3999 20.7152L23.6283 20.5632V20.5566C24.9943 19.5841 25.9243 18.1302 26.2247 16.4987L26.3355 15.897H19.1946V12.0002H30.5197C30.6202 12.688 30.6681 13.3872 30.6681 14.0847C30.6681 17.8457 29.2993 20.9872 26.9553 23.103L26.7561 23.2828C24.7202 25.0315 21.9605 26.0534 18.6733 26.0534C13.9434 26.0534 9.61817 23.4402 7.49456 19.2998C5.72221 15.8387 5.72022 11.7618 7.48857 8.29936L7.49453 8.28774C9.61812 4.14261 13.9434 1.52936 18.6733 1.52936H18.6764L18.6795 1.52932C21.6015 1.49543 24.4298 2.5072 26.6349 4.36127L23.6513 7.28584C22.2582 6.14836 20.4914 5.53558 18.6693 5.56226C15.3082 5.5639 12.4303 7.61509 11.1478 10.4637L11.1201 10.4387L10.8806 11.1347C10.8749 11.151 10.8693 11.1675 10.8637 11.1839" fill="#0898A0"/>
<path d="M10.9958 16.7496L10.8458 16.7532L11.1458 16.746L10.9958 16.7496ZM10.7133 11.1888L10.8458 16.7532L11.1458 16.746L11.0132 11.1816L10.7133 11.1888ZM10.7137 11.1875L10.8458 16.7532L11.1458 16.746L11.0137 11.1803L10.7137 11.1875ZM11.3571 11.3485L11.6408 11.4461L11.6412 11.4451L11.3571 11.3485ZM11.1921 11.8945L11.4823 11.9704L11.1921 11.8945ZM11.5541 10.8314L11.2778 10.7146H11.2778L11.5541 10.8314ZM18.6733 6.07318V6.37321L18.6779 6.37314L18.6733 6.07318ZM23.6721 7.98807L23.4672 8.20721L23.677 8.40334L23.8821 8.20231L23.6721 7.98807ZM27.3924 4.34133L27.6024 4.55557L27.8279 4.33449L27.5956 4.1206L27.3924 4.34133ZM27.0045 3.99898L26.8107 4.22799V4.22799L27.0045 3.99898ZM18.6733 1.01844V1.31846L18.6768 1.31842L18.6733 1.01844ZM7.02873 8.05846L6.76173 7.92167L6.7617 7.92172L7.02873 8.05846ZM7.02872 19.529L6.76169 19.6658L6.76178 19.6659L7.02872 19.529ZM26.9124 23.8244L27.1028 24.0562L26.9124 23.8244ZM27.2965 23.4939L27.4973 23.7168L27.4973 23.7168L27.2965 23.4939ZM27.3106 23.4812L27.5118 23.7037L27.5121 23.7034L27.3106 23.4812ZM27.311 23.4808L27.5126 23.703L27.78 23.4604L27.4925 23.242L27.311 23.4808ZM27.3084 23.4788L27.1068 23.2566L26.8394 23.4992L27.1269 23.7177L27.3084 23.4788ZM27.3088 23.4785L27.1078 23.2558L27.1072 23.2563L27.3088 23.4785ZM27.323 23.4657L27.1216 23.2433L27.1216 23.2433L27.323 23.4657ZM27.6873 23.1203L27.8986 23.3333V23.3333L27.6873 23.1203ZM30.9643 11.4893L31.2596 11.4363L31.2153 11.1893H30.9643V11.4893ZM18.6733 11.4893V11.1893H18.3733V11.4893H18.6733ZM18.6733 16.4079H18.3733V16.7079H18.6733V16.4079ZM25.7118 16.4079L26.0068 16.4623L26.0721 16.1079H25.7118V16.4079ZM25.5938 16.9189L25.8827 16.9995V16.9994L25.5938 16.9189ZM23.1071 20.2893L22.9438 20.0377L22.8071 20.1264V20.2893H23.1071ZM23.1071 20.2925L23.2733 20.5423L23.4071 20.4532V20.2925H23.1071ZM11.3619 16.239L11.6458 16.1419L11.5764 15.9391L11.3622 15.939L11.3619 16.239ZM11.3571 16.239L11.0735 16.3366L11.143 16.5388L11.3569 16.539L11.3571 16.239ZM10.9828 16.7496L10.6991 16.8472L10.7687 17.0494L10.9825 17.0496L10.9828 16.7496ZM10.9958 16.7496L11.2749 16.6397L11.2002 16.4498L10.996 16.4496L10.9958 16.7496ZM10.8632 16.4023L11.1469 16.3046V16.3046L10.8632 16.4023ZM23.3999 20.7152L23.5661 20.965L23.3999 20.7152ZM23.6283 20.5632L23.7945 20.8129L23.9283 20.7239V20.5632H23.6283ZM23.6283 20.5566L23.4543 20.3122L23.3283 20.4019V20.5566H23.6283ZM26.2247 16.4987L25.9297 16.4444L26.2247 16.4987ZM26.3355 15.897L26.6306 15.9513L26.6958 15.597H26.3355V15.897ZM19.1946 15.897H18.8946V16.197H19.1946V15.897ZM19.1946 12.0002V11.7002H18.8946V12.0002H19.1946ZM30.5197 12.0002L30.8165 11.9568L30.779 11.7002H30.5197V12.0002ZM26.9553 23.103L27.1563 23.3257L26.9553 23.103ZM26.7561 23.2828L26.9516 23.5105L26.9571 23.5055L26.7561 23.2828ZM7.49456 19.2998L7.22753 19.4365L7.22762 19.4367L7.49456 19.2998ZM7.48857 8.29936L7.22157 8.16258L7.2214 8.16291L7.48857 8.29936ZM7.49453 8.28774L7.76153 8.42453L7.76153 8.42453L7.49453 8.28774ZM18.6764 1.52936V1.82938L18.6799 1.82934L18.6764 1.52936ZM18.6795 1.52932L18.683 1.8293L18.683 1.8293L18.6795 1.52932ZM26.6349 4.36127L26.8449 4.57551L27.0809 4.34425L26.828 4.13164L26.6349 4.36127ZM23.6513 7.28584L23.4616 7.51822L23.6696 7.68804L23.8613 7.50008L23.6513 7.28584ZM18.6693 5.56226L18.6694 5.86229L18.6737 5.86223L18.6693 5.56226ZM11.1478 10.4637L10.9465 10.6862L11.2521 10.9627L11.4213 10.5869L11.1478 10.4637ZM11.1201 10.4387L11.3214 10.2163L10.9843 9.91128L10.8364 10.3411L11.1201 10.4387ZM10.8806 11.1347L11.164 11.2332L11.1643 11.2323L10.8806 11.1347ZM11.0735 11.2509C11.0089 11.4385 10.9517 11.6278 10.9018 11.8186L11.4823 11.9704C11.5284 11.7942 11.5812 11.6194 11.6408 11.4461L11.0735 11.2509ZM11.2778 10.7146C11.2033 10.8908 11.135 11.07 11.0731 11.2519L11.6412 11.4451C11.6984 11.2769 11.7615 11.1112 11.8304 10.9483L11.2778 10.7146ZM18.6733 5.77318C15.3428 5.77318 12.49 7.84757 11.2778 10.7146L11.8304 10.9483C12.9544 8.29002 15.598 6.37318 18.6733 6.37318V5.77318ZM23.8769 7.76892C22.4739 6.45725 20.603 5.74389 18.6688 5.77321L18.6779 6.37314C20.4592 6.34614 22.1793 7.00324 23.4672 8.20721L23.8769 7.76892ZM26.8107 4.22799C26.939 4.33655 27.0652 4.44792 27.1892 4.56206L27.5956 4.1206C27.4654 4.0008 27.333 3.88391 27.1983 3.76997L26.8107 4.22799ZM18.6768 1.31842C21.6674 1.28373 24.5608 2.32397 26.8107 4.22799L27.1983 3.76997C24.8373 1.77196 21.8035 0.682108 18.6698 0.718459L18.6768 1.31842ZM7.29573 8.19525C9.45543 3.97963 13.8566 1.31844 18.6733 1.31844V0.718439C13.6362 0.718439 9.02621 3.50153 6.76173 7.92167L7.29573 8.19525ZM7.29575 19.3923C5.49152 15.8689 5.49153 11.7185 7.29576 8.1952L6.7617 7.92172C4.86954 11.6168 4.86953 15.9707 6.76169 19.6658L7.29575 19.3923ZM18.6733 26.2643C13.8566 26.2643 9.45535 23.6031 7.29566 19.3921L6.76178 19.6659C9.02629 24.0813 13.6362 26.8643 18.6733 26.8643V26.2643ZM26.722 23.5925C24.6617 25.2848 21.9145 26.2643 18.6733 26.2643V26.8643C22.038 26.8643 24.9239 25.8459 27.1028 24.0562L26.722 23.5925ZM27.0957 23.271C26.9737 23.3809 26.8491 23.4881 26.722 23.5925L27.1028 24.0562C27.237 23.9459 27.3685 23.8328 27.4973 23.7168L27.0957 23.271ZM27.1094 23.2587C27.1048 23.2628 27.1003 23.2669 27.0957 23.271L27.4973 23.7168C27.5021 23.7125 27.507 23.7081 27.5118 23.7037L27.1094 23.2587ZM27.1094 23.2586L27.109 23.259L27.5121 23.7034L27.5126 23.703L27.1094 23.2586ZM27.1269 23.7177L27.1295 23.7197L27.4925 23.242L27.4899 23.24L27.1269 23.7177ZM27.1072 23.2563L27.1068 23.2566L27.51 23.7011L27.5104 23.7007L27.1072 23.2563ZM27.1216 23.2433C27.117 23.2475 27.1124 23.2517 27.1078 23.2558L27.5098 23.7012C27.5147 23.6968 27.5195 23.6924 27.5244 23.688L27.1216 23.2433ZM27.476 22.9073C27.3605 23.0219 27.2423 23.1339 27.1216 23.2433L27.5244 23.688C27.6519 23.5725 27.7766 23.4543 27.8986 23.3333L27.476 22.9073ZM30.8893 14.0847C30.8893 17.6954 29.6431 20.7578 27.476 22.9073L27.8986 23.3333C30.1919 21.0586 31.4893 17.8366 31.4893 14.0847H30.8893ZM30.669 11.5423C30.8189 12.3777 30.8893 13.2328 30.8893 14.0847H31.4893C31.4893 13.2001 31.4162 12.3093 31.2596 11.4363L30.669 11.5423ZM25.8827 16.9994C25.932 16.823 25.9734 16.6438 26.0068 16.4623L25.4168 16.3536C25.3866 16.5174 25.3492 16.679 25.3048 16.8383L25.8827 16.9994ZM23.2704 20.541C24.556 19.7067 25.4795 18.4451 25.8827 16.9995L25.3048 16.8383C24.9411 18.1422 24.1074 19.2825 22.9438 20.0377L23.2704 20.541ZM23.4071 20.2925V20.2893H22.8071V20.2925H23.4071ZM18.6781 21.8096C20.4828 21.8096 22.0493 21.3569 23.2733 20.5423L22.9409 20.0428C21.8297 20.7824 20.383 21.2096 18.6781 21.2096V21.8096ZM11.0781 16.3361C12.1515 19.473 15.1432 21.8096 18.6781 21.8096V21.2096C15.414 21.2096 12.6408 19.0499 11.6458 16.1419L11.0781 16.3361ZM11.3569 16.539L11.3617 16.539L11.3622 15.939L11.3574 15.939L11.3569 16.539ZM10.9018 11.8186C10.5132 13.3051 10.5704 14.8746 11.0735 16.3366L11.6408 16.1414C11.1763 14.7914 11.1235 13.3427 11.4823 11.9704L10.9018 11.8186ZM10.9825 17.0496L10.9956 17.0496L10.996 16.4496L10.983 16.4496L10.9825 17.0496ZM10.5796 16.4999L10.6991 16.8472L11.2664 16.652L11.1469 16.3046L10.5796 16.4999ZM10.5796 11.0876C9.97551 12.8431 9.97551 14.7443 10.5796 16.4999L11.1469 16.3046C10.5864 14.6756 10.5864 12.9118 11.1469 11.2828L10.5796 11.0876ZM10.7167 16.8595C11.9551 20.0047 15.0387 22.3205 18.6781 22.3205V21.7205C15.3001 21.7205 12.4287 19.5696 11.2749 16.6397L10.7167 16.8595ZM18.6781 22.3205C20.5716 22.3205 22.2436 21.8452 23.5661 20.965L23.2337 20.4655C22.024 21.2706 20.4718 21.7205 18.6781 21.7205V22.3205ZM23.5661 20.965L23.7945 20.8129L23.4621 20.3134L23.2337 20.4655L23.5661 20.965ZM23.9283 20.5632V20.5566H23.3283V20.5632H23.9283ZM23.8023 20.801C25.231 19.7838 26.2051 18.2621 26.5198 16.553L25.9297 16.4444C25.6436 17.9984 24.7575 19.3844 23.4543 20.3122L23.8023 20.801ZM26.5198 16.553L26.6306 15.9513L26.0405 15.8427L25.9297 16.4444L26.5198 16.553ZM19.4946 15.897V12.0002H18.8946V15.897H19.4946ZM19.1946 12.3002H30.5197V11.7002H19.1946V12.3002ZM30.2228 12.0436C30.3212 12.7162 30.3681 13.4008 30.3681 14.0847H30.9681C30.9681 13.3735 30.9193 12.6598 30.8165 11.9568L30.2228 12.0436ZM30.3681 14.0847C30.3681 17.7708 29.0282 20.8278 26.7543 22.8803L27.1563 23.3257C29.5705 21.1466 30.9681 17.9205 30.9681 14.0847H30.3681ZM26.7543 22.8803L26.5551 23.0602L26.9571 23.5055L27.1563 23.3257L26.7543 22.8803ZM26.5606 23.0553C24.5849 24.7522 21.8968 25.7534 18.6733 25.7534V26.3534C22.0242 26.3534 24.8555 25.3108 26.9516 23.5104L26.5606 23.0553ZM18.6733 25.7534C14.0536 25.7534 9.83269 23.2011 7.76149 19.1629L7.22762 19.4367C9.40364 23.6793 13.8332 26.3534 18.6733 26.3534V25.7534ZM7.76158 19.1631C6.03316 15.7878 6.03121 11.8125 7.75574 8.43582L7.2214 8.16291C5.40923 11.7112 5.41127 15.8897 7.22753 19.4365L7.76158 19.1631ZM7.75557 8.43615L7.76153 8.42453L7.22753 8.15096L7.22157 8.16258L7.75557 8.43615ZM7.76153 8.42453C9.83273 4.38165 14.0536 1.82936 18.6733 1.82936V1.22936C13.8332 1.22936 9.40351 3.90356 7.22753 8.15096L7.76153 8.42453ZM18.6733 1.82936H18.6764V1.22936H18.6733V1.82936ZM18.6799 1.82934L18.683 1.8293L18.676 1.22934L18.6729 1.22938L18.6799 1.82934ZM18.683 1.8293C21.5338 1.79623 24.2921 2.78342 26.4419 4.59089L26.828 4.13164C24.5674 2.23098 21.6693 1.19462 18.676 1.22934L18.683 1.8293ZM26.4249 4.14703L23.4413 7.0716L23.8613 7.50008L26.8449 4.57551L26.4249 4.14703ZM23.8411 7.05346C22.3926 5.87081 20.5569 5.23459 18.6649 5.26229L18.6737 5.86223C20.4259 5.83657 22.1238 6.4259 23.4616 7.51822L23.8411 7.05346ZM18.6691 5.26226C15.1829 5.26396 12.2021 7.39102 10.8742 10.3406L11.4213 10.5869C12.6584 7.83916 15.4335 5.86384 18.6694 5.86226L18.6691 5.26226ZM11.349 10.2413L11.3214 10.2163L10.9188 10.6612L10.9465 10.6862L11.349 10.2413ZM10.8364 10.3411L10.597 11.037L11.1643 11.2323L11.4038 10.5363L10.8364 10.3411ZM10.5973 11.0361C10.5914 11.0531 10.5855 11.0702 10.5797 11.0872L11.1477 11.2806C11.1531 11.2648 11.1585 11.249 11.164 11.2332L10.5973 11.0361ZM27.1824 4.12709L23.4621 7.77382L23.8821 8.20231L27.6024 4.55557L27.1824 4.12709ZM18.6733 11.7893H30.9643V11.1893H18.6733V11.7893ZM18.9733 16.4079V11.4893H18.3733V16.4079H18.9733ZM25.7118 16.1079H18.6733V16.7079H25.7118V16.1079ZM26.3355 15.597H19.1946V16.197H26.3355V15.597Z" fill="#0898A0" mask="url(#path-8-outside-3)"/>
<defs>
<clipPath id="clip0">
<rect width="26.2687" height="27.5821" fill="white" transform="translate(106.012)"/>
</clipPath>
<clipPath id="clip1">
<rect width="28.1311" height="27.0492" fill="white" transform="translate(72.7715)"/>
</clipPath>
<clipPath id="clip2">
<rect width="31.377" height="27.0492" fill="white" transform="translate(37.0684)"/>
</clipPath>
</defs>
</svg>
