<svg width="34" height="33" viewBox="0 0 34 33" fill="none" xmlns="http://www.w3.org/2000/svg">
<g clip-path="url(#clip0)">
<rect x="0.5" width="33" height="33" rx="16.5" fill="white"/>
<rect opacity="0.1" x="0.5" width="33" height="33" rx="16.5" fill="#866DC5"/>
<path d="M14.3962 18.0984L13.2184 22.6919C13.0941 23.1766 13.7092 23.5081 14.0641 23.1476L22.06 15.024C22.3649 14.7142 22.1397 14.1991 21.6993 14.1991H18.7267L19.8405 10.9414C19.9484 10.6257 19.7075 10.2998 19.3662 10.2998H14.7002C14.477 10.2998 14.2808 10.4441 14.2195 10.6533L12.2197 17.4771C12.1285 17.7885 12.3683 18.0984 12.7004 18.0984H14.3962ZM17.5588 14.5324C17.4509 14.848 17.6918 15.1739 18.0331 15.1739H20.5266L14.6443 21.1502L15.5215 17.7292C15.6004 17.4216 15.3618 17.1236 15.0365 17.1236H13.3632L15.0773 11.2746H18.6726L17.5588 14.5324Z" fill="#866DC5"/>
</g>
<defs>
<clipPath id="clip0">
<rect width="33" height="33" fill="white" transform="translate(0.5)"/>
</clipPath>
</defs>
</svg>
