<svg width="183" height="158" viewBox="0 0 183 158" fill="none" xmlns="http://www.w3.org/2000/svg">
<rect width="8.27338" height="8.27338" transform="translate(176.14 52.2593) rotate(38.9039)" fill="#FFB992"/>
<rect width="8.27338" height="8.27338" transform="translate(61.8672 153.561) rotate(-60)" fill="#E35BAD"/>
<rect x="8.11182" y="123.396" width="8.27338" height="8.27338" rx="4.13669" fill="#FE7122"/>
<rect x="122.95" y="0.195312" width="8.27338" height="8.27338" rx="4.13669" fill="#796CF7"/>
<path d="M6.09594 52.9592L13.5511 58.8889L4.68831 62.3804L6.09594 52.9592Z" fill="#A684DA"/>
<path d="M47.8975 11.7349L38.4317 10.6678L44.0887 3.00372L47.8975 11.7349Z" fill="#FFB992"/>
<path d="M170.592 116.294L179.988 117.864L173.93 125.216L170.592 116.294Z" fill="#41BCC4"/>
<rect x="43.6655" y="29.5" width="98" height="98" rx="49" fill="#EDFFFF"/>
<g clip-path="url(#clip0_24015_64367)">
<path d="M102.76 94.6824L66.3373 105.997C64.7516 106.486 63.2732 105.007 63.762 103.422L75.0764 66.9985L102.76 94.6824Z" fill="#0898A0"/>
<path d="M103.881 94.0376C106.534 91.3837 102.383 82.9291 94.6072 75.1536C86.8318 67.3782 78.3772 63.2264 75.7233 65.8803C73.0694 68.5341 77.2212 76.9888 84.9966 84.7642C92.7721 92.5396 101.227 96.6915 103.881 94.0376Z" fill="#9FDCE1"/>
<path d="M97.5376 96.3048L90.4915 98.4985C88.9297 97.9381 87.3917 97.2705 85.8775 96.4836C82.5869 94.7787 79.4275 92.5492 76.4827 89.8428C76.0058 89.4017 75.4812 88.9009 74.9208 88.3525C73.4782 86.9099 71.821 85.0739 70.1519 82.8801L71.5945 78.2065C74.2412 82.1886 77.1026 85.1454 79.1056 86.9814C84.733 92.1438 90.9326 95.2794 97.5376 96.3048Z" fill="#9FDCE1"/>
<path d="M85.7706 99.9527L80.2148 101.681C77.0315 100 73.9794 97.8186 71.118 95.1956C70.6411 94.7545 70.1165 94.2538 69.5561 93.7053C68.9004 93.0496 68.197 92.3104 67.4697 91.4878L68.8289 87.0884C70.6411 89.3298 72.3818 91.0824 73.7409 92.3342C77.5203 95.7917 81.5382 98.3431 85.7706 99.9527Z" fill="#9FDCE1"/>
<path d="M75.7075 103.088L70.8312 104.602C69.0905 103.41 67.3856 102.051 65.7642 100.561C65.49 100.31 65.2038 100.048 64.9058 99.7499L66.2053 95.5532C66.9922 96.3759 67.7433 97.0912 68.3871 97.6873C70.7358 99.8453 73.1799 101.646 75.7075 103.088Z" fill="#9FDCE1"/>
<path d="M84.864 71.6135L83.1353 69.8847C85.8774 67.1426 87.4392 63.6255 87.785 59.4169C88.0473 56.2217 87.475 53.8014 87.4631 53.7776L89.8357 53.1934C89.8595 53.3007 90.5033 55.9474 90.2291 59.5242C89.8595 64.3051 87.9996 68.4779 84.864 71.6135Z" fill="#9FDCE1"/>
<path d="M98.5749 87.0524L96.8462 85.3236C100.22 81.9496 105.001 80.2447 110.664 80.4116C114.873 80.5308 118.068 81.6277 118.199 81.6753L117.4 83.9764L117.794 82.8199L117.4 83.9764C117.365 83.9645 114.372 82.951 110.521 82.8437C105.526 82.7126 101.496 84.1314 98.5749 87.0524Z" fill="#0898A0"/>
<path d="M90.1333 69.1448C91.0156 67.6784 92.184 67.2969 93.0304 67.0107C93.7458 66.7723 94.1869 66.6292 94.6042 65.9377C95.0215 65.2462 94.95 64.7932 94.8188 64.0421C94.6638 63.1598 94.4611 61.9556 95.3434 60.4892C96.2257 59.0227 97.3941 58.6412 98.2405 58.3551C98.9559 58.1166 99.397 57.9735 99.8143 57.282C100.232 56.5905 100.16 56.1375 100.029 55.3864C99.8739 54.5041 99.6712 53.3 100.553 51.8335L102.64 53.0853C102.223 53.7769 102.294 54.2299 102.425 54.981C102.58 55.8633 102.783 57.0674 101.901 58.5339C101.018 60.0004 99.8501 60.3819 99.0036 60.668C98.2882 60.9065 97.8471 61.0495 97.4298 61.741C97.0125 62.4325 97.0841 62.8856 97.2152 63.6367C97.3702 64.5189 97.5729 65.7231 96.6906 67.1896C95.8084 68.656 94.64 69.0375 93.7935 69.3237C93.0781 69.5621 92.637 69.7052 92.2197 70.3967L90.1333 69.1448Z" fill="#0898A0"/>
<path d="M100.196 75.6905L99.0039 73.5683C100.542 72.6979 101.782 72.9483 102.688 73.1391C103.475 73.294 103.94 73.3894 104.703 72.9721C105.454 72.5549 105.621 72.1018 105.895 71.3388C106.205 70.4684 106.646 69.2881 108.184 68.4178C109.722 67.5474 110.962 67.7978 111.868 67.9766C112.655 68.1316 113.12 68.227 113.883 67.8097C114.634 67.3925 114.801 66.9275 115.075 66.1764C115.385 65.306 115.826 64.1257 117.364 63.2554L118.557 65.3776C117.806 65.7948 117.639 66.2598 117.364 67.0109C117.054 67.8813 116.613 69.0616 115.075 69.9319C113.537 70.8023 112.297 70.5519 111.391 70.3731C110.604 70.2181 110.139 70.1227 109.376 70.54C108.625 70.9573 108.458 71.4103 108.184 72.1733C107.874 73.0437 107.433 74.224 105.895 75.0943C104.357 75.9647 103.117 75.7143 102.211 75.5235C101.424 75.3566 100.947 75.2612 100.196 75.6905Z" fill="#9FDCE1"/>
<path d="M115.659 75.8453C116.331 75.8453 116.876 75.3008 116.876 74.6292C116.876 73.9575 116.331 73.4131 115.659 73.4131C114.988 73.4131 114.443 73.9575 114.443 74.6292C114.443 75.3008 114.988 75.8453 115.659 75.8453Z" fill="#9FDCE1"/>
<path d="M110.224 90.0801C110.896 90.0801 111.44 89.5357 111.44 88.864C111.44 88.1924 110.896 87.6479 110.224 87.6479C109.552 87.6479 109.008 88.1924 109.008 88.864C109.008 89.5357 109.552 90.0801 110.224 90.0801Z" fill="#9FDCE1"/>
<path d="M121.442 79.732C122.114 79.732 122.658 79.1875 122.658 78.5159C122.658 77.8443 122.114 77.2998 121.442 77.2998C120.771 77.2998 120.226 77.8443 120.226 78.5159C120.226 79.1875 120.771 79.732 121.442 79.732Z" fill="#0898A0"/>
<path d="M111.511 62.9092C112.183 62.9092 112.727 62.3648 112.727 61.6931C112.727 61.0215 112.183 60.4771 111.511 60.4771C110.839 60.4771 110.295 61.0215 110.295 61.6931C110.295 62.3648 110.839 62.9092 111.511 62.9092Z" fill="#9FDCE1"/>
<path d="M93.5784 53.9312C94.25 53.9312 94.7945 53.3867 94.7945 52.7151C94.7945 52.0435 94.25 51.499 93.5784 51.499C92.9068 51.499 92.3623 52.0435 92.3623 52.7151C92.3623 53.3867 92.9068 53.9312 93.5784 53.9312Z" fill="#9FDCE1"/>
<path d="M102.032 64.4595C102.704 64.4595 103.248 63.9151 103.248 63.2434C103.248 62.5718 102.704 62.0273 102.032 62.0273C101.36 62.0273 100.816 62.5718 100.816 63.2434C100.816 63.9151 101.36 64.4595 102.032 64.4595Z" fill="#0898A0"/>
<path d="M92.7923 79.5523C93.4639 79.5523 94.0083 79.0078 94.0083 78.3362C94.0083 77.6646 93.4639 77.1201 92.7923 77.1201C92.1206 77.1201 91.5762 77.6646 91.5762 78.3362C91.5762 79.0078 92.1206 79.5523 92.7923 79.5523Z" fill="#0898A0"/>
<path d="M80.0349 59.7139C80.7066 59.7139 81.251 59.1695 81.251 58.4978C81.251 57.8262 80.7066 57.2817 80.0349 57.2817C79.3633 57.2817 78.8188 57.8262 78.8188 58.4978C78.8188 59.1695 79.3633 59.7139 80.0349 59.7139Z" fill="#0898A0"/>
</g>
<defs>
<clipPath id="clip0_24015_64367">
<rect width="58.9921" height="54.5927" fill="white" transform="translate(63.6655 51.5)"/>
</clipPath>
</defs>
</svg>
