<svg id="sun" xmlns="http://www.w3.org/2000/svg" width="512" height="512" viewBox="0 0 512 512">
  <g id="Group_2" data-name="Group 2">
    <circle id="Ellipse_1" data-name="Ellipse 1" cx="144.824" cy="144.824" r="144.824" transform="translate(111.173 111.173)" fill="#ffd347"/>
    <path id="Path_5" data-name="Path 5" d="M256,56.849a7.736,7.736,0,0,1-7.737-7.737V7.737a7.737,7.737,0,1,1,15.474,0V49.113A7.736,7.736,0,0,1,256,56.849Z" fill="#ffd347"/>
    <path id="Path_6" data-name="Path 6" d="M152.563,84.568a7.732,7.732,0,0,1-6.707-3.869L125.169,44.867a7.737,7.737,0,1,1,13.4-7.737l20.687,35.832a7.738,7.738,0,0,1-6.694,11.606Z" fill="#ffd347"/>
    <path id="Path_7" data-name="Path 7" d="M76.823,160.294a7.7,7.7,0,0,1-3.861-1.038L37.13,138.569a7.737,7.737,0,0,1,7.737-13.4L80.7,145.855a7.738,7.738,0,0,1-3.876,14.439Z" fill="#ffd347"/>
    <path id="Path_8" data-name="Path 8" d="M49.112,263.737H7.737a7.737,7.737,0,1,1,0-15.474H49.113a7.737,7.737,0,1,1,0,15.474Z" fill="#ffd347"/>
    <path id="Path_9" data-name="Path 9" d="M41.005,387.869a7.737,7.737,0,0,1-3.875-14.438l35.832-20.687a7.737,7.737,0,1,1,7.737,13.4L44.867,386.832A7.711,7.711,0,0,1,41.005,387.869Z" fill="#ffd347"/>
    <path id="Path_10" data-name="Path 10" d="M131.862,478.74a7.739,7.739,0,0,1-6.693-11.607L145.856,431.3a7.737,7.737,0,0,1,13.4,7.737L138.57,474.87A7.736,7.736,0,0,1,131.862,478.74Z" fill="#ffd347"/>
    <path id="Path_11" data-name="Path 11" d="M256,512a7.736,7.736,0,0,1-7.737-7.737V462.887a7.737,7.737,0,0,1,15.474,0v41.376A7.736,7.736,0,0,1,256,512Z" fill="#ffd347"/>
    <path id="Path_12" data-name="Path 12" d="M380.138,478.74a7.732,7.732,0,0,1-6.707-3.869l-20.687-35.832a7.737,7.737,0,0,1,13.4-7.737l20.687,35.832a7.738,7.738,0,0,1-6.694,11.606Z" fill="#ffd347"/>
    <path id="Path_13" data-name="Path 13" d="M470.995,387.869a7.7,7.7,0,0,1-3.861-1.038L431.3,366.144a7.737,7.737,0,0,1,7.737-13.4l35.832,20.687a7.738,7.738,0,0,1-3.876,14.439Z" fill="#ffd347"/>
    <path id="Path_14" data-name="Path 14" d="M504.263,263.737H462.887a7.737,7.737,0,1,1,0-15.474h41.376a7.737,7.737,0,1,1,0,15.474Z" fill="#ffd347"/>
    <path id="Path_15" data-name="Path 15" d="M435.177,160.294a7.737,7.737,0,0,1-3.875-14.438l35.832-20.687a7.737,7.737,0,1,1,7.737,13.4l-35.832,20.687A7.711,7.711,0,0,1,435.177,160.294Z" fill="#ffd347"/>
    <path id="Path_16" data-name="Path 16" d="M359.437,84.568a7.739,7.739,0,0,1-6.693-11.607l20.687-35.832a7.737,7.737,0,1,1,13.4,7.737L366.145,80.7A7.735,7.735,0,0,1,359.437,84.568Z" fill="#ffd347"/>
  </g>
  <path id="Path_17" data-name="Path 17" d="M256,111.18a146.713,146.713,0,0,0-15.516.828,144.826,144.826,0,0,1,0,287.983A144.822,144.822,0,1,0,256,111.18Z" fill="#ffbe31"/>
</svg>
