<svg xmlns="http://www.w3.org/2000/svg" width="512" height="413.93" viewBox="0 0 512 413.93">
  <g id="sunrise_2_" data-name="sunrise (2)" transform="translate(0 -49.035)">
    <g id="Group_4" data-name="Group 4">
      <path id="Path_25" data-name="Path 25" d="M46,320.034H15a15,15,0,0,1,0-30H46a15,15,0,0,1,0,30Z" fill="#ffd222"/>
      <path id="Path_26" data-name="Path 26" d="M74.121,215.037a14.928,14.928,0,0,1-7.486-2.012l-26.847-15.5a15,15,0,0,1,15-25.98l26.847,15.5a15,15,0,0,1-7.514,27.992Z" fill="#ffd222"/>
      <path id="Path_27" data-name="Path 27" d="M151.014,138.171a14.992,14.992,0,0,1-13-7.5l-15.5-26.847a15,15,0,0,1,25.98-15l15.5,26.847a15,15,0,0,1-12.976,22.5Z" fill="#ffd222"/>
      <path id="Path_28" data-name="Path 28" d="M256,110.035a15,15,0,0,1-15-15v-31a15,15,0,0,1,30,0v31A15,15,0,0,1,256,110.035Z" fill="#ffd222"/>
    </g>
    <path id="Path_29" data-name="Path 29" d="M360.986,138.172a15,15,0,0,1-12.976-22.5l15.5-26.847a15,15,0,1,1,25.98,15l-15.5,26.847a15,15,0,0,1-13,7.5Z" fill="#fdbf00"/>
    <path id="Path_30" data-name="Path 30" d="M437.879,215.037a15,15,0,0,1-7.514-27.992l26.847-15.5a15,15,0,0,1,15,25.98l-26.847,15.5A14.928,14.928,0,0,1,437.879,215.037Z" fill="#fdbf00"/>
    <path id="Path_31" data-name="Path 31" d="M497,320.035H466a15,15,0,0,1,0-30h31a15,15,0,0,1,0,30Z" fill="#fdbf00"/>
    <path id="Path_32" data-name="Path 32" d="M256,151.035c-84.916,0-154,69.084-154,154a154.46,154.46,0,0,0,2.149,25.638,15,15,0,0,0,17.288,12.293c6.1-1.029,126.711,19.267,126.711,19.267s139.473-19.226,142.266-18.743a14.981,14.981,0,0,0,17.335-12.226A154.468,154.468,0,0,0,410,305.035c0-84.916-69.083-154-154-154Z" fill="#ffd222"/>
    <path id="Path_33" data-name="Path 33" d="M256,151.035V361.153c29.466-4.046,132.024-18.077,134.415-17.663a14.981,14.981,0,0,0,17.335-12.226A154.468,154.468,0,0,0,410,305.035c0-84.916-69.084-154-154-154Z" fill="#ffd222"/>
    <path id="Path_34" data-name="Path 34" d="M496.993,386.038a14.977,14.977,0,0,1-5.208-.938l-4.777-1.772c-36.153-13.419-73.538-27.294-110.51-27.294-17.947,0-35.911,6.813-54.93,14.025-20.709,7.854-42.123,15.975-65.567,15.975s-44.858-8.121-65.567-15.975c-19.019-7.213-36.983-14.025-54.93-14.025-38.174,0-74.909,13.847-113.8,28.507l-1.406.53A15,15,0,1,1,9.717,357l1.4-.529c39.695-14.963,80.743-30.435,124.382-30.435,23.445,0,44.859,8.121,65.568,15.975,19.019,7.213,36.982,14.025,54.929,14.025s35.911-6.813,54.929-14.025c20.709-7.854,42.124-15.975,65.568-15.975,42.36,0,84.112,15.5,120.949,29.169l4.758,1.765a15,15,0,0,1-5.212,29.069Z" fill="#bce9f8"/>
    <path id="Path_35" data-name="Path 35" d="M98,462.965a15,15,0,0,1-4.913-29.176c5.751-1.994,10.966-3.846,15.771-5.552,26.828-9.526,43.021-15.276,68.142-15.276,16.094,0,30.715,5.586,44.854,10.988,12.13,4.635,23.588,9.012,34.146,9.012s22.016-4.377,34.146-9.012c14.139-5.4,28.759-10.988,44.854-10.988,29.263,0,62.192,12.545,83.983,20.847l.357.136a15,15,0,0,1-10.68,28.034l-.357-.136c-19.736-7.519-49.561-18.881-73.3-18.881-10.559,0-22.016,4.377-34.146,9.012-14.139,5.4-28.759,10.988-44.854,10.988s-30.715-5.586-44.854-10.988c-12.13-4.635-23.588-9.012-34.146-9.012-19.954,0-31.909,4.245-58.1,13.546-4.869,1.729-10.154,3.605-15.983,5.626a14.946,14.946,0,0,1-4.913.832Z" fill="#bce9f8"/>
    <path id="Path_36" data-name="Path 36" d="M502.2,356.969l-4.758-1.765c-36.837-13.672-78.589-29.169-120.949-29.169-23.445,0-44.859,8.121-65.568,15.975-19.019,7.213-36.982,14.025-54.929,14.025v30c23.444,0,44.858-8.121,65.567-15.975,19.019-7.213,36.983-14.025,54.93-14.025,36.972,0,74.356,13.875,110.51,27.294l4.777,1.772a15,15,0,0,0,10.42-28.132Z" fill="#bce9f8"/>
    <path id="Path_37" data-name="Path 37" d="M419.34,433.944l-.357-.136c-21.791-8.3-54.72-20.847-83.983-20.847-16.094,0-30.715,5.586-44.854,10.988-12.13,4.635-23.588,9.012-34.146,9.012v30c16.094,0,30.715-5.586,44.854-10.988,12.13-4.635,23.588-9.012,34.146-9.012,23.742,0,53.567,11.362,73.3,18.881l.357.136a15,15,0,0,0,10.68-28.034Z" fill="#bce9f8"/>
    <path id="Path_38" data-name="Path 38" d="M256,49.035v61a15,15,0,0,0,15-15v-31a15,15,0,0,0-15-15Z" fill="#fdbf00"/>
  </g>
</svg>
