<svg width="34" height="34" viewBox="0 0 34 34" fill="none" xmlns="http://www.w3.org/2000/svg">
<rect width="34" height="34" rx="17" fill="#71879C" fill-opacity="0.1"/>
<path fill-rule="evenodd" clip-rule="evenodd" d="M16.8043 15.3519C16.8043 15.3519 13.8065 11.9792 13.7815 11.9467C13.6595 11.7883 13.4814 11.6875 13.2812 11.6875C13.0727 11.6875 12.8883 11.7973 12.7663 11.9675C12.7402 12.0041 9.75823 15.3519 9.75823 15.3519C9.49726 15.6466 9.49726 16.1247 9.75823 16.4191C10.0192 16.7138 10.4426 16.7138 10.7032 16.4191L12.6129 14.2629V21.554C12.6129 21.9729 12.9123 22.3125 13.2812 22.3125C13.6505 22.3125 13.9496 21.9729 13.9496 21.554V14.2629L15.8593 16.4191C16.1199 16.7138 16.5433 16.7138 16.8043 16.4191C17.0652 16.1247 17.0652 15.6466 16.8043 15.3519Z" fill="#94A1AD"/>
<path fill-rule="evenodd" clip-rule="evenodd" d="M25.3043 18.6481C25.3043 18.6481 22.3065 22.0208 22.2815 22.0533C22.1595 22.2117 21.9814 22.3125 21.7812 22.3125C21.5727 22.3125 21.3883 22.2027 21.2663 22.0325C21.2402 21.9959 18.2582 18.6481 18.2582 18.6481C17.9973 18.3534 17.9973 17.8753 18.2582 17.5809C18.5192 17.2862 18.9426 17.2862 19.2032 17.5809L21.1129 19.7371V12.446C21.1129 12.0271 21.4123 11.6875 21.7812 11.6875C22.1505 11.6875 22.4496 12.0271 22.4496 12.446V19.7371L24.3593 17.5809C24.6199 17.2862 25.0433 17.2862 25.3043 17.5809C25.5652 17.8753 25.5652 18.3534 25.3043 18.6481Z" fill="#94A1AD"/>
</svg>
