<svg width="60" height="60" viewBox="0 0 60 60" fill="none" xmlns="http://www.w3.org/2000/svg">
<path d="M0 30C0 13.4315 13.4315 0 30 0C46.5685 0 60 13.4315 60 30C60 46.5685 46.5685 60 30 60C13.4315 60 0 46.5685 0 30Z" fill="white"/>
<path d="M0 30C0 13.4315 13.4315 0 30 0C46.5685 0 60 13.4315 60 30C60 46.5685 46.5685 60 30 60C13.4315 60 0 46.5685 0 30Z" fill="#E6F5F6"/>
<path d="M43.3553 27.2642C43.2282 27.2642 43.1064 27.3147 43.0165 27.4045C42.9267 27.4944 42.8762 27.6162 42.8762 27.7433C42.8762 28.4741 42.5859 29.175 42.0691 29.6918C41.5523 30.2086 40.8514 30.4989 40.1206 30.4989C39.3897 30.4989 38.6888 30.2086 38.1721 29.6918C37.6553 29.175 37.3649 28.4741 37.3649 27.7433C37.3649 27.2556 37.2689 26.7727 37.0823 26.3221C36.8956 25.8715 36.6221 25.4621 36.2772 25.1173C35.9324 24.7724 35.523 24.4989 35.0724 24.3122C34.6218 24.1256 34.1389 24.0295 33.6512 24.0295C33.1635 24.0295 32.6806 24.1256 32.23 24.3122C31.7795 24.4989 31.3701 24.7724 31.0252 25.1173C30.6804 25.4621 30.4068 25.8715 30.2202 26.3221C30.0336 26.7727 29.9375 27.2556 29.9375 27.7433C29.9375 27.8703 29.988 27.9922 30.0778 28.082C30.1676 28.1718 30.2895 28.2223 30.4165 28.2223C30.5436 28.2223 30.6654 28.1718 30.7553 28.082C30.8451 27.9922 30.8956 27.8703 30.8956 27.7433C30.8956 27.0124 31.1859 26.3115 31.7027 25.7947C32.2195 25.2779 32.9204 24.9876 33.6512 24.9876C34.3821 24.9876 35.083 25.2779 35.5998 25.7947C36.1165 26.3115 36.4069 27.0124 36.4069 27.7433C36.4069 28.7282 36.7981 29.6728 37.4946 30.3693C38.191 31.0657 39.1356 31.457 40.1206 31.457C41.1055 31.457 42.0501 31.0657 42.7466 30.3693C43.443 29.6728 43.8343 28.7282 43.8343 27.7433C43.8343 27.6162 43.7838 27.4944 43.694 27.4045C43.6042 27.3147 43.4823 27.2642 43.3553 27.2642Z" fill="#0898A0"/>
<path d="M25.3008 25.6518C25.3008 25.7789 25.3513 25.9007 25.4411 25.9906C25.5309 26.0804 25.6528 26.1309 25.7798 26.1309C27.0316 26.1297 28.2318 25.6318 29.117 24.7467C30.0021 23.8615 30.4999 22.6614 30.5011 21.4096C30.5011 20.4116 30.8976 19.4546 31.6032 18.7489C32.3088 18.0433 33.2659 17.6469 34.2638 17.6469C35.2617 17.6469 36.2188 18.0433 36.9244 18.7489C37.63 19.4546 38.0265 20.4116 38.0265 21.4096C38.0265 21.5366 38.0769 21.6584 38.1668 21.7483C38.2566 21.8381 38.3785 21.8886 38.5055 21.8886C38.6326 21.8886 38.7544 21.8381 38.8442 21.7483C38.9341 21.6584 38.9846 21.5366 38.9846 21.4096C38.9846 20.1574 38.4871 18.9565 37.6017 18.0711C36.7163 17.1857 35.5154 16.6882 34.2632 16.6882C33.0111 16.6882 31.8102 17.1857 30.9248 18.0711C30.0393 18.9565 29.5419 20.1574 29.5419 21.4096C29.5408 22.4071 29.1441 23.3636 28.4387 24.069C27.7333 24.7744 26.7768 25.1712 25.7792 25.1722C25.7163 25.1723 25.6541 25.1848 25.596 25.2089C25.5379 25.233 25.4851 25.2684 25.4407 25.3129C25.3963 25.3575 25.361 25.4103 25.337 25.4685C25.313 25.5266 25.3007 25.5889 25.3008 25.6518Z" fill="#0898A0"/>
<path d="M24.2604 25.7554C24.2055 25.7011 24.1383 25.6608 24.0645 25.638C23.9908 25.6152 23.9126 25.6106 23.8366 25.6246C23.7607 25.6386 23.6892 25.6707 23.6284 25.7182C23.5675 25.7658 23.5191 25.8273 23.4871 25.8976L15.348 43.8024C15.3073 43.8915 15.2949 43.9909 15.3124 44.0873C15.33 44.1837 15.3767 44.2724 15.4462 44.3414C15.5158 44.4104 15.6048 44.4565 15.7013 44.4733C15.7978 44.4902 15.8972 44.4771 15.986 44.4357L33.8141 36.1273C33.8841 36.0947 33.9451 36.0457 33.9921 35.9844C34.039 35.9231 34.0704 35.8513 34.0836 35.7753C34.0969 35.6992 34.0915 35.6211 34.0681 35.5476C34.0446 35.474 34.0037 35.4073 33.9489 35.3529L24.2604 25.7554Z" fill="#0898A0"/>
<path d="M25.7639 23.8474L26.5706 23.0966L27.6461 23.335L27.1809 22.3366L27.7406 21.3871L26.6466 21.5207L25.9171 20.6951L25.7058 21.7764L24.6953 22.2157L25.6586 22.7506L25.7639 23.8474Z" fill="#0898A0"/>
<path d="M27.089 18.7373L28.0304 17.8334L29.3092 18.0959L28.7403 16.9213L29.3858 15.7865L28.092 15.9644L27.2122 15L26.9819 16.2851L25.793 16.824L26.9439 17.4401L27.089 18.7373Z" fill="#0898A0"/>
<path d="M34.5739 19.7454L33.9061 18.762L33.5318 19.8905L32.3906 20.2215L33.3481 20.9263L33.3107 22.1141L34.2763 21.4214L35.3944 21.8239L35.034 20.6914L35.7629 19.7523L34.5739 19.7454Z" fill="#0898A0"/>
<path d="M39.4747 27.8031L39.4309 29.0779L40.4696 28.3368L41.6684 28.7727L41.2843 27.5561L42.0691 26.5502L40.7938 26.5393L40.0798 25.4822L39.675 26.6919L38.4492 27.0442L39.4747 27.8031Z" fill="#0898A0"/>
<path d="M34.1649 27.3009L33.4913 26.3508L33.147 27.4632L32.0352 27.8104L32.9869 28.4818L32.9737 29.6465L33.9058 28.9487L35.0096 29.3212L34.6342 28.2186L35.3297 27.2842L34.1649 27.3009Z" fill="#0898A0"/>
<path d="M44.6934 20.2748L43.2591 20.1798L42.525 18.9453L41.9913 20.2794L40.5898 20.596L41.6942 21.5156L41.5623 22.9463L42.7778 22.1806L44.098 22.7483L43.7456 21.3555L44.6934 20.2748Z" fill="#0898A0"/>
<path d="M37.4241 31.2736L36.1948 31.5994L35.2292 30.7715L35.1595 32.0416L34.0742 32.7038L35.2603 33.1627L35.5545 34.4L36.3572 33.4137L37.625 33.5162L36.9352 32.4476L37.4241 31.2736Z" fill="#0898A0"/>
</svg>
