<svg width="24" height="24" viewBox="0 0 24 24" fill="none" xmlns="http://www.w3.org/2000/svg">
  <path
    d="M17.2534 18.5825L17.7588 7.93311H18.6377C18.938 7.93311 19.1797 7.67676 19.1797 7.37646C19.1797 7.07617 18.938 6.82715 18.6377 6.82715H15.2905V5.72852C15.2905 4.67383 14.5801 4 13.4521 4H10.7129C9.58496 4 8.88184 4.67383 8.88184 5.72852V6.82715H5.54199C5.24902 6.82715 5 7.0835 5 7.37646C5 7.67676 5.24902 7.93311 5.54199 7.93311H6.42822L6.93359 18.5898C6.98486 19.6372 7.67334 20.311 8.73535 20.311H15.4517C16.499 20.311 17.2021 19.6299 17.2534 18.5825ZM10.0537 5.80176C10.0537 5.38428 10.354 5.09131 10.8008 5.09131H13.3716C13.8184 5.09131 14.126 5.38428 14.126 5.80176V6.82715H10.0537V5.80176ZM8.83789 19.2051C8.42041 19.2051 8.10547 18.8901 8.0835 18.458L7.5708 7.93311H16.5869L16.1035 18.458C16.0815 18.8975 15.7739 19.2051 15.3345 19.2051H8.83789ZM14.2651 17.9233C14.5068 17.9233 14.6826 17.7256 14.6899 17.4473L14.9097 9.76416C14.917 9.49316 14.7339 9.28809 14.4849 9.28809C14.2578 9.28809 14.0674 9.50049 14.0601 9.76416L13.8403 17.4399C13.833 17.7109 14.0161 17.9233 14.2651 17.9233ZM9.92188 17.9233C10.1709 17.9233 10.354 17.7109 10.3467 17.4399L10.1196 9.76416C10.1123 9.50049 9.92188 9.28809 9.69482 9.28809C9.4458 9.28809 9.2627 9.49316 9.27002 9.76416L9.48975 17.4473C9.49707 17.7256 9.67285 17.9233 9.92188 17.9233ZM12.0898 17.9233C12.3315 17.9233 12.5366 17.7109 12.5366 17.4473V9.76416C12.5366 9.50049 12.3315 9.28809 12.0898 9.28809C11.8555 9.28809 11.6504 9.50049 11.6504 9.76416V17.4473C11.6504 17.7109 11.8555 17.9233 12.0898 17.9233Z"
    fill="#F34040" />
</svg>
  