<svg width="74" height="29" viewBox="0 0 74 29" fill="none" xmlns="http://www.w3.org/2000/svg">
<path d="M43.4619 10.7065H40.8975V18H39.7676V10.7065H37.1841V9.66553H43.4619V10.7065ZM44.2427 12.2681L44.8394 14.1787C45.2118 15.3467 45.4508 16.1486 45.5566 16.5845C45.6963 16.1063 46.0898 14.8494 46.7373 12.814L46.8833 12.3696H48.0132C48.1359 12.7336 48.3433 13.3916 48.6353 14.3438C48.9315 15.2917 49.1621 16.0513 49.3271 16.6226C49.4922 15.9793 49.7122 15.2345 49.9873 14.3882L50.6792 12.2681H51.8091L49.8477 18H48.7812C48.3919 16.8109 48.0809 15.8333 47.8481 15.0674C47.6196 14.3014 47.4884 13.8402 47.4546 13.6836C47.2134 14.5426 46.7627 15.9814 46.1025 18H45.0107L43.0874 12.2681H44.2427ZM53.5103 10.8652C53.286 10.8652 53.0977 10.7891 52.9453 10.6367C52.793 10.4844 52.7168 10.2961 52.7168 10.0718C52.7168 9.85596 52.793 9.67399 52.9453 9.52588C53.0977 9.37777 53.286 9.30371 53.5103 9.30371C53.743 9.30371 53.9334 9.37777 54.0815 9.52588C54.2297 9.67399 54.3037 9.85596 54.3037 10.0718C54.3037 10.2876 54.2297 10.4738 54.0815 10.6304C53.9377 10.7869 53.7472 10.8652 53.5103 10.8652ZM52.9771 12.2681H54.0562V18H52.9771V12.2681ZM62.2954 13.1631H61.1782V18H60.0991V13.1631H57.4839V18H56.3921V13.1631H55.2749V12.2681H56.3921V10.7446H57.4839V12.2681H60.0991V10.7446H61.1782V12.2681H62.2954V13.1631ZM68.6558 16.2861C68.5246 16.849 68.2072 17.3018 67.7036 17.6445C67.2 17.9873 66.6118 18.1587 65.939 18.1587C65.3592 18.1587 64.8472 18.0317 64.4028 17.7778C63.9627 17.5197 63.62 17.1621 63.3745 16.7051C63.1333 16.2438 63.0127 15.7127 63.0127 15.1118C63.0127 14.5151 63.1354 13.9883 63.3809 13.5312C63.6305 13.07 63.9733 12.7166 64.4092 12.4712C64.8493 12.2215 65.3465 12.0967 65.9009 12.0967C66.4468 12.0967 66.925 12.2131 67.3354 12.4458C67.7459 12.6743 68.0654 12.9938 68.2939 13.4043C68.5267 13.8148 68.6431 14.2845 68.6431 14.8135C68.6431 15.1012 68.6261 15.3192 68.5923 15.4673H64.0791C64.096 16.0132 64.2759 16.4512 64.6187 16.7812C64.9614 17.1071 65.4015 17.27 65.939 17.27C66.3368 17.27 66.6838 17.1812 66.98 17.0034C67.2804 16.8257 67.4878 16.5866 67.6021 16.2861H68.6558ZM67.5513 14.6865C67.5428 14.1745 67.3862 13.7682 67.0815 13.4678C66.7769 13.1631 66.3791 13.0107 65.8882 13.0107C65.3677 13.0107 64.9424 13.1631 64.6123 13.4678C64.2822 13.7682 64.1087 14.1745 64.0918 14.6865H67.5513ZM72.5786 12.2173C72.769 12.2173 72.951 12.2342 73.1245 12.2681V13.1885C73.0272 13.1715 72.8918 13.1631 72.7183 13.1631C72.1978 13.1631 71.7957 13.3175 71.5122 13.6265C71.2329 13.9354 71.0933 14.3628 71.0933 14.9087V18H70.0142V12.2681H70.9663L71.0933 13.1377C71.1906 12.8415 71.3726 12.6151 71.6392 12.4585C71.91 12.2977 72.2231 12.2173 72.5786 12.2173Z" fill="#8B909D"/>
<rect width="29" height="29" rx="14.5" fill="#00ACEE"/>
<g clip-path="url(#clip0)">
<path fill-rule="evenodd" clip-rule="evenodd" d="M20.4573 11.7919C20.4573 15.6978 17.4861 20.2 12.0521 20.2C10.4416 20.1992 8.86689 19.7376 7.52344 18.8727C7.7573 18.8982 7.99236 18.9119 8.22768 18.9136C9.56416 18.9137 10.8599 18.4656 11.8972 17.6448C10.6197 17.6142 9.50644 16.7892 9.13544 15.5984C9.31893 15.6337 9.50555 15.6513 9.69259 15.651C9.95655 15.6519 10.2193 15.6165 10.4731 15.5457C9.07799 15.2505 8.08755 14.0417 8.1016 12.6514C8.51194 12.8404 8.97095 12.9667 9.44104 12.9847C8.13845 12.0945 7.74277 10.3866 8.52666 9.03793C10.0045 10.8737 12.224 11.999 14.6157 12.1252C14.5648 11.9045 14.5392 11.679 14.5394 11.4528C14.5181 9.84284 15.8408 8.52086 17.4939 8.5C18.3147 8.50037 19.0973 8.83794 19.6492 9.42969C20.3134 9.30206 20.9491 9.06053 21.5266 8.71634C21.3104 9.39564 20.8483 9.97535 20.2262 10.3477C20.8129 10.2793 21.3853 10.1235 21.9234 9.88576C21.5289 10.4754 21.0301 10.9921 20.4501 11.4118C20.4555 11.5405 20.4573 11.6691 20.4573 11.7919Z" fill="white"/>
</g>
<defs>
<clipPath id="clip0">
<rect width="14.4" height="12" fill="white" transform="translate(7.52344 8.5)"/>
</clipPath>
</defs>
</svg>
