<svg width="24" height="24" viewBox="0 0 24 24" fill="none" xmlns="http://www.w3.org/2000/svg">
<g clip-path="url(#clip0_14938_103147)">
<path d="M20.9434 20C22.8439 17.8769 24 15.0737 24 12C24 8.92632 22.8438 6.12306 20.9434 3.99999L12 3.13046L3.05662 3.99999C1.15617 6.12306 0 8.92632 0 12C0 15.0737 1.15613 17.8769 3.05658 20L12 20.8696L20.9434 20Z" fill="#FFDA44"/>
<path d="M3.05664 3.99998H20.9434C18.7462 1.54528 15.5537 0 12 0C8.44628 0 5.25386 1.54528 3.05664 3.99998Z" fill="#222222"/>
<path d="M0 12L12 13.0435L24 12C24 10.5973 23.7585 9.25119 23.3162 8H0.683812C0.241453 9.25119 0 10.5973 0 12H0Z" fill="#F34040"/>
<path d="M0.683812 16H23.3163C23.7585 14.7488 24 13.4027 24 12H0C0 13.4027 0.241453 14.7488 0.683812 16Z" fill="#222222"/>
<path d="M20.9433 20H3.05646C5.25368 22.4548 8.4461 24 11.9999 24C15.5537 24 18.7461 22.4548 20.9433 20Z" fill="#F34040"/>
<path d="M16.0043 12C16.0043 14.2117 14.2117 16.0044 11.9999 16.0044C9.78825 16.0044 7.99561 14.2117 7.99561 12C7.99561 9.78831 9.78825 7.99567 11.9999 7.99567C14.2117 7.99567 16.0043 9.78831 16.0043 12Z" fill="#F0F0F0"/>
<path d="M13.4669 12.2042L12 11.5685C12 11.5685 12.3432 10.4293 12.3615 10.3514C12.3748 10.2944 12.382 10.235 12.382 10.174C12.382 9.95788 12.2943 9.76222 12.1527 9.62066L12.5216 9.25175C12.2856 9.01574 11.9595 8.86972 11.5993 8.86972C11.2391 8.86972 10.913 9.01569 10.677 9.25175L11.0459 9.62066C10.9042 9.76227 10.8167 9.95792 10.8167 10.174C10.8167 10.253 10.8286 10.3292 10.8504 10.4012L10.295 10.9565H11.3045C11.3045 10.9565 10.8871 11.5835 10.6592 12.0983C10.4314 12.6131 10.6624 13.2415 11.189 13.4756L11.4935 13.6109L12 14.087V14.6087L11.4782 15.1304H12.5217V14.087L12.9978 13.6108H13.9826C13.9873 13.601 13.9923 13.5915 13.9968 13.5815C14.2308 13.0549 13.9936 12.4382 13.4669 12.2042Z" fill="#222222"/>
</g>
<defs>
<clipPath id="clip0_14938_103147">
<rect width="24" height="24" fill="white"/>
</clipPath>
</defs>
</svg>
