<svg width="40" height="42" viewBox="0 0 40 42" fill="none" xmlns="http://www.w3.org/2000/svg">
<path d="M20 28C20.1978 28 20.3911 27.9414 20.5556 27.8315C20.72 27.7216 20.8482 27.5654 20.9239 27.3827C20.9996 27.2 21.0194 26.9989 20.9808 26.8049C20.9422 26.6109 20.847 26.4327 20.7071 26.2929C20.5673 26.153 20.3891 26.0578 20.1951 26.0192C20.0011 25.9806 19.8 26.0004 19.6173 26.0761C19.4346 26.1518 19.2784 26.28 19.1685 26.4444C19.0586 26.6089 19 26.8022 19 27C19 27.2652 19.1054 27.5196 19.2929 27.7071C19.4804 27.8946 19.7348 28 20 28ZM25 28C25.1978 28 25.3911 27.9414 25.5556 27.8315C25.72 27.7216 25.8482 27.5654 25.9239 27.3827C25.9996 27.2 26.0194 26.9989 25.9808 26.8049C25.9422 26.6109 25.847 26.4327 25.7071 26.2929C25.5673 26.153 25.3891 26.0578 25.1951 26.0192C25.0011 25.9806 24.8 26.0004 24.6173 26.0761C24.4346 26.1518 24.2784 26.28 24.1685 26.4444C24.0586 26.6089 24 26.8022 24 27C24 27.2652 24.1054 27.5196 24.2929 27.7071C24.4804 27.8946 24.7348 28 25 28ZM25 24C25.1978 24 25.3911 23.9414 25.5556 23.8315C25.72 23.7216 25.8482 23.5654 25.9239 23.3827C25.9996 23.2 26.0194 22.9989 25.9808 22.8049C25.9422 22.6109 25.847 22.4327 25.7071 22.2929C25.5673 22.153 25.3891 22.0578 25.1951 22.0192C25.0011 21.9806 24.8 22.0004 24.6173 22.0761C24.4346 22.1518 24.2784 22.28 24.1685 22.4444C24.0586 22.6089 24 22.8022 24 23C24 23.2652 24.1054 23.5196 24.2929 23.7071C24.4804 23.8946 24.7348 24 25 24ZM20 24C20.1978 24 20.3911 23.9414 20.5556 23.8315C20.72 23.7216 20.8482 23.5654 20.9239 23.3827C20.9996 23.2 21.0194 22.9989 20.9808 22.8049C20.9422 22.6109 20.847 22.4327 20.7071 22.2929C20.5673 22.153 20.3891 22.0578 20.1951 22.0192C20.0011 21.9806 19.8 22.0004 19.6173 22.0761C19.4346 22.1518 19.2784 22.28 19.1685 22.4444C19.0586 22.6089 19 22.8022 19 23C19 23.2652 19.1054 23.5196 19.2929 23.7071C19.4804 23.8946 19.7348 24 20 24ZM27 12H26V11C26 10.7348 25.8946 10.4804 25.7071 10.2929C25.5196 10.1054 25.2652 10 25 10C24.7348 10 24.4804 10.1054 24.2929 10.2929C24.1054 10.4804 24 10.7348 24 11V12H16V11C16 10.7348 15.8946 10.4804 15.7071 10.2929C15.5196 10.1054 15.2652 10 15 10C14.7348 10 14.4804 10.1054 14.2929 10.2929C14.1054 10.4804 14 10.7348 14 11V12H13C12.2044 12 11.4413 12.3161 10.8787 12.8787C10.3161 13.4413 10 14.2044 10 15V29C10 29.7956 10.3161 30.5587 10.8787 31.1213C11.4413 31.6839 12.2044 32 13 32H27C27.7956 32 28.5587 31.6839 29.1213 31.1213C29.6839 30.5587 30 29.7956 30 29V15C30 14.2044 29.6839 13.4413 29.1213 12.8787C28.5587 12.3161 27.7956 12 27 12ZM28 29C28 29.2652 27.8946 29.5196 27.7071 29.7071C27.5196 29.8946 27.2652 30 27 30H13C12.7348 30 12.4804 29.8946 12.2929 29.7071C12.1054 29.5196 12 29.2652 12 29V20H28V29ZM28 18H12V15C12 14.7348 12.1054 14.4804 12.2929 14.2929C12.4804 14.1054 12.7348 14 13 14H14V15C14 15.2652 14.1054 15.5196 14.2929 15.7071C14.4804 15.8946 14.7348 16 15 16C15.2652 16 15.5196 15.8946 15.7071 15.7071C15.8946 15.5196 16 15.2652 16 15V14H24V15C24 15.2652 24.1054 15.5196 24.2929 15.7071C24.4804 15.8946 24.7348 16 25 16C25.2652 16 25.5196 15.8946 25.7071 15.7071C25.8946 15.5196 26 15.2652 26 15V14H27C27.2652 14 27.5196 14.1054 27.7071 14.2929C27.8946 14.4804 28 14.7348 28 15V18ZM15 24C15.1978 24 15.3911 23.9414 15.5556 23.8315C15.72 23.7216 15.8482 23.5654 15.9239 23.3827C15.9996 23.2 16.0194 22.9989 15.9808 22.8049C15.9422 22.6109 15.847 22.4327 15.7071 22.2929C15.5673 22.153 15.3891 22.0578 15.1951 22.0192C15.0011 21.9806 14.8 22.0004 14.6173 22.0761C14.4346 22.1518 14.2784 22.28 14.1685 22.4444C14.0586 22.6089 14 22.8022 14 23C14 23.2652 14.1054 23.5196 14.2929 23.7071C14.4804 23.8946 14.7348 24 15 24ZM15 28C15.1978 28 15.3911 27.9414 15.5556 27.8315C15.72 27.7216 15.8482 27.5654 15.9239 27.3827C15.9996 27.2 16.0194 26.9989 15.9808 26.8049C15.9422 26.6109 15.847 26.4327 15.7071 26.2929C15.5673 26.153 15.3891 26.0578 15.1951 26.0192C15.0011 25.9806 14.8 26.0004 14.6173 26.0761C14.4346 26.1518 14.2784 26.28 14.1685 26.4444C14.0586 26.6089 14 26.8022 14 27C14 27.2652 14.1054 27.5196 14.2929 27.7071C14.4804 27.8946 14.7348 28 15 28Z" fill="#0898A0"/>
</svg>
