<svg width="24" height="24" viewBox="0 0 24 24" fill="none" xmlns="http://www.w3.org/2000/svg">
<g clip-path="url(#clip0_15527_8017)">
<path d="M12 23.9999C18.6274 23.9999 24 18.6273 24 11.9999C24 5.37249 18.6274 -9.15527e-05 12 -9.15527e-05C5.37258 -9.15527e-05 0 5.37249 0 11.9999C0 18.6273 5.37258 23.9999 12 23.9999Z" fill="#F0F0F0"/>
<path d="M11.4775 12H23.9993C23.9993 10.9169 23.8549 9.86768 23.5859 8.86957H11.4775V12Z" fill="#F34040"/>
<path d="M11.4775 5.73916H22.238C21.5034 4.54047 20.5642 3.48095 19.4691 2.6087H11.4775V5.73916Z" fill="#F34040"/>
<path d="M12.0001 24C14.8243 24 17.4201 23.0239 19.4699 21.3914H4.53027C6.58012 23.0239 9.17591 24 12.0001 24Z" fill="#F34040"/>
<path d="M1.76098 18.2609H22.2384C22.8281 17.2986 23.2855 16.2467 23.5863 15.1304H0.413086C0.713883 16.2467 1.17124 17.2986 1.76098 18.2609Z" fill="#F34040"/>
<path d="M5.55863 1.87388H6.65217L5.63498 2.61286L6.02353 3.8086L5.00639 3.06961L3.98925 3.8086L4.32487 2.77561C3.42928 3.52163 2.64431 4.39566 1.99744 5.36953H2.34783L1.70034 5.83992C1.59947 6.00821 1.50272 6.17916 1.41 6.35264L1.71919 7.30425L1.14234 6.88514C0.998953 7.18894 0.867797 7.49958 0.749906 7.81669L1.09055 8.86519H2.34783L1.33064 9.60417L1.71919 10.7999L0.702047 10.0609L0.0927656 10.5036C0.0317812 10.9938 0 11.4931 0 11.9999H12C12 5.37253 12 4.59122 12 -9.15527e-05C9.62944 -9.15527e-05 7.41961 0.687565 5.55863 1.87388ZM6.02353 10.7999L5.00639 10.0609L3.98925 10.7999L4.3778 9.60417L3.36061 8.86519H4.61789L5.00639 7.66946L5.39489 8.86519H6.65217L5.63498 9.60417L6.02353 10.7999ZM5.63498 6.10852L6.02353 7.30425L5.00639 6.56527L3.98925 7.30425L4.3778 6.10852L3.36061 5.36953H4.61789L5.00639 4.1738L5.39489 5.36953H6.65217L5.63498 6.10852ZM10.3279 10.7999L9.31073 10.0609L8.29359 10.7999L8.68214 9.60417L7.66495 8.86519H8.92223L9.31073 7.66946L9.69923 8.86519H10.9565L9.93933 9.60417L10.3279 10.7999ZM9.93933 6.10852L10.3279 7.30425L9.31073 6.56527L8.29359 7.30425L8.68214 6.10852L7.66495 5.36953H8.92223L9.31073 4.1738L9.69923 5.36953H10.9565L9.93933 6.10852ZM9.93933 2.61286L10.3279 3.8086L9.31073 3.06961L8.29359 3.8086L8.68214 2.61286L7.66495 1.87388H8.92223L9.31073 0.678143L9.69923 1.87388H10.9565L9.93933 2.61286Z" fill="#0052B4"/>
</g>
<defs>
<clipPath id="clip0_15527_8017">
<rect width="24" height="24" fill="white"/>
</clipPath>
</defs>
</svg>
