<svg width="78" height="78" viewBox="0 0 78 78" fill="none" xmlns="http://www.w3.org/2000/svg">
<g clip-path="url(#clip0_20610_148192)">
<path d="M39.0034 75.0001C58.8857 75.0001 75.0034 58.8824 75.0034 39.0001C75.0034 19.1179 58.8857 3.00011 39.0034 3.00011C19.1212 3.00011 3.00342 19.1179 3.00342 39.0001C3.00342 58.8824 19.1212 75.0001 39.0034 75.0001Z" fill="#F0F0F0"/>
<path d="M10.4424 17.0828C7.6146 20.762 5.4823 25.0025 4.24072 29.6092H22.9689L10.4424 17.0828Z" fill="#0052B4"/>
<path d="M73.7596 29.6093C72.518 25.0027 70.3856 20.7622 67.5579 17.083L55.0317 29.6093H73.7596Z" fill="#0052B4"/>
<path d="M4.24072 48.3918C5.48244 52.9984 7.61474 57.2389 10.4424 60.918L22.9685 48.3918H4.24072Z" fill="#0052B4"/>
<path d="M60.9169 10.4422C57.2378 7.61442 52.9974 5.48212 48.3906 4.2404V22.9684L60.9169 10.4422Z" fill="#0052B4"/>
<path d="M17.082 67.5583C20.7612 70.3861 25.0017 72.5184 29.6083 73.7601V55.0323L17.082 67.5583Z" fill="#0052B4"/>
<path d="M29.6082 4.2404C25.0016 5.48212 20.7611 7.61442 17.082 10.4421L29.6082 22.9683V4.2404Z" fill="#0052B4"/>
<path d="M48.3906 73.7601C52.9972 72.5184 57.2378 70.3861 60.9168 67.5584L48.3906 55.0323V73.7601Z" fill="#0052B4"/>
<path d="M55.0317 48.3918L67.5579 60.9181C70.3856 57.2391 72.518 52.9984 73.7596 48.3918H55.0317Z" fill="#0052B4"/>
<path d="M74.6987 34.3045H43.6993H43.6992V3.30484C42.162 3.10473 40.5949 3.00011 39.0034 3.00011C37.4117 3.00011 35.8448 3.10473 34.3078 3.30484V34.3042V34.3044H3.30815C3.10804 35.8415 3.00342 37.4086 3.00342 39.0001C3.00342 40.5918 3.10804 42.1587 3.30815 43.6957H34.3075H34.3077V74.6954C35.8448 74.8955 37.4117 75.0001 39.0034 75.0001C40.5949 75.0001 42.162 74.8956 43.699 74.6954V43.696V43.6959H74.6987C74.8988 42.1587 75.0034 40.5918 75.0034 39.0001C75.0034 37.4086 74.8988 35.8415 74.6987 34.3045Z" fill="#D80027"/>
<path d="M48.394 48.3916L64.4585 64.4561C65.1973 63.7175 65.9021 62.9453 66.5746 62.1449L52.8212 48.3915H48.394V48.3916Z" fill="#D80027"/>
<path d="M29.609 48.3915H29.6087L13.5444 64.4558C14.283 65.1946 15.0552 65.8994 15.8556 66.5719L29.609 52.8182V48.3915Z" fill="#D80027"/>
<path d="M29.6093 29.609V29.6087L13.5448 13.5441C12.806 14.2827 12.1012 15.0548 11.4287 15.8553L25.1823 29.6088H29.6093V29.609Z" fill="#D80027"/>
<path d="M48.394 29.609L64.4586 13.5443C63.7201 12.8054 62.9479 12.1006 62.1474 11.4283L48.394 25.1818V29.609Z" fill="#D80027"/>
</g>
<rect x="1.5" y="1.5" width="75" height="75" rx="37.5" stroke="white" stroke-width="3"/>
<defs>
<clipPath id="clip0_20610_148192">
<rect x="3" y="3" width="72" height="72" rx="36" fill="white"/>
</clipPath>
</defs>
</svg>
