<svg width="42" height="42" viewBox="0 0 42 42" fill="none" xmlns="http://www.w3.org/2000/svg">
<path d="M0 21C0 9.40202 9.40202 0 21 0C32.598 0 42 9.40202 42 21C42 32.598 32.598 42 21 42C9.40202 42 0 32.598 0 21Z" fill="#E6F5F6"/>
<path d="M25.7917 13.5C27.2874 13.5 28.5 14.7126 28.5 16.2083V25.7917C28.5 27.2874 27.2874 28.5 25.7917 28.5H16.2083C14.7126 28.5 13.5 27.2874 13.5 25.7917V16.2083C13.5 14.7126 14.7126 13.5 16.2083 13.5H25.7917ZM26.2754 27.1678L21.4372 22.429C21.2163 22.2127 20.8751 22.193 20.6323 22.37L20.5627 22.429L15.7237 27.1675C15.8753 27.2209 16.0384 27.25 16.2083 27.25H25.7917C25.9612 27.25 26.1241 27.2211 26.2754 27.1678L21.4372 22.429L26.2754 27.1678ZM25.7917 14.75H16.2083C15.4029 14.75 14.75 15.4029 14.75 16.2083V25.7917C14.75 25.9653 14.7804 26.1319 14.8361 26.2864L19.6882 21.5358C20.3824 20.8561 21.4729 20.8238 22.2048 21.4388L22.3118 21.5359L27.1636 26.2872C27.2195 26.1325 27.25 25.9656 27.25 25.7917V16.2083C27.25 15.4029 26.5971 14.75 25.7917 14.75ZM23.7101 16.4167C24.7466 16.4167 25.5869 17.2569 25.5869 18.2934C25.5869 19.3299 24.7466 20.1702 23.7101 20.1702C22.6736 20.1702 21.8333 19.3299 21.8333 18.2934C21.8333 17.2569 22.6736 16.4167 23.7101 16.4167ZM23.7101 17.6667C23.3639 17.6667 23.0833 17.9473 23.0833 18.2934C23.0833 18.6396 23.3639 18.9202 23.7101 18.9202C24.0562 18.9202 24.3369 18.6396 24.3369 18.2934C24.3369 17.9473 24.0562 17.6667 23.7101 17.6667Z" fill="#0898A0"/>
</svg>
