<svg width="43" height="42" viewBox="0 0 43 42" fill="none" xmlns="http://www.w3.org/2000/svg">
<path d="M21.9941 42C33.6317 42 42.9941 32.6376 42.9941 21C42.9941 9.36243 33.6317 0 21.9941 0C10.3566 0 0.994141 9.36243 0.994141 21C0.994141 32.6376 10.3566 42 21.9941 42Z" fill="#2775CA"/>
<path d="M27.7691 24.3248C27.7691 21.2624 25.9316 20.2124 22.2566 19.775C19.6316 19.4249 19.1066 18.725 19.1066 17.4998C19.1066 16.2747 19.9817 15.4874 21.7316 15.4874C23.3066 15.4874 24.1817 16.0124 24.6191 17.3249C24.7067 17.5874 24.9692 17.7623 25.2317 17.7623H26.6315C26.9816 17.7623 27.2441 17.4998 27.2441 17.15V17.0624C26.894 15.1373 25.319 13.6499 23.3066 13.4749V11.3749C23.3066 11.0249 23.0441 10.7624 22.6067 10.6748H21.2942C20.9441 10.6748 20.6816 10.9373 20.594 11.3749V13.3874C17.969 13.7374 16.3067 15.4874 16.3067 17.675C16.3067 20.5625 18.0566 21.6998 21.7316 22.1375C24.1817 22.5749 24.9692 23.0999 24.9692 24.5C24.9692 25.9 23.744 26.8625 22.0817 26.8625C19.8065 26.8625 19.019 25.8998 18.7565 24.5873C18.6692 24.2375 18.4067 24.0623 18.1442 24.0623H16.6565C16.3067 24.0623 16.0442 24.3248 16.0442 24.6749V24.7625C16.394 26.9498 17.7941 28.5248 20.6816 28.9625V31.0625C20.6816 31.4123 20.9441 31.6748 21.3815 31.7624H22.694C23.0441 31.7624 23.3066 31.4999 23.3942 31.0625V28.9625C26.0191 28.5248 27.7691 26.6873 27.7691 24.3248Z" fill="white"/>
<path d="M17.5318 33.5124C10.7068 31.0626 7.20669 23.45 9.74433 16.7124C11.0568 13.0374 13.9443 10.2374 17.5318 8.92494C17.8818 8.75001 18.0568 8.48751 18.0568 8.04986V6.82493C18.0568 6.47486 17.8818 6.21236 17.5318 6.125C17.4442 6.125 17.2693 6.125 17.1817 6.21236C8.86926 8.83737 4.31919 17.675 6.94419 25.9875C8.51919 30.8874 12.2818 34.65 17.1817 36.225C17.5318 36.3999 17.8818 36.225 17.9692 35.8749C18.0568 35.7876 18.0568 35.7 18.0568 35.5251V34.2999C18.0568 34.0374 17.7943 33.6876 17.5318 33.5124ZM26.8068 6.21236C26.4568 6.03743 26.1067 6.21236 26.0193 6.56243C25.9318 6.65 25.9318 6.73736 25.9318 6.9125V8.13743C25.9318 8.48751 26.1943 8.83737 26.4568 9.01251C33.2818 11.4624 36.7818 19.0749 34.2442 25.8125C32.9317 29.4876 30.0442 32.2875 26.4568 33.6C26.1067 33.7749 25.9318 34.0374 25.9318 34.4751V35.7C25.9318 36.0501 26.1067 36.3126 26.4568 36.3999C26.5443 36.3999 26.7193 36.3999 26.8068 36.3126C35.1193 33.6876 39.6693 24.8499 37.0443 16.5375C35.4693 11.5499 31.6192 7.78736 26.8068 6.21236Z" fill="white"/>
</svg>
