<svg width="42" height="42" viewBox="0 0 42 42" fill="none" xmlns="http://www.w3.org/2000/svg">
<rect width="42" height="42" rx="21" fill="#71879C" fill-opacity="0.1"/>
<path d="M21.5043 20.9594C23.5478 20.9594 25.2135 19.1391 25.2135 16.9239C25.2135 14.7258 23.5564 13 21.5043 13C19.4694 13 17.7951 14.7602 17.7951 16.941C17.8037 19.1477 19.4608 20.9594 21.5043 20.9594ZM21.5043 19.6629C20.2507 19.6629 19.1774 18.4608 19.1774 16.941C19.1774 15.4471 20.2335 14.2965 21.5043 14.2965C22.7836 14.2965 23.8311 15.4299 23.8311 16.9239C23.8311 18.4436 22.7665 19.6629 21.5043 19.6629ZM16.1036 28.9015H26.8964C28.3217 28.9015 29 28.4722 29 27.5278C29 25.2782 26.158 22.024 21.5043 22.024C16.842 22.024 14 25.2782 14 27.5278C14 28.4722 14.6783 28.9015 16.1036 28.9015ZM15.7001 27.605C15.4768 27.605 15.3824 27.5449 15.3824 27.3646C15.3824 25.9565 17.5633 23.3205 21.5043 23.3205C25.4367 23.3205 27.6176 25.9565 27.6176 27.3646C27.6176 27.5449 27.5318 27.605 27.3085 27.605H15.7001Z" fill="#0898A0"/>
</svg>
