<svg width="42" height="42" viewBox="0 0 42 42" fill="none" xmlns="http://www.w3.org/2000/svg">
<circle cx="21" cy="21" r="21" fill="#03435F"/>
<path fill-rule="evenodd" clip-rule="evenodd" d="M16.1003 20.9995C16.1003 24.0371 13.6379 26.4995 10.6003 26.4995C7.56259 26.4995 5.1001 24.0371 5.1001 20.9995C5.1001 17.9619 7.56259 15.4995 10.6003 15.4995C13.6379 15.4995 16.1003 17.9619 16.1003 20.9995Z" fill="#ED342B"/>
<path fill-rule="evenodd" clip-rule="evenodd" d="M10.6003 23.3549C9.37003 20.5663 8.46799 17.9612 8.46799 17.9612H6.58203C6.58203 17.9612 7.72991 21.3049 9.86213 25.4863H11.3384C13.4706 21.3049 14.6184 17.9612 14.6184 17.9612H12.7325C12.7325 17.9612 11.8305 20.5663 10.6003 23.3549Z" fill="#FEFEFE"/>
<path fill-rule="evenodd" clip-rule="evenodd" d="M34.2867 20.7128C33.2205 20.7128 33.1387 21.8609 33.1387 21.8609H35.4345C35.4345 21.8609 35.3526 20.7128 34.2867 20.7128ZM36.8286 23.0088H33.1387C33.1387 23.0088 33.2205 24.239 34.8607 24.239C35.6806 24.239 36.5006 23.9927 36.5006 23.9927L36.6647 25.3047C36.6647 25.3047 35.8447 25.6329 34.6966 25.6329C33.0566 25.6329 31.5806 24.8128 31.5806 22.5168C31.5806 20.7128 32.7287 19.5648 34.3687 19.5648C36.8286 19.5648 36.9925 22.0248 36.8286 23.0088ZM24.2813 21.0713L24.5353 19.7173C24.5353 19.7173 22.5747 19.1224 20.9811 20.2249V25.6406H22.6735V21.2403C23.3504 20.7328 24.2813 21.0713 24.2813 21.0713ZM17.2271 20.7128C16.1612 20.7128 16.0792 21.8609 16.0792 21.8609H18.3751C18.3751 21.8609 18.2933 20.7128 17.2271 20.7128ZM19.7691 23.0088H16.0792C16.0792 23.0088 16.1612 24.239 17.8012 24.239C18.621 24.239 19.4411 23.9927 19.4411 23.9927L19.6052 25.3047C19.6052 25.3047 18.7851 25.6329 17.6371 25.6329C15.9971 25.6329 14.521 24.8128 14.521 22.5168C14.521 20.7128 15.6691 19.5648 17.3091 19.5648C19.7691 19.5648 19.933 22.0248 19.7691 23.0088ZM28.4114 23.5708C27.5521 21.5082 27.1226 19.5658 27.1226 19.5658L25.4042 19.566C25.4042 19.566 26.2635 22.8832 27.7243 25.6319H29.0985C30.5594 22.8832 31.4187 19.5665 31.4187 19.5665H29.7002C29.7002 19.5665 29.2707 21.5082 28.4114 23.5708Z" fill="white"/>
</svg>
