<svg width="42" height="42" viewBox="0 0 42 42" fill="none" xmlns="http://www.w3.org/2000/svg">
<circle cx="21" cy="21" r="21" fill="#172274"/>
<path fill-rule="evenodd" clip-rule="evenodd" d="M16.0652 24.7888L18.4063 17.0693H20.4953L18.1539 24.7888H16.0652Z" fill="white"/>
<path fill-rule="evenodd" clip-rule="evenodd" d="M15.131 17.0723L13.2519 20.3445C12.7735 21.2017 12.4939 21.6346 12.3595 22.1761H12.3308C12.3641 21.4896 12.2684 20.6466 12.2595 20.1702L12.0518 17.0723H8.53561L8.49951 17.2799C9.40277 17.2799 9.93848 17.7337 10.0858 18.6622L10.7712 24.7896H12.9353L17.3112 17.0723H15.131Z" fill="white"/>
<path fill-rule="evenodd" clip-rule="evenodd" d="M31.3745 24.7888L31.317 23.6408L28.7087 23.6386L28.1751 24.7888H25.9072L30.0194 17.084H32.8031L33.4995 24.7888H31.3745ZM31.135 20.2352C31.1117 19.6649 31.0923 18.8905 31.1312 18.4219H31.1004C30.9732 18.8051 30.4271 19.9558 30.187 20.5218L29.4098 22.2139H31.2412L31.135 20.2352Z" fill="white"/>
<path fill-rule="evenodd" clip-rule="evenodd" d="M22.6875 25.008C21.2126 25.008 20.234 24.5402 19.5354 24.1232L20.5304 22.6035C21.1576 22.9545 21.6502 23.3592 22.7834 23.3592C23.1478 23.3592 23.4988 23.2645 23.6984 22.9193C23.9888 22.4171 23.6313 22.147 22.8153 21.685L22.4125 21.423C21.2026 20.5964 20.6794 19.8114 21.2489 18.441C21.6133 17.5643 22.5743 16.8999 24.1598 16.8999C25.253 16.8999 26.2782 17.3728 26.8757 17.835L25.7316 19.1765C25.1486 18.7051 24.6657 18.4667 24.1126 18.4667C23.6718 18.4667 23.3368 18.6368 23.2212 18.8661C23.0036 19.2971 23.2915 19.591 23.9272 19.9855L24.4065 20.2904C25.8752 21.2168 26.2251 22.188 25.8569 23.0959C25.2237 24.6591 23.9842 25.008 22.6875 25.008Z" fill="white"/>
</svg>
