<svg width="42" height="42" viewBox="0 0 42 42" fill="none" xmlns="http://www.w3.org/2000/svg">
<rect width="42" height="42" rx="21" fill="#71879C" fill-opacity="0.1"/>
<g clip-path="url(#clip0_26205_445)">
<path d="M11.6888 15.7716V16.746H30.3112V15.7716H11.6888ZM13.5175 28.9945H28.4799C30.1542 28.9945 31 28.1175 31 26.4183V15.5824C31 13.8831 30.1542 13 28.4799 13H13.5175C11.8517 13 11 13.8749 11 15.5824V26.4183C11 28.1257 11.8517 28.9945 13.5175 28.9945ZM13.5372 27.9037C12.5746 27.9037 12.0573 27.3779 12.0573 26.3579V15.6427C12.0573 14.6227 12.5746 14.0936 13.5372 14.0936H28.4629C29.4063 14.0936 29.9427 14.6227 29.9427 15.6427V26.3579C29.9427 27.3779 29.4063 27.9037 28.4629 27.9037H13.5372ZM21.0059 25.6572C21.2911 25.6572 21.527 25.4132 21.527 25.127V21.9381L21.4864 20.3006L22.5994 21.4818L23.6434 22.5672C23.7424 22.6696 23.8677 22.73 24.004 22.73C24.2944 22.73 24.4984 22.5312 24.4984 22.2397C24.4984 22.0638 24.4188 21.9411 24.2863 21.8222L21.3901 18.9606C21.2557 18.8277 21.1423 18.7768 21.0059 18.7768C20.8662 18.7768 20.7614 18.825 20.6244 18.9606L17.7223 21.8222C17.5956 21.9411 17.5161 22.0638 17.5161 22.2397C17.5161 22.5312 17.7141 22.73 17.9987 22.73C18.135 22.73 18.2661 22.6696 18.371 22.5672L19.415 21.4818L20.5281 20.3006L20.4815 21.9381V25.127C20.4815 25.4132 20.7234 25.6572 21.0059 25.6572Z" fill="#0898A0"/>
</g>
<defs>
<clipPath id="clip0_26205_445">
<rect width="20" height="16" fill="white" transform="translate(11 13)"/>
</clipPath>
</defs>
</svg>
