<svg width="32" height="32" viewBox="0 0 32 32" fill="none" xmlns="http://www.w3.org/2000/svg">
<path d="M24 12V8C24 6.89543 23.1046 6 22 6H6C4.89543 6 4 6.89543 4 8V24C4 25.1046 4.89543 26 6 26H22C23.1046 26 24 25.1046 24 24V22" stroke="#171C22" stroke-width="1.4"/>
<path fill-rule="evenodd" clip-rule="evenodd" d="M26 11H4V24C4 25.1046 4.89543 26 6 26H26C27.1046 26 28 25.1046 28 24V13C28 11.8954 27.1046 11 26 11ZM23 21C24.6569 21 26 19.6569 26 18C26 16.3431 24.6569 15 23 15C21.3431 15 20 16.3431 20 18C20 19.6569 21.3431 21 23 21Z" fill="#171C22"/>
<path d="M4 11V10.3H3.3V11H4ZM4 11.7H26V10.3H4V11.7ZM4.7 24V11H3.3V24H4.7ZM6 25.3C5.28203 25.3 4.7 24.718 4.7 24H3.3C3.3 25.4912 4.50883 26.7 6 26.7V25.3ZM26 25.3H6V26.7H26V25.3ZM27.3 24C27.3 24.718 26.718 25.3 26 25.3V26.7C27.4912 26.7 28.7 25.4912 28.7 24H27.3ZM27.3 13V24H28.7V13H27.3ZM26 11.7C26.718 11.7 27.3 12.282 27.3 13H28.7C28.7 11.5088 27.4912 10.3 26 10.3V11.7ZM25.3 18C25.3 19.2703 24.2703 20.3 23 20.3V21.7C25.0435 21.7 26.7 20.0435 26.7 18H25.3ZM23 15.7C24.2703 15.7 25.3 16.7297 25.3 18H26.7C26.7 15.9565 25.0435 14.3 23 14.3V15.7ZM20.7 18C20.7 16.7297 21.7297 15.7 23 15.7V14.3C20.9565 14.3 19.3 15.9565 19.3 18H20.7ZM23 20.3C21.7297 20.3 20.7 19.2703 20.7 18H19.3C19.3 20.0435 20.9565 21.7 23 21.7V20.3Z" fill="#171C22"/>
</svg>
