<svg width="31" height="26" viewBox="0 0 31 26" fill="none" xmlns="http://www.w3.org/2000/svg">
<path fill-rule="evenodd" clip-rule="evenodd" d="M29.5867 10.4087V18.3391H20.9274C19.4671 18.3391 18.1357 17.1511 18.1357 15.5474V13.2004C18.1357 11.717 19.4441 10.4087 20.9274 10.4087H29.5867ZM30.2619 7.03949C30.2619 5.60253 29.0413 4.35487 27.4795 4.35487H3.22713C2.78236 4.35487 2.39455 4.18075 2.12539 3.87794C1.86831 3.58872 1.7556 3.22397 1.7556 2.88334C1.7556 2.54271 1.86831 2.17796 2.12539 1.88874C2.39455 1.58593 2.78236 1.41181 3.22713 1.41181H25.4502C25.1194 1.22891 24.7421 1.12774 24.3502 1.12774H3.12934C1.77672 1.12774 0.738095 2.16637 0.738095 3.51899V21.7083C0.738095 23.1587 1.97231 24.3929 3.42271 24.3929H27.4795C29.0413 24.3929 30.2619 23.1452 30.2619 21.7083V7.03949ZM26.6111 1.41181C26.0475 0.771035 25.2261 0.389648 24.3502 0.389648H3.12934C1.36908 0.389648 0 1.75873 0 3.51899V21.7083C0 23.5663 1.56467 25.131 3.42271 25.131H27.4795C29.4353 25.131 31 23.5663 31 21.7083V7.03949C31 5.18145 29.4353 3.61678 27.4795 3.61678H3.22713C2.24921 3.61678 2.24921 2.1499 3.22713 2.1499H27.0883C26.9643 1.87712 26.8026 1.62949 26.6111 1.41181ZM20.9274 11.1467C19.8517 11.1467 18.8738 12.1247 18.8738 13.2004V15.5474C18.8738 16.7209 19.8517 17.601 20.9274 17.601H28.8486V11.1467H20.9274Z" fill="#0898A0"/>
<path fill-rule="evenodd" clip-rule="evenodd" d="M26.6436 14.374C26.6436 13.9308 26.2216 13.5474 25.817 13.5474C25.2854 13.5474 24.8926 13.9582 24.8926 14.374C24.8926 14.7897 25.2854 15.2006 25.817 15.2006C26.2216 15.2006 26.6436 14.8172 26.6436 14.374ZM27.3817 14.374C27.3817 13.4939 26.5993 12.8093 25.817 12.8093C24.9369 12.8093 24.1545 13.4939 24.1545 14.374C24.1545 15.2541 24.9369 15.9387 25.817 15.9387C26.5993 15.9387 27.3817 15.2541 27.3817 14.374Z" fill="#0898A0"/>
</svg>
