<svg width="72" height="72" viewBox="0 0 72 72" fill="none" xmlns="http://www.w3.org/2000/svg">
<rect width="72" height="72" rx="36" fill="#EB5757" fill-opacity="0.1"/>
<path d="M33.8938 23.5742C35.0446 21.5546 37.9559 21.5546 39.1068 23.5742L51.5873 45.4763C52.7269 47.4762 51.2826 49.9615 48.9808 49.9615H24.0198C21.7179 49.9615 20.2736 47.4762 21.4133 45.4763L33.8938 23.5742Z" fill="#F34040"/>
<path d="M35.6311 40.1144L35.3461 31.1152H38.1351L37.8297 40.1144H35.6311ZM36.7915 44.7182C36.3029 44.7182 35.9026 44.5701 35.5904 44.274C35.2919 43.9778 35.1426 43.6211 35.1426 43.2038C35.1426 42.773 35.2919 42.4096 35.5904 42.1134C35.9026 41.8173 36.3029 41.6692 36.7915 41.6692C37.2529 41.6692 37.6329 41.8173 37.9315 42.1134C38.2436 42.4096 38.3997 42.773 38.3997 43.2038C38.3997 43.6211 38.2436 43.9778 37.9315 44.274C37.6329 44.5701 37.2529 44.7182 36.7915 44.7182Z" fill="white"/>
</svg>
