<svg width="24" height="24" viewBox="0 0 24 24" fill="none" xmlns="http://www.w3.org/2000/svg">
<path d="M9.34342 5.06124C10.4672 2.92015 13.5324 2.92014 14.6562 5.06124L20.8364 16.8366C21.8848 18.8342 20.436 21.2308 18.18 21.2308H5.81956C3.56355 21.2308 2.11477 18.8342 3.16319 16.8366L9.34342 5.06124Z" fill="#F34040"/>
<path d="M11.4516 14.4785L11.2716 8.30768H13.0331L12.8402 14.4785H11.4516ZM12.1845 17.6354C11.8759 17.6354 11.6231 17.5339 11.4259 17.3308C11.2374 17.1277 11.1431 16.8831 11.1431 16.597C11.1431 16.3016 11.2374 16.0524 11.4259 15.8493C11.6231 15.6462 11.8759 15.5447 12.1845 15.5447C12.4759 15.5447 12.7159 15.6462 12.9045 15.8493C13.1016 16.0524 13.2002 16.3016 13.2002 16.597C13.2002 16.8831 13.1016 17.1277 12.9045 17.3308C12.7159 17.5339 12.4759 17.6354 12.1845 17.6354Z" fill="white"/>
</svg>
