<svg width="28" height="26" viewBox="0 0 28 26" fill="none" xmlns="http://www.w3.org/2000/svg">
<path d="M11.3883 4.62068C12.5367 2.58891 15.4633 2.58891 16.6117 4.62068L24.47 18.5238C25.6004 20.5237 24.1555 23 21.8583 23H6.1417C3.84448 23 2.39965 20.5237 3.53001 18.5238L11.3883 4.62068Z" fill="white"/>
<path d="M13.36 15.6851L13.15 9H15.205L14.98 15.6851H13.36ZM14.215 19.1051C13.855 19.1051 13.56 18.9951 13.33 18.7751C13.11 18.5551 13 18.2901 13 17.9801C13 17.6601 13.11 17.3901 13.33 17.1701C13.56 16.9501 13.855 16.8401 14.215 16.8401C14.555 16.8401 14.835 16.9501 15.055 17.1701C15.285 17.3901 15.4 17.6601 15.4 17.9801C15.4 18.2901 15.285 18.5551 15.055 18.7751C14.835 18.9951 14.555 19.1051 14.215 19.1051Z" fill="#F34040"/>
</svg>
