<svg width="42" height="42" viewBox="0 0 42 42" fill="none" xmlns="http://www.w3.org/2000/svg">
<path d="M0 21C0 9.40202 9.40202 0 21 0C32.598 0 42 9.40202 42 21C42 32.598 32.598 42 21 42C9.40202 42 0 32.598 0 21Z" fill="#E6F5F6"/>
<path d="M21 29.2232C21.2332 29.2232 21.4575 29.2052 21.6997 29.1783L22.1662 30.0754C22.2559 30.2638 22.4263 30.3445 22.6506 30.3176C22.8659 30.2817 22.9915 30.1472 23.0184 29.9229L23.1619 28.9271C23.6105 28.8105 24.05 28.6401 24.4717 28.4517L25.2073 29.1155C25.3598 29.268 25.5482 29.286 25.7545 29.1783C25.9339 29.0796 25.9967 28.9092 25.9608 28.6849L25.7545 27.7071C26.1313 27.447 26.4991 27.1509 26.822 26.8101L27.737 27.1958C27.9433 27.2855 28.1138 27.2406 28.2753 27.0523C28.4278 26.8998 28.4367 26.7114 28.3111 26.523L27.7819 25.6708C28.051 25.294 28.2753 24.8903 28.4726 24.4597L29.4773 24.5135C29.6926 24.5225 29.8541 24.4149 29.9259 24.2085C29.9976 24.0112 29.9348 23.8318 29.7644 23.6972L28.9839 23.0693C29.1006 22.6297 29.1903 22.1722 29.2262 21.6878L30.1681 21.3917C30.3834 21.32 30.5 21.1764 30.5 20.9522C30.5 20.7369 30.3834 20.5933 30.1681 20.5216L29.2262 20.2166C29.1903 19.7411 29.1006 19.2836 28.9839 18.844L29.7644 18.2161C29.9348 18.0905 29.9887 17.9201 29.9259 17.7137C29.8541 17.5074 29.6926 17.3998 29.4773 17.4087L28.4726 17.4446C28.2753 17.023 28.051 16.6193 27.7819 16.2425L28.3111 15.3813C28.4367 15.2109 28.4188 15.0225 28.2753 14.87C28.1138 14.6816 27.9433 14.6368 27.737 14.7265L26.822 15.0943C26.4991 14.7713 26.1313 14.4753 25.7545 14.2152L25.9608 13.2373C25.9967 13.0131 25.9339 12.8337 25.7545 12.744C25.5482 12.6273 25.3687 12.6453 25.2073 12.8068L24.4717 13.4616C24.05 13.2643 23.6105 13.1118 23.1619 12.9862L23.0184 11.9994C22.9915 11.7751 22.8569 11.6406 22.6506 11.6047C22.4263 11.5778 22.2559 11.6585 22.1662 11.8379L21.6997 12.735C21.4575 12.717 21.2332 12.6991 21 12.6991C20.7668 12.6991 20.5425 12.717 20.3003 12.735L19.8248 11.8379C19.7441 11.6585 19.5737 11.5778 19.3404 11.6047C19.1341 11.6406 19.0085 11.7751 18.9816 11.9994L18.8381 12.9862C18.3895 13.1118 17.95 13.2643 17.5194 13.4616L16.7838 12.8068C16.6223 12.6542 16.4429 12.6363 16.2455 12.744C16.0661 12.8337 15.9943 13.0131 16.0392 13.2373L16.2455 14.2152C15.8687 14.4753 15.5009 14.7713 15.169 15.0943L14.254 14.7265C14.0567 14.6368 13.8772 14.6816 13.7158 14.87C13.5722 15.0225 13.5633 15.2109 13.6799 15.3813L14.2181 16.2425C13.949 16.6193 13.7247 17.023 13.5274 17.4446L12.5137 17.4087C12.2984 17.3998 12.1369 17.5074 12.0741 17.7137C11.9934 17.9201 12.0472 18.0905 12.2266 18.2161L13.0161 18.844C12.8994 19.2836 12.8097 19.7411 12.7738 20.2166L11.8229 20.5216C11.6076 20.5933 11.5 20.7369 11.5 20.9522C11.5 21.1764 11.6076 21.32 11.8229 21.3917L12.7738 21.6967C12.8097 22.1722 12.8905 22.6297 13.0161 23.0693L12.2266 23.6972C12.0562 23.8228 12.0024 24.0022 12.0741 24.2085C12.1369 24.4149 12.2984 24.5225 12.5137 24.5135L13.5274 24.4597C13.7247 24.8903 13.949 25.294 14.2092 25.6708L13.6799 26.523C13.5543 26.7114 13.5722 26.8998 13.7158 27.0523C13.8772 27.2406 14.0567 27.2855 14.254 27.1958L15.169 26.8101C15.5009 27.1509 15.8687 27.447 16.2455 27.7071L16.0392 28.6849C15.9943 28.9092 16.0661 29.0796 16.2455 29.1783C16.4518 29.286 16.6313 29.268 16.7838 29.1155L17.5194 28.4517C17.95 28.6401 18.3895 28.8105 18.8381 28.9271L18.9816 29.9229C19.0085 30.1472 19.1341 30.2817 19.3494 30.3176C19.5737 30.3445 19.7441 30.2638 19.8248 30.0754L20.3003 29.1783C20.5335 29.2052 20.7668 29.2232 21 29.2232ZM23.0633 20.4767C22.7313 19.4541 21.9509 18.844 20.991 18.844C20.8206 18.844 20.6412 18.871 20.381 18.9427L17.8154 14.556C18.7663 14.0806 19.8428 13.8115 21 13.8115C24.8126 13.8115 27.8088 16.727 28.051 20.4767H23.0633ZM13.94 20.9611C13.94 18.5032 15.1152 16.3592 16.9452 15.0674L19.5288 19.472C19.0803 19.9205 18.847 20.4408 18.847 20.997C18.847 21.5532 19.0713 22.0556 19.5467 22.522L16.9183 26.828C15.0973 25.5362 13.94 23.4012 13.94 20.9611ZM19.8966 20.9881C19.8966 20.378 20.4169 19.9026 21 19.9026C21.61 19.9026 22.1124 20.378 22.1124 20.9881C22.1124 21.5981 21.61 22.0915 21 22.0915C20.4169 22.0915 19.8966 21.5981 19.8966 20.9881ZM21 28.1108C19.8338 28.1108 18.7394 27.8417 17.7795 27.3483L20.399 23.0603C20.6412 23.1231 20.8206 23.141 20.991 23.141C21.9599 23.141 22.7493 22.5131 23.0722 21.4635H28.042C27.7998 25.2043 24.8036 28.1108 21 28.1108Z" fill="#0898A0"/>
</svg>
