<svg width="9" height="15" viewBox="0 0 9 15" fill="none" xmlns="http://www.w3.org/2000/svg">
<path d="M1.57959 14.4268C1.79541 14.4268 1.97803 14.3438 2.11914 14.2026L8.70166 7.76953C8.85938 7.61182 8.94238 7.4209 8.94238 7.21338C8.94238 6.99756 8.85938 6.79834 8.70166 6.65723L2.12744 0.232422C1.97803 0.0830078 1.79541 0 1.57959 0C1.14795 0 0.824219 0.332031 0.824219 0.763672C0.824219 0.962891 0.907227 1.16211 1.04004 1.30322L7.08301 7.21338L1.04004 13.1235C0.907227 13.2646 0.824219 13.4556 0.824219 13.6631C0.824219 14.0947 1.14795 14.4268 1.57959 14.4268Z" fill="white"/>
</svg>
