<svg width="24" height="24" viewBox="0 0 24 24" fill="none" xmlns="http://www.w3.org/2000/svg">
<path d="M4.11404 10.1532L12.0004 5.49482L19.8867 10.1532C19.9641 10.1991 20.0493 10.2208 20.1334 10.2208C20.2997 10.2208 20.4617 10.1355 20.5524 9.98205C20.6891 9.75098 20.6123 9.45297 20.381 9.31634L12.2477 4.51185C12.0951 4.42199 11.9059 4.42199 11.7534 4.51185L3.61981 9.31634C3.38874 9.45297 3.31202 9.75098 3.44834 9.98205C3.58497 10.2131 3.88297 10.2898 4.11404 10.1532Z" fill="#222222"/>
<path d="M20.1341 18.5836H3.86684C3.59848 18.5836 3.38086 18.8012 3.38086 19.0695C3.38086 19.3379 3.59848 19.5555 3.86684 19.5555H20.1341C20.4024 19.5555 20.62 19.3379 20.62 19.0695C20.62 18.8009 20.4024 18.5836 20.1341 18.5836Z" fill="#222222"/>
<path d="M8.26621 10.9016C8.53457 10.9016 8.75219 10.684 8.75219 10.4157C8.75219 10.1473 8.53457 9.92969 8.26621 9.92969H6.63833C6.36997 9.92969 6.15234 10.1473 6.15234 10.4157C6.15234 10.684 6.36997 10.9016 6.63833 10.9016H6.96629V16.7609H6.63833C6.36997 16.7609 6.15234 16.9786 6.15234 17.2469C6.15234 17.5153 6.36997 17.7329 6.63833 17.7329H8.26621C8.53457 17.7329 8.75219 17.5153 8.75219 17.2469C8.75219 16.9786 8.53457 16.7609 8.26621 16.7609H7.93825V10.9016H8.26621Z" fill="#222222"/>
<path d="M12.8131 10.8954C13.0814 10.8954 13.2991 10.6777 13.2991 10.4094C13.2991 10.141 13.0814 9.9234 12.8131 9.9234H11.1852C10.9168 9.9234 10.6992 10.141 10.6992 10.4094C10.6992 10.6777 10.9168 10.8954 11.1852 10.8954H11.5132V16.7546H11.1852C10.9168 16.7546 10.6992 16.9723 10.6992 17.2406C10.6992 17.509 10.9168 17.7266 11.1852 17.7266H12.8131C13.0814 17.7266 13.2991 17.509 13.2991 17.2406C13.2991 16.9723 13.0814 16.7546 12.8131 16.7546H12.4851V10.8954H12.8131Z" fill="#222222"/>
<path d="M17.36 10.8886C17.6283 10.8886 17.8459 10.671 17.8459 10.4027C17.8459 10.1343 17.6283 9.91669 17.36 9.91669H15.7321C15.4637 9.91669 15.2461 10.1343 15.2461 10.4027C15.2461 10.671 15.4637 10.8886 15.7321 10.8886H16.06V16.7479H15.7321C15.4637 16.7479 15.2461 16.9656 15.2461 17.2339C15.2461 17.5023 15.4637 17.7199 15.7321 17.7199H17.36C17.6283 17.7199 17.8459 17.5023 17.8459 17.2339C17.8459 16.9656 17.6283 16.7479 17.36 16.7479H17.032V10.8886H17.36Z" fill="#222222"/>
</svg>
