<svg width="33" height="33" viewBox="0 0 33 33" fill="none" xmlns="http://www.w3.org/2000/svg">
<mask id="mask0" mask-type="alpha" maskUnits="userSpaceOnUse" x="0" y="0" width="33" height="33">
<circle cx="16.5" cy="16.5" r="16.5" fill="#E6F5F6"/>
</mask>
<g mask="url(#mask0)">
<rect width="33" height="33" fill="url(#paint0_radial)"/>
<path d="M7.73438 22.1983V16.4115H8.94931V17.5248H9.00434C9.16944 16.9364 9.67319 16.4115 10.596 16.4115H10.9178V17.5799H10.4394C9.4827 17.5799 8.94931 17.9016 8.94931 18.5027V22.1983H7.73438Z" fill="white"/>
<path d="M11.8867 14.7436V14.5531C11.8867 14.1848 12.1111 13.9181 12.6106 13.9181C13.1101 13.9181 13.3218 14.1848 13.3218 14.5531V14.7436C13.3218 15.1119 13.1101 15.3786 12.6106 15.3786C12.1111 15.3786 11.8867 15.1076 11.8867 14.7436ZM11.9968 16.4115H13.2117V22.1983H11.9968V16.4115Z" fill="white"/>
<path d="M14.4355 21.2416L15.2145 20.5304C15.6378 21.0427 16.1585 21.3559 16.8485 21.3559C17.5512 21.3559 17.9068 21.0681 17.9068 20.577C17.9068 20.2087 17.6824 19.9335 17.0813 19.8531L16.5479 19.7854C15.3669 19.6414 14.643 19.1292 14.643 18.0625C14.643 16.9364 15.5235 16.2803 16.7892 16.2803C17.8348 16.2803 18.4233 16.6232 18.9482 17.2031L18.2031 17.9143C17.9026 17.5587 17.4115 17.2581 16.7892 17.2581C16.1204 17.2581 15.8114 17.546 15.8114 17.982C15.8114 18.4265 16.0907 18.6255 16.7003 18.7271L17.2337 18.7948C18.5037 18.9853 19.0709 19.5399 19.0709 20.4754C19.0709 21.5887 18.1693 22.3338 16.7765 22.3338C15.6928 22.3296 14.9774 21.9189 14.4355 21.2416Z" fill="white"/>
<path d="M20.0527 19.3028C20.0527 17.4571 21.0645 16.276 22.7112 16.276C24.413 16.276 25.2808 17.5545 25.2808 19.1589V19.6161H21.31V19.8066C21.31 20.6955 21.8561 21.3305 22.834 21.3305C23.5452 21.3305 24.0235 20.9961 24.3579 20.4627L25.0691 21.1654C24.6331 21.8681 23.7907 22.3338 22.7112 22.3338C21.0645 22.3296 20.0527 21.1527 20.0527 19.3028ZM21.31 18.7355V18.8117H24.0023V18.7017C24.0023 17.8127 23.5113 17.22 22.7112 17.22C21.8773 17.2243 21.31 17.8466 21.31 18.7355Z" fill="white"/>
<path d="M15.9984 11.4205C18.3183 11.4205 20.456 12.2079 22.1663 13.5244C22.1959 13.5498 22.234 13.5625 22.2721 13.5625H22.6192C22.7801 13.5625 22.8605 13.3593 22.7378 13.2535C20.9513 11.6449 18.5892 10.667 15.9984 10.667C13.4077 10.667 11.0456 11.6449 9.2549 13.2535C9.13213 13.3636 9.21256 13.5625 9.37343 13.5625H9.72478C9.76288 13.5625 9.80098 13.5498 9.83062 13.5244C11.5408 12.2079 13.6786 11.4205 15.9984 11.4205Z" fill="white"/>
</g>
<defs>
<radialGradient id="paint0_radial" cx="0" cy="0" r="1" gradientUnits="userSpaceOnUse" gradientTransform="translate(16.5 27.602) rotate(1.10744) scale(21.6764 15.4471)">
<stop stop-color="#22D8E2"/>
<stop offset="1" stop-color="#0898A0"/>
</radialGradient>
</defs>
</svg>
